<svg width="23" height="22" viewBox="0 0 23 22" fill="none" xmlns="http://www.w3.org/2000/svg">
<g clip-path="url(#clip0_974_11255)">
<path d="M18.1911 3.66732H17.2744V2.75065C17.2744 2.24648 16.8619 1.83398 16.3577 1.83398C15.8536 1.83398 15.4411 2.24648 15.4411 2.75065V3.66732H8.10775V2.75065C8.10775 2.24648 7.69525 1.83398 7.19108 1.83398C6.68691 1.83398 6.27441 2.24648 6.27441 2.75065V3.66732H5.35775C4.34025 3.66732 3.53358 4.49232 3.53358 5.50065L3.52441 18.334C3.52441 19.3423 4.34025 20.1673 5.35775 20.1673H18.1911C19.1994 20.1673 20.0244 19.3423 20.0244 18.334V5.50065C20.0244 4.49232 19.1994 3.66732 18.1911 3.66732ZM18.1911 17.4173C18.1911 17.9215 17.7786 18.334 17.2744 18.334H6.27441C5.77025 18.334 5.35775 17.9215 5.35775 17.4173V8.25065H18.1911V17.4173ZM7.19108 10.084H9.02441V11.9173H7.19108V10.084ZM10.8577 10.084H12.6911V11.9173H10.8577V10.084ZM14.5244 10.084H16.3577V11.9173H14.5244V10.084Z" fill="#0C0F4B"/>
</g>
<defs>
<clipPath id="clip0_974_11255">
<rect width="22" height="22" fill="white" transform="translate(0.774414)"/>
</clipPath>
</defs>
</svg>
