<svg width="19" height="18" viewBox="0 0 19 18" fill="none" xmlns="http://www.w3.org/2000/svg">
<g clip-path="url(#clip0_972_9769)">
<path d="M6.32441 7.50004H7.51691V11.25C7.51691 11.6625 7.85441 12 8.26691 12H11.2669C11.6794 12 12.0169 11.6625 12.0169 11.25V7.50004H13.2094C13.8769 7.50004 14.2144 6.69004 13.7419 6.21754L10.2994 2.77504C10.0069 2.48254 9.53441 2.48254 9.24191 2.77504L5.79941 6.21754C5.32691 6.69004 5.65691 7.50004 6.32441 7.50004ZM4.52441 14.25C4.52441 14.6625 4.86191 15 5.27441 15H14.2744C14.6869 15 15.0244 14.6625 15.0244 14.25C15.0244 13.8375 14.6869 13.5 14.2744 13.5H5.27441C4.86191 13.5 4.52441 13.8375 4.52441 14.25Z" fill="#0C0F4A" fill-opacity="0.5"/>
</g>
<defs>
<clipPath id="clip0_972_9769">
<rect width="18" height="18" fill="white" transform="translate(0.774414)"/>
</clipPath>
</defs>
</svg>
