<svg width="104" height="150" viewBox="0 0 104 150" fill="none" xmlns="http://www.w3.org/2000/svg">
<g clip-path="url(#clip0_911_30352)">
<path d="M81.6988 120.561C81.6207 120.646 81.5426 120.734 81.467 120.822C80.4113 122.008 79.4575 123.275 78.6152 124.611C78.5472 124.714 78.4817 124.819 78.4212 124.921C76.4273 128.15 75.0699 131.709 74.4181 135.417C74.272 136.256 74.162 137.1 74.0881 137.949C74.0352 138.602 74.0033 139.257 73.9923 139.912C73.952 142.663 74.204 145.723 72.3724 147.826C71.8829 148.379 71.2853 148.833 70.614 149.162C70.1084 149.415 69.574 149.611 69.0218 149.745H63.3106C63.0234 149.703 62.7362 149.66 62.449 149.616C62.4414 149.616 62.4339 149.613 62.4263 149.613L62.3684 149.633L62.0232 149.745L62.0081 149.75V149.745C62.0085 149.735 62.0077 149.725 62.0056 149.716C62.006 149.698 62.0052 149.68 62.0031 149.662V149.66C62.0006 149.611 61.998 149.564 61.998 149.516L61.9905 149.386C61.9905 149.386 61.988 149.384 61.9905 149.384C61.988 149.311 61.9829 149.238 61.9804 149.162C61.7159 142.797 62.3608 136.22 65.4646 130.616C66.5289 128.695 67.8994 126.95 69.5256 125.443C69.5351 125.433 69.5452 125.424 69.5559 125.416C72.7831 122.436 76.955 120.488 81.3587 120.553C81.4721 120.553 81.5854 120.556 81.6988 120.561Z" fill="#F0F0F0"/>
<path d="M81.7117 120.698C76.7242 123.176 72.67 127.112 70.1248 131.947C69.5578 132.978 69.1623 134.09 68.9529 135.241C68.7863 136.368 68.9346 137.518 69.3824 138.571C69.7795 139.561 70.3042 140.529 70.4458 141.595C70.5099 142.142 70.4539 142.696 70.2814 143.22C70.1089 143.745 69.8239 144.228 69.445 144.638C68.5283 145.684 67.2781 146.349 66.0321 146.958C64.6487 147.634 63.2007 148.315 62.2402 149.538C62.1238 149.686 61.8932 149.503 62.0094 149.355C63.6805 147.228 66.6237 146.764 68.628 145.034C69.5633 144.227 70.253 143.143 70.1752 141.893C70.1071 140.801 69.567 139.802 69.1559 138.803C68.7036 137.782 68.5164 136.669 68.6107 135.562C68.7589 134.404 69.1095 133.28 69.6475 132.237C70.8198 129.869 72.3695 127.694 74.2398 125.792C76.3618 123.61 78.8538 121.796 81.608 120.427C81.7785 120.343 81.8811 120.614 81.7117 120.698Z" fill="white"/>
<path d="M70.8497 130.343C70.0696 129.82 69.5072 129.045 69.2628 128.157C69.0185 127.269 69.1081 126.326 69.5157 125.496C69.5987 125.329 69.8717 125.446 69.7885 125.614C69.4075 126.386 69.3241 127.264 69.5534 128.091C69.7827 128.917 70.3096 129.637 71.039 130.12C71.1973 130.225 71.0071 130.448 70.8497 130.343Z" fill="white"/>
<path d="M69.1125 138.095C71.0247 137.776 72.7428 136.772 73.9241 135.282C74.041 135.134 74.2717 135.318 74.1549 135.465C72.9226 137.014 71.1325 138.055 69.1418 138.382C68.952 138.413 68.9237 138.125 69.1125 138.095Z" fill="white"/>
<path d="M76.5183 123.962C76.7765 124.226 77.0983 124.423 77.4547 124.536C77.8112 124.649 78.1911 124.675 78.5604 124.611C78.7496 124.578 78.7777 124.866 78.5897 124.899C78.1814 124.968 77.7618 124.939 77.3678 124.814C76.9737 124.69 76.6171 124.474 76.329 124.186C76.2995 124.161 76.281 124.126 76.2771 124.088C76.2733 124.05 76.2844 124.012 76.3083 123.982C76.3335 123.953 76.3697 123.934 76.409 123.93C76.4484 123.927 76.4876 123.938 76.5183 123.962Z" fill="white"/>
<path d="M95.6075 138.208C95.4916 138.232 95.3757 138.256 95.2573 138.283H95.2547C93.6759 138.615 92.1274 139.071 90.6243 139.644C90.5084 139.688 90.3925 139.732 90.2767 139.778H90.2742C86.691 141.19 83.4079 143.231 80.59 145.797C80.58 145.807 80.5699 145.814 80.5598 145.824C80.5537 145.831 80.547 145.837 80.5396 145.843L80.5271 145.856C79.409 146.881 78.3723 147.986 77.4258 149.162C77.4258 149.165 77.4233 149.167 77.4208 149.17C77.2696 149.36 77.1159 149.55 76.9648 149.745H62.0229L62.0078 149.75V149.745H61.9448C61.9448 149.743 61.9473 149.74 61.9499 149.738C61.9499 149.736 61.9524 149.736 61.9524 149.733C61.97 149.709 61.9876 149.684 62.0028 149.662V149.66C62.0065 149.653 62.0117 149.646 62.0179 149.64C62.033 149.616 62.0506 149.597 62.0632 149.575C62.164 149.438 62.2622 149.299 62.363 149.162C62.5268 148.936 62.6931 148.709 62.8618 148.484L62.862 148.484L62.8626 148.483L62.8634 148.482L62.8644 148.482V148.48C62.8669 148.477 62.8669 148.475 62.8694 148.472L62.8744 148.467C64.9528 145.682 67.2907 143.039 69.9687 140.824C70.0493 140.756 70.13 140.688 70.2156 140.624C71.4283 139.631 72.7234 138.737 74.0878 137.949C74.8335 137.522 75.6018 137.131 76.3929 136.774C78.4333 135.864 80.6088 135.269 82.8397 135.013H82.8448C82.8498 135.013 82.8549 135.011 82.8624 135.011C82.87 135.011 82.875 135.008 82.88 135.008C87.3165 134.511 91.8638 135.386 95.3429 138.005C95.4336 138.074 95.5193 138.139 95.6075 138.208Z" fill="#F0F0F0"/>
<path d="M61.9452 149.744H62.0082V149.749L62.0233 149.744H66.0214C64.8298 149.547 63.6407 149.393 62.4491 149.615C62.4214 149.62 62.3962 149.625 62.3684 149.632C62.2475 149.654 62.1266 149.683 62.0057 149.715C61.9981 149.718 61.988 149.72 61.9805 149.722C61.9695 149.725 61.9592 149.73 61.9503 149.737C61.9438 149.738 61.9377 149.74 61.9326 149.744H61.9452Z" fill="white"/>
<path d="M95.5345 138.327C95.4413 138.312 95.3506 138.295 95.2574 138.283H95.2548C93.3111 137.976 91.3381 137.88 89.3723 137.995C89.2741 138 89.1733 138.008 89.0725 138.012C86.3439 138.197 83.6611 138.788 81.1192 139.766C81.1167 139.766 81.1166 139.766 81.1166 139.768C81.0889 139.778 81.0612 139.788 81.036 139.798C80.444 140.029 79.8595 140.283 79.2876 140.556C78.1933 141.049 77.1859 141.706 76.3023 142.502C75.595 143.178 75.0594 144.004 74.7378 144.914C74.7051 145.007 74.6723 145.097 74.6421 145.19C74.6194 145.263 74.5968 145.338 74.5741 145.412C74.2768 146.433 74.0929 147.511 73.5437 148.445C73.3907 148.706 73.2045 148.947 72.9894 149.162C72.7672 149.386 72.5167 149.582 72.2438 149.745H71.6089C71.9564 149.6 72.2785 149.403 72.5637 149.162C72.7855 148.977 72.9797 148.763 73.1406 148.526C73.7654 147.614 73.9569 146.502 74.2491 145.465C74.297 145.297 74.3473 145.134 74.4028 144.97C74.6936 144.076 75.1809 143.253 75.8312 142.558C76.6691 141.721 77.6479 141.027 78.7259 140.507C79.4061 140.161 80.1048 139.847 80.8219 139.566C80.9151 139.527 81.0083 139.493 81.1015 139.459C85.6297 137.753 90.5469 137.251 95.343 138.005C95.4363 138.017 95.5269 138.034 95.6202 138.049C95.8091 138.081 95.7234 138.359 95.5345 138.327Z" fill="white"/>
<path d="M80.8634 139.697C80.5661 138.824 80.599 137.878 80.9561 137.027C81.3132 136.175 81.9713 135.475 82.8128 135.05C82.9834 134.964 83.1285 135.217 82.9577 135.302C82.1733 135.697 81.5604 136.349 81.2296 137.143C80.8987 137.936 80.8717 138.818 81.1535 139.629C81.2145 139.805 80.9241 139.872 80.8634 139.697Z" fill="white"/>
<path d="M74.6556 144.873C76.3803 145.734 78.3767 145.933 80.2467 145.432C80.4319 145.382 80.502 145.663 80.317 145.713C78.3701 146.231 76.293 146.019 74.5002 145.12C74.3293 145.034 74.4857 144.788 74.6556 144.873Z" fill="white"/>
<path d="M89.3588 137.905C89.4011 138.266 89.5354 138.611 89.7495 138.909C89.9636 139.207 90.2509 139.449 90.5855 139.614C90.7574 139.697 90.6008 139.943 90.4301 139.86C90.0612 139.677 89.7443 139.41 89.507 139.081C89.2697 138.752 89.1192 138.372 89.0687 137.973C89.0607 137.936 89.0676 137.897 89.088 137.865C89.1084 137.833 89.1408 137.809 89.1786 137.799C89.217 137.79 89.2575 137.796 89.2913 137.816C89.325 137.836 89.3493 137.868 89.3588 137.905Z" fill="white"/>
<path d="M80.7439 41.0604C80.8119 32.9858 81.1511 24.8331 81.7617 16.6024C81.7717 16.439 81.7843 16.2781 81.7969 16.1147C82.1194 11.8298 82.5141 7.52956 82.981 3.21383V3.18944C82.9806 2.4781 82.6884 1.79602 82.1688 1.29302C81.6492 0.790029 80.9446 0.50726 80.2098 0.506836H5.89102C5.15867 0.508229 4.45654 0.789635 3.93751 1.28978C3.41848 1.78993 3.12458 2.46832 3.11981 3.17724C2.47487 9.12042 1.96933 15.0343 1.6032 20.919C1.58808 21.1116 1.57801 21.3019 1.56793 21.4945C1.38654 24.4039 1.2421 27.306 1.13461 30.2008C1.12706 30.3715 1.1195 30.5422 1.11698 30.7129C0.429169 48.4741 1.09861 66.2603 3.11981 83.926C3.12511 84.6345 3.41925 85.3123 3.93824 85.812C4.45722 86.3116 5.15906 86.5927 5.89102 86.5939H80.2098C80.9446 86.5935 81.6492 86.3107 82.1688 85.8077C82.6884 85.3047 82.9806 84.6227 82.981 83.9113V83.8845C82.6157 80.7459 82.2949 77.5869 82.0186 74.4076C81.9783 73.9418 81.9389 73.476 81.9002 73.0102C81.7088 70.7203 81.5416 68.4213 81.3989 66.1135C81.3686 65.6477 81.3409 65.1819 81.3158 64.7161C81.0462 60.0972 80.8698 55.4424 80.7867 50.7519C80.7766 50.2861 80.7691 49.8228 80.7615 49.3546C80.7313 47.0646 80.722 44.7657 80.7338 42.4578C80.7338 41.992 80.7363 41.5262 80.7439 41.0604Z" fill="#F0F0F0"/>
<path d="M103.135 18.7969C103.135 18.0855 102.843 17.4034 102.323 16.9004C101.803 16.3975 101.099 16.1147 100.364 16.1143H26.0453C25.3129 16.1157 24.6108 16.3971 24.0918 16.8972C23.5727 17.3974 23.2788 18.0757 23.2741 18.7847C20.7649 41.9453 20.3492 64.6962 22.0295 86.5935C22.2336 89.3029 22.4721 91.9985 22.745 94.6803C22.8911 96.1167 23.0465 97.5491 23.2111 98.9773C23.2312 99.1627 23.2514 99.348 23.2741 99.5334C23.2794 100.242 23.5735 100.92 24.0925 101.419C24.6115 101.919 25.3133 102.2 26.0453 102.201H100.364C101.099 102.201 101.803 101.918 102.323 101.415C102.843 100.912 103.135 100.23 103.135 99.5188V99.4919C100.13 73.6975 100.13 46.5569 103.135 18.8212V18.7969Z" fill="white"/>
<path d="M103.135 18.7969C103.135 18.0855 102.843 17.4034 102.323 16.9004C101.803 16.3975 101.099 16.1147 100.364 16.1143H26.0453C25.3129 16.1157 24.6108 16.3971 24.0918 16.8972C23.5727 17.3974 23.2788 18.0757 23.2741 18.7847C20.7649 41.9453 20.3492 64.6962 22.0295 86.5935C22.2336 89.3029 22.4721 91.9985 22.745 94.6803C22.8911 96.1167 23.0465 97.5491 23.2111 98.9773C23.2312 99.1627 23.2514 99.348 23.2741 99.5334C23.2794 100.242 23.5735 100.92 24.0925 101.419C24.6115 101.919 25.3133 102.2 26.0453 102.201H100.364C101.099 102.201 101.803 101.918 102.323 101.415C102.843 100.912 103.135 100.23 103.135 99.5188V99.4919C100.13 73.6975 100.13 46.5569 103.135 18.8212V18.7969ZM102.631 99.5334C102.627 100.113 102.386 100.667 101.961 101.075C101.537 101.484 100.963 101.713 100.364 101.714H26.0453C25.4442 101.713 24.868 101.481 24.443 101.07C24.018 100.658 23.7788 100.101 23.7779 99.5188V99.4919C23.7603 99.3358 23.7426 99.1773 23.725 99.0212C23.5512 97.5287 23.3891 96.0322 23.2388 94.5316C22.9743 91.9002 22.74 89.2541 22.5359 86.5935C20.8556 64.7083 21.2687 41.9721 23.7779 18.8212V18.7969C23.7788 18.215 24.018 17.6573 24.443 17.2458C24.868 16.8344 25.4442 16.6029 26.0453 16.602H100.364C100.963 16.6022 101.538 16.8318 101.963 17.2408C102.387 17.6497 102.628 18.2047 102.631 18.7847C99.6259 46.5423 99.6259 73.7121 102.631 99.5334Z" fill="#E4E4E4"/>
<path d="M31.168 41.0605C30.9768 41.061 30.7936 41.1349 30.6586 41.2659C30.5236 41.397 30.4478 41.5745 30.4478 41.7596C30.4478 41.9446 30.5236 42.1222 30.6586 42.2532C30.7936 42.3842 30.9768 42.4581 31.168 42.4586H91.563C91.7541 42.4581 91.9373 42.3842 92.0723 42.2532C92.2073 42.1222 92.2832 41.9446 92.2832 41.7596C92.2832 41.5745 92.2073 41.397 92.0723 41.2659C91.9373 41.1349 91.7541 41.061 91.563 41.0605H31.168Z" fill="#E6E6E6"/>
<path d="M31.168 45.2549C30.9768 45.2552 30.7934 45.329 30.6583 45.4601C30.5232 45.5911 30.4473 45.7687 30.4473 45.9539C30.4473 46.1391 30.5232 46.3167 30.6583 46.4477C30.7934 46.5788 30.9768 46.6526 31.168 46.6529H72.168C72.3593 46.6526 72.5426 46.5788 72.6777 46.4477C72.8129 46.3167 72.8888 46.1391 72.8888 45.9539C72.8888 45.7687 72.8129 45.5911 72.6777 45.4601C72.5426 45.329 72.3593 45.2552 72.168 45.2549H31.168Z" fill="#E6E6E6"/>
<path d="M31.168 49.3545C30.9768 49.3548 30.7934 49.4286 30.6583 49.5597C30.5232 49.6907 30.4473 49.8683 30.4473 50.0535C30.4473 50.2387 30.5232 50.4163 30.6583 50.5473C30.7934 50.6784 30.9768 50.7522 31.168 50.7525H91.563C91.7543 50.7522 91.9376 50.6784 92.0728 50.5473C92.2079 50.4163 92.2838 50.2387 92.2838 50.0535C92.2838 49.8683 92.2079 49.6907 92.0728 49.5597C91.9376 49.4286 91.7543 49.3548 91.563 49.3545H31.168Z" fill="#E6E6E6"/>
<path d="M31.168 53.5488C30.9768 53.5493 30.7936 53.6232 30.6586 53.7542C30.5236 53.8853 30.4478 54.0628 30.4478 54.2478C30.4478 54.4329 30.5236 54.6104 30.6586 54.7415C30.7936 54.8725 30.9768 54.9464 31.168 54.9469H72.1679C72.3591 54.9464 72.5423 54.8725 72.6773 54.7415C72.8123 54.6104 72.8881 54.4329 72.8881 54.2478C72.8881 54.0628 72.8123 53.8853 72.6773 53.7542C72.5423 53.6232 72.3591 53.5493 72.1679 53.5488H31.168Z" fill="#E6E6E6"/>
<path d="M31.168 64.7158C30.9768 64.7163 30.7936 64.7902 30.6586 64.9212C30.5236 65.0522 30.4478 65.2298 30.4478 65.4148C30.4478 65.5999 30.5236 65.7774 30.6586 65.9085C30.7936 66.0395 30.9768 66.1134 31.168 66.1139H91.563C91.7541 66.1134 91.9373 66.0395 92.0723 65.9085C92.2073 65.7774 92.2832 65.5999 92.2832 65.4148C92.2832 65.2298 92.2073 65.0522 92.0723 64.9212C91.9373 64.7902 91.7541 64.7163 91.563 64.7158H31.168Z" fill="#E6E6E6"/>
<path d="M31.168 68.9111C30.9768 68.9115 30.7934 68.9853 30.6583 69.1163C30.5232 69.2474 30.4473 69.425 30.4473 69.6102C30.4473 69.7953 30.5232 69.9729 30.6583 70.104C30.7934 70.235 30.9768 70.3088 31.168 70.3092H72.168C72.3593 70.3088 72.5426 70.235 72.6777 70.104C72.8129 69.9729 72.8888 69.7953 72.8888 69.6102C72.8888 69.425 72.8129 69.2474 72.6777 69.1163C72.5426 68.9853 72.3593 68.9115 72.168 68.9111H31.168Z" fill="#E6E6E6"/>
<path d="M31.168 73.0107C30.9768 73.0111 30.7934 73.0849 30.6583 73.2159C30.5232 73.347 30.4473 73.5246 30.4473 73.7098C30.4473 73.8949 30.5232 74.0725 30.6583 74.2036C30.7934 74.3346 30.9768 74.4084 31.168 74.4088H91.563C91.7543 74.4084 91.9376 74.3346 92.0728 74.2036C92.2079 74.0725 92.2838 73.8949 92.2838 73.7098C92.2838 73.5246 92.2079 73.347 92.0728 73.2159C91.9376 73.0849 91.7543 73.0111 91.563 73.0107H31.168Z" fill="#E6E6E6"/>
<path d="M31.168 77.2051C30.9768 77.2056 30.7936 77.2794 30.6586 77.4105C30.5236 77.5415 30.4478 77.719 30.4478 77.9041C30.4478 78.0892 30.5236 78.2667 30.6586 78.3977C30.7936 78.5288 30.9768 78.6026 31.168 78.6031H72.1679C72.3591 78.6026 72.5423 78.5288 72.6773 78.3977C72.8123 78.2667 72.8881 78.0892 72.8881 77.9041C72.8881 77.719 72.8123 77.5415 72.6773 77.4105C72.5423 77.2794 72.3591 77.2056 72.1679 77.2051H31.168Z" fill="#E6E6E6"/>
<path d="M43.1179 32.3811H31.5826C31.4332 32.3809 31.2899 32.3234 31.1843 32.2211C31.0786 32.1189 31.0192 31.9802 31.019 31.8356V30.0465C31.0192 29.9019 31.0786 29.7632 31.1843 29.6609C31.2899 29.5587 31.4332 29.5011 31.5826 29.501H43.1179C43.2673 29.5011 43.4105 29.5587 43.5161 29.6609C43.6218 29.7632 43.6812 29.9019 43.6814 30.0465V31.8356C43.6812 31.9802 43.6218 32.1189 43.5161 32.2211C43.4105 32.3234 43.2673 32.3809 43.1179 32.3811Z" fill="#6C63FF"/>
<path d="M83.1918 89.9291L79.6585 91.0594C79.0696 91.2478 78.4807 91.4362 77.8918 91.6246C77.3464 91.7984 76.7562 92.0052 76.1724 91.9304C75.7689 91.8787 75.3089 91.6539 75.1832 91.252C75.0642 90.8718 75.3164 90.474 75.6218 90.249C76.465 89.6281 77.5312 90.2601 78.1286 90.9031C78.8594 91.6897 79.2729 92.705 79.9582 93.5283C80.5684 94.2666 81.3419 94.8629 82.2218 95.2733C83.9704 96.0726 86.1034 95.9876 87.6631 94.8229C89.5256 93.4322 89.7155 91.0218 89.7255 88.9188C89.7221 88.824 89.6808 88.7341 89.6103 88.6682C89.5398 88.6023 89.4456 88.5654 89.3476 88.5654C89.2495 88.5654 89.1554 88.6023 89.0849 88.6682C89.0144 88.7341 88.9731 88.824 88.9697 88.9188C88.9607 90.8247 88.8487 93.1611 87.0535 94.3537C85.3338 95.4961 83.0738 95.1931 81.4905 93.9759C80.6083 93.2976 80.0656 92.4131 79.4863 91.4972C78.9208 90.6032 78.2187 89.7364 77.1546 89.3888C76.6983 89.2282 76.1987 89.2251 75.7403 89.3801C75.2819 89.535 74.8928 89.8384 74.6389 90.239C74.5229 90.4281 74.4498 90.6388 74.4245 90.8573C74.3992 91.0758 74.4223 91.2971 74.4923 91.5062C74.5622 91.7154 74.6774 91.9078 74.8301 92.0705C74.9829 92.2332 75.1697 92.3626 75.3781 92.45C76.612 93.0191 78.0236 92.3522 79.2116 91.9721L83.3927 90.6346C83.8524 90.4875 83.6555 89.7807 83.1918 89.9291Z" fill="#6C63FF"/>
<path d="M72.7213 143.703L70.2436 144.493L65.916 135.618L69.5728 134.452L72.7213 143.703Z" fill="#9F616A"/>
<path d="M74.4884 145.719L74.3196 145.224L73.8762 143.919L73.5739 143.031L72.7476 143.295L72.5763 143.282L70.3064 143.134L70.0041 143.114L69.5557 143.085L69.0921 143.053L67.7972 144.875H67.7947C67.3106 145.028 66.8627 145.272 66.477 145.593C66.0912 145.915 65.7753 146.307 65.5475 146.748C65.5198 146.802 65.4946 146.855 65.4694 146.909C65.4069 147.04 65.3539 147.175 65.3107 147.314C65.1146 147.911 65.0782 148.547 65.2048 149.162C65.2374 149.315 65.2786 149.465 65.3283 149.613L65.3359 149.638L65.3661 149.728L65.5475 149.669L67.1397 149.162L72.7173 147.384L73.8233 147.031L74.1634 146.921H74.1659L74.826 146.711L74.4884 145.719Z" fill="#2F2E41"/>
<path d="M49.2367 145.79L46.6282 145.79L45.3872 136.05L49.2372 136.05L49.2367 145.79Z" fill="#9F616A"/>
<path d="M45.0619 103.092L43.9056 105.028C43.9056 105.028 42.6349 105.364 43.0502 109.374C43.3434 112.205 43.4385 124.882 44.1768 133.117C44.4841 136.545 44.9027 139.203 45.4934 140.062L45.8571 140.377L49.6529 140.728L49.7486 140.696L51.1424 131.166C51.3927 129.456 51.3552 127.717 51.0315 126.018L50.7796 123.335L54.2746 109.752C54.2746 109.752 57.8336 118.458 60.1009 126.75C60.6467 128.746 62.7199 130.015 63.5059 131.728C63.7693 132.302 64.028 132.858 64.2805 133.391C65.9429 136.904 66.7763 139.462 67.4068 139.675H67.9107L70.9338 138.699L71.5285 137.252L66.903 124.067L63.4392 102.778C56.8393 99.343 50.6484 98.9608 45.0619 103.092Z" fill="#2F2E41"/>
<path d="M63.9679 74.4077C63.74 73.9218 63.4721 73.4545 63.1668 73.0103C62.4688 71.9572 61.4987 71.0989 60.3528 70.5203L59.3602 70.3082L57.5815 69.9277L56.6444 68.9108L55.1076 67.2451H49.8171L49.1092 68.9108L48.5147 70.3082L48.2602 70.9032L43.7306 73.0956C43.728 73.0956 43.728 73.0956 43.7255 73.0981C43.786 73.537 43.8456 73.9736 43.9044 74.4077C44.0329 75.3514 44.1538 76.2839 44.2672 77.2049C44.3251 77.6731 44.3805 78.1389 44.4334 78.6023C44.6022 80.0557 44.7475 81.484 44.8693 82.8871C44.9776 84.1406 45.0641 85.3762 45.1287 86.594C45.2863 89.3596 45.2981 92.1311 45.164 94.8979C45.1288 95.549 45.7964 96.2904 45.7435 96.9269C45.6553 97.9658 44.8264 98.8876 44.6803 99.8802C44.5896 100.49 44.6299 101.139 44.4712 101.714C44.4271 101.882 44.3611 102.045 44.2747 102.197C44.2747 102.199 44.2722 102.199 44.2722 102.202C42.4583 105.338 43.8817 103.841 43.7129 104.545L43.7935 104.565C43.8313 104.575 43.9472 104.604 44.1336 104.645C45.1993 104.892 49.5929 100.9 52.543 100.9C54.314 100.9 59.0024 103.719 60.5719 103.924C61.8139 104.085 62.9224 104.231 63.5825 103.668C63.774 103.503 63.9203 103.295 64.0082 103.063L64.0158 103.041L64.0133 103.019L63.9503 102.202L63.9125 101.714L63.3734 94.715C63.0723 94.3536 62.882 93.9177 62.8241 93.4568C62.7662 92.996 62.8431 92.5286 63.0459 92.108L63.1567 91.8811L62.7486 86.594L62.673 85.6063L62.6453 85.2722V85.2697L62.4488 82.7164L62.9224 81.3214V81.319L63.8445 78.6023L64.3181 77.2049L64.6154 76.3269L64.6355 76.2684C64.4769 75.6284 64.2533 75.0051 63.9679 74.4077Z" fill="#6C63FF"/>
<path d="M68.5641 99.6261L63.4854 86.9199L61.1265 82.2802L65.6624 79.8545L69.3156 86.0853L71.7645 99.1035C72.1499 99.3582 72.4479 99.7187 72.6202 100.139C72.7924 100.559 72.831 101.019 72.731 101.46C72.631 101.901 72.3969 102.304 72.0589 102.615C71.7209 102.927 71.2944 103.134 70.8342 103.209C70.374 103.284 69.901 103.224 69.4761 103.037C69.0513 102.85 68.6939 102.544 68.4498 102.159C68.2058 101.774 68.0863 101.327 68.1066 100.876C68.127 100.424 68.2863 99.9892 68.5641 99.6261Z" fill="#9F616A"/>
<path d="M68.6667 82.1217L67.3667 81.3072L65.8728 78.6026L65.1019 77.2053L64.6157 76.3273L64.4091 75.9518L62.0737 74.408L60.4966 73.3643L59.2118 74.408L58.5996 74.9055L59.1992 77.2053L59.562 78.6026L60.353 81.634L62.6733 85.6067L63.2502 86.5944L63.5802 87.1626L63.5828 87.1675L63.6281 87.2431L69.4905 87.0065L69.6744 86.9992L69.6844 86.5944L69.6895 86.448C69.692 86.3749 69.692 86.3017 69.692 86.2285C69.6912 84.8003 69.3398 83.3927 68.6667 82.1217Z" fill="#6C63FF"/>
<path d="M24.2958 94.5736L34.6856 85.3831L38.2964 81.5723L42.277 84.7843L37.6038 90.3399L25.9598 97.2711C25.8544 97.7112 25.6154 98.1108 25.2736 98.4185C24.9318 98.7261 24.5028 98.9279 24.0417 98.9977C23.5806 99.0676 23.1084 99.0024 22.6859 98.8105C22.2633 98.6186 21.9097 98.3089 21.6704 97.9209C21.4311 97.533 21.3171 97.0847 21.343 96.6336C21.3689 96.1825 21.5335 95.7492 21.8158 95.3893C22.098 95.0295 22.4849 94.7595 22.9269 94.6142C23.3688 94.4688 23.8455 94.4547 24.2958 94.5736Z" fill="#9F616A"/>
<path d="M45.7434 78.6019L45.7232 77.2045L45.6854 74.4073L45.6703 73.322L45.6274 73.2928C45.3928 73.1438 45.1269 73.0472 44.849 73.0099C44.6046 72.9707 44.3552 72.9707 44.1109 73.0099C43.982 73.0292 43.8549 73.0577 43.7304 73.0952C43.7279 73.0952 43.7279 73.0952 43.7254 73.0977C42.9786 73.3572 42.3192 73.8092 41.8183 74.4048L41.8158 74.4073C41.0603 75.2772 40.3906 76.2137 39.8155 77.2045C39.5308 77.6727 39.2587 78.1458 39.0043 78.6019C38.0419 80.3358 37.3491 81.8381 37.3365 81.8649L34.4595 85.4815L34.4998 85.5474L35.1321 86.5936L37.4499 90.4297L37.8177 91.0394L38.7574 90.5541C39.8528 89.9883 40.7164 89.0783 41.2061 87.9739L41.5412 86.735L41.6646 86.5936L44.8692 82.8867L45.7862 81.8234L45.7434 78.6019Z" fill="#6C63FF"/>
<path d="M56.7238 62.4725C57.1528 59.9131 55.3573 57.5017 52.7134 57.0863C50.0696 56.671 47.5785 58.4091 47.1494 60.9684C46.7204 63.5278 48.5159 65.9392 51.1597 66.3546C53.8036 66.7699 56.2947 65.0318 56.7238 62.4725Z" fill="#9F616A"/>
<path d="M47.2486 58.6425C47.0331 57.9122 46.602 57.2863 46.8175 57.2863C47.0331 57.2863 47.1409 56.7646 47.1409 56.7646C47.1409 56.7646 47.3564 56.6603 47.4642 56.7646C47.572 56.869 47.6797 56.0343 47.6797 56.0343C47.6797 56.0343 47.7875 55.7214 47.8953 55.93C48.003 56.1387 48.003 56.0343 48.1108 55.7214C48.2186 55.4084 48.7575 55.1997 48.7575 55.1997C48.7575 55.1997 50.8052 55.304 51.1285 54.8867C51.4518 54.4694 55.1161 54.7824 55.8705 55.304C56.6249 55.8257 59.5972 56.7582 57.8337 59.6847C58.8414 61.3918 57.337 64.4366 56.9482 64.7979C56.3336 65.3691 55.908 65.5751 52.9995 66.1353C52.4302 66.245 51.0316 61.6357 51.0316 61.6357C51.0316 61.6357 47.4642 59.3728 47.2486 58.6425Z" fill="#2F2E41"/>
<path d="M49.3938 145.409L49.2376 145.348L46.4311 144.241L46.0003 144.072L44.1814 145.409H44.1789C43.1512 145.41 42.166 145.806 41.4395 146.509C40.7131 147.213 40.3047 148.167 40.3042 149.162V149.284H50.2629V145.409H49.3938Z" fill="#2F2E41"/>
<path d="M78.6655 149.452C78.6656 149.491 78.658 149.529 78.643 149.564C78.6281 149.599 78.606 149.632 78.5782 149.659C78.5503 149.686 78.5173 149.708 78.4808 149.722C78.4443 149.737 78.4052 149.745 78.3657 149.745H27.1487C27.0689 149.745 26.9923 149.714 26.9358 149.66C26.8794 149.605 26.8477 149.531 26.8477 149.454C26.8477 149.376 26.8794 149.302 26.9358 149.247C26.9923 149.193 27.0689 149.162 27.1487 149.162H78.3657C78.4451 149.162 78.5213 149.193 78.5775 149.247C78.6336 149.302 78.6653 149.375 78.6655 149.452Z" fill="#CCCCCC"/>
<path d="M25.7885 0.506836C25.3921 7.32723 22.8022 13.8569 18.3814 19.1815C13.9606 24.5061 7.93031 28.359 1.13482 30.2008C1.12727 30.3715 1.11971 30.5422 1.11719 30.7129C8.05345 28.8658 14.2151 24.9563 18.7323 19.5364C23.2495 14.1165 25.894 7.46006 26.2924 0.506836H25.7885Z" fill="white"/>
<path d="M18.0717 0.506836C16.9009 4.81283 14.8371 8.84312 12.0059 12.3523C9.17463 15.8615 5.63522 18.7762 1.60314 20.919C1.58802 21.1116 1.57795 21.3019 1.56787 21.4945C5.74661 19.3208 9.41605 16.3344 12.3459 12.7227C15.2757 9.11101 17.4026 4.95204 18.5932 0.506836H18.0717Z" fill="white"/>
</g>
<defs>
<clipPath id="clip0_911_30352">
<rect width="102.27" height="149.243" fill="white" transform="translate(0.865234 0.506836)"/>
</clipPath>
</defs>
</svg>
