<svg width="51" height="51" viewBox="0 0 51 51" fill="none" xmlns="http://www.w3.org/2000/svg">
<path fill-rule="evenodd" clip-rule="evenodd" d="M7.62163 19.3398V15.0663C7.62163 13.2244 8.3524 11.4573 9.65582 10.156C10.9571 8.85259 12.7242 8.12182 14.5661 8.12182H18.8396C19.7242 8.12182 20.4421 7.40387 20.4421 6.51926C20.4421 5.63464 19.7242 4.91669 18.8396 4.91669H14.5661C11.8738 4.91669 9.29257 5.98507 7.38873 7.88892C5.48488 9.79276 4.4165 12.374 4.4165 15.0663V19.3398C4.4165 20.2244 5.13445 20.9423 6.01907 20.9423C6.90368 20.9423 7.62163 20.2244 7.62163 19.3398Z" fill="#0C0F4A"/>
<path fill-rule="evenodd" clip-rule="evenodd" d="M31.6602 8.12183H35.9337C37.7756 8.12183 39.5427 8.8526 40.8439 10.156C42.1474 11.4573 42.8781 13.2244 42.8781 15.0663V19.3398C42.8781 20.2244 43.5961 20.9423 44.4807 20.9423C45.3653 20.9423 46.0833 20.2244 46.0833 19.3398V15.0663C46.0833 12.374 45.0149 9.79277 43.111 7.88892C41.2072 5.98508 38.626 4.9167 35.9337 4.9167C33.579 4.9167 31.6602 4.9167 31.6602 4.9167C30.7756 4.9167 30.0576 5.63465 30.0576 6.51927C30.0576 7.40388 30.7756 8.12183 31.6602 8.12183Z" fill="#0C0F4A"/>
<path fill-rule="evenodd" clip-rule="evenodd" d="M4.4165 32.1602V36.4337C4.4165 39.126 5.48488 41.7072 7.38873 43.6111C9.29257 45.5149 11.8738 46.5833 14.5661 46.5833H18.8396C19.7242 46.5833 20.4421 45.8653 20.4421 44.9807C20.4421 44.0961 19.7242 43.3782 18.8396 43.3782H14.5661C12.7242 43.3782 10.9571 42.6474 9.65582 41.344C8.3524 40.0427 7.62163 38.2756 7.62163 36.4337C7.62163 34.079 7.62163 32.1602 7.62163 32.1602C7.62163 31.2756 6.90368 30.5577 6.01907 30.5577C5.13445 30.5577 4.4165 31.2756 4.4165 32.1602Z" fill="#0C0F4A"/>
<path fill-rule="evenodd" clip-rule="evenodd" d="M31.6602 46.5833H35.9337C38.626 46.5833 41.2072 45.5149 43.111 43.6111C45.0149 41.7072 46.0833 39.126 46.0833 36.4337C46.0833 34.079 46.0833 32.1602 46.0833 32.1602C46.0833 31.2756 45.3653 30.5577 44.4807 30.5577C43.5961 30.5577 42.8781 31.2756 42.8781 32.1602V36.4337C42.8781 38.2756 42.1474 40.0427 40.8439 41.344C39.5427 42.6474 37.7756 43.3782 35.9337 43.3782C33.579 43.3782 31.6602 43.3782 31.6602 43.3782C30.7756 43.3782 30.0576 44.0961 30.0576 44.9807C30.0576 45.8653 30.7756 46.5833 31.6602 46.5833Z" fill="#0C0F4A"/>
<path fill-rule="evenodd" clip-rule="evenodd" d="M31.1255 18.271V20.4077C31.1255 21.2923 31.8434 22.0103 32.7281 22.0103C33.6127 22.0103 34.3306 21.2923 34.3306 20.4077V18.271C34.3306 17.3864 33.6127 16.6684 32.7281 16.6684C31.8434 16.6684 31.1255 17.3864 31.1255 18.271Z" fill="#0C0F4A"/>
<path fill-rule="evenodd" clip-rule="evenodd" d="M16.1685 18.271V20.4077C16.1685 21.2924 16.8864 22.0103 17.771 22.0103C18.6556 22.0103 19.3736 21.2924 19.3736 20.4077V18.271C19.3736 17.3864 18.6556 16.6684 17.771 16.6684C16.8864 16.6684 16.1685 17.3864 16.1685 18.271Z" fill="#0C0F4A"/>
<path fill-rule="evenodd" clip-rule="evenodd" d="M24.7158 26.8955V21.4767C24.7158 20.5921 25.4338 19.8742 26.3184 19.8742C27.203 19.8742 27.9209 20.5921 27.9209 21.4767V27.887C27.9209 28.4938 27.5769 29.0494 27.0342 29.3207L24.8974 30.3891C24.1068 30.7844 23.1432 30.4639 22.7479 29.6712C22.3526 28.8806 22.6731 27.9169 23.4658 27.5216L24.7158 26.8955Z" fill="#0C0F4A"/>
<path fill-rule="evenodd" clip-rule="evenodd" d="M31.5958 32.0959C31.8864 31.8053 32.286 31.6259 32.7283 31.6259C33.6129 31.6259 34.3308 32.3438 34.3308 33.2284C34.3308 33.6707 34.1514 34.0703 33.8608 34.3609C33.5702 34.6515 33.8608 34.363 33.8586 34.3652C29.1044 39.1195 21.395 39.1195 16.6407 34.3652C16.6385 34.363 16.6385 34.3609 16.6385 34.3609C16.3479 34.0703 16.1685 33.6707 16.1685 33.2284C16.1685 32.3438 16.8864 31.6259 17.771 31.6259C18.2133 31.6259 18.6129 31.8053 18.9035 32.0959C19.1941 32.3865 18.9056 32.0959 18.9078 32.0981C22.4099 35.6002 28.0894 35.6002 31.5915 32.0981C31.5937 32.0959 31.5958 32.0959 31.5958 32.0959Z" fill="#0C0F4A"/>
</svg>
