<svg width="38" height="38" viewBox="0 0 38 38" fill="none" xmlns="http://www.w3.org/2000/svg">
<path d="M4.12449 19.9176L15.41 30.7702C15.7321 31.08 16.1615 31.25 16.6193 31.25C17.0776 31.25 17.5068 31.0797 17.8289 30.7702L18.8535 29.7846C19.1754 29.4753 19.3528 29.0622 19.3528 28.6217C19.3528 28.1814 19.1754 27.7544 18.8535 27.4451L12.2698 21.1L33.1868 21.1C34.1298 21.1 34.875 20.3901 34.875 19.4829L34.875 18.0896C34.875 17.1825 34.1298 16.4009 33.1868 16.4009L12.1951 16.4009L18.8533 10.0205C19.1752 9.71068 19.3525 9.30879 19.3525 8.86829C19.3525 8.42829 19.1752 8.02053 18.8533 7.71098L17.8286 6.72861C17.5065 6.41882 17.0774 6.25 16.6191 6.25C16.1612 6.25 15.7319 6.42101 15.4097 6.7308L4.12424 17.5832C3.80133 17.8939 3.62374 18.3088 3.62501 18.7498C3.62399 19.1922 3.80133 19.6073 4.12449 19.9176Z" fill="#0C0F4A"/>
</svg>
