<svg width="22" height="19" viewBox="0 0 22 19" fill="none" xmlns="http://www.w3.org/2000/svg">
<path d="M6.19129 6.48499C5.94138 6.73769 5.47365 6.54815 5.21755 6.35725C4.68721 6.19943 4.28669 6.65255 4.35243 7.15505C4.40938 7.63018 4.75218 7.60031 4.33068 8.02652L3.30237 9.06631C2.98698 9.38522 2.64723 9.21335 2.33221 8.89618L1.19193 7.74812C0.877187 7.43122 0.592272 7.20458 0.907205 6.88569L2.10522 5.67262C2.44054 5.3331 2.63299 5.69946 2.98741 5.6682C3.38615 5.6653 3.78052 5.16596 3.66626 4.78408C3.63033 4.73039 3.60055 4.67647 3.57867 4.62229L3.57667 4.6174C3.50191 4.42812 3.63711 4.12149 3.81819 3.93813C3.81819 3.93813 5.36087 2.41449 5.43761 2.33678C7.4403 0.308968 9.59228 0.992398 10.3562 1.25781C10.3561 1.5656 10.4134 1.6615 9.59206 1.56937C8.77114 1.47729 6.27604 2.80362 7.47704 4.00917C7.5525 4.08492 8.1524 4.49622 7.30428 5.3538L6.19129 6.48499ZM12.4337 13.303C13.0075 12.678 13.56 12.0325 14.1363 11.4127C15.655 12.8896 17.3765 14.5523 19.4175 16.5704C19.8083 16.9568 19.1534 17.8258 18.8736 18.1058L18.8669 18.1124L18.86 18.1193C18.58 18.3994 17.8297 19.0522 17.384 18.605L12.4337 13.303ZM7.83836 5.35053C7.83836 5.35053 8.96035 6.39763 11.1203 8.47326C10.5577 8.99338 9.94656 9.53606 9.39345 10.0227L6.38842 6.79687L7.83836 5.35053ZM21.6099 4.42208C22.0037 6.5614 20.1711 8.27204 20.1711 8.27204C19.0793 9.36121 17.9291 9.48366 16.5941 8.97945C15.829 8.68878 15.0996 9.50149 15.0996 9.50149C15.0996 9.50149 8.13846 17.1815 7.58428 17.7344C7.02984 18.2875 6.63961 18.3538 6.17265 18.3521C5.70113 18.3464 5.22092 18.0949 4.87144 17.7462L4.86285 17.7377L4.85452 17.7294C4.50528 17.381 4.24863 16.8974 4.24717 16.4313C4.24546 15.9654 4.37572 15.4959 4.85806 15.0147C5.3404 14.5335 13.1108 7.51739 13.1108 7.51739C13.1108 7.51739 13.887 6.73444 13.6255 6.04305C13.1117 4.67787 13.5634 3.48578 14.6509 2.40087C15.8269 1.22773 16.8505 0.96493 18.2061 1.00139L18.547 1.34148L16.6513 3.26617C16.3933 3.52356 16.1655 4.63954 16.671 5.14385L17.3578 5.82901C17.988 6.45772 19.1646 6.16397 19.4226 5.90659L21.2818 4.06971L21.6225 4.40954L21.6099 4.42208Z" fill="white"/>
</svg>
