<svg width="19" height="18" viewBox="0 0 19 18" fill="none" xmlns="http://www.w3.org/2000/svg">
<circle cx="9.63476" cy="9.0913" r="8.88134" fill="#4A92E5"/>
<path fill-rule="evenodd" clip-rule="evenodd" d="M7.16182 5.11873H11.8332V4.65063H7.16182V5.11873ZM12.2978 10.2537H11.7239V10.8275H12.2978V10.2537ZM12.2978 8.63271H11.7239V9.20655H12.2978V8.63271ZM12.2978 7.01174H11.7239V7.58558H12.2978V7.01174ZM13.8012 12.9936H5.19385V13.532H13.8012V12.9936ZM9.3669 12.7324V9.54716H8.41059V12.7324H9.3669ZM7.27113 10.2538H6.69728V10.8276H7.27113V10.2538ZM7.27113 8.63281H6.69728V9.20665H7.27113V8.63281ZM7.27113 7.01184H6.69728V7.58569H7.27113V7.01174V7.01184ZM10.6113 7.79505H10.0374V8.36889H10.6113V7.79505ZM9.90681 7.53378H10.7419C10.7766 7.53378 10.8098 7.54754 10.8343 7.57204C10.8588 7.59654 10.8726 7.62977 10.8726 7.66441V8.49943C10.8726 8.53408 10.8588 8.5673 10.8343 8.5918C10.8098 8.6163 10.7766 8.63006 10.7419 8.63006H9.90681C9.88966 8.63006 9.87268 8.62669 9.85683 8.62012C9.84099 8.61355 9.8266 8.60393 9.81447 8.5918C9.80235 8.57966 9.79274 8.56526 9.78618 8.54941C9.77963 8.53356 9.77626 8.51658 9.77628 8.49943V7.66441C9.77626 7.64726 9.77963 7.63028 9.78618 7.61443C9.79274 7.59858 9.80235 7.58418 9.81447 7.57204C9.8266 7.55991 9.84099 7.55029 9.85683 7.54372C9.87268 7.53716 9.88966 7.53378 9.90681 7.53378ZM8.95762 7.79505H8.38377V8.36889H8.95762V7.79505ZM8.25313 7.53378H9.08815C9.1228 7.53378 9.15603 7.54754 9.18052 7.57204C9.20502 7.59654 9.21879 7.62977 9.21879 7.66441V8.49943C9.21879 8.53408 9.20502 8.5673 9.18052 8.5918C9.15603 8.6163 9.1228 8.63006 9.08815 8.63006H8.25313C8.21849 8.63006 8.18526 8.6163 8.16076 8.5918C8.13626 8.5673 8.1225 8.53408 8.1225 8.49943V7.66441C8.1225 7.62977 8.13626 7.59654 8.16076 7.57204C8.18526 7.54754 8.21849 7.53378 8.25313 7.53378ZM10.6113 6.17408H10.0374V6.74793H10.6113V6.17408ZM9.90681 5.91281H10.7419C10.7591 5.91281 10.7761 5.9162 10.792 5.92278C10.8079 5.92937 10.8223 5.93902 10.8344 5.95118C10.8465 5.96334 10.8562 5.97778 10.8627 5.99366C10.8693 6.00955 10.8726 6.02657 10.8726 6.04375V6.87877C10.8724 6.91331 10.8586 6.94638 10.8341 6.97075C10.8096 6.99511 10.7765 7.00879 10.7419 7.00879H9.90681C9.88966 7.00879 9.87268 7.00541 9.85683 6.99885C9.84099 6.99228 9.8266 6.98266 9.81447 6.97052C9.80235 6.95839 9.79274 6.94399 9.78618 6.92814C9.77963 6.91229 9.77626 6.89531 9.77628 6.87816V6.04375C9.77626 6.0266 9.77963 6.00961 9.78618 5.99377C9.79274 5.97792 9.80235 5.96351 9.81447 5.95138C9.8266 5.93925 9.84099 5.92963 9.85683 5.92306C9.87268 5.91649 9.88966 5.91311 9.90681 5.91311V5.91281ZM8.95762 6.17408H8.38377V6.74793H8.95762V6.17408ZM8.25313 5.91281H9.08815C9.10533 5.91281 9.12234 5.9162 9.13821 5.92278C9.15408 5.92937 9.1685 5.93902 9.18063 5.95118C9.19277 5.96334 9.20238 5.97778 9.20893 5.99366C9.21548 6.00955 9.21883 6.02657 9.21879 6.04375V6.87877C9.21863 6.91331 9.20479 6.94638 9.18031 6.97075C9.15583 6.99511 9.12269 7.00879 9.08815 7.00879H8.25313C8.23598 7.00879 8.21899 7.00541 8.20314 6.99885C8.18729 6.99228 8.17289 6.98266 8.16076 6.97053C8.14863 6.9584 8.13901 6.944 8.13244 6.92815C8.12588 6.9123 8.1225 6.89531 8.1225 6.87816V6.04375C8.1225 6.02659 8.12588 6.00961 8.13244 5.99376C8.13901 5.97791 8.14863 5.96351 8.16076 5.95138C8.17289 5.93925 8.18729 5.92962 8.20314 5.92306C8.21899 5.91649 8.23598 5.91311 8.25313 5.91311V5.91281ZM11.4632 12.7324H10.8456V9.41632C10.8456 9.39917 10.8423 9.38219 10.8357 9.36634C10.8291 9.3505 10.8195 9.33611 10.8074 9.32398C10.7952 9.31186 10.7808 9.30225 10.765 9.29569C10.7491 9.28914 10.7322 9.28577 10.715 9.28579H8.28005C8.2629 9.28577 8.24592 9.28914 8.23007 9.29569C8.21422 9.30225 8.19982 9.31186 8.18769 9.32398C8.17555 9.33611 8.16593 9.3505 8.15936 9.36634C8.1528 9.38219 8.14942 9.39917 8.14942 9.41632V12.7324H7.5323V5.3799H11.4628V12.7324H11.4632ZM11.7243 6.21207H13.1496V12.7324H11.7239V11.0887H12.4284C12.463 11.0887 12.4962 11.0749 12.5207 11.0505C12.5452 11.026 12.559 10.9928 12.559 10.9582V10.123C12.559 10.0884 12.5452 10.0552 12.5207 10.0307C12.4962 10.0063 12.463 9.9925 12.4284 9.9925H11.7239V9.46772H12.4284C12.463 9.46772 12.4962 9.45397 12.5207 9.42949C12.5452 9.40501 12.559 9.37181 12.559 9.33719V8.50207C12.559 8.46745 12.5452 8.43425 12.5207 8.40977C12.4962 8.38529 12.463 8.37153 12.4284 8.37153H11.7239V7.84686H12.4284C12.4456 7.84686 12.4626 7.84348 12.4784 7.83691C12.4942 7.83034 12.5086 7.82072 12.5208 7.80859C12.5329 7.79646 12.5425 7.78205 12.549 7.7662C12.5556 7.75036 12.559 7.73337 12.559 7.71622V6.8811C12.559 6.84648 12.5452 6.81328 12.5207 6.7888C12.4962 6.76432 12.463 6.75057 12.4284 6.75057H11.7239V6.21218L11.7243 6.21207ZM7.27113 12.7324H5.84581V6.21207H7.27113V6.75047H6.56665C6.53203 6.75047 6.49882 6.76422 6.47434 6.7887C6.44986 6.81318 6.43611 6.84638 6.43611 6.881V7.71612C6.4361 7.73327 6.43946 7.75025 6.44602 7.7661C6.45257 7.78195 6.46219 7.79635 6.47431 7.80849C6.48643 7.82062 6.50083 7.83024 6.51667 7.83681C6.53251 7.84337 6.5495 7.84675 6.56665 7.84675H7.27113V8.37143H6.56665C6.5495 8.37143 6.53251 8.37481 6.51667 8.38138C6.50083 8.38795 6.48643 8.39757 6.47431 8.4097C6.46219 8.42183 6.45257 8.43624 6.44602 8.45208C6.43946 8.46793 6.4361 8.48492 6.43611 8.50207V9.33719C6.43611 9.37181 6.44986 9.40501 6.47434 9.42949C6.49882 9.45397 6.53203 9.46772 6.56665 9.46772H7.27113V9.9925H6.56665C6.53203 9.9925 6.49882 10.0063 6.47434 10.0307C6.44986 10.0552 6.43611 10.0884 6.43611 10.123V10.9582C6.43611 10.9928 6.44986 11.026 6.47434 11.0505C6.49882 11.0749 6.53203 11.0887 6.56665 11.0887H7.27113V12.7324ZM9.62786 9.54716V12.7324H10.5845V9.54716H9.62786Z" fill="white"/>
</svg>
