<svg width="31" height="31" viewBox="0 0 31 31" fill="none" xmlns="http://www.w3.org/2000/svg">
<circle cx="15.8774" cy="15.2568" r="15" fill="#FF3636" fill-opacity="0.16"/>
<g clip-path="url(#clip0_911_28668)">
<path d="M11.7096 20.1179C11.7096 20.8818 12.3346 21.5068 13.0985 21.5068H18.654C19.4179 21.5068 20.0429 20.8818 20.0429 20.1179V13.1735C20.0429 12.4096 19.4179 11.7846 18.654 11.7846H13.0985C12.3346 11.7846 11.7096 12.4096 11.7096 13.1735V20.1179ZM20.0429 9.70128H18.3068L17.8137 9.20822C17.6887 9.08322 17.5082 9.00684 17.3276 9.00684H14.4249C14.2443 9.00684 14.0637 9.08322 13.9387 9.20822L13.4457 9.70128H11.7096C11.3276 9.70128 11.0151 10.0138 11.0151 10.3957C11.0151 10.7777 11.3276 11.0902 11.7096 11.0902H20.0429C20.4249 11.0902 20.7374 10.7777 20.7374 10.3957C20.7374 10.0138 20.4249 9.70128 20.0429 9.70128Z" fill="#FF3636"/>
</g>
<defs>
<clipPath id="clip0_911_28668">
<rect width="16.6667" height="16.6667" fill="white" transform="translate(7.54541 6.92383)"/>
</clipPath>
</defs>
</svg>
