<svg width="31" height="30" viewBox="0 0 31 30" fill="none" xmlns="http://www.w3.org/2000/svg">
<circle cx="15.9668" cy="15" r="15" fill="white" fill-opacity="0.84"/>
<g clip-path="url(#clip0_1007_7690)">
<path d="M11.7989 19.8611C11.7989 20.625 12.4239 21.25 13.1878 21.25H18.7434C19.5073 21.25 20.1323 20.625 20.1323 19.8611V12.9167C20.1323 12.1528 19.5073 11.5278 18.7434 11.5278H13.1878C12.4239 11.5278 11.7989 12.1528 11.7989 12.9167V19.8611ZM20.1323 9.44444H18.3962L17.9031 8.95139C17.7781 8.82639 17.5975 8.75 17.417 8.75H14.5142C14.3337 8.75 14.1531 8.82639 14.0281 8.95139L13.535 9.44444H11.7989C11.417 9.44444 11.1045 9.75694 11.1045 10.1389C11.1045 10.5208 11.417 10.8333 11.7989 10.8333H20.1323C20.5142 10.8333 20.8267 10.5208 20.8267 10.1389C20.8267 9.75694 20.5142 9.44444 20.1323 9.44444Z" fill="#FF3636"/>
</g>
<defs>
<clipPath id="clip0_1007_7690">
<rect width="16.6667" height="16.6667" fill="white" transform="translate(7.63477 6.66699)"/>
</clipPath>
</defs>
</svg>
