<svg width="204" height="215" viewBox="0 0 204 215" fill="none" xmlns="http://www.w3.org/2000/svg">
<path d="M102.312 151.857C143.888 151.857 177.592 118.026 177.592 76.2945C177.592 34.5627 143.888 0.732391 102.312 0.732391C60.7355 0.732391 27.0312 34.5627 27.0312 76.2945C27.0312 118.026 60.7355 151.857 102.312 151.857Z" fill="url(#paint0_linear_630_5254)"/>
<g clip-path="url(#clip0_630_5254)">
<path d="M15.345 200.328C16.5201 200.741 17.7818 200.845 19.0086 200.629C20.2353 200.413 21.3857 199.884 22.349 199.095C24.8021 197.035 25.5714 193.644 26.1971 190.503L28.0481 181.213L24.1728 183.881C21.3857 185.8 18.536 187.781 16.6064 190.56C14.6768 193.339 13.835 197.134 15.3849 200.142" fill="#E6E6E6"/>
<path d="M15.9433 212.223C15.4555 208.669 14.9537 205.07 15.2966 201.478C15.6005 198.288 16.5738 195.173 18.5551 192.618C19.6068 191.264 20.8865 190.105 22.3367 189.191C22.7147 188.952 23.0628 189.552 22.6863 189.789C20.177 191.375 18.2362 193.717 17.1435 196.477C15.9368 199.546 15.743 202.891 15.9509 206.152C16.0765 208.123 16.3435 210.082 16.6117 212.038C16.6328 212.127 16.6196 212.22 16.5747 212.299C16.5297 212.378 16.4565 212.437 16.3696 212.465C16.281 212.488 16.1866 212.476 16.1068 212.431C16.0271 212.386 15.9684 212.311 15.9435 212.223L15.9433 212.223Z" fill="#F2F2F2"/>
<path d="M19.4551 206.521C19.959 207.287 20.6517 207.911 21.4666 208.331C22.2814 208.752 23.1909 208.956 24.1073 208.923C26.463 208.811 28.4261 207.168 30.1931 205.607L35.4206 200.991L31.961 200.826C29.473 200.707 26.9208 200.595 24.551 201.363C22.1812 202.131 19.9957 203.977 19.5625 206.43" fill="#E6E6E6"/>
<path d="M14.5651 214.266C16.9134 210.111 19.637 205.493 24.504 204.017C25.8572 203.608 27.276 203.461 28.6842 203.585C29.1281 203.623 29.0172 204.308 28.5743 204.269C26.2138 204.073 23.8578 204.697 21.9031 206.034C20.022 207.315 18.5573 209.095 17.3178 210.982C16.5584 212.139 15.8783 213.344 15.1981 214.548C14.9808 214.933 14.3452 214.655 14.5651 214.266Z" fill="#F2F2F2"/>
<path d="M202.464 162.972H72.9989C72.6 162.972 72.2175 162.813 71.9354 162.531C71.6534 162.249 71.4947 161.866 71.4941 161.468V41.2371C71.4947 40.8382 71.6534 40.4558 71.9355 40.1737C72.2175 39.8916 72.6 39.7329 72.9989 39.7324H202.464C202.863 39.7329 203.245 39.8916 203.527 40.1737C203.809 40.4558 203.968 40.8382 203.969 41.2371V161.467C203.968 161.866 203.81 162.249 203.527 162.531C203.245 162.813 202.863 162.972 202.464 162.972Z" fill="white"/>
<path d="M202.464 162.972H72.9989C72.6 162.972 72.2175 162.813 71.9354 162.531C71.6534 162.249 71.4947 161.866 71.4941 161.468V41.2371C71.4947 40.8382 71.6534 40.4558 71.9355 40.1737C72.2175 39.8916 72.6 39.7329 72.9989 39.7324H202.464C202.863 39.7329 203.245 39.8916 203.527 40.1737C203.809 40.4558 203.968 40.8382 203.969 41.2371V161.467C203.968 161.866 203.81 162.249 203.527 162.531C203.245 162.813 202.863 162.972 202.464 162.972ZM72.9989 40.3331C72.7598 40.3336 72.5307 40.4288 72.3616 40.5979C72.1926 40.767 72.0974 40.9961 72.0968 41.2352V161.467C72.0974 161.706 72.1926 161.935 72.3616 162.105C72.5307 162.274 72.7598 162.369 72.9989 162.369H202.464C202.703 162.369 202.932 162.274 203.101 162.105C203.27 161.936 203.365 161.706 203.366 161.467V41.2371C203.365 40.9981 203.27 40.7689 203.101 40.5999C202.932 40.4308 202.703 40.3356 202.464 40.3351L72.9989 40.3331Z" fill="#CACACA"/>
<path d="M134.174 70.9746C133.903 70.975 133.644 71.0829 133.453 71.2744C133.262 71.4659 133.154 71.7255 133.154 71.9962C133.154 72.2668 133.262 72.5264 133.453 72.7179C133.644 72.9094 133.903 73.0173 134.174 73.0177H190.231C190.501 73.0173 190.761 72.9094 190.952 72.7179C191.143 72.5264 191.25 72.2668 191.25 71.9962C191.25 71.7255 191.143 71.4659 190.952 71.2744C190.761 71.0829 190.501 70.975 190.231 70.9746H134.174Z" fill="#E4E4E4"/>
<path d="M134.173 77.1049C133.903 77.1056 133.644 77.2135 133.453 77.405C133.262 77.5966 133.154 77.856 133.154 78.1265C133.154 78.3971 133.262 78.6565 133.453 78.848C133.644 79.0396 133.903 79.1475 134.173 79.1481H162.791C163.062 79.1475 163.321 79.0396 163.512 78.848C163.703 78.6565 163.811 78.3971 163.811 78.1265C163.811 77.856 163.703 77.5966 163.512 77.405C163.321 77.2135 163.062 77.1056 162.791 77.1049H134.173Z" fill="#E4E4E4"/>
<path d="M85.1773 110.07C84.9068 110.071 84.6476 110.179 84.4565 110.37C84.2655 110.562 84.1582 110.821 84.1582 111.092C84.1582 111.362 84.2655 111.622 84.4565 111.813C84.6476 112.005 84.9068 112.113 85.1773 112.113H190.283C190.554 112.113 190.813 112.005 191.004 111.813C191.195 111.622 191.303 111.362 191.303 111.092C191.303 110.821 191.195 110.562 191.004 110.37C190.813 110.179 190.554 110.071 190.283 110.07H85.1773Z" fill="#E4E4E4"/>
<path d="M85.1773 116.2C84.9068 116.201 84.6476 116.309 84.4565 116.5C84.2655 116.692 84.1582 116.951 84.1582 117.222C84.1582 117.492 84.2655 117.752 84.4565 117.943C84.6476 118.135 84.9068 118.243 85.1773 118.243H162.845C163.115 118.243 163.375 118.135 163.566 117.943C163.757 117.752 163.864 117.492 163.864 117.222C163.864 116.951 163.757 116.692 163.566 116.5C163.375 116.309 163.115 116.201 162.845 116.2H85.1773Z" fill="#E4E4E4"/>
<path d="M85.1773 122.192C84.9068 122.193 84.6476 122.3 84.4565 122.492C84.2655 122.683 84.1582 122.943 84.1582 123.213C84.1582 123.484 84.2655 123.743 84.4565 123.935C84.6476 124.126 84.9068 124.234 85.1773 124.235H190.283C190.554 124.234 190.813 124.126 191.004 123.935C191.195 123.743 191.303 123.484 191.303 123.213C191.303 122.943 191.195 122.683 191.004 122.492C190.813 122.3 190.554 122.193 190.283 122.192H85.1773Z" fill="#E4E4E4"/>
<path d="M85.1773 128.322C84.9068 128.322 84.6476 128.43 84.4565 128.622C84.2655 128.813 84.1582 129.073 84.1582 129.343C84.1582 129.614 84.2655 129.873 84.4565 130.065C84.6476 130.256 84.9068 130.364 85.1773 130.365H162.845C163.115 130.364 163.375 130.256 163.566 130.065C163.757 129.873 163.864 129.614 163.864 129.343C163.864 129.073 163.757 128.813 163.566 128.622C163.375 128.43 163.115 128.322 162.845 128.322H85.1773Z" fill="#E4E4E4"/>
<path d="M85.1773 134.473C84.9068 134.474 84.6476 134.582 84.4565 134.773C84.2655 134.965 84.1582 135.224 84.1582 135.495C84.1582 135.765 84.2655 136.025 84.4565 136.216C84.6476 136.408 84.9068 136.516 85.1773 136.516H190.283C190.554 136.516 190.813 136.408 191.004 136.216C191.195 136.025 191.303 135.765 191.303 135.495C191.303 135.224 191.195 134.965 191.004 134.773C190.813 134.582 190.554 134.474 190.283 134.473H85.1773Z" fill="#E4E4E4"/>
<path d="M85.1773 140.603C84.9068 140.604 84.6476 140.712 84.4565 140.903C84.2655 141.095 84.1582 141.354 84.1582 141.625C84.1582 141.895 84.2655 142.155 84.4565 142.346C84.6476 142.538 84.9068 142.646 85.1773 142.646H162.845C163.115 142.646 163.375 142.538 163.566 142.346C163.757 142.155 163.864 141.895 163.864 141.625C163.864 141.354 163.757 141.095 163.566 140.903C163.375 140.712 163.115 140.604 162.845 140.603H85.1773Z" fill="#E4E4E4"/>
<path d="M101.826 89.7385C98.9231 89.7385 96.0853 88.8777 93.6716 87.265C91.2579 85.6522 89.3767 83.3599 88.2657 80.678C87.1548 77.9961 86.8641 75.0449 87.4304 72.1978C87.9968 69.3506 89.3946 66.7354 91.4473 64.6827C93.5 62.63 96.1152 61.2321 98.9624 60.6658C101.81 60.0994 104.761 60.3901 107.443 61.501C110.125 62.6118 112.417 64.4931 114.03 66.9068C115.642 69.3205 116.503 72.1582 116.503 75.0611C116.499 78.9524 114.951 82.6831 112.199 85.4347C109.448 88.1862 105.717 89.734 101.826 89.7385Z" fill="#4F55F0"/>
<path d="M57.2727 145.235C57.2473 144.699 57.1048 144.175 56.8551 143.701C56.6055 143.226 56.2548 142.812 55.8278 142.487C55.4008 142.163 54.9078 141.936 54.3836 141.822C53.8593 141.709 53.3167 141.712 52.7937 141.831L47.9423 134.994L43.0684 136.929L50.0552 146.488C50.3134 147.353 50.8801 148.094 51.6478 148.569C52.4156 149.044 53.331 149.222 54.2206 149.067C55.1103 148.913 55.9124 148.437 56.4749 147.731C57.0374 147.024 57.3213 146.136 57.2727 145.235Z" fill="#A0616A"/>
<path d="M47.8164 144.728L33.1367 125.684L38.6371 108.397C39.0401 104.051 41.7598 102.838 41.8755 102.788L42.052 102.712L46.8383 115.476L43.324 124.848L51.9498 139.355L47.8164 144.728Z" fill="#5874BE"/>
<path d="M98.797 86.0219C98.2649 86.0886 97.7538 86.2712 97.2999 86.5568C96.8459 86.8424 96.4601 87.2241 96.1696 87.6749C95.8791 88.1258 95.691 88.6348 95.6185 89.1662C95.546 89.6976 95.5909 90.2385 95.7501 90.7507L89.3086 96.1162L91.6145 100.826L100.605 93.121C101.447 92.7966 102.142 92.1743 102.556 91.3722C102.971 90.57 103.077 89.6436 102.854 88.7685C102.631 87.8935 102.095 87.1306 101.347 86.6244C100.6 86.1181 99.6922 85.9038 98.797 86.0219Z" fill="#A0616A"/>
<path d="M99.0224 95.4877L81.1704 111.596L63.5102 107.449C59.1459 107.383 57.7257 104.765 57.6673 104.654L57.5781 104.483L69.9338 98.7245L79.5488 101.504L93.3457 91.7822L99.0224 95.4877Z" fill="#5874BE"/>
<path d="M68.1005 210.001L72.897 210.001L75.1786 191.5L68.0996 191.5L68.1005 210.001Z" fill="#A0616A"/>
<path d="M82.1465 214.455L67.0719 214.455L67.0716 208.631L77.917 208.63C79.0387 208.63 80.1144 209.076 80.9076 209.869C81.7007 210.662 82.1464 211.738 82.1464 212.859L82.1465 214.455Z" fill="#2F2E41"/>
<path d="M48.9303 210.001L53.7268 210.001L56.0087 191.5L48.9297 191.5L48.9303 210.001Z" fill="#A0616A"/>
<path d="M62.9766 214.455L47.902 214.455L47.9017 208.631L58.7471 208.63C59.3025 208.63 59.8524 208.74 60.3656 208.952C60.8787 209.165 61.3449 209.476 61.7376 209.869C62.1304 210.262 62.4419 210.728 62.6545 211.241C62.8671 211.754 62.9765 212.304 62.9765 212.859L62.9766 214.455Z" fill="#2F2E41"/>
<path d="M47.2246 142.471L47.6158 169.858L48.0073 205.851L56.6142 205.069L60.918 155.382L66.3954 205.069H75.2812L76.1762 154.991L73.0463 144.036L47.2246 142.471Z" fill="#102048"/>
<path d="M64.0705 146.149C54.7054 146.15 46.0848 141.911 45.9685 141.853L45.8718 141.805L45.0859 122.944C44.858 122.277 40.3703 109.126 39.6103 104.946C38.8402 100.71 50.0008 96.9936 51.3561 96.559L51.6637 93.152L64.1705 91.8043L65.7557 96.1637L70.2426 97.8462C70.7512 98.037 71.1722 98.4079 71.4257 98.8884C71.6793 99.369 71.7477 99.9258 71.6181 100.453L69.1243 110.595L75.2149 144.147L73.9037 144.204C70.7607 145.623 67.3685 146.149 64.0705 146.149Z" fill="#708CD5"/>
<path d="M62.7256 88.543C67.0895 86.1575 68.6932 80.6861 66.3077 76.3223C63.9222 71.9585 58.4508 70.3547 54.087 72.7402C49.7231 75.1257 48.1194 80.5971 50.5049 84.961C52.8904 89.3248 58.3618 90.9285 62.7256 88.543Z" fill="#F9B384"/>
<path d="M51.1132 89.359C52.8293 91.187 56.0164 90.2057 56.24 87.7083C56.2575 87.5144 56.2563 87.3193 56.2362 87.1256C56.1208 86.0194 55.4817 85.0151 55.6347 83.8471C55.6694 83.5564 55.7777 83.2793 55.9494 83.0422C57.3169 81.2109 60.5271 83.8613 61.8178 82.2035C62.6091 81.187 61.6789 79.5865 62.2862 78.4504C63.0877 76.9509 65.4618 77.6906 66.9507 76.8694C68.6072 75.9557 68.5081 73.4142 67.4177 71.8683C66.0878 69.983 63.7563 68.977 61.4537 68.832C59.1512 68.6871 56.8645 69.3095 54.7149 70.1472C52.2725 71.0991 49.8505 72.4145 48.3474 74.5621C46.5196 77.1738 46.3437 80.6851 47.2578 83.739C47.8139 85.5968 49.7118 87.8662 51.1132 89.359Z" fill="#2F2E41"/>
<path d="M100.979 80.605C100.714 80.6053 100.459 80.5051 100.266 80.3247L95.4259 75.8295C95.2225 75.6402 95.1026 75.3779 95.0925 75.1002C95.0824 74.8225 95.1829 74.5522 95.372 74.3486C95.5611 74.145 95.8233 74.0248 96.1009 74.0144C96.3786 74.004 96.649 74.1043 96.8528 74.2932L100.952 78.1009L109.063 69.9905C109.16 69.8925 109.276 69.8147 109.403 69.7616C109.53 69.7084 109.667 69.6809 109.805 69.6806C109.943 69.6804 110.08 69.7074 110.207 69.7601C110.335 69.8128 110.451 69.8902 110.548 69.9878C110.646 70.0854 110.723 70.2013 110.776 70.3289C110.828 70.4564 110.855 70.5931 110.855 70.7312C110.855 70.8692 110.827 71.0058 110.774 71.1331C110.721 71.2605 110.643 71.3761 110.545 71.4733L101.72 80.298C101.623 80.3954 101.508 80.4727 101.38 80.5254C101.253 80.5781 101.117 80.6051 100.979 80.605Z" fill="white"/>
</g>
<defs>
<linearGradient id="paint0_linear_630_5254" x1="102.312" y1="0.732391" x2="102.312" y2="151.857" gradientUnits="userSpaceOnUse">
<stop stop-color="#E7EBF7" stop-opacity="0"/>
<stop offset="1" stop-color="#E7EBF7"/>
</linearGradient>
<clipPath id="clip0_630_5254">
<rect width="203.937" height="175" fill="white" transform="translate(0.03125 39.7324)"/>
</clipPath>
</defs>
</svg>
