<svg width="14" height="14" viewBox="0 0 14 14" fill="none" xmlns="http://www.w3.org/2000/svg">
<circle cx="7.1545" cy="7.09127" r="6.49483" fill="white"/>
<path d="M6.34683 3.11315C6.3355 3.00027 6.34796 2.88626 6.38339 2.77848C6.41883 2.67071 6.47646 2.57156 6.55257 2.48742C6.62869 2.40329 6.72159 2.33604 6.82528 2.29002C6.92898 2.24399 7.04118 2.22021 7.15463 2.22021C7.26808 2.22021 7.38027 2.24399 7.48397 2.29002C7.58767 2.33604 7.68057 2.40329 7.75668 2.48742C7.83279 2.57156 7.89043 2.67071 7.92586 2.77848C7.9613 2.88626 7.97375 3.00027 7.96242 3.11315L7.64742 8.26843C7.63525 8.39068 7.57808 8.50404 7.48701 8.58649C7.39594 8.66894 7.27748 8.71461 7.15463 8.71461C7.03178 8.71461 6.91331 8.66894 6.82224 8.58649C6.73117 8.50404 6.674 8.39068 6.66183 8.26843L6.34683 3.11315ZM6.34277 10.3387C6.34277 10.1233 6.42831 9.91684 6.58056 9.76459C6.73281 9.61234 6.93931 9.5268 7.15463 9.5268C7.36994 9.5268 7.57644 9.61234 7.7287 9.76459C7.88095 9.91684 7.96648 10.1233 7.96648 10.3387C7.96648 10.554 7.88095 10.7605 7.7287 10.9127C7.57644 11.065 7.36994 11.1505 7.15463 11.1505C6.93931 11.1505 6.73281 11.065 6.58056 10.9127C6.42831 10.7605 6.34277 10.554 6.34277 10.3387Z" fill="#F45454"/>
</svg>
