<svg width="8" height="8" viewBox="0 0 8 8" fill="none" xmlns="http://www.w3.org/2000/svg">
<circle cx="3.8919" cy="3.93487" r="3.28058" fill="white"/>
<path d="M3.48374 1.92564C3.47802 1.86862 3.48431 1.81103 3.50221 1.75659C3.52011 1.70216 3.54922 1.65207 3.58766 1.60958C3.62611 1.56708 3.67303 1.53311 3.72541 1.50987C3.77779 1.48662 3.83446 1.47461 3.89176 1.47461C3.94907 1.47461 4.00574 1.48662 4.05811 1.50987C4.11049 1.53311 4.15742 1.56708 4.19586 1.60958C4.23431 1.65207 4.26342 1.70216 4.28132 1.75659C4.29922 1.81103 4.30551 1.86862 4.29978 1.92564L4.14068 4.52959C4.13453 4.59134 4.10565 4.6486 4.05965 4.69025C4.01365 4.7319 3.95381 4.75496 3.89176 4.75496C3.82971 4.75496 3.76987 4.7319 3.72387 4.69025C3.67787 4.6486 3.64899 4.59134 3.64285 4.52959L3.48374 1.92564ZM3.48169 5.57528C3.48169 5.46652 3.52489 5.36222 3.6018 5.28531C3.6787 5.20841 3.783 5.16521 3.89176 5.16521C4.00052 5.16521 4.10482 5.20841 4.18173 5.28531C4.25863 5.36222 4.30183 5.46652 4.30183 5.57528C4.30183 5.68404 4.25863 5.78834 4.18173 5.86524C4.10482 5.94215 4.00052 5.98535 3.89176 5.98535C3.783 5.98535 3.6787 5.94215 3.6018 5.86524C3.52489 5.78834 3.48169 5.68404 3.48169 5.57528Z" fill="#F45454"/>
</svg>
