<svg width="34" height="34" viewBox="0 0 34 34" fill="none" xmlns="http://www.w3.org/2000/svg">
<path d="M26.1568 11.2325H15.8159L13.7589 8.78776C13.6897 8.70458 13.586 8.65793 13.4779 8.6613H5.13491C3.86113 8.67058 2.8335 9.70579 2.8335 10.9796V26.0161C2.83504 27.2942 3.87082 28.33 5.14896 28.3315H26.1568C27.4349 28.33 28.4707 27.2942 28.4722 26.0161V13.5479C28.4707 12.2698 27.4349 11.234 26.1568 11.2325Z" fill="#68C693"/>
<path d="M29.1967 8.23736H18.853L16.796 5.79264C16.7268 5.70946 16.6231 5.66281 16.515 5.66619H8.17482C7.01906 5.66808 6.04172 6.52191 5.88464 7.66693H13.4914C13.8903 7.66594 14.269 7.84199 14.5255 8.14744L16.2818 10.2353H26.1591C27.9859 10.2384 29.4662 11.7186 29.4693 13.5455V25.3139C30.6276 25.1694 31.4972 24.1854 31.4981 23.0181V10.55C31.4951 9.27841 30.4682 8.24663 29.1967 8.23736Z" fill="#68C693"/>
</svg>
