<svg width="20" height="21" viewBox="0 0 20 21" fill="none" xmlns="http://www.w3.org/2000/svg">
<path d="M16.1666 4.63086H3.83337C2.82202 4.63086 2 5.45288 2 6.46423V14.7975C2 15.8088 2.82202 16.6309 3.83337 16.6309H16.1666C17.178 16.6309 18 15.8088 18 14.7975V6.46423C18 5.45288 17.178 4.63086 16.1666 4.63086ZM7 7.29749C7.9187 7.29749 8.66663 8.04553 8.66663 8.96423C8.66663 9.88281 7.9187 10.6309 7 10.6309C6.0813 10.6309 5.33337 9.88281 5.33337 8.96423C5.33337 8.04553 6.0813 7.29749 7 7.29749ZM10 13.4642C10 13.7402 9.776 13.9642 9.5 13.9642H4.5C4.224 13.9642 4 13.7402 4 13.4642V13.1309C4 12.1195 4.82202 11.2975 5.83337 11.2975H8.16663C9.17798 11.2975 10 12.1195 10 13.1309V13.4642ZM15.5 13.9642H11.8334C11.5574 13.9642 11.3334 13.7402 11.3334 13.4642C11.3334 13.1882 11.5574 12.9642 11.8334 12.9642H15.5C15.776 12.9642 16 13.1882 16 13.4642C16 13.7402 15.776 13.9642 15.5 13.9642ZM15.5 11.2975H11.8334C11.5574 11.2975 11.3334 11.0735 11.3334 10.7975C11.3334 10.5215 11.5574 10.2975 11.8334 10.2975H15.5C15.776 10.2975 16 10.5215 16 10.7975C16 11.0735 15.776 11.2975 15.5 11.2975ZM15.5 8.63086H11.8334C11.5574 8.63086 11.3334 8.40686 11.3334 8.13086C11.3334 7.85486 11.5574 7.63086 11.8334 7.63086H15.5C15.776 7.63086 16 7.85486 16 8.13086C16 8.40686 15.776 8.63086 15.5 8.63086Z" fill="#4B4BFF"/>
</svg>
