<svg width="25" height="25" viewBox="0 0 25 25" fill="none" xmlns="http://www.w3.org/2000/svg">
<path fill-rule="evenodd" clip-rule="evenodd" d="M24.02 12.6501C24.02 11.7992 23.9436 10.981 23.8018 10.1956H12.5V14.8374H18.9582C18.68 16.3374 17.8345 17.6083 16.5636 18.4592V21.4701H20.4418C22.7109 19.381 24.02 16.3047 24.02 12.6501Z" fill="#4285F4"/>
<path fill-rule="evenodd" clip-rule="evenodd" d="M12.5 24.3777C15.74 24.3777 18.4564 23.3031 20.4418 21.4704L16.5636 18.4595C15.4891 19.1795 14.1145 19.6049 12.5 19.6049C9.37455 19.6049 6.72909 17.494 5.78546 14.6577H1.77637V17.7667C3.75091 21.6886 7.80909 24.3777 12.5 24.3777Z" fill="#34A853"/>
<path fill-rule="evenodd" clip-rule="evenodd" d="M5.78545 14.6578C5.54545 13.9378 5.40909 13.1687 5.40909 12.3778C5.40909 11.5869 5.54545 10.8178 5.78545 10.0978V6.98871H1.77636C0.963636 8.60871 0.5 10.4414 0.5 12.3778C0.5 14.3142 0.963636 16.1469 1.77636 17.7669L5.78545 14.6578Z" fill="#FBBC05"/>
<path fill-rule="evenodd" clip-rule="evenodd" d="M12.5 5.15011C14.2618 5.15011 15.8436 5.75556 17.0873 6.94465L20.5291 3.50284C18.4509 1.56647 15.7345 0.37738 12.5 0.37738C7.80909 0.37738 3.75091 3.06647 1.77637 6.98829L5.78546 10.0974C6.72909 7.26102 9.37455 5.15011 12.5 5.15011Z" fill="#EA4335"/>
</svg>
