<svg width="20" height="20" viewBox="0 0 20 20" fill="none" xmlns="http://www.w3.org/2000/svg">
<path d="M1.5556 11.0601H7.8889C8.4694 11.0601 8.9444 10.58 8.9444 10V1.56006C8.9444 0.970059 8.4694 0.5 7.8889 0.5H1.5556C0.974999 0.5 0.5 0.970059 0.5 1.56006V10C0.5 10.58 0.974999 11.0601 1.5556 11.0601ZM1.5556 19.5H7.8889C8.4694 19.5 8.9444 19.0199 8.9444 18.4399V14.22C8.9444 13.64 8.4694 13.1699 7.8889 13.1699H1.5556C0.974999 13.1699 0.5 13.64 0.5 14.22V18.4399C0.5 19.0199 0.974999 19.5 1.5556 19.5ZM12.1111 19.5H18.4444C19.025 19.5 19.5 19.0199 19.5 18.4399V10C19.5 9.42 19.025 8.93994 18.4444 8.93994H12.1111C11.5306 8.93994 11.0556 9.42 11.0556 10V18.4399C11.0556 19.0199 11.5306 19.5 12.1111 19.5ZM11.0556 1.56006V5.78003C11.0556 6.36003 11.5306 6.83008 12.1111 6.83008H18.4444C19.025 6.83008 19.5 6.36003 19.5 5.78003V1.56006C19.5 0.970059 19.025 0.5 18.4444 0.5H12.1111C11.5306 0.5 11.0556 0.970059 11.0556 1.56006Z" fill="white"/>
</svg>
