<svg width="188" height="44" viewBox="0 0 188 44" fill="none" xmlns="http://www.w3.org/2000/svg">
<path d="M37.688 43.1106H29.7823V39.3619C29.809 37.4413 29.1112 35.5855 27.8362 34.186C27.2603 33.4874 26.5384 32.9325 25.7247 32.5631C24.911 32.1936 24.0268 32.0192 23.1384 32.0529H22.1806V43.1106H14.062V12.7453H18.1213H22.1806V24.0224H23.1384C23.9538 24.0522 24.766 23.9027 25.5209 23.5836C26.2759 23.2644 26.9563 22.7831 27.517 22.1717C28.8051 20.9228 29.61 19.2342 29.7823 17.4193V12.714H37.7033V16.6664C37.7217 18.7996 37.2953 20.9119 36.4534 22.8603C35.6115 24.8087 34.3735 26.5477 32.8229 27.9592C34.379 29.3879 35.6181 31.1462 36.4552 33.1141C37.2922 35.082 37.7074 37.2129 37.6727 39.3619C37.6727 39.8479 37.6727 40.4753 37.6727 41.2754L37.688 43.1106Z" fill="white"/>
<path d="M73.1632 43.1106H65.2004V28.2395C65.2163 26.8111 64.8225 25.409 64.0671 24.2053C63.3116 23.0017 62.2276 22.0489 60.9478 21.4638C59.668 20.8788 58.2484 20.687 56.8632 20.9121C55.4779 21.1371 54.1874 21.7691 53.1498 22.7306C51.8121 23.9097 50.9824 25.5769 50.8401 27.3729V43.0951H42.7712V28.0383C42.7615 26.011 43.1612 24.0034 43.9454 22.14C44.7297 20.2766 45.8817 18.5973 47.3298 17.2062C50.1763 14.3287 54.0246 12.714 58.0354 12.714C62.0464 12.714 65.8944 14.3287 68.7409 17.2062C70.1855 18.6354 71.3237 20.3533 72.0847 22.2521C72.8457 24.1508 73.2128 26.1893 73.1632 28.2395V43.1106Z" fill="white"/>
<path d="M108.628 27.9188C108.661 29.9134 108.286 31.8939 107.525 33.7388C106.764 35.5837 105.634 37.2543 104.203 38.6479C102.793 40.0621 101.117 41.1847 99.2714 41.9506C97.4258 42.7165 95.4462 43.1106 93.4469 43.1106C91.4475 43.1106 89.4683 42.7165 87.6223 41.9506C85.7763 41.1847 84.1005 40.0621 82.691 38.6479C81.2531 37.2578 80.1159 35.5888 79.3496 33.7435C78.5829 31.8982 78.2036 29.9159 78.2352 27.9188C78.2057 25.9219 78.5857 23.9401 79.3521 22.0951C80.1184 20.2501 81.2545 18.5808 82.691 17.1898C84.0984 15.7717 85.7735 14.646 87.6198 13.8778C89.4661 13.1095 91.4465 12.714 93.4469 12.714C95.4472 12.714 97.4279 13.1095 99.2739 13.8778C101.12 14.646 102.795 15.7717 104.203 17.1898C105.632 18.5845 106.762 20.2552 107.523 22.0998C108.283 23.9445 108.66 25.9244 108.628 27.9188ZM100.7 27.9188C100.702 26.9709 100.516 26.032 100.153 25.1561C99.7893 24.2802 99.256 23.4846 98.5834 22.815C97.9107 22.1455 97.1118 21.6152 96.2332 21.2548C95.3542 20.8944 94.4125 20.711 93.4623 20.715C92.5191 20.6982 91.5826 20.8746 90.7104 21.2331C89.8384 21.5916 89.0489 22.1247 88.3918 22.7995C87.723 23.4709 87.1984 24.271 86.8496 25.1511C86.5012 26.0312 86.3356 26.9729 86.3633 27.9188C86.3612 28.858 86.5451 29.7885 86.904 30.6568C87.263 31.5251 87.79 32.3143 88.4553 32.9792C89.1202 33.644 89.9104 34.1715 90.7802 34.5314C91.6497 34.8913 92.5823 35.0766 93.5237 35.0766C94.4721 35.0893 95.4135 34.9097 96.2904 34.5488C97.1672 34.1878 97.9616 33.653 98.6251 32.9768C99.2995 32.3202 99.8314 31.5325 100.188 30.6625C100.545 29.7925 100.719 28.8586 100.7 27.9188Z" fill="white"/>
<path d="M152.536 12.714V31.2809C152.499 33.5429 151.831 35.7473 150.61 37.6361C149.389 39.5249 147.665 41.0195 145.641 41.9456C143.617 42.8713 141.376 43.1899 139.181 42.8642C136.986 42.5383 134.927 41.5813 133.246 40.1055C131.135 42.0841 128.36 43.1593 125.493 43.1089C123.955 43.1267 122.429 42.8316 121.003 42.241C119.578 41.6505 118.282 40.7762 117.191 39.6694C116.073 38.6325 115.183 37.3651 114.581 35.9512C113.978 34.5373 113.677 33.0091 113.697 31.4677V12.7918H121.648V31.3432C121.648 32.3504 122.04 33.3162 122.738 34.0284C123.436 34.7405 124.384 35.1406 125.371 35.1406C125.87 35.1503 126.366 35.0559 126.828 34.8632C127.29 34.6705 127.708 34.3836 128.057 34.0201C128.406 33.672 128.682 33.2553 128.869 32.7952C129.055 32.335 129.148 31.841 129.141 31.3432V12.7762H137.092V31.7479C137.203 32.6397 137.639 33.4565 138.313 34.0356C139.002 34.6562 139.897 34.9847 140.815 34.9539C141.299 34.9629 141.78 34.8694 142.226 34.6792C142.673 34.489 143.076 34.2062 143.41 33.8489C143.756 33.4838 144.027 33.0523 144.208 32.5794C144.388 32.1065 144.475 31.6016 144.463 31.0942V12.714H152.536Z" fill="white"/>
<path d="M187.998 43.1031V28.6117C187.998 28.3817 187.998 28.1516 187.998 27.9216C188.03 25.9262 187.654 23.9453 186.893 22.0997C186.132 20.2541 185.002 18.5826 183.573 17.1872C182.166 15.7684 180.491 14.6421 178.645 13.8735C176.798 13.1049 174.818 12.7091 172.818 12.7091C170.817 12.7091 168.837 13.1049 166.99 13.8735C165.144 14.6421 163.469 15.7684 162.062 17.1872C160.623 18.5767 159.484 20.2464 158.718 22.0929C157.951 23.9394 157.573 25.9232 157.606 27.9216C157.568 29.9207 157.943 31.9062 158.71 33.7535C159.477 35.6007 160.618 37.2699 162.062 38.6562C163.451 40.097 165.123 41.236 166.974 42.0011C168.825 42.7666 170.814 43.1415 172.818 43.1031C175.391 43.1338 178.195 40.5796 180.438 38.6562V43.1031H187.998ZM177.934 32.9821C177.269 33.6552 176.474 34.187 175.597 34.5454C174.72 34.9038 173.78 35.0815 172.833 35.0677C171.892 35.0717 170.959 34.8897 170.088 34.532C169.218 34.1743 168.427 33.6481 167.761 32.9837C167.095 32.3193 166.568 31.5299 166.209 30.6611C165.851 29.7923 165.669 28.8612 165.673 27.9216C165.655 26.9697 165.833 26.0242 166.195 25.1434C166.556 24.2626 167.095 23.465 167.778 22.7997C168.435 22.1246 169.224 21.5913 170.096 21.2325C170.969 20.8738 171.905 20.6974 172.848 20.7142C173.798 20.7102 174.739 20.8938 175.616 21.2546C176.495 21.6153 177.292 22.1461 177.964 22.8161C178.635 23.4863 179.167 24.2824 179.528 25.1587C179.89 26.0349 180.074 26.974 180.07 27.9216C180.082 28.8665 179.899 29.8038 179.532 30.6746C179.164 31.5455 178.62 32.3311 177.934 32.9821Z" fill="white"/>
<path d="M8.99722 43.1057H0.553711V12.7091H8.93443L8.99722 43.1057Z" fill="white"/>
<path d="M8.68724 6.73172C8.90001 6.21847 9.00534 5.66704 8.99673 5.11148C9.00534 4.55596 8.90001 4.00452 8.68724 3.49125C8.4745 2.97799 8.15884 2.51377 7.7597 2.12723C7.37317 1.72811 6.90896 1.41244 6.3957 1.19969C5.88241 0.986933 5.33102 0.881614 4.77547 0.890229C4.21991 0.881614 3.66849 0.986933 3.15523 1.19969C2.64196 1.41244 2.17774 1.72811 1.7912 2.12723C1.39208 2.51377 1.07641 2.97799 0.863657 3.49125C0.650905 4.00452 0.545585 4.55596 0.5542 5.11148C0.545585 5.66704 0.650905 6.21847 0.863657 6.73172C1.07641 7.24498 1.39208 7.7092 1.7912 8.09576C2.17774 8.49485 2.64196 8.81054 3.15523 9.02328C3.66849 9.23605 4.21991 9.34136 4.77547 9.33276C5.33102 9.34136 5.88241 9.23605 6.3957 9.02328C6.90896 8.81054 7.37317 8.49485 7.7597 8.09576C8.15884 7.7092 8.4745 7.24498 8.68724 6.73172Z" fill="white"/>
</svg>
