<svg width="205" height="38" viewBox="0 0 205 38" fill="none" xmlns="http://www.w3.org/2000/svg">
<path d="M175.384 31.4509H175.179V26.1445H175.384V26.5122V28.3192V28.6868V28.8192V29.1868V31.0743V31.4509ZM178.746 26.3353C178.709 26.3091 178.671 26.2847 178.632 26.2622C178.827 26.3201 178.984 26.3971 179.108 26.4873L179.108 26.4873L179.112 26.4901C179.376 26.6781 179.504 26.9226 179.504 27.2815C179.504 27.5448 179.424 27.7419 179.271 27.9053L179.271 27.9053C179.24 27.9379 179.207 27.9691 179.17 27.9988C179.25 27.8217 179.29 27.6246 179.29 27.4157C179.29 26.9773 179.117 26.5898 178.746 26.3353ZM179.484 30.135C179.484 29.87 179.429 29.6168 179.304 29.4004C179.347 29.4313 179.385 29.464 179.42 29.4981L179.42 29.4982L179.428 29.5059C179.592 29.6607 179.689 29.8706 179.689 30.1887C179.689 30.603 179.544 30.8827 179.263 31.0906C179.162 31.1634 179.043 31.2274 178.904 31.2805C179.312 31.0196 179.484 30.5987 179.484 30.135ZM182.579 31.0385V31.4509H182.374V26.1445H182.579V26.548V28.2923V28.7047V28.7923V29.2047V31.0385ZM190.46 26.5927V31.4509H190.206V26.5927V26.1445H190.46V26.5927ZM193.881 31.4509L194.106 30.9929H194.241L194.025 31.4509H193.881ZM194.675 29.8974L194.632 29.9227L194.655 29.8761L194.675 29.8974ZM195.07 29.0894H195.042L196.348 26.4335L196.239 26.6705L195.13 29.0894H195.07ZM196.693 26.379H196.374L196.49 26.1445H196.918L197.035 26.379H196.732H196.693ZM197.294 26.8987L198.384 29.0894H198.336H198.32L197.294 26.8987ZM199.411 31.4509L199.195 30.9929H199.331L199.559 31.4509H199.411ZM198.763 29.8517L198.802 29.9284L198.737 29.8881L198.738 29.8858L198.763 29.8517Z" fill="white" stroke="white"/>
<path d="M199.462 20.6025H174.303C171.674 20.6025 169.543 22.7437 169.543 25.3849V32.2168C169.543 34.858 171.674 36.9992 174.303 36.9992H199.462C202.091 36.9992 204.222 34.858 204.222 32.2168V25.3849C204.222 22.7437 202.091 20.6025 199.462 20.6025Z" stroke="white" stroke-width="0.5"/>
<path d="M26.1141 14.4857V10.8622H32.0555L32.0555 13.8259L32.0555 13.8302C32.0711 15.6302 31.7113 17.4123 31.0013 19.0555C30.2913 20.6986 29.2478 22.1638 27.9421 23.3524L27.5377 23.7206L27.9406 24.0905C29.2511 25.2937 30.2957 26.7754 31.0017 28.4352C31.7076 30.095 32.0581 31.893 32.0288 33.7067L32.0287 33.7067V33.7147V33.7172V33.7197V33.7222V33.7247V33.7272V33.7298V33.7323V33.7348V33.7373V33.7398V33.7423V33.7449V33.7474V33.7499V33.7525V33.755V33.7576V33.7601V33.7627V33.7652V33.7678V33.7703V33.7729V33.7754V33.778V33.7806V33.7831V33.7857V33.7883V33.7909V33.7935V33.796V33.7986V33.8012V33.8038V33.8064V33.809V33.8116V33.8142V33.8168V33.8194V33.8221V33.8247V33.8273V33.8299V33.8325V33.8352V33.8378V33.8404V33.8431V33.8457V33.8484V33.851V33.8536V33.8563V33.859V33.8616V33.8643V33.8669V33.8696V33.8723V33.8749V33.8776V33.8803V33.883V33.8857V33.8883V33.891V33.8937V33.8964V33.8991V33.9018V33.9045V33.9072V33.9099V33.9127V33.9154V33.9181V33.9208V33.9235V33.9263V33.929V33.9317V33.9345V33.9372V33.9399V33.9427V33.9454V33.9482V33.9509V33.9537V33.9565V33.9592V33.962V33.9648V33.9675V33.9703V33.9731V33.9759V33.9787V33.9814V33.9842V33.987V33.9898V33.9926V33.9954V33.9982V34.001V34.0038V34.0067V34.0095V34.0123V34.0151V34.0179V34.0208V34.0236V34.0264V34.0293V34.0321V34.0349V34.0378V34.0406V34.0435V34.0463V34.0492V34.0521V34.0549V34.0578V34.0607V34.0635V34.0664V34.0693V34.0722V34.0751V34.078V34.0808V34.0837V34.0866V34.0895V34.0924V34.0953V34.0983V34.1012V34.1041V34.107V34.1099V34.1128V34.1158V34.1187V34.1216V34.1246V34.1275V34.1304V34.1334V34.1363V34.1393V34.1422V34.1452V34.1482V34.1511V34.1541V34.1571V34.16V34.163V34.166V34.169V34.172V34.1749V34.1779V34.1809V34.1839V34.1869V34.1899V34.1929V34.1959V34.199V34.202V34.205V34.208V34.211V34.2141V34.2171V34.2201V34.2232V34.2262V34.2292V34.2323V34.2353V34.2384V34.2414V34.2445V34.2476V34.2506V34.2537V34.2568V34.2598V34.2629V34.266V34.2691V34.2722V34.2752V34.2783V34.2814V34.2845V34.2876V34.2907V34.2938V34.297V34.3001V34.3032V34.3063V34.3094V34.3126V34.3157V34.3188V34.322V34.3251V34.3282V34.3314V34.3345V34.3377V34.3408V34.344V34.3471V34.3503V34.3535V34.3566V34.3598V34.363V34.3662V34.3694V34.3725V34.3757V34.3789V34.3821V34.3853V34.3885V34.3917V34.3949V34.3981V34.4013V34.4046V34.4078V34.411V34.4142V34.4174V34.4207V34.4239V34.4272V34.4304V34.4336V34.4369V34.4401V34.4434V34.4466V34.4499V34.4532V34.4564V34.4597V34.463V34.4663V34.4695V34.4728V34.4761V34.4794V34.4827V34.486V34.4893V34.4926V34.4959V34.4992V34.5025V34.5058V34.5091V34.5125V34.5158V34.5191V34.5224V34.5258V34.5291V34.5324V34.5358V34.5391V34.5425V34.5458V34.5492V34.5525V34.5559V34.5593V34.5626V34.566V34.5694V34.5728V34.5761V34.5795V34.5829V34.5863V34.5897V34.5931V34.5965V34.5999V34.6033V34.6067V34.6101V34.6135V34.617V34.6204V34.6238V34.6272V34.6307V34.6341V34.6375V34.641V34.6444V34.6479V34.6513V34.6548V34.6582V34.6617V34.6652V34.6686V34.6721V34.6756V34.6791V34.6825V34.686V34.6895V34.693V34.6965V34.7V34.7035V34.707V34.7105V34.714V34.7175V34.721V34.7246V34.7281V34.7316V34.7351V34.7387V34.7422V34.7457V34.7493V34.7528V34.7564V34.7599V34.7635V34.767V34.7706V34.7742V34.7777V34.7813V34.7849V34.7885V34.792V34.7956V34.7992V34.8028V34.8064V34.81V34.8136V34.8172V34.8208V34.8244V34.828V34.8316V34.8353V34.8389V34.8425V34.8462V34.8498V34.8534V34.8571V34.8607V34.8644V34.868V34.8717V34.8753V34.879V34.8826V34.8863V34.89V34.8937V34.8973V34.901V34.9047V34.9084V34.9121V34.9158V34.9195V34.9232V34.9269V34.9306V34.9343V34.938V34.9417V34.9454V34.9492V34.9529V34.9566V34.9603V34.9641V34.9678V34.9716V34.9753V34.9791V34.9828V34.9866V34.9903V34.9941V34.9979V35.0016V35.0054V35.0092V35.013V35.0167V35.0205V35.0243V35.0281V35.0319V35.0357V35.0395V35.0433V35.0471V35.0509V35.0548V35.0586V35.0624V35.0662V35.0701V35.0739V35.0777V35.0816V35.0854V35.0893V35.0931V35.097V35.1008V35.1047V35.1085V35.1124V35.1163V35.1202V35.124V35.1279V35.1318V35.1357V35.1396V35.1435V35.1474V35.1513V35.1552V35.1591V35.163V35.1669V35.1708V35.1748V35.1787V35.1826V35.1865V35.1905V35.1944V35.1984V35.2023V35.2062V35.2102V35.2142V35.2181V35.2221V35.226V35.23V35.234V35.238V35.2419V35.2459V35.2499V35.2539V35.2579V35.2619V35.2659V35.2699V35.2739V35.2779V35.2819V35.2859V35.29V35.294V35.298V35.302V35.3061V35.3101V35.3142V35.3182V35.3223V35.3263V35.3304V35.3344V35.3385V35.3425V35.3466V35.3507V35.3548V35.3588V35.3629V35.367V35.3711V35.3752V35.3793V35.3834V35.3875L32.0287 35.3916L32.0288 35.3958L32.0379 36.4998H26.1141V33.7181C26.1382 31.9155 25.4847 30.1711 24.2866 28.8512C23.7354 28.1855 23.0446 27.6554 22.265 27.3014C21.4846 26.947 20.6359 26.7787 19.7826 26.8095H18.9525H18.4525V27.3095V36.4998H12.3379V10.8897H15.3952H18.4525V20.2722V20.7722H18.9525H19.7829C20.5676 20.7995 21.3487 20.6549 22.0744 20.3481L22.0744 20.3481C22.7984 20.0421 23.4502 19.582 23.9875 18.9991C25.197 17.8215 25.9503 16.2348 26.1118 14.5329L26.1141 14.5093V14.4857Z" fill="white" stroke="white"/>
<path d="M43.5674 23.2083V36.4862H37.4962L37.4963 23.7914L37.4962 23.789C37.488 22.0797 37.8251 20.3872 38.4862 18.8165C39.1472 17.2459 40.118 15.831 41.3375 14.6594L41.3376 14.6596L41.3466 14.6505C43.7481 12.2229 46.993 10.8622 50.3728 10.8622C53.7529 10.8622 56.9974 12.2229 59.399 14.6505L59.3989 14.6505L59.4028 14.6543C60.6196 15.8582 61.579 17.3059 62.2206 18.9068L62.6847 18.7207L62.2206 18.9068C62.8621 20.5076 63.1718 22.2266 63.1299 23.9556L63.1298 23.9556V23.9677V36.4998H57.1517V23.9705C57.1662 22.6244 56.7949 21.3024 56.0821 20.1667L55.6586 20.4325L56.0821 20.1667C55.3687 19.0301 54.3441 18.129 53.1329 17.5752L52.925 18.03L53.1329 17.5752C51.9216 17.0215 50.5773 16.8398 49.2654 17.0529C47.9555 17.2657 46.7362 17.8626 45.7561 18.7691C44.4881 19.889 43.7036 21.4691 43.5689 23.1689L43.5674 23.1886V23.2083Z" fill="white" stroke="white"/>
<path d="M84.0363 17.3842L84.0363 17.3843C84.8671 17.725 85.6227 18.2264 86.2589 18.8597L85.9061 19.2141L86.2589 18.8597C86.895 19.493 87.3995 20.2455 87.7431 21.0742C88.0859 21.901 88.2618 22.7872 88.2606 23.682C88.2784 24.5723 88.1132 25.4567 87.7752 26.2808C87.4372 27.1049 86.9337 27.8511 86.2956 28.4734C85.6675 29.1124 84.9161 29.6178 84.087 29.9591C83.2571 30.3007 82.3663 30.4709 81.4687 30.4593C80.5794 30.4589 79.6983 30.2837 78.8768 29.9436L84.0363 17.3842ZM84.0363 17.3842C83.2068 17.0441 82.3183 16.8707 81.4217 16.8738C80.5289 16.8586 79.6424 17.0259 78.8167 17.3653L78.8166 17.3654M84.0363 17.3842L78.8166 17.3654M78.8166 17.3654C77.9903 17.7051 77.2419 18.2102 76.6186 18.8497C75.9856 19.4857 75.489 20.2435 75.1586 21.0771L75.1586 21.0772M78.8166 17.3654L75.1586 21.0772M75.1586 21.0772C74.8292 21.9091 74.6721 22.7992 74.6973 23.6935M75.1586 21.0772L74.6973 23.6935M74.6973 23.6935C74.6963 24.5799 74.8703 25.4578 75.209 26.2771C75.5488 27.0989 76.0475 27.8458 76.6771 28.4749C77.3063 29.1041 78.0539 29.6031 78.8767 29.9435L74.6973 23.6935ZM94.2086 23.6788L94.2085 23.6869L94.2086 23.6951C94.2367 25.3748 93.9208 27.0426 93.2799 28.5963L93.2799 28.5964C92.6393 30.15 91.6869 31.557 90.4817 32.7308L90.4816 32.7308L90.4764 32.736C89.2877 33.9287 87.8744 34.8755 86.3175 35.5214L86.3175 35.5214C84.7609 36.1674 83.0912 36.4998 81.4048 36.4998C79.7185 36.4998 78.0491 36.1674 76.4922 35.5214C74.9353 34.8755 73.522 33.9287 72.3333 32.736L72.3333 32.736L72.3267 32.7295C71.1157 31.5587 70.158 30.1532 69.5127 28.5993L69.5127 28.5993C68.8671 27.0454 68.5477 25.3762 68.5743 23.6946L68.5744 23.687L68.5743 23.6793C68.5495 21.9977 68.8695 20.3288 69.5148 18.775L69.0531 18.5832L69.5148 18.775C70.1602 17.2212 71.1171 15.8153 72.3269 14.6437L72.327 14.6438L72.334 14.6367C73.5208 13.4409 74.9334 12.4916 76.4905 11.8437C78.0476 11.1958 79.7178 10.8622 81.4048 10.8622C83.0919 10.8622 84.7624 11.1958 86.3191 11.8437L86.3192 11.8437C87.8763 12.4916 89.2889 13.4409 90.4756 14.6367L90.4756 14.6368L90.4813 14.6424C91.6855 15.8172 92.6371 17.2244 93.2777 18.778C93.9184 20.3316 94.2352 21.9991 94.2086 23.6788Z" fill="white" stroke="white"/>
<path d="M116.272 33.6913L116.612 33.9905C118.014 35.2209 119.729 36.0179 121.557 36.2893C123.385 36.5604 125.251 36.2953 126.937 35.5242C128.623 34.7526 130.06 33.5068 131.079 31.9308C132.097 30.3558 132.655 28.5167 132.687 26.6288V10.8622H126.612V26.4634C126.624 26.9711 126.537 27.4761 126.355 27.9495C126.174 28.4243 125.902 28.8582 125.554 29.2259C125.214 29.5891 124.804 29.8771 124.348 30.071L124.348 30.0711C123.896 30.2636 123.41 30.3593 122.919 30.3519C121.99 30.3797 121.087 30.0466 120.392 29.4225C119.709 28.8332 119.268 28.0054 119.156 27.1039L119.153 27.0732V27.0422V10.9168H113.185V26.6844C113.191 27.1859 113.098 27.6835 112.91 28.1475L112.91 28.1478C112.722 28.6111 112.444 29.0317 112.092 29.3838C111.74 29.7495 111.317 30.0389 110.85 30.2337L116.272 33.6913ZM116.272 33.6913L115.941 34.0015M116.272 33.6913L115.941 34.0015M115.941 34.0015C114.185 35.6474 111.878 36.5403 109.497 36.4984L109.49 36.4983M115.941 34.0015L109.49 36.4983M109.49 36.4983L109.483 36.4983M109.49 36.4983L109.483 36.4983M109.483 36.4983C108.202 36.5131 106.932 36.2676 105.745 35.7758C104.558 35.2841 103.478 34.5559 102.569 33.6332L102.561 33.6252M109.483 36.4983L102.561 33.6252M102.561 33.6252L102.553 33.6175M102.561 33.6252L102.553 33.6175M102.553 33.6175C101.625 32.757 100.886 31.7047 100.386 30.5298L100.385 30.5297M102.553 33.6175L100.385 30.5297M100.385 30.5297C99.8848 29.3549 99.6342 28.0846 99.6507 26.8032H99.6507M100.385 30.5297L99.6507 26.8032M99.6507 26.8032V26.7967M99.6507 26.8032V26.7967M99.6507 26.7967V10.9304M99.6507 26.7967V10.9304M99.6507 10.9304H105.618V26.6876C105.618 27.6997 106.013 28.6722 106.717 29.3907C107.421 30.1086 108.377 30.5141 109.377 30.5154C109.882 30.5246 110.383 30.4287 110.85 30.2338L99.6507 10.9304Z" fill="white" stroke="white"/>
<path d="M163.764 36.4927V24.2934V24.2922V24.291V24.2898V24.2886V24.2875V24.2863V24.2851V24.2839V24.2827V24.2815V24.2804V24.2792V24.278V24.2768V24.2756V24.2745V24.2733V24.2721V24.2709V24.2697V24.2686V24.2674V24.2662V24.265V24.2638V24.2626V24.2615V24.2603V24.2591V24.2579V24.2567V24.2556V24.2544V24.2532V24.252V24.2508V24.2497V24.2485V24.2473V24.2461V24.2449V24.2438V24.2426V24.2414V24.2402V24.239V24.2378V24.2367V24.2355V24.2343V24.2331V24.2319V24.2308V24.2296V24.2284V24.2272V24.226V24.2249V24.2237V24.2225V24.2213V24.2201V24.219V24.2178V24.2166V24.2154V24.2142V24.213V24.2119V24.2107V24.2095V24.2083V24.2071V24.206V24.2048V24.2036V24.2024V24.2012V24.2001V24.1989V24.1977V24.1965V24.1953V24.1941V24.193V24.1918V24.1906V24.1894V24.1882V24.1871V24.1859V24.1847V24.1835V24.1823V24.1812V24.18V24.1788V24.1776V24.1764V24.1753V24.1741V24.1729V24.1717V24.1705V24.1693V24.1682V24.167V24.1658V24.1646V24.1634V24.1623V24.1611V24.1599V24.1587V24.1575V24.1564V24.1552V24.154V24.1528V24.1516V24.1504V24.1493V24.1481V24.1469V24.1457V24.1445V24.1434V24.1422V24.141V24.1398V24.1386V24.1375V24.1363V24.1351V24.1339V24.1327V24.1316V24.1304V24.1292V24.128V24.1268V24.1256V24.1245V24.1233V24.1221V24.1209V24.1197V24.1186V24.1174V24.1162V24.115V24.1138V24.1127V24.1115V24.1103V24.1091V24.1079V24.1067V24.1056V24.1044V24.1032V24.102V24.1008V24.0997V24.0985V24.0973V24.0961V24.0949V24.0938V24.0926V24.0914V24.0902V24.089V24.0879V24.0867V24.0855V24.0843V24.0831V24.0819V24.0808V24.0796V24.0784V24.0772V24.076V24.0749V24.0737V24.0725V24.0713V24.0701V24.069V24.0678V24.0666V24.0654V24.0642V24.063V24.0619V24.0607V24.0595V24.0583V24.0571V24.056V24.0548V24.0536V24.0524V24.0512V24.0501V24.0489V24.0477V24.0465V24.0453V24.0441V24.043V24.0418V24.0406V24.0394V24.0382V24.0371V24.0359V24.0347V24.0335V24.0323V24.0312V24.03V24.0288V24.0276V24.0264V24.0253V24.0241V24.0229V24.0217V24.0205V24.0193V24.0182V24.017V24.0158V24.0146V24.0134V24.0123V24.0111V24.0099V24.0087V24.0075V24.0064V24.0052V24.004V24.0028V24.0016V24.0004V23.9993V23.9981V23.9969V23.9957V23.9945V23.9934V23.9922V23.991V23.9898V23.9886V23.9875V23.9863V23.9851V23.9839V23.9827V23.9816V23.9804V23.9792V23.978V23.9768V23.9756V23.9745V23.9733V23.9721V23.9709V23.9697V23.9686V23.9674V23.9662V23.965V23.9638V23.9627V23.9615V23.9603V23.9591V23.9579V23.9567V23.9556V23.9544V23.9532V23.952V23.9508V23.9497V23.9485V23.9473V23.9461V23.9449V23.9438V23.9426V23.9414V23.9402V23.939V23.9378V23.9367V23.9355V23.9343V23.9331V23.9319V23.9308V23.9296V23.9284V23.9272V23.926V23.9249V23.9237V23.9225V23.9213V23.9201V23.919V23.9178V23.9166V23.9154V23.9142V23.913V23.9119V23.9107V23.9095V23.9083V23.9071V23.906V23.9048V23.9036V23.9024V23.9012V23.9001V23.8989V23.8977V23.8965V23.8953V23.8941V23.893V23.8918V23.8906V23.8894V23.8882V23.8871V23.8859V23.8847V23.8835V23.8823V23.8812V23.88V23.8788V23.8776V23.8764V23.8753V23.8741V23.8729V23.8717V23.8705V23.8693V23.8682V23.867V23.8658V23.8646V23.8634V23.8623V23.8611V23.8599V23.8587V23.8575V23.8564V23.8552V23.854V23.8528V23.8516V23.8504V23.8493V23.8481V23.8469V23.8457V23.8445V23.8434V23.8422V23.841V23.8398V23.8386V23.8375V23.8363V23.8351V23.8339V23.8327V23.8316V23.8304V23.8292V23.828V23.8268V23.8256V23.8245V23.8233V23.8221V23.8209V23.8197V23.8186V23.8174V23.8162V23.815V23.8138V23.8127V23.8115V23.8103V23.8091V23.8079V23.8067V23.8056V23.8044V23.8032V23.802V23.8008V23.7997V23.7985V23.7973V23.7961V23.7949V23.7938V23.7926V23.7914V23.7902V23.789V23.7879V23.7867V23.7855V23.7843V23.7831V23.7819V23.7808V23.7796V23.7784V23.7772V23.776V23.7749V23.7737V23.7725V23.7713V23.7701V23.769V23.7678V23.7666V23.7654V23.7642V23.763V23.7619V23.7607V23.7595V23.7583V23.7571V23.756V23.7548V23.7536V23.7524V23.7512V23.7501V23.7489V23.7477V23.7465V23.7453V23.7442V23.743V23.7418V23.7406V23.7394V23.7382V23.7371V23.7359V23.7347V23.7335V23.7323V23.7312V23.73V23.7288V23.7276V23.7264V23.7253V23.7241V23.7229V23.7217V23.7205V23.7193V23.7182V23.717V23.7158V23.7146V23.7134V23.7123V23.7111V23.7099V23.7087V23.7075V23.7064V23.7052V23.704V23.7028V23.7016V23.7005V23.6993V23.6981V23.6969V23.6957V23.6945V23.6934V23.6922V23.691V23.6898V23.6886V23.6807L163.764 23.6807C163.791 22.0002 163.474 20.3318 162.833 18.7773C162.192 17.2228 161.241 15.8149 160.037 14.6395L160.031 14.6339L160.031 14.6338C158.844 13.4374 157.432 12.4876 155.875 11.8394C154.318 11.1912 152.648 10.8574 150.96 10.8574C149.273 10.8574 147.603 11.1912 146.046 11.8394C144.489 12.4876 143.077 13.4374 141.89 14.6338L141.882 14.6415L141.882 14.6414C140.67 15.8116 139.712 17.2176 139.066 18.7724L163.764 36.4927ZM163.764 36.4927H158.139V33.0957V32.0083L157.313 32.7161C157.198 32.8151 157.081 32.9155 156.964 33.0168C156.068 33.7879 155.112 34.6116 154.129 35.2713C153.01 36.023 151.938 36.5043 150.966 36.4927L150.959 36.4926L150.951 36.4927C149.264 36.5251 147.589 36.2095 146.031 35.5649L146.031 35.5649C144.472 34.9207 143.064 33.9617 141.895 32.7487L141.888 32.7417L141.881 32.735C140.666 31.5679 139.705 30.1627 139.059 28.6077L163.764 36.4927ZM138.13 23.6893L138.13 23.6983C138.098 25.3811 138.414 27.0525 139.059 28.6076L138.13 23.6893ZM138.13 23.6893L138.13 23.6803M138.13 23.6893L138.13 23.6803M138.13 23.6803C138.102 21.9977 138.421 20.3273 139.066 18.7725L138.13 23.6803ZM153.586 29.9561L153.586 29.9561C152.756 30.2951 151.867 30.4634 150.972 30.451C150.082 30.4542 149.201 30.2819 148.378 29.944C147.555 29.6055 146.806 29.1075 146.176 28.4787C145.546 27.8497 145.047 27.1025 144.707 26.2801L144.707 26.2799C144.369 25.4593 144.196 24.5799 144.199 23.6922C144.183 22.7917 144.352 21.8974 144.694 21.0641C145.036 20.2308 145.546 19.4764 146.19 18.8467C146.813 18.2083 147.56 17.7038 148.386 17.3643L148.386 17.3643C149.212 17.0247 150.098 16.8574 150.991 16.8725C151.887 16.8694 152.775 17.0431 153.603 17.3836L153.586 29.9561ZM153.586 29.9561C154.414 29.6175 155.165 29.1157 155.794 28.4805C156.443 27.8636 156.957 27.1199 157.305 26.2957L157.305 26.2955C157.653 25.4702 157.827 24.5819 157.816 23.6863C157.819 22.7911 157.645 21.9043 157.304 21.0767C156.962 20.2476 156.459 19.4945 155.824 18.8607L155.824 18.8606M153.586 29.9561L155.824 18.8606M155.824 18.8606C155.188 18.2268 154.434 17.7248 153.603 17.3836L155.824 18.8606Z" fill="white" stroke="white"/>
<path d="M6.84534 10.8574L6.8983 36.495H0.5V10.8574H6.84534Z" fill="white" stroke="white"/>
<path d="M6.66581 4.92805L6.66579 4.92808C6.50552 5.31475 6.26771 5.66448 5.967 5.95572L5.96126 5.96128L5.95569 5.96702C5.66448 6.2677 5.31475 6.50553 4.92809 6.6658L4.92807 6.66581C4.54137 6.82611 4.12597 6.90545 3.70741 6.89896L3.69967 6.89884L3.69192 6.89896C3.27336 6.90545 2.85794 6.82611 2.47127 6.66581L2.47125 6.6658C2.08457 6.50553 1.73483 6.2677 1.44361 5.96702L1.43805 5.96128L1.43231 5.95573C1.13161 5.66448 0.893788 5.31474 0.733508 4.92807L0.271617 5.11953L0.733507 4.92807C0.573225 4.54139 0.493878 4.12596 0.500368 3.7074L0.500489 3.69965L0.500368 3.6919C0.493878 3.27338 0.573224 2.85794 0.733508 2.47125C0.893791 2.08457 1.13161 1.73483 1.4323 1.44362L1.43805 1.43805L1.44362 1.4323C1.73483 1.13161 2.08457 0.893791 2.47126 0.733508L2.2805 0.27331L2.47126 0.733507C2.85794 0.573224 3.27337 0.493878 3.69192 0.500368L3.69967 0.500489L3.70742 0.500368C4.12596 0.493878 4.54136 0.57322 4.92808 0.733506C5.31475 0.893789 5.66448 1.13161 5.95568 1.4323L5.96126 1.43806L5.96701 1.44363C6.26771 1.73483 6.50552 2.08456 6.66579 2.47124L6.6658 2.47127C6.8261 2.85795 6.90545 3.27339 6.89896 3.6919L6.89884 3.69965L6.89896 3.70741C6.90545 4.12595 6.8261 4.54138 6.66581 4.92805Z" fill="white" stroke="white"/>
</svg>
