<svg width="189" height="43" viewBox="0 0 189 43" fill="none" xmlns="http://www.w3.org/2000/svg">
<path d="M37.361 42.2202H29.4074V38.4713C29.4342 36.5505 28.7322 34.6947 27.4496 33.295C26.8701 32.5964 26.1438 32.0415 25.3252 31.672C24.5066 31.3026 23.617 31.1281 22.7232 31.1618H21.7596V42.2202H13.5918V11.8531H17.6757H21.7596V23.1309H22.7232C23.5435 23.1607 24.3607 23.0111 25.1202 22.692C25.8797 22.3728 26.5643 21.8916 27.1284 21.28C28.4243 20.0311 29.2341 18.3424 29.4074 16.5274V11.8218H37.3764V15.7745C37.3949 17.9078 36.966 20.0202 36.119 21.9687C35.272 23.9173 34.0265 25.6563 32.4665 27.0679C34.032 28.4966 35.2786 30.2551 36.1207 32.2231C36.9629 34.1911 37.3806 36.3222 37.3457 38.4713C37.3457 38.9573 37.3457 39.5847 37.3457 40.3849L37.361 42.2202Z" fill="#4F55F0"/>
<path d="M73.0506 42.2199H65.0395V27.3479C65.0556 25.9195 64.6593 24.5173 63.8993 23.3136C63.1393 22.1099 62.0487 21.157 60.7612 20.5719C59.4736 19.9868 58.0454 19.795 56.6518 20.0201C55.2581 20.2451 53.9597 20.8772 52.9159 21.8387C51.5701 23.0179 50.7353 24.6852 50.5922 26.4813V42.2044H42.4743V27.1467C42.4645 25.1194 42.8667 23.1116 43.6557 21.2481C44.4447 19.3846 45.6037 17.7052 47.0606 16.314C49.9244 13.4364 53.796 11.8215 57.8311 11.8215C61.8664 11.8215 65.7378 13.4364 68.6015 16.314C70.0549 17.7432 71.2 19.4613 71.9656 21.3602C72.7312 23.259 73.1005 25.2977 73.0506 27.3479V42.2199Z" fill="#4F55F0"/>
<path d="M108.731 27.0273C108.764 29.022 108.387 31.0026 107.621 32.8476C106.856 34.6926 105.718 36.3633 104.279 37.757C102.861 39.1713 101.175 40.294 99.3175 41.0599C97.4607 41.8258 95.469 42.22 93.4576 42.22C91.4461 42.22 89.4548 41.8258 87.5977 41.0599C85.7405 40.294 84.0545 39.1713 82.6365 37.757C81.1899 36.3668 80.0458 34.6977 79.2748 32.8523C78.5035 31.007 78.1219 29.0245 78.1537 27.0273C78.124 25.0303 78.5063 23.0484 79.2773 21.2033C80.0483 19.3582 81.1913 17.6888 82.6365 16.2976C84.0524 14.8795 85.7377 13.7538 87.5952 12.9855C89.4527 12.2172 91.4451 11.8216 93.4576 11.8216C95.4701 11.8216 97.4628 12.2172 99.32 12.9855C101.177 13.7538 102.863 14.8795 104.279 16.2976C105.717 17.6925 106.853 19.3632 107.619 21.208C108.384 23.0527 108.763 25.0328 108.731 27.0273ZM100.754 27.0273C100.756 26.0794 100.569 25.1404 100.204 24.2644C99.8385 23.3884 99.302 22.5928 98.6252 21.9232C97.9485 21.2536 97.1447 20.7234 96.2608 20.363C95.3765 20.0025 94.429 19.8191 93.4731 19.8231C92.5242 19.8063 91.5821 19.9827 90.7045 20.3412C89.8273 20.6998 89.033 21.2329 88.3718 21.9077C87.699 22.5792 87.1712 23.3793 86.8203 24.2594C86.4698 25.1396 86.3032 26.0813 86.3311 27.0273C86.329 27.9666 86.5139 28.8971 86.8751 29.7654C87.2362 30.6338 87.7664 31.4231 88.4357 32.088C89.1047 32.7529 89.8996 33.2804 90.7747 33.6403C91.6495 34.0002 92.5878 34.1855 93.5349 34.1855C94.4891 34.1982 95.4362 34.0186 96.3183 33.6576C97.2005 33.2967 97.9997 32.7618 98.6672 32.0855C99.3457 31.429 99.8809 30.6412 100.24 29.7711C100.599 28.9011 100.774 27.9672 100.754 27.0273Z" fill="#4F55F0"/>
<path d="M152.906 11.8215V30.3896C152.869 32.6517 152.196 34.8562 150.968 36.7451C149.739 38.634 148.005 40.1287 145.969 41.0548C143.933 41.9806 141.678 42.2992 139.47 41.9735C137.261 41.6475 135.19 40.6905 133.499 39.2146C131.375 41.1933 128.583 42.2687 125.699 42.2182C124.151 42.236 122.616 41.9409 121.181 41.3503C119.747 40.7597 118.444 39.8854 117.347 38.7785C116.222 37.7416 115.326 36.4741 114.721 35.0601C114.114 33.6461 113.811 32.1179 113.831 30.5764V11.8993H121.83V30.4518C121.83 31.4591 122.225 32.425 122.927 33.1372C123.63 33.8494 124.583 34.2495 125.576 34.2495C126.078 34.2592 126.577 34.1648 127.042 33.972C127.506 33.7793 127.927 33.4924 128.278 33.1289C128.63 32.7808 128.907 32.364 129.095 31.9039C129.282 31.4437 129.375 30.9497 129.369 30.4518V11.8838H137.368V30.8565C137.479 31.7484 137.918 32.5652 138.596 33.1444C139.289 33.765 140.19 34.0935 141.114 34.0627C141.601 34.0718 142.084 33.9782 142.534 33.788C142.983 33.5978 143.389 33.315 143.724 32.9577C144.072 32.5926 144.345 32.161 144.527 31.6881C144.709 31.2152 144.796 30.7103 144.784 30.2028V11.8215H152.906Z" fill="#4F55F0"/>
<path d="M188.581 42.2176V27.7254C188.581 27.4953 188.581 27.2653 188.581 27.0353C188.612 25.0398 188.234 23.0587 187.469 21.213C186.703 19.3674 185.567 17.6957 184.128 16.3002C182.713 14.8814 181.027 13.755 179.17 12.9864C177.313 12.2177 175.32 11.8219 173.308 11.8219C171.295 11.8219 169.303 12.2177 167.445 12.9864C165.588 13.755 163.903 14.8814 162.487 16.3002C161.039 17.6898 159.894 19.3597 159.123 21.2062C158.352 23.0528 157.971 25.0368 158.004 27.0353C157.965 29.0345 158.343 31.0201 159.115 32.8675C159.886 34.7149 161.034 36.3841 162.487 37.7704C163.884 39.2113 165.567 40.3504 167.429 41.1156C169.291 41.8812 171.292 42.2561 173.308 42.2176C175.897 42.2484 178.718 39.694 180.975 37.7704V42.2176H188.581ZM178.455 32.0961C177.786 32.7692 176.986 33.301 176.104 33.6594C175.222 34.0179 174.276 34.1955 173.323 34.1818C172.376 34.1858 171.438 34.0037 170.562 33.646C169.686 33.2883 168.89 32.7621 168.221 32.0977C167.551 31.4332 167.02 30.6438 166.66 29.7749C166.299 28.906 166.116 27.9749 166.12 27.0353C166.102 26.0833 166.28 25.1378 166.645 24.2569C167.009 23.376 167.551 22.5784 168.238 21.9131C168.899 21.238 169.693 20.7045 170.57 20.3458C171.448 19.9871 172.39 19.8106 173.339 19.8275C174.294 19.8234 175.24 20.007 176.124 20.3679C177.007 20.7286 177.81 21.2594 178.485 21.9295C179.161 22.5997 179.696 23.3959 180.059 24.2722C180.423 25.1485 180.608 26.0876 180.604 27.0353C180.617 27.9802 180.432 28.9176 180.063 29.7885C179.693 30.6594 179.146 31.445 178.455 32.0961Z" fill="#0C0F4A"/>
<path d="M8.49471 42.2203H0V11.8219H8.43154L8.49471 42.2203Z" fill="#0C0F4A"/>
<path d="M8.18286 5.84232C8.39692 5.32904 8.50289 4.77757 8.49422 4.22198C8.50289 3.66643 8.39692 3.11496 8.18286 2.60167C7.96883 2.08837 7.65125 1.62412 7.24969 1.23756C6.86082 0.83842 6.39379 0.522728 5.87742 0.309964C5.36102 0.0971989 4.80628 -0.00812646 4.24736 0.000488928C3.68843 -0.00812646 3.13367 0.0971989 2.61729 0.309964C2.10092 0.522728 1.63387 0.83842 1.24499 1.23756C0.843457 1.62412 0.525867 2.08837 0.311826 2.60167C0.0977832 3.11496 -0.00817529 3.66643 0.000491864 4.22198C-0.00817529 4.77757 0.0977832 5.32904 0.311826 5.84232C0.525867 6.35561 0.843457 6.81985 1.24499 7.20644C1.63387 7.60556 2.10092 7.92126 2.61729 8.13401C3.13367 8.3468 3.68843 8.45212 4.24736 8.44351C4.80628 8.45212 5.36102 8.3468 5.87742 8.13401C6.39379 7.92126 6.86082 7.60556 7.24969 7.20644C7.65125 6.81985 7.96883 6.35561 8.18286 5.84232Z" fill="#0C0F4A"/>
</svg>
