<svg width="14" height="15" viewBox="0 0 14 15" fill="none" xmlns="http://www.w3.org/2000/svg">
<path d="M7.00012 0.702148C3.32012 0.702148 0.330078 3.68914 0.330078 7.36914C0.330078 11.0491 3.32012 14.0351 7.00012 14.0351C10.6801 14.0351 13.6702 11.0491 13.6702 7.36914C13.6702 3.68914 10.6801 0.702148 7.00012 0.702148ZM7.00012 10.7021C6.63012 10.7021 6.33008 10.4021 6.33008 10.0351V7.36914C6.33008 7.00214 6.63012 6.70215 7.00012 6.70215C7.37012 6.70215 7.67017 7.00214 7.67017 7.36914V10.0351C7.67017 10.4021 7.37012 10.7021 7.00012 10.7021ZM7.67017 5.36914H6.33008V4.0351H7.67017V5.36914Z" fill="#0C0F4A" fill-opacity="0.5"/>
</svg>
