<svg width="25" height="25" viewBox="0 0 25 25" fill="none" xmlns="http://www.w3.org/2000/svg">
<rect x="0.140625" y="0.201172" width="24.6223" height="24.6541" rx="3.39837" fill="#7467B7"/>
<g clip-path="url(#clip0_715_14194)">
<g clip-path="url(#clip1_715_14194)">
<path d="M18.0407 10.3397C17.7864 10.0848 17.382 10.0688 17.1086 10.2919C17.069 10.3241 17.0996 10.2957 16.4976 10.8986L18.0604 12.4635L18.6221 11.9081C18.8937 11.6362 18.8937 11.1937 18.6221 10.9218L18.0407 10.3397Z" fill="white"/>
<path d="M13.2909 14.1372L12.3715 16.1098C12.3096 16.2427 12.3373 16.4001 12.4409 16.5038C12.5444 16.6075 12.7017 16.6352 12.8344 16.5732L14.8044 15.6527C14.8824 15.6162 14.6464 15.8374 17.5631 12.9534L16.0033 11.3916C13.1115 14.2872 13.328 14.0576 13.2909 14.1372Z" fill="white"/>
<path d="M15.3932 16.0816C15.3079 16.166 15.2096 16.2344 15.101 16.2852L13.131 17.2057C12.7436 17.3867 12.2703 17.3178 11.9505 16.9975C11.641 16.6876 11.5574 16.2126 11.7424 15.8154L12.6618 13.8427C12.7134 13.732 12.7834 13.632 12.8698 13.5455L15.8314 10.58V7.6252C15.8314 7.04838 15.3628 6.5791 14.7867 6.5791H7.9842C7.40813 6.5791 6.93945 7.04838 6.93945 7.6252V17.4353C6.93945 18.0121 7.40813 18.4814 7.9842 18.4814H14.7867C15.3628 18.4814 15.8314 18.0121 15.8314 17.4353V15.6483L15.3932 16.0816ZM8.79681 8.83402H13.9973C14.1897 8.83402 14.3456 8.99015 14.3456 9.18272C14.3456 9.3753 14.1897 9.53142 13.9973 9.53142H8.79681C8.60448 9.53142 8.44856 9.3753 8.44856 9.18272C8.44856 8.99015 8.60448 8.83402 8.79681 8.83402ZM8.79681 10.6938H12.8829C13.0753 10.6938 13.2312 10.8499 13.2312 11.0425C13.2312 11.235 13.0753 11.3912 12.8829 11.3912H8.79681C8.60448 11.3912 8.44856 11.235 8.44856 11.0425C8.44856 10.8499 8.60448 10.6938 8.79681 10.6938ZM8.44856 12.9022C8.44856 12.7096 8.60448 12.5535 8.79681 12.5535H11.7685C11.9609 12.5535 12.1168 12.7096 12.1168 12.9022C12.1168 13.0948 11.9609 13.2509 11.7685 13.2509H8.79681C8.60448 13.2509 8.44856 13.0948 8.44856 12.9022Z" fill="white"/>
</g>
</g>
<defs>
<clipPath id="clip0_715_14194">
<rect width="16.7262" height="15.7769" fill="white" transform="translate(4.38574 4.81177)"/>
</clipPath>
<clipPath id="clip1_715_14194">
<rect width="16.0267" height="15.1171" fill="white" transform="translate(4.77686 5.27124)"/>
</clipPath>
</defs>
</svg>
