<svg width="26" height="25" viewBox="0 0 26 25" fill="none" xmlns="http://www.w3.org/2000/svg">
<rect x="0.623535" y="0.168945" width="24.6223" height="24.6541" rx="4.10636" fill="#4F55F0"/>
<path d="M7.22348 10.8095C7.65144 9.28402 8.62565 7.97898 9.96668 7.13499C11.2087 6.35331 12.6336 6.02948 14.0877 6.19845C15.1418 6.32088 16.1505 6.7077 17.012 7.30959L16.3447 7.33264L16.3737 8.17906L18.5711 8.1034L18.4917 5.93032L17.6463 5.96131L17.675 6.74454C16.6613 5.98911 15.4521 5.50435 14.1852 5.35711C13.3863 5.26435 12.5847 5.30471 11.8027 5.47733C10.9934 5.65601 10.2242 5.97245 9.51647 6.41784C7.99732 7.37389 6.89379 8.85232 6.40911 10.5806C5.92784 12.2964 6.09274 14.1188 6.8733 15.7122L7.63282 15.3391C6.94402 13.9332 6.79861 12.3245 7.22348 10.8095Z" fill="white"/>
<path d="M19.6344 8.98267L18.8984 9.40003C19.7065 10.8292 19.9311 12.4958 19.5309 14.0927C19.1294 15.6947 18.1389 17.0612 16.7418 17.9405C15.4518 18.7523 13.9132 19.074 12.4095 18.8465C11.2394 18.6694 10.1465 18.1708 9.25253 17.4176L10.041 17.3903L10.0119 16.5438L7.81445 16.6196L7.89399 18.7926L8.73932 18.7615L8.71398 18.0707C9.72554 18.921 10.961 19.4839 12.2831 19.6839C12.6401 19.738 12.9989 19.7647 13.3565 19.7647C14.7053 19.7647 16.0368 19.3846 17.192 18.6575C18.7746 17.6615 19.8965 16.1136 20.3513 14.2989C20.8047 12.49 20.5502 10.6019 19.6344 8.98267Z" fill="white"/>
<path d="M13.3898 11.0801C12.6432 11.0801 12.0356 11.6883 12.0356 12.436C12.0356 13.1836 12.6432 13.7917 13.3898 13.7917C14.1364 13.7917 14.7438 13.1836 14.7438 12.436C14.7438 11.6883 14.1364 11.0801 13.3898 11.0801Z" fill="white"/>
<path d="M17.8443 13.5524V11.3264L16.9873 11.1599C16.9416 11.0301 16.8888 10.9027 16.8293 10.7785L17.3186 10.0539L15.7484 8.47846L15.0239 8.96697C14.8975 8.90597 14.768 8.85204 14.6358 8.80538L14.4695 7.94727H12.2464L12.0801 8.80538C11.9504 8.85115 11.8232 8.90399 11.6992 8.96355L10.9755 8.47361L9.40209 10.0459L9.88997 10.7713C9.82905 10.8978 9.77519 11.0275 9.72859 11.1598L8.87158 11.3264V13.5524L9.72859 13.7189C9.7743 13.8487 9.82707 13.976 9.88655 14.1003L9.39724 14.8248L10.9675 16.4004L11.6921 15.9118C11.8183 15.9728 11.9479 16.0268 12.0801 16.0734L12.2464 16.9315H14.4695L14.6358 16.0734C14.7654 16.0277 14.8927 15.9748 15.0168 15.9153L15.7403 16.4052L17.3139 14.8329L16.826 14.1075C16.8868 13.981 16.9408 13.8513 16.9874 13.7189L17.8443 13.5524ZM13.3931 14.6422C12.18 14.6422 11.1931 13.6541 11.1931 12.4394C11.1931 11.2248 12.18 10.2366 13.3931 10.2366C14.6062 10.2366 15.593 11.2248 15.593 12.4394C15.593 13.6541 14.6062 14.6422 13.3931 14.6422Z" fill="white"/>
</svg>
