<svg width="26" height="25" viewBox="0 0 26 25" fill="none" xmlns="http://www.w3.org/2000/svg">
<rect x="0.623535" y="0.201172" width="24.6223" height="24.6541" rx="3.39837" fill="#FF3636"/>
<path d="M8.59633 6.37081C8.0271 6.37081 7.47066 6.53844 6.99736 6.85251C6.52407 7.16658 6.15518 7.61298 5.93734 8.13525C5.71951 8.65753 5.66251 9.23222 5.77356 9.78667C5.88462 10.3411 6.15872 10.8504 6.56123 11.2501C6.96373 11.6499 7.47656 11.9221 8.03485 12.0324C8.59314 12.1427 9.17182 12.0861 9.69772 11.8697C10.2236 11.6534 10.6731 11.287 10.9894 10.817C11.3056 10.347 11.4744 9.79436 11.4744 9.22905C11.4739 8.47115 11.1705 7.74443 10.6309 7.20852C10.0912 6.6726 9.35949 6.37131 8.59633 6.37081ZM9.87443 9.97679L9.34173 10.5058L8.5888 9.75808L7.83587 10.5058L7.30318 9.97679L8.05611 9.22905L7.30318 8.48131L7.83587 7.95415L8.5888 8.70189L9.34173 7.95415L9.87443 8.47944L9.1215 9.22718L9.87443 9.97679ZM17.0084 9.07577C16.4942 9.0733 16.0018 8.86882 15.6389 8.507C15.276 8.14518 15.072 7.65542 15.0715 7.14472V4.8772H9.58643C9.31992 4.87798 9.05839 4.949 8.82856 5.083C8.59872 5.21699 8.40881 5.40917 8.27822 5.63989C8.38363 5.63055 8.48904 5.62307 8.59633 5.62307C9.07999 5.61213 9.56098 5.69729 10.011 5.87355C10.4611 6.0498 10.8711 6.3136 11.2171 6.64944C11.5631 6.98528 11.838 7.3864 12.0256 7.82923C12.2133 8.27205 12.31 8.74766 12.31 9.22812C12.31 9.70857 12.2133 10.1842 12.0256 10.627C11.838 11.0698 11.5631 11.471 11.2171 11.8068C10.8711 12.1426 10.4611 12.4064 10.011 12.5827C9.56098 12.7589 9.07999 12.8441 8.59633 12.8332C8.42498 12.8315 8.25393 12.8183 8.08434 12.7939V18.6842C8.08434 19.0809 8.24299 19.4613 8.5254 19.7417C8.8078 20.0222 9.19082 20.1797 9.5902 20.1797H17.7971C18.1965 20.1797 18.5795 20.0222 18.8619 19.7417C19.1443 19.4613 19.303 19.0809 19.303 18.6842V9.07577H17.0084ZM16.5153 18.1347H10.8683V17.3869H16.5153V18.1347ZM16.5153 16.2653H10.8683V15.5176H16.5153V16.2653ZM16.5153 14.3959H10.8683V13.6482H16.5153V14.3959ZM15.8244 7.14472V5.03048L19.0809 8.32802H17.0103C16.6954 8.32605 16.3941 8.20057 16.172 7.97893C15.9499 7.75728 15.8249 7.45743 15.8244 7.14472Z" fill="white"/>
</svg>
