<svg width="26" height="25" viewBox="0 0 26 25" fill="none" xmlns="http://www.w3.org/2000/svg">
<rect x="0.657715" y="0.201172" width="24.6223" height="24.6541" rx="3.39837" fill="#24BD63"/>
<path fill-rule="evenodd" clip-rule="evenodd" d="M16.3422 10.0016V7.62422C16.3422 7.0474 15.8735 6.57812 15.2974 6.57812H8.49494C7.91887 6.57812 7.4502 7.0474 7.4502 7.62422V17.4343C7.4502 18.0111 7.91887 18.4804 8.49494 18.4804H15.2974C15.8735 18.4804 16.3422 18.0111 16.3422 17.4343V16.3678L16.3652 16.3546V9.97859L16.3422 10.0016ZM14.5081 8.83305H9.30755C9.11522 8.83305 8.9593 8.98917 8.9593 9.18175C8.9593 9.37432 9.11522 9.53045 9.30755 9.53045H14.5081C14.7004 9.53045 14.8563 9.37432 14.8563 9.18175C14.8563 8.98917 14.7004 8.83305 14.5081 8.83305ZM13.3937 10.6928H9.30755C9.11522 10.6928 8.9593 10.8489 8.9593 11.0415C8.9593 11.2341 9.11522 11.3902 9.30755 11.3902H13.3937C13.586 11.3902 13.7419 11.2341 13.7419 11.0415C13.7419 10.8489 13.586 10.6928 13.3937 10.6928ZM9.30755 12.5525C9.11522 12.5525 8.9593 12.7086 8.9593 12.9012C8.9593 13.0938 9.11522 13.2499 9.30755 13.2499H12.2793C12.4716 13.2499 12.6275 13.0938 12.6275 12.9012C12.6275 12.7086 12.4716 12.5525 12.2793 12.5525H9.30755Z" fill="white"/>
<ellipse cx="16.7898" cy="15.0797" rx="2.54713" ry="2.55042" fill="#24BD63"/>
<path d="M16.4508 15.6084L15.964 15.1351C15.9097 15.0824 15.8235 15.0824 15.7692 15.1351C15.715 15.1879 15.715 15.2717 15.7692 15.3244L16.3521 15.891C16.4063 15.9437 16.4939 15.9437 16.5482 15.891L18.0227 14.4591C18.077 14.4063 18.077 14.3225 18.0227 14.2698C17.9684 14.217 17.8822 14.217 17.828 14.2698L16.4508 15.6084Z" fill="white" stroke="white" stroke-width="0.254878"/>
</svg>
