<svg width="26" height="25" viewBox="0 0 26 25" fill="none" xmlns="http://www.w3.org/2000/svg">
<rect x="0.657715" y="0.168945" width="24.6223" height="24.6541" rx="3.39837" fill="#B7677A"/>
<path d="M14.0981 10.5347H20.2255V11.8499H14.0981V10.5347Z" fill="white"/>
<path d="M14.0981 15.5767H15.1799V16.7098H14.0981V15.5767Z" fill="white"/>
<path d="M14.0981 13.2002H15.1799V14.3334H14.0981V13.2002Z" fill="white"/>
<path d="M16.6201 13.2002H17.7019V14.3334H16.6201V13.2002Z" fill="white"/>
<path d="M16.6201 15.5767H17.7019V16.7098H16.6201V15.5767Z" fill="white"/>
<path d="M19.1431 13.2002H20.2249V14.3334H19.1431V13.2002Z" fill="white"/>
<path d="M19.1431 15.5767H20.2249V19.0863H19.1431V15.5767Z" fill="white"/>
<path d="M16.6201 17.9541H17.7019V19.0872H16.6201V17.9541Z" fill="white"/>
<path d="M14.0981 17.9541H15.1799V19.0872H14.0981V17.9541Z" fill="white"/>
<path d="M12.9435 9.83257C12.9932 9.58653 13.2085 9.40112 13.4658 9.40112H16.5056H20.8571C21.1512 9.40112 21.3903 9.64346 21.3903 9.94133V19.6804C21.3903 19.9784 21.1511 20.2206 20.8571 20.2206H13.4658C13.1717 20.2206 12.9326 19.9783 12.9326 19.6804L12.9435 9.83257ZM20.5879 19.2703V15.3931C20.5879 15.2915 20.5068 15.2093 20.4065 15.2093H18.9619C18.8617 15.2093 18.7805 15.2915 18.7805 15.3931V19.2703C18.7805 19.3719 18.8617 19.4541 18.9619 19.4541H20.4065C20.5068 19.4541 20.5879 19.3719 20.5879 19.2703ZM20.5879 14.5172V13.0164C20.5879 12.9149 20.5068 12.8326 20.4065 12.8326H18.9619C18.8617 12.8326 18.7805 12.9149 18.7805 13.0164V14.5172C18.7805 14.6187 18.8617 14.7009 18.9619 14.7009H20.4065C20.5068 14.7009 20.5879 14.6187 20.5879 14.5172ZM20.5879 12.0343V10.3515C20.5879 10.25 20.5068 10.1678 20.4065 10.1678H13.9164C13.8161 10.1678 13.735 10.25 13.735 10.3515V12.0343C13.735 12.1359 13.8161 12.2181 13.9164 12.2181H20.4065C20.5068 12.218 20.5879 12.1358 20.5879 12.0343ZM18.0651 19.2703V17.7697C18.0651 17.6681 17.984 17.5859 17.8837 17.5859H16.4391C16.339 17.5859 16.2577 17.6681 16.2577 17.7697V19.2703C16.2577 19.3719 16.339 19.4541 16.4391 19.4541H17.8837C17.984 19.4541 18.0651 19.3719 18.0651 19.2703ZM18.0651 16.8937V15.3931C18.0651 15.2915 17.984 15.2093 17.8837 15.2093H16.4391C16.339 15.2093 16.2577 15.2915 16.2577 15.3931V16.8937C16.2577 16.9953 16.339 17.0775 16.4391 17.0775H17.8837C17.984 17.0775 18.0651 16.9953 18.0651 16.8937ZM18.0651 14.5172V13.0164C18.0651 12.9149 17.984 12.8326 17.8837 12.8326H16.4391C16.339 12.8326 16.2577 12.9149 16.2577 13.0164V14.5172C16.2577 14.6187 16.339 14.7009 16.4391 14.7009H17.8837C17.984 14.7009 18.0651 14.6187 18.0651 14.5172ZM15.5425 19.2703V17.7697C15.5425 17.6681 15.4612 17.5859 15.3611 17.5859H13.9165C13.8163 17.5859 13.7351 17.6681 13.7351 17.7697V19.2703C13.7351 19.3719 13.8163 19.4541 13.9165 19.4541H15.3611C15.4611 19.4541 15.5425 19.3719 15.5425 19.2703ZM15.5425 16.8937V15.3931C15.5425 15.2915 15.4612 15.2093 15.3611 15.2093H13.9165C13.8163 15.2093 13.7351 15.2915 13.7351 15.3931V16.8937C13.7351 16.9953 13.8163 17.0775 13.9165 17.0775H15.3611C15.4611 17.0775 15.5425 16.9953 15.5425 16.8937ZM15.5425 14.5172V13.0164C15.5425 12.9149 15.4612 12.8326 15.3611 12.8326H13.9165C13.8163 12.8326 13.7351 12.9149 13.7351 13.0164V14.5172C13.7351 14.6187 13.8163 14.7009 13.9165 14.7009H15.3611C15.4611 14.7009 15.5425 14.6187 15.5425 14.5172Z" fill="white"/>
<path d="M11.0884 19.6539V19.678C11.0884 19.9774 10.8479 20.2211 10.5524 20.2211H5.42077C5.12526 20.2211 4.88477 19.9774 4.88477 19.678V19.6539C4.88477 19.3545 5.12526 19.1108 5.42077 19.1108H10.5524C10.8479 19.1108 11.0884 19.3545 11.0884 19.6539Z" fill="white"/>
<path d="M11.0884 18.1768V18.201C11.0884 18.2525 11.0813 18.3022 11.068 18.3494C11.0041 18.5769 10.7972 18.7439 10.5524 18.7439H5.42077C5.12526 18.7439 4.88477 18.5005 4.88477 18.201V18.1768C4.88477 17.8774 5.12526 17.6338 5.42077 17.6338H10.5524C10.8479 17.6338 11.0884 17.8774 11.0884 18.1768Z" fill="white"/>
<path d="M11.0884 16.6984V16.7226C11.0884 17.022 10.8479 17.2656 10.5524 17.2656H5.42077C5.12526 17.2656 4.88477 17.022 4.88477 16.7226V16.6984C4.88477 16.4083 5.11043 16.1708 5.39316 16.1562C5.39391 16.1562 5.39477 16.1561 5.39552 16.1561C5.4039 16.1557 5.41228 16.1555 5.42066 16.1555H10.5523C10.8479 16.1554 11.0884 16.3991 11.0884 16.6984Z" fill="white"/>
<path d="M16.3246 5.02974V9.03325H13.4662C13.0874 9.03325 12.763 9.27243 12.6321 9.6096H11.27C11.1698 9.6096 11.0886 9.69179 11.0886 9.79336C11.0886 9.89494 11.1698 9.97713 11.27 9.97713H12.5701V18.2111H11.4513C11.4514 18.2074 11.4514 18.2036 11.4514 18.1999V18.1758C11.4514 17.8792 11.3107 17.6153 11.0933 17.449C11.3106 17.2826 11.4514 17.0187 11.4514 16.7222V16.698C11.4514 16.196 11.0483 15.7874 10.5526 15.7874H5.56787V5.02974C5.56787 4.82136 5.73519 4.65186 5.94086 4.65186H15.9518C16.1574 4.65186 16.3246 4.82136 16.3246 5.02974ZM15.1674 6.28836C15.1674 6.18689 15.0863 6.10459 14.986 6.10459H11.27C11.1697 6.10459 11.0886 6.18689 11.0886 6.28836C11.0886 6.38993 11.1697 6.47213 11.27 6.47213H14.986C15.0862 6.47213 15.1674 6.38982 15.1674 6.28836ZM15.1674 8.04081C15.1674 7.93923 15.0863 7.85704 14.986 7.85704H11.27C11.1697 7.85704 11.0886 7.93923 11.0886 8.04081C11.0886 8.14238 11.1697 8.22458 11.27 8.22458H14.986C15.0862 8.22458 15.1674 8.14238 15.1674 8.04081ZM11.5897 11.5458C11.5897 11.4442 11.5085 11.362 11.4083 11.362H6.9066C6.80634 11.362 6.72521 11.4442 6.72521 11.5458C6.72521 11.6474 6.80634 11.7296 6.9066 11.7296H11.4083C11.5084 11.7296 11.5897 11.6474 11.5897 11.5458ZM11.5897 12.9899C11.5897 12.8884 11.5085 12.8062 11.4083 12.8062H9.33657C9.23631 12.8062 9.15518 12.8884 9.15518 12.9899C9.15518 13.0915 9.23631 13.1737 9.33657 13.1737H11.4083C11.5084 13.1737 11.5897 13.0915 11.5897 12.9899ZM11.5897 14.4341C11.5897 14.3325 11.5085 14.2503 11.4083 14.2503H6.9066C6.80634 14.2503 6.72521 14.3325 6.72521 14.4341C6.72521 14.5357 6.80634 14.6179 6.9066 14.6179H11.4083C11.5084 14.6179 11.5897 14.5355 11.5897 14.4341ZM9.95597 8.71601C9.95597 8.5465 9.91202 8.39441 9.8253 8.2642L9.82336 8.26126C9.73697 8.1328 9.602 8.02491 9.42233 7.94098C9.29929 7.88436 9.07007 7.81741 8.74125 7.74207C8.41705 7.66772 8.21416 7.59478 8.13808 7.52488C8.0635 7.45717 8.02557 7.36942 8.02557 7.26403C8.02557 7.14058 8.07833 7.0377 8.18676 6.94973C8.29486 6.86188 8.47131 6.81735 8.71095 6.81735C8.94069 6.81735 9.1165 6.86656 9.23288 6.96334C9.31562 7.03215 9.37483 7.1261 9.40879 7.24226C9.4363 7.33632 9.51861 7.39957 9.6135 7.39957C9.61898 7.39957 9.62456 7.39936 9.63004 7.39892L9.63542 7.3986C9.70054 7.3937 9.75921 7.35962 9.79661 7.30529C9.83357 7.25173 9.84475 7.18521 9.82723 7.12261C9.80166 7.03117 9.76243 6.94429 9.71053 6.86427C9.61554 6.71784 9.4781 6.60538 9.30208 6.53016C9.18463 6.47997 9.05385 6.44644 8.91136 6.42989V6.25483C8.91136 6.15325 8.83012 6.07106 8.72997 6.07106C8.62971 6.07106 8.54858 6.15325 8.54858 6.25483V6.42368C8.39652 6.43675 8.25446 6.4706 8.12508 6.52482C7.95379 6.59646 7.82161 6.70326 7.73221 6.84206C7.64291 6.98065 7.59756 7.13198 7.59756 7.29158C7.59756 7.43713 7.63474 7.57039 7.70814 7.68797C7.78121 7.80533 7.89361 7.90472 8.0419 7.98333C8.15581 8.04462 8.35622 8.11037 8.63777 8.17885C8.91662 8.24668 9.09952 8.29752 9.1813 8.32974C9.3052 8.37754 9.39514 8.43698 9.44833 8.50644C9.50131 8.57546 9.52817 8.65744 9.52817 8.75008C9.52817 8.84153 9.50013 8.92721 9.445 9.00472C9.38966 9.08235 9.30348 9.14462 9.18903 9.1898C9.07341 9.23531 8.93779 9.25839 8.78638 9.25839C8.61552 9.25839 8.45992 9.2279 8.32366 9.16792C8.18826 9.10815 8.08725 9.02933 8.02364 8.93331C7.98388 8.87343 7.95261 8.80212 7.93058 8.72134C7.90457 8.62521 7.81839 8.55804 7.72092 8.55804C7.71458 8.55804 7.70824 8.55837 7.70212 8.5588C7.63947 8.56446 7.58241 8.59712 7.54555 8.64873C7.50837 8.70087 7.49537 8.76663 7.50998 8.82945C7.5376 8.94866 7.58553 9.06112 7.65204 9.16378C7.76004 9.33068 7.91123 9.45718 8.10111 9.54014C8.22899 9.59599 8.379 9.63322 8.5489 9.65129V9.82711C8.5489 9.92869 8.63003 10.0109 8.73029 10.0109C8.83044 10.0109 8.91168 9.92869 8.91168 9.82711V9.66109C9.09071 9.64988 9.25566 9.6096 9.4032 9.54112C9.58051 9.45892 9.71848 9.34189 9.81337 9.19339C9.90772 9.04446 9.95597 8.8841 9.95597 8.71601ZM8.59833 12.9899C8.59833 12.8884 8.5172 12.8062 8.41694 12.8062H6.9066C6.80634 12.8062 6.72521 12.8884 6.72521 12.9899C6.72521 13.0915 6.80634 13.1737 6.9066 13.1737H8.41694C8.51709 13.1737 8.59833 13.0915 8.59833 12.9899Z" fill="white"/>
</svg>
