<svg width="25" height="25" viewBox="0 0 25 25" fill="none" xmlns="http://www.w3.org/2000/svg">
<path d="M0.140625 3.56732C0.140625 1.69045 1.66213 0.168945 3.53899 0.168945H21.3645C23.2414 0.168945 24.7629 1.69045 24.7629 3.56731V21.4246C24.7629 23.3015 23.2414 24.823 21.3645 24.823H3.53899C1.66212 24.823 0.140625 23.3015 0.140625 21.4247V3.56732Z" fill="#FFA500"/>
<path d="M18.8064 11.8897H19.5008C19.3733 10.3912 18.7781 9.02438 17.8621 7.93644L17.3734 8.42573C17.1369 8.66255 16.7535 8.66255 16.517 8.42573C16.2804 8.18894 16.2804 7.80497 16.517 7.56814L17.0056 7.07885C15.9191 6.16168 14.554 5.56566 13.0575 5.43799V6.13334C13.0254 6.93792 11.8779 6.93732 11.8462 6.13334V5.43799C10.3496 5.56566 8.98458 6.16168 7.89805 7.07885L8.38671 7.56814C8.62323 7.80493 8.62323 8.1889 8.38671 8.42573C8.15019 8.66255 7.76675 8.66255 7.53023 8.42573L7.04158 7.93644C6.12559 9.02438 5.53034 10.3911 5.40283 11.8897H6.09728C6.90083 11.9218 6.90022 13.0708 6.09728 13.1025H5.40283C5.53034 14.601 6.12559 15.9678 7.04153 17.0558L7.53023 16.5665C7.76675 16.3297 8.15019 16.3296 8.38671 16.5665C8.62323 16.8032 8.62323 17.1872 8.38671 17.424L7.89801 17.9134C8.98454 18.8305 10.3495 19.4266 11.8462 19.5542V18.8588C11.8782 18.0543 13.0257 18.0549 13.0574 18.8588V19.5542C14.554 19.4265 15.919 18.8305 17.0055 17.9134L16.5168 17.424C16.2803 17.1872 16.2804 16.8032 16.5169 16.5664C16.7534 16.3296 17.1368 16.3297 17.3734 16.5664L17.862 17.0557C18.778 15.9678 19.3733 14.601 19.5008 13.1025H18.8063C18.0028 13.0705 18.0034 11.9214 18.8064 11.8897ZM14.5153 14.5622C14.2788 14.7991 13.8953 14.7991 13.6588 14.5622L12.0236 12.9249C11.91 12.8112 11.8462 12.657 11.8462 12.4962V9.82795C11.8782 9.02336 13.0258 9.02397 13.0575 9.82795V12.245L14.5152 13.7046C14.7518 13.9414 14.7518 14.3254 14.5153 14.5622Z" fill="white"/>
</svg>
