<svg width="16" height="17" viewBox="0 0 16 17" fill="none" xmlns="http://www.w3.org/2000/svg">
<g clip-path="url(#clip0_911_28536)">
<path d="M8.00032 2.21094C5.20033 2.21094 2.66699 4.3576 2.66699 7.6776C2.66699 9.7976 4.30033 12.2909 7.56032 15.1643C7.81366 15.3843 8.19366 15.3843 8.44699 15.1643C11.7003 12.2909 13.3337 9.7976 13.3337 7.6776C13.3337 4.3576 10.8003 2.21094 8.00032 2.21094ZM8.00032 8.8776C7.26699 8.8776 6.66699 8.2776 6.66699 7.54427C6.66699 6.81094 7.26699 6.21094 8.00032 6.21094C8.73366 6.21094 9.33366 6.81094 9.33366 7.54427C9.33366 8.2776 8.73366 8.8776 8.00032 8.8776Z" fill="#0C0F4A"/>
</g>
<defs>
<clipPath id="clip0_911_28536">
<rect width="16" height="16" fill="white" transform="translate(0 0.369141)"/>
</clipPath>
</defs>
</svg>
