<svg width="12" height="13" viewBox="0 0 12 13" fill="none" xmlns="http://www.w3.org/2000/svg">
<path d="M3.08333 1.36914C2.76117 1.36914 2.5 1.64896 2.5 1.99414V10.7441C2.5 11.0893 2.76117 11.3691 3.08333 11.3691H4.83333V9.18164C4.83333 9.00905 4.96392 8.86914 5.125 8.86914H6.875C7.03608 8.86914 7.16667 9.00905 7.16667 9.18164V11.3691H8.91667C9.23883 11.3691 9.5 11.0893 9.5 10.7441V1.99414C9.5 1.64896 9.23883 1.36914 8.91667 1.36914H3.08333ZM3.66667 2.93164C3.66667 2.75905 3.79725 2.61914 3.95833 2.61914H4.54167C4.70275 2.61914 4.83333 2.75905 4.83333 2.93164V3.55664C4.83333 3.72923 4.70275 3.86914 4.54167 3.86914H3.95833C3.79725 3.86914 3.66667 3.72923 3.66667 3.55664V2.93164ZM5.41667 2.93164C5.41667 2.75905 5.54725 2.61914 5.70833 2.61914H6.29167C6.45275 2.61914 6.58333 2.75905 6.58333 2.93164V3.55664C6.58333 3.72923 6.45275 3.86914 6.29167 3.86914H5.70833C5.54725 3.86914 5.41667 3.72923 5.41667 3.55664V2.93164ZM7.45833 2.61914H8.04167C8.20275 2.61914 8.33333 2.75905 8.33333 2.93164V3.55664C8.33333 3.72923 8.20275 3.86914 8.04167 3.86914H7.45833C7.29725 3.86914 7.16667 3.72923 7.16667 3.55664V2.93164C7.16667 2.75905 7.29725 2.61914 7.45833 2.61914ZM3.66667 4.80664C3.66667 4.63405 3.79725 4.49414 3.95833 4.49414H4.54167C4.70275 4.49414 4.83333 4.63405 4.83333 4.80664V5.43164C4.83333 5.60423 4.70275 5.74414 4.54167 5.74414H3.95833C3.79725 5.74414 3.66667 5.60423 3.66667 5.43164V4.80664ZM5.70833 4.49414H6.29167C6.45275 4.49414 6.58333 4.63405 6.58333 4.80664V5.43164C6.58333 5.60423 6.45275 5.74414 6.29167 5.74414H5.70833C5.54725 5.74414 5.41667 5.60423 5.41667 5.43164V4.80664C5.41667 4.63405 5.54725 4.49414 5.70833 4.49414ZM7.16667 4.80664C7.16667 4.63405 7.29725 4.49414 7.45833 4.49414H8.04167C8.20275 4.49414 8.33333 4.63405 8.33333 4.80664V5.43164C8.33333 5.60423 8.20275 5.74414 8.04167 5.74414H7.45833C7.29725 5.74414 7.16667 5.60423 7.16667 5.43164V4.80664ZM3.95833 6.36914H4.54167C4.70275 6.36914 4.83333 6.50905 4.83333 6.68164V7.30664C4.83333 7.47923 4.70275 7.61914 4.54167 7.61914H3.95833C3.79725 7.61914 3.66667 7.47923 3.66667 7.30664V6.68164C3.66667 6.50905 3.79725 6.36914 3.95833 6.36914ZM5.41667 6.68164C5.41667 6.50905 5.54725 6.36914 5.70833 6.36914H6.29167C6.45275 6.36914 6.58333 6.50905 6.58333 6.68164V7.30664C6.58333 7.47923 6.45275 7.61914 6.29167 7.61914H5.70833C5.54725 7.61914 5.41667 7.47923 5.41667 7.30664V6.68164ZM7.45833 6.36914H8.04167C8.20275 6.36914 8.33333 6.50905 8.33333 6.68164V7.30664C8.33333 7.47923 8.20275 7.61914 8.04167 7.61914H7.45833C7.29725 7.61914 7.16667 7.47923 7.16667 7.30664V6.68164C7.16667 6.50905 7.29725 6.36914 7.45833 6.36914Z" fill="#0C0F4A"/>
</svg>
