<svg width="97" height="94" viewBox="0 0 97 94" fill="none" xmlns="http://www.w3.org/2000/svg">
<g opacity="0.6" clip-path="url(#clip0_715_14298)">
<path d="M35.0533 18.4072C35.0555 21.2447 34.3737 24.0405 33.0663 26.5559C31.759 29.0713 29.8648 31.2314 27.5456 32.8519C26.8924 33.3111 26.2083 33.7243 25.4983 34.0886C25.2627 34.21 25.0254 34.3253 24.7837 34.4346C24.5661 34.5348 24.3471 34.6288 24.1249 34.7184C21.3701 35.8386 18.3776 36.2396 15.4267 35.8838C14.916 35.8231 14.4119 35.7396 13.9142 35.6334C13.8931 35.6288 13.8704 35.6243 13.8493 35.6197C12.8072 35.3984 11.7879 35.0799 10.8048 34.6683C7.87374 33.4463 5.32801 31.4481 3.4392 28.8868C1.5504 26.3255 0.389396 23.2972 0.0800586 20.1251C-0.229279 16.9529 0.324661 13.756 1.68277 10.8753C3.04089 7.9946 5.15222 5.53826 7.7915 3.76836C10.4308 1.99846 13.499 0.981403 16.6687 0.825708C19.8385 0.670012 22.9908 1.38152 25.7895 2.88431C28.5881 4.38711 30.928 6.6248 32.5595 9.35865C34.1911 12.0925 35.053 15.2199 35.0533 18.4072Z" fill="white"/>
<path d="M20.754 15.1218C20.7389 15.1036 20.7223 15.0869 20.7057 15.0702C19.7692 14.1206 18.4976 13.5803 17.1669 13.5667C15.8362 13.553 14.5539 14.0671 13.5984 14.9974C13.5878 15.0065 13.5788 15.0156 13.5697 15.0247C13.5576 15.0353 13.547 15.0459 13.5364 15.0566C13.0659 15.528 12.6926 16.0881 12.438 16.7047C12.1834 17.3213 12.0524 17.9824 12.0527 18.6499V21.8366C12.053 22.0176 12.1247 22.1911 12.2522 22.3191C12.3796 22.4471 12.5524 22.5191 12.7326 22.5194H21.4959C21.6761 22.5191 21.8489 22.4471 21.9763 22.3191C22.1038 22.1911 22.1755 22.0176 22.1758 21.8366V18.6499C22.177 17.3329 21.667 16.0672 20.754 15.1218Z" fill="#2F2E41"/>
<path d="M17.3174 22.4882C19.3669 22.4882 21.0283 20.8196 21.0283 18.7612C21.0283 16.7028 19.3669 15.0342 17.3174 15.0342C15.2679 15.0342 13.6064 16.7028 13.6064 18.7612C13.6064 20.8196 15.2679 22.4882 17.3174 22.4882Z" fill="#FFB7B7"/>
<path d="M21.2174 18.4437L20.7793 15.3693C20.7657 15.275 20.7178 15.189 20.6448 15.1281C20.6201 15.1082 20.5932 15.0914 20.5646 15.078C18.3209 14.0233 16.0456 14.0233 13.8019 15.0749C13.7719 15.0888 13.744 15.1067 13.7187 15.1281C13.7097 15.1356 13.7007 15.1447 13.6916 15.1538C13.6316 15.2161 13.5943 15.2968 13.5858 15.383L13.2927 18.4619C13.2877 18.5146 13.2938 18.5677 13.3104 18.6178C13.3271 18.668 13.354 18.7141 13.3894 18.7533C13.4465 18.8163 13.5232 18.8581 13.607 18.8716C13.6273 18.876 13.6481 18.878 13.6689 18.8777H14.4123C14.4842 18.8774 14.5545 18.8568 14.6152 18.8181C14.6759 18.7795 14.7244 18.7244 14.7553 18.6592L15.0771 17.9672C15.0977 17.9224 15.1323 17.8855 15.1756 17.8622C15.219 17.8389 15.2688 17.8305 15.3173 17.8382C15.3659 17.846 15.4106 17.8694 15.4447 17.905C15.4788 17.9406 15.5004 17.9865 15.5061 18.0355L15.5696 18.5454C15.5814 18.637 15.6259 18.7211 15.6948 18.7823C15.7637 18.8434 15.8524 18.8773 15.9444 18.8777H20.8442C20.9083 18.878 20.9714 18.8613 21.027 18.8291C21.0657 18.808 21.1005 18.7803 21.1298 18.7472C21.1652 18.7059 21.1913 18.6574 21.2065 18.605C21.2216 18.5527 21.2253 18.4976 21.2174 18.4437Z" fill="#2F2E41"/>
<path d="M26.4938 29.3166L27.5453 32.8523C26.8921 33.3114 26.208 33.7247 25.498 34.089C25.2624 34.2104 25.0251 34.3257 24.7834 34.435L23.694 29.7445L23.271 27.9251L25.9906 27.6216L26.4938 29.3166Z" fill="#FFB7B7"/>
<path d="M13.9791 28.7285L13.8885 33.5055L13.8492 35.6193C12.8071 35.398 11.7879 35.0794 10.8047 34.6679L11.1658 30.1428L11.2565 29.0017L13.9791 28.7285Z" fill="#FFB7B7"/>
<path d="M26.494 29.3168L23.7623 29.7281L23.7955 30.1787L24.1249 34.719C21.37 35.8392 18.3775 36.2402 15.4266 35.8844C14.9159 35.8237 14.4118 35.7402 13.9142 35.634C14.1378 34.6901 14.3312 33.8404 14.0925 33.6734C14.0205 33.6229 13.9524 33.5671 13.8885 33.5065C12.7749 32.4398 13.1859 30.0315 13.1859 30.0315L11.1658 30.1438L10.4663 30.1833C10.4663 30.1833 10.7685 25.3274 12.1283 25.3274H13.7903L21.7981 24.5687C21.7981 24.5687 24.0644 23.81 24.6688 24.8722C24.9861 25.4291 25.5511 26.6097 26.0181 27.6082C26.4411 28.5156 26.7841 29.2728 26.7841 29.2728L26.494 29.3168Z" fill="#2F2E41"/>
<path d="M96.9992 18.6011C96.9709 21.3806 96.2867 24.1138 95.0028 26.5763C93.7189 29.0387 91.8719 31.1603 89.6134 32.7669C89.5742 32.7942 89.5334 32.8231 89.4926 32.8519C89.4503 32.8823 89.4065 32.9126 89.3626 32.9414C89.1088 33.1175 88.8499 33.2859 88.586 33.4468C88.2143 33.6744 87.8341 33.8883 87.4452 34.0886C87.4332 34.0947 87.4196 34.1008 87.4075 34.1069C87.1839 34.2222 86.9583 34.3314 86.7307 34.4346C86.7231 34.4377 86.717 34.4407 86.7095 34.4437C86.6566 34.468 86.6007 34.4938 86.5463 34.5166C86.1248 34.7047 85.6941 34.8762 85.256 35.028C84.8827 35.16 84.504 35.2783 84.1198 35.383C83.3339 35.6007 82.5336 35.762 81.725 35.8656C81.0354 35.9547 80.3412 36.0023 79.646 36.0082C79.5885 36.0098 79.5312 36.0098 79.4738 36.0098C79.0946 36.0098 78.7168 35.9976 78.3436 35.9733C78.0172 35.9521 77.6939 35.9233 77.3736 35.8838C76.8795 35.8246 76.3915 35.7457 75.911 35.6425C75.8899 35.6395 75.8687 35.6349 75.8476 35.6304C75.831 35.6273 75.8128 35.6228 75.7962 35.6198C75.3127 35.5181 74.8368 35.3937 74.3699 35.251C73.9302 35.1175 73.4986 34.9668 73.0751 34.7988C72.9663 34.7563 72.859 34.7138 72.7517 34.6683C72.4843 34.556 72.2199 34.4392 71.96 34.3132C71.8845 34.2783 71.8105 34.2419 71.7364 34.2055C71.4856 34.0826 71.2378 33.9536 70.9961 33.817C70.7045 33.6547 70.4179 33.4842 70.1364 33.3056C69.7813 33.0811 69.4338 32.8443 69.0968 32.594C66.1033 30.385 63.886 27.278 62.7647 23.7213C61.6435 20.1645 61.6764 16.342 62.8587 12.8052C64.041 9.26846 66.3115 6.20043 69.3427 4.04382C72.3738 1.88721 76.0087 0.753561 79.723 0.806458C89.3335 0.940533 97.1029 8.94851 96.9992 18.6011Z" fill="white"/>
<path d="M75.7959 35.6196C75.3124 35.518 74.8365 35.3935 74.3696 35.2509L75.9727 25.2675L77.6331 25.2159L80.6444 25.1203L82.1886 25.0718C82.1886 25.0718 83.284 29.9064 84.1195 35.3829C83.3336 35.6006 82.5333 35.7619 81.7247 35.8655C81.0351 35.9545 80.3409 36.0022 79.6457 36.0081C79.5882 36.0096 79.5308 36.0096 79.4734 36.0096C79.0942 36.0096 78.7165 35.9975 78.3433 35.9732C78.0169 35.952 77.6936 35.9231 77.3733 35.8837C76.8792 35.8245 76.3912 35.7456 75.9107 35.6424C75.8896 35.6394 75.8684 35.6348 75.8473 35.6303C75.8307 35.6272 75.8125 35.6227 75.7959 35.6196Z" fill="#CBCBCB"/>
<path d="M75.9111 35.6418C75.89 35.6388 75.8688 35.6343 75.8476 35.6297C75.831 35.6267 75.8129 35.6221 75.7963 35.6191C75.3128 35.5174 74.8368 35.393 74.37 35.2503C73.9303 35.1168 73.4987 34.9661 73.0751 34.7981C72.9664 34.7556 72.8591 34.7132 72.7517 34.6676C72.4844 34.5553 72.22 34.4385 71.9601 34.3126C71.8845 34.2777 71.8105 34.2412 71.7365 34.2048L71.6035 26.7298L75.683 24.9741C75.683 24.9741 75.6965 25.0834 77.6335 25.2154C78.0021 26.4233 75.9111 35.6418 75.9111 35.6418Z" fill="#2F2E41"/>
<path d="M88.1037 26.3761L87.3347 30.4353L87.4071 34.106C87.1836 34.2213 86.958 34.3306 86.7303 34.4338C86.7227 34.4368 86.7167 34.4399 86.7092 34.4429C86.6563 34.4672 86.6003 34.493 86.546 34.5157C86.1244 34.7039 85.6938 34.8754 85.2557 35.0271C84.8824 35.1592 84.5037 35.2775 84.1195 35.3822C83.3336 35.5999 82.5333 35.7612 81.7247 35.8648C81.0351 35.9538 80.3409 36.0015 79.6457 36.0074L79.5656 29.5021C79.3964 27.4049 79.957 26.018 80.6444 25.1196C84.3083 24.628 84.2267 24.584 84.2267 24.584L88.1113 26.3397L88.1037 26.3761Z" fill="#2F2E41"/>
<path d="M73.3514 27.3152L73.0749 34.7978C72.9662 34.7553 72.8589 34.7128 72.7515 34.6673C72.4842 34.555 72.2198 34.4382 71.9599 34.3122C71.8843 34.2773 71.8103 34.2409 71.7363 34.2045C71.4854 34.0816 71.2377 33.9526 70.9959 33.816C70.7043 33.6537 70.4177 33.4832 70.1362 33.3046L71.6033 26.7295L73.3514 27.3152Z" fill="#2F2E41"/>
<path d="M89.613 32.7664C89.5738 32.7937 89.533 32.8226 89.4922 32.8514C89.4499 32.8817 89.4061 32.9121 89.3623 32.9409C89.1084 33.1169 88.8495 33.2854 88.5857 33.4462C88.214 33.6738 87.8337 33.8878 87.4449 34.0881C87.4329 34.0942 87.4192 34.1003 87.4071 34.1063C87.1768 34.2251 86.9443 34.3375 86.7095 34.4435L86.7091 34.4432L86.4326 26.9348L88.1037 26.3764L88.1807 26.3506L89.613 32.7664Z" fill="#2F2E41"/>
<path d="M83.6434 19.4291C84.3148 17.1288 83.0073 14.7188 80.7228 14.0461C78.4384 13.3735 76.0421 14.6929 75.3706 16.9932C74.6991 19.2935 76.0067 21.7035 78.2912 22.3762C80.5756 23.0488 82.9719 21.7294 83.6434 19.4291Z" fill="#9F616A"/>
<path d="M75.1661 19.2987V17.6096C75.1661 17.6096 73.8098 16.0052 75.3017 15.6011C75.3017 15.6011 75.7086 11.5599 79.235 13.4458C79.235 13.4458 84.1176 12.6375 83.5751 15.4664C83.5751 15.4664 84.7958 14.7279 84.3889 16.6138L83.602 19.6517C83.602 19.6517 83.982 17.6449 82.7613 17.3755L82.0832 16.9714C82.0832 16.9714 80.1844 18.8573 77.3362 16.5673C77.3362 16.5673 76.1155 16.2747 76.2511 17.4871C76.3868 18.6994 75.1661 19.2987 75.1661 19.2987Z" fill="#2F2E41"/>
<path d="M66.0268 71.518C66.0289 74.3555 65.3472 77.1513 64.0398 79.6667C62.7324 82.1821 60.8383 84.3423 58.5191 85.9627C58.4768 85.9931 58.433 86.0234 58.3892 86.0523C58.1353 86.2283 57.8764 86.3967 57.6125 86.5576C57.2409 86.7852 56.8606 86.9991 56.4718 87.1995C56.2361 87.3209 55.9989 87.4362 55.7572 87.5454C55.6967 87.5728 55.6348 87.6016 55.5728 87.6274C55.1513 87.8155 54.7207 87.987 54.2825 88.1388C53.1381 88.5418 51.9545 88.8226 50.7515 88.9764C50.0049 89.0728 49.253 89.121 48.5003 89.1206C48.1211 89.1206 47.7434 89.1084 47.3701 89.0841C47.0437 89.0629 46.7205 89.0341 46.4001 88.9946C45.8849 88.9324 45.3757 88.8489 44.8741 88.7412C44.8575 88.7382 44.8394 88.7336 44.8228 88.7306C43.7807 88.5092 42.7614 88.1907 41.7782 87.7791C41.5109 87.6668 41.2465 87.55 40.9866 87.424C40.6587 87.2693 40.3374 87.1039 40.0226 86.9278C37.3173 85.4267 35.0554 83.2338 33.4661 80.5715C31.8768 77.9092 31.0167 74.8722 30.9729 71.7684C30.9292 68.6646 31.7034 65.6044 33.2171 62.898C34.7307 60.1916 36.93 57.9353 39.5919 56.3579C42.2538 54.7805 45.2837 53.938 48.3743 53.916C51.465 53.8939 54.5065 54.693 57.1904 56.2322C59.8744 57.7714 62.1054 59.9961 63.6572 62.6806C65.2091 65.365 66.0265 68.4139 66.0268 71.518Z" fill="white"/>
<path d="M48.0187 75.8555C50.1801 75.8555 51.9324 74.0957 51.9324 71.9248C51.9324 69.754 50.1801 67.9941 48.0187 67.9941C45.8572 67.9941 44.105 69.754 44.105 71.9248C44.105 74.0957 45.8572 75.8555 48.0187 75.8555Z" fill="#FFB8B8"/>
<path d="M46.3996 88.9942C45.8843 88.932 45.3751 88.8486 44.8735 88.7408L45.3495 77.9851L45.4175 77.9138L46.392 76.8804H49.4909L50.6346 77.9927L50.7313 78.0883L53.1775 80.4418L54.2819 88.1384C53.1375 88.5415 51.954 88.8222 50.7509 88.976C50.0044 89.0725 49.2524 89.1206 48.4997 89.1202C48.1205 89.1202 47.7428 89.108 47.3695 89.0838C47.0432 89.0625 46.7199 89.0337 46.3996 88.9942Z" fill="#CBCBCB"/>
<path d="M40.9861 87.4248C40.6582 87.27 40.3369 87.1046 40.0221 86.9286C39.9904 84.0151 39.9692 82.0803 39.9692 82.0803L40.3379 81.8542C40.3423 81.8519 40.3468 81.8499 40.3515 81.8481L44.5351 79.2958L45.413 77.8633L45.4176 77.9149L45.6759 80.9346C46.454 83.6022 47.0203 86.3275 47.3696 89.0849C47.0433 89.0636 46.72 89.0348 46.3997 88.9954C45.8844 88.9331 45.3752 88.8497 44.8736 88.7419C44.857 88.7389 44.8389 88.7344 44.8223 88.7313C43.7802 88.51 42.7609 88.1914 41.7778 87.7799C41.5104 87.6676 41.246 87.5507 40.9861 87.4248Z" fill="#2F2E41"/>
<path d="M54.2823 88.1395C53.1379 88.5426 51.9543 88.8233 50.7513 88.9771C50.5846 87.9977 50.5233 87.0031 50.5685 86.0105C50.8949 80.7707 50.1424 77.8633 50.4688 77.8633L50.6349 77.9938L52.6883 79.6235L55.3913 80.619H55.3928L57.2527 81.3034L57.5806 81.4248V81.5811C57.5821 82.1213 57.5851 84.012 57.6123 86.5583C57.2407 86.7859 56.8604 86.9999 56.4716 87.2002C56.2359 87.3216 55.9987 87.4369 55.757 87.5462C55.6965 87.5735 55.6346 87.6023 55.5726 87.6281C55.1511 87.8163 54.7204 87.9878 54.2823 88.1395Z" fill="#2F2E41"/>
<path d="M44.3158 73.1556C44.3158 73.1556 44.6484 72.5691 44.5711 70.6098C44.4938 68.6505 47.4644 69.7587 49.9466 69.5718C52.4289 69.3849 51.9034 72.8428 51.9034 72.8428C51.9034 72.8428 52.0825 72.6372 52.4659 70.9683C52.8493 69.2994 51.9788 67.6363 51.9788 67.6363C51.7224 65.8826 50.3406 66.4446 50.3406 66.4446C51.0061 66.7048 50.8783 67.2611 50.8783 67.2611C50.315 66.2693 48.9333 66.8313 48.9333 66.8313C47.0904 65.6699 45.2227 67.1994 45.2227 67.1994C42.9964 67.7068 44.302 69.485 44.302 69.485C42.0632 70.6213 44.3158 73.1556 44.3158 73.1556Z" fill="#2F2E41"/>
<path d="M38.123 85.7046C38.1805 84.3707 38.2062 83.5103 38.1759 83.3904C38.0204 82.7652 40.1447 81.9276 40.3381 81.8532C40.3425 81.8509 40.347 81.8489 40.3516 81.8472L40.7838 82.0793L40.9862 87.4238C40.6584 87.269 40.3371 87.1037 40.0223 86.9276C39.3635 86.5616 38.7291 86.1531 38.123 85.7046Z" fill="#2F2E41"/>
<path d="M57.6127 86.5579C57.241 86.7855 56.8608 86.9994 56.4719 87.1997C56.2363 87.3211 55.999 87.4365 55.7573 87.5457C55.6968 87.573 55.6349 87.6019 55.573 87.6277L54.8931 80.8856L55.2904 80.5942C55.2904 80.5942 55.3267 80.6033 55.3916 80.6185H55.3932C55.712 80.6974 56.691 80.9584 57.2531 81.3029C57.3786 81.3743 57.4897 81.4684 57.581 81.5806C57.6365 81.6475 57.6641 81.7334 57.658 81.8203C57.6399 81.9964 57.9421 83.6656 58.3893 86.0525C58.1355 86.2286 57.8766 86.397 57.6127 86.5579Z" fill="#2F2E41"/>
<path opacity="0.5" d="M27.239 75.4138H17.334V42.2539H17.641V75.0699H27.239V75.4138Z" fill="#2F2E41"/>
<path opacity="0.5" d="M79.2402 75.4138H70.1606V75.0731H78.9716V42.2539H79.2402V75.4138Z" fill="#2F2E41"/>
<path d="M79.4738 39.4031C81.6797 39.4031 83.468 37.607 83.468 35.3915C83.468 33.1759 81.6797 31.3799 79.4738 31.3799C77.2678 31.3799 75.4795 33.1759 75.4795 35.3915C75.4795 37.607 77.2678 39.4031 79.4738 39.4031Z" fill="#1FB27A"/>
<path d="M79.0926 37.0845L77.897 35.5406L78.5923 34.9975L79.1583 35.7285L81.0706 33.7012L81.71 34.3095L79.0926 37.0845Z" fill="white"/>
<path d="M17.5265 39.7156C19.7325 39.7156 21.5208 37.9195 21.5208 35.704C21.5208 33.4884 19.7325 31.6924 17.5265 31.6924C15.3205 31.6924 13.5322 33.4884 13.5322 35.704C13.5322 37.9195 15.3205 39.7156 17.5265 39.7156Z" fill="#1FB27A"/>
<path d="M17.1463 37.397L15.9507 35.8531L16.646 35.31L17.212 36.041L19.1243 34.0137L19.7638 34.622L17.1463 37.397Z" fill="white"/>
<path d="M48.4996 93.1301C50.7056 93.1301 52.4939 91.3341 52.4939 89.1185C52.4939 86.903 50.7056 85.1069 48.4996 85.1069C46.2937 85.1069 44.5054 86.903 44.5054 89.1185C44.5054 91.3341 46.2937 93.1301 48.4996 93.1301Z" fill="#1FB27A"/>
<path d="M48.1194 90.8115L46.9238 89.2677L47.6191 88.7246L48.1851 89.4555L50.0975 87.4282L50.7369 88.0366L48.1194 90.8115Z" fill="white"/>
</g>
<defs>
<clipPath id="clip0_715_14298">
<rect width="97" height="92.3253" fill="white" transform="translate(0 0.804688)"/>
</clipPath>
</defs>
</svg>
