<svg width="36" height="36" viewBox="0 0 36 36" fill="none" xmlns="http://www.w3.org/2000/svg">
<path d="M18.0024 32.999C19.7427 32.999 21.1665 31.6836 21.1665 30.076H14.8384C14.8384 31.6836 16.2464 32.999 18.0024 32.999ZM27.4946 24.2298V16.9221C27.4946 12.4352 24.9 8.67902 20.3755 7.68518V6.69133C20.3755 5.47825 19.3155 4.49902 18.0024 4.49902C16.6894 4.49902 15.6294 5.47825 15.6294 6.69133V7.68518C11.089 8.67902 8.51033 12.4206 8.51033 16.9221V24.2298L6.46952 26.1152C5.47285 27.036 6.16894 28.6144 7.57693 28.6144H28.4121C29.8201 28.6144 30.532 27.036 29.5354 26.1152L27.4946 24.2298Z" fill="#0C0F4A"/>
</svg>
