<svg width="18" height="16" viewBox="0 0 18 16" fill="none" xmlns="http://www.w3.org/2000/svg">
<path d="M17.3994 7.7975C17.3753 7.74813 16.7902 6.57375 15.4894 5.39687C13.7562 3.82875 11.5671 3 9.15763 3C6.74816 3 4.55905 3.82875 2.82586 5.39687C1.5251 6.57375 0.937236 7.75 0.915822 7.7975C0.8844 7.86144 0.868164 7.93064 0.868164 8.00062C0.868164 8.0706 0.8844 8.1398 0.915822 8.20375C0.94 8.25312 1.5251 9.42688 2.82586 10.6038C4.55905 12.1713 6.74816 13 9.15763 13C11.5671 13 13.7562 12.1713 15.4894 10.6038C16.7902 9.42688 17.3753 8.25312 17.3994 8.20375C17.4309 8.1398 17.4471 8.0706 17.4471 8.00062C17.4471 7.93064 17.4309 7.86144 17.3994 7.7975ZM9.15763 10.5C8.61113 10.5 8.0769 10.3534 7.6225 10.0787C7.1681 9.80397 6.81394 9.41352 6.60481 8.95671C6.39567 8.49989 6.34095 7.99723 6.44757 7.51227C6.55418 7.02732 6.81735 6.58186 7.20378 6.23223C7.59022 5.8826 8.08257 5.6445 8.61857 5.54804C9.15457 5.45157 9.71015 5.50108 10.215 5.6903C10.7199 5.87952 11.1515 6.19995 11.4551 6.61107C11.7587 7.0222 11.9208 7.50555 11.9208 8C11.9208 8.66304 11.6297 9.29893 11.1115 9.76777C10.5933 10.2366 9.89047 10.5 9.15763 10.5Z" fill="#48597B"/>
</svg>
