<svg width="16" height="16" viewBox="0 0 16 16" fill="none" xmlns="http://www.w3.org/2000/svg">
<path d="M3.36999 2.16373C3.32608 2.11423 3.27279 2.07395 3.21319 2.0452C3.1536 2.01645 3.08889 1.99982 3.02282 1.99627C2.95675 1.99271 2.89063 2.00231 2.8283 2.02449C2.76597 2.04668 2.70865 2.08102 2.65969 2.12552C2.61072 2.17002 2.57108 2.22379 2.54305 2.28373C2.51502 2.34366 2.49916 2.40856 2.4964 2.47467C2.49364 2.54078 2.50402 2.60678 2.52696 2.66884C2.54989 2.73091 2.58491 2.7878 2.62999 2.83623L3.83249 4.15936C1.56249 5.55248 0.586244 7.69998 0.543119 7.79748C0.51469 7.86143 0.5 7.93063 0.5 8.00061C0.5 8.07059 0.51469 8.13979 0.543119 8.20373C0.564994 8.25311 1.09437 9.42686 2.27124 10.6037C3.83937 12.1712 5.81999 13 7.99999 13C9.12038 13.0064 10.2294 12.7757 11.2544 12.3231L12.6294 13.8362C12.6733 13.8857 12.7266 13.926 12.7862 13.9548C12.8458 13.9835 12.9105 14.0001 12.9765 14.0037C13.0426 14.0072 13.1087 13.9977 13.1711 13.9755C13.2334 13.9533 13.2907 13.9189 13.3397 13.8744C13.3886 13.8299 13.4283 13.7762 13.4563 13.7162C13.4843 13.6563 13.5002 13.5914 13.503 13.5253C13.5057 13.4592 13.4953 13.3932 13.4724 13.3311C13.4495 13.2691 13.4145 13.2122 13.3694 13.1637L3.36999 2.16373ZM8.93249 9.76936C8.5403 9.97568 8.09069 10.0459 7.65426 9.96901C7.21783 9.89211 6.81931 9.67243 6.52126 9.34449C6.22321 9.01654 6.04252 8.59889 6.00756 8.15712C5.9726 7.71534 6.08536 7.27447 6.32812 6.90373L8.93249 9.76936ZM15.4569 8.20373C15.4306 8.26248 14.7975 9.66436 13.3719 10.9412C13.2736 11.0294 13.1445 11.0751 13.0127 11.0685C12.8808 11.0618 12.757 11.0032 12.6681 10.9056L6.33749 3.94186C6.27693 3.8754 6.23541 3.79384 6.2173 3.70577C6.1992 3.6177 6.20517 3.52638 6.2346 3.44142C6.26403 3.35646 6.31582 3.28101 6.38453 3.22301C6.45323 3.16501 6.5363 3.12661 6.62499 3.11186C7.07947 3.03681 7.53936 2.9994 7.99999 2.99998C10.18 2.99998 12.1606 3.82873 13.7287 5.39686C14.9056 6.57373 15.435 7.74811 15.4569 7.79748C15.4853 7.86143 15.5 7.93063 15.5 8.00061C15.5 8.07059 15.4853 8.13979 15.4569 8.20373Z" fill="#48597B"/>
</svg>
