<svg width="17" height="17" viewBox="0 0 17 17" fill="none" xmlns="http://www.w3.org/2000/svg">
<path d="M5.96542 10.5146C5.85911 10.5146 5.78747 10.525 5.75049 10.5354V11.2161C5.7944 11.2265 5.84929 11.2294 5.92498 11.2294C6.20173 11.2294 6.37218 11.0895 6.37218 10.8532C6.37218 10.6418 6.22542 10.5146 5.96542 10.5146ZM7.98013 10.5216C7.86458 10.5216 7.78947 10.532 7.74498 10.5424V12.0504C7.78947 12.0608 7.86111 12.0608 7.92582 12.0608C8.39787 12.0642 8.70524 11.8042 8.70524 11.2542C8.70871 10.7746 8.42849 10.5216 7.98013 10.5216Z" fill="#0C0F4A" fill-opacity="0.54"/>
<path d="M9.27778 3.1875H4.65556C4.34908 3.1875 4.05516 3.30925 3.83845 3.52595C3.62175 3.74266 3.5 4.03658 3.5 4.34306V13.5875C3.5 13.894 3.62175 14.1879 3.83845 14.4046C4.05516 14.6213 4.34908 14.7431 4.65556 14.7431H11.5889C11.8954 14.7431 12.1893 14.6213 12.406 14.4046C12.6227 14.1879 12.7444 13.894 12.7444 13.5875V6.65417L9.27778 3.1875ZM6.67662 11.3862C6.49809 11.5537 6.23462 11.6288 5.92782 11.6288C5.86833 11.6295 5.80887 11.626 5.74987 11.6184V12.4423H5.23333V10.1682C5.46644 10.1334 5.70198 10.1176 5.93764 10.1208C6.25947 10.1208 6.48827 10.1821 6.64253 10.3051C6.78929 10.4219 6.88867 10.6131 6.88867 10.8384C6.88809 11.0649 6.81298 11.2562 6.67662 11.3862ZM8.87622 12.1691C8.63356 12.3707 8.26436 12.4666 7.81311 12.4666C7.54271 12.4666 7.35147 12.4493 7.22147 12.4319V10.1688C7.45466 10.1348 7.69012 10.1187 7.92578 10.1208C8.36316 10.1208 8.64742 10.1994 8.86929 10.367C9.10907 10.5449 9.25929 10.8286 9.25929 11.2359C9.25929 11.6768 9.09809 11.9813 8.87622 12.1691ZM11.0111 10.5657H10.126V11.0921H10.9533V11.5162H10.126V12.4429H9.60249V10.1382H11.0111V10.5657ZM9.27778 7.23194H8.7V4.34306L11.5889 7.23194H9.27778Z" fill="#0C0F4A" fill-opacity="0.54"/>
</svg>
