<svg width="11" height="11" viewBox="0 0 11 11" fill="none" xmlns="http://www.w3.org/2000/svg">
<circle cx="5.60397" cy="5.2568" r="4.92086" fill="white"/>
<path d="M8.93594 5.53397C8.88149 6.16701 8.64737 6.77133 8.26113 7.27584C7.87489 7.78034 7.3526 8.16404 6.75569 8.38178C6.15879 8.59953 5.51212 8.64227 4.89175 8.50498C4.27138 8.36769 3.70313 8.05607 3.25385 7.60679C2.80457 7.15751 2.49296 6.58926 2.35566 5.96889C2.21837 5.34852 2.26111 4.70185 2.47886 4.10495C2.6966 3.50805 3.0803 2.98575 3.5848 2.59951C4.08931 2.21327 4.69363 1.97915 5.32667 1.9247C5.36033 1.92192 5.3942 1.9258 5.42636 1.93612C5.45852 1.94643 5.48833 1.96298 5.51409 1.98481C5.53985 2.00665 5.56106 2.03335 5.57651 2.06338C5.59195 2.09341 5.60133 2.12619 5.60411 2.15985C5.60688 2.19351 5.603 2.22738 5.59269 2.25954C5.58238 2.2917 5.56583 2.32151 5.54399 2.34727C5.52216 2.37303 5.49546 2.39424 5.46543 2.40969C5.43539 2.42513 5.40261 2.43451 5.36896 2.43729C4.83317 2.48332 4.32167 2.68143 3.89466 3.0083C3.46764 3.33517 3.14286 3.77721 2.95854 4.2824C2.77422 4.78758 2.73803 5.33491 2.85422 5.85997C2.97041 6.38503 3.23414 6.86598 3.6144 7.24624C3.99466 7.6265 4.47561 7.89023 5.00067 8.00642C5.52573 8.12261 6.07306 8.08642 6.57824 7.9021C7.08343 7.71778 7.52547 7.393 7.85234 6.96599C8.17921 6.53897 8.37732 6.02747 8.42335 5.49168C8.42896 5.42371 8.46134 5.36075 8.51337 5.31665C8.5654 5.27255 8.63282 5.25093 8.70079 5.25653C8.76877 5.26214 8.83173 5.29452 8.87583 5.34655C8.91993 5.39858 8.94155 5.466 8.93594 5.53397ZM5.34781 3.46247V5.25653C5.34781 5.32451 5.37482 5.3897 5.42288 5.43776C5.47094 5.48583 5.53613 5.51283 5.60411 5.51283H7.39817C7.46615 5.51283 7.53134 5.48583 7.5794 5.43776C7.62747 5.3897 7.65447 5.32451 7.65447 5.25653C7.65447 5.18856 7.62747 5.12337 7.5794 5.07531C7.53134 5.02724 7.46615 5.00024 7.39817 5.00024H5.8604V3.46247C5.8604 3.3945 5.8334 3.32931 5.78534 3.28124C5.73727 3.23318 5.67208 3.20617 5.60411 3.20617C5.53613 3.20617 5.47094 3.23318 5.42288 3.28124C5.37482 3.32931 5.34781 3.3945 5.34781 3.46247ZM6.62929 2.69358C6.70532 2.69358 6.77965 2.67104 6.84287 2.62879C6.90609 2.58655 6.95537 2.52651 6.98447 2.45626C7.01356 2.38601 7.02118 2.30871 7.00634 2.23414C6.99151 2.15957 6.95489 2.09106 6.90113 2.0373C6.84736 1.98353 6.77886 1.94692 6.70429 1.93209C6.62971 1.91725 6.55242 1.92487 6.48217 1.95396C6.41192 1.98306 6.35188 2.03234 6.30964 2.09556C6.26739 2.15878 6.24484 2.23311 6.24484 2.30914C6.24484 2.4111 6.28535 2.50889 6.35745 2.58098C6.42954 2.65308 6.52733 2.69358 6.62929 2.69358ZM7.78261 3.46247C7.85865 3.46247 7.93298 3.43992 7.9962 3.39768C8.05942 3.35544 8.1087 3.29539 8.13779 3.22515C8.16689 3.1549 8.1745 3.0776 8.15967 3.00303C8.14484 2.92845 8.10822 2.85995 8.05446 2.80618C8.00069 2.75242 7.93219 2.7158 7.85762 2.70097C7.78304 2.68614 7.70574 2.69375 7.6355 2.72285C7.56525 2.75195 7.50521 2.80122 7.46296 2.86444C7.42072 2.92766 7.39817 3.00199 7.39817 3.07803C7.39817 3.17999 7.43868 3.27777 7.51077 3.34987C7.58287 3.42197 7.68065 3.46247 7.78261 3.46247ZM8.5515 4.6158C8.62754 4.6158 8.70186 4.59325 8.76508 4.55101C8.82831 4.50876 8.87758 4.44872 8.90668 4.37847C8.93578 4.30823 8.94339 4.23093 8.92856 4.15635C8.91372 4.08178 8.87711 4.01328 8.82334 3.95951C8.76958 3.90575 8.70108 3.86913 8.6265 3.8543C8.55193 3.83946 8.47463 3.84708 8.40438 3.87618C8.33413 3.90527 8.27409 3.95455 8.23185 4.01777C8.1896 4.08099 8.16706 4.15532 8.16706 4.23135C8.16706 4.33331 8.20756 4.4311 8.27966 4.5032C8.35176 4.57529 8.44954 4.6158 8.5515 4.6158Z" fill="#FAA500"/>
</svg>
