<svg width="22" height="22" viewBox="0 0 22 22" fill="none" xmlns="http://www.w3.org/2000/svg">
<rect x="0.341797" y="0.333252" width="21.401" height="21.3333" rx="10.6667" fill="#F6F8FD"/>
<path d="M15.6775 15.8745H6.39087C6.26868 15.8745 6.14648 15.9963 6.14648 16.1181V16.849C6.14648 16.9709 6.26868 17.0927 6.39087 17.0927H15.6775C15.7997 17.0927 15.9218 16.9709 15.9218 16.849V16.1181C15.9218 15.9963 15.7997 15.8745 15.6775 15.8745Z" fill="#FFA500"/>
<path d="M16.713 8.02609L15.0024 10.0361C14.9413 10.097 14.9413 10.1579 15.0024 10.2188C15.2467 10.5233 15.3689 10.8888 15.2467 11.3151C15.1246 11.7415 14.758 12.1069 14.3303 12.1678C13.5361 12.3506 12.864 11.7415 12.864 10.9497C12.864 10.5577 13.0706 10.2172 13.3412 10.0229C13.3875 9.98968 13.4564 9.98396 13.4697 9.92865C13.4803 9.88476 13.4652 9.83208 13.4465 9.79101L11.2755 5.04158C11.2144 4.85886 10.9089 4.85886 10.8478 5.04158L8.61751 9.78898C8.5976 9.83136 8.58112 9.88581 8.59312 9.93107C8.6073 9.98452 8.67433 9.9886 8.71974 10.0201C9.09613 10.2816 9.25231 10.795 9.13715 11.2542C9.01495 11.6806 8.64838 12.046 8.22071 12.1678C7.42646 12.3506 6.7544 11.7415 6.7544 11.0106C6.7544 10.7778 6.82578 10.5806 6.94127 10.3918C7.01418 10.2726 7.15884 10.1347 7.05988 10.0361L5.34919 8.02609C5.1659 7.84336 4.86042 8.02609 4.92152 8.26972L6.02251 14.1621C6.0622 14.3746 6.11062 14.6651 6.32673 14.6651H11.0311H15.7355C15.962 14.6651 16.0008 14.3703 16.0424 14.1478L17.1407 8.26972C17.2018 8.02609 16.8963 7.84336 16.713 8.02609Z" fill="#FFA500"/>
</svg>
