<svg width="20" height="21" viewBox="0 0 20 21" fill="none" xmlns="http://www.w3.org/2000/svg">
<path d="M9.09968 11.1248L9.99967 10.4415L10.8913 11.1165C11.2163 11.3582 11.658 11.0498 11.5413 10.6582L11.1913 9.52484L12.1913 8.73317C12.4997 8.49984 12.3247 7.99984 11.9247 7.99984H10.758L10.3997 6.88317C10.2747 6.49984 9.73301 6.49984 9.60801 6.88317L9.24134 7.99984H8.06634C7.67467 7.99984 7.49967 8.49984 7.80801 8.7415L8.79967 9.53317L8.44968 10.6665C8.33301 11.0582 8.77467 11.3665 9.09968 11.1248ZM4.99967 18.5082C4.99967 19.0748 5.55801 19.4748 6.09967 19.2998L9.99967 17.9998L13.8997 19.2998C14.4413 19.4832 14.9997 19.0832 14.9997 18.5082V13.2332C16.033 12.0582 16.6663 10.5248 16.6663 8.83317C16.6663 5.14984 13.683 2.1665 9.99967 2.1665C6.31634 2.1665 3.33301 5.14984 3.33301 8.83317C3.33301 10.5248 3.96634 12.0582 4.99967 13.2332V18.5082ZM9.99967 3.83317C12.758 3.83317 14.9997 6.07484 14.9997 8.83317C14.9997 11.5915 12.758 13.8332 9.99967 13.8332C7.24134 13.8332 4.99967 11.5915 4.99967 8.83317C4.99967 6.07484 7.24134 3.83317 9.99967 3.83317Z" fill="#0C0F4A"/>
</svg>
