<svg width="20" height="21" viewBox="0 0 20 21" fill="none" xmlns="http://www.w3.org/2000/svg">
<path d="M18.8564 12.0298V8.92994L17.0046 8.56763C16.8435 7.96376 16.602 7.40015 16.2799 6.8768L17.3669 5.30676L15.193 3.13284L13.6229 4.2198C13.0996 3.89774 12.4957 3.65619 11.9321 3.49516L11.5295 1.64331H8.4297L8.06738 3.49516C7.46352 3.65619 6.89991 3.89774 6.37656 4.2198L4.80651 3.13284L2.6326 5.30676L3.71956 6.8768C3.39749 7.40015 3.15595 8.00402 2.99492 8.56763L1.14307 8.9702V12.07L2.99492 12.4324C3.15595 13.0362 3.39749 13.5998 3.71956 14.1232L2.6326 15.6932L4.80651 17.8671L6.37656 16.7802C6.89991 17.1022 7.50378 17.3035 8.06738 17.5048L8.4297 19.3567H11.5295L11.8919 17.5048C12.4957 17.3438 13.0593 17.1022 13.5827 16.7802L15.1527 17.8671L17.3266 15.6932L16.2397 14.1232C16.5617 13.5998 16.8033 12.996 16.9643 12.4324L18.8564 12.0298ZM9.99975 14.5258C7.78558 14.5258 5.97398 12.7142 5.97398 10.5C5.97398 8.28582 7.78558 6.47423 9.99975 6.47423C12.2139 6.47423 14.0255 8.28582 14.0255 10.5C14.0255 12.7142 12.2139 14.5258 9.99975 14.5258Z" fill="#0C0F4A"/>
<path d="M9.99991 13.7205C11.7786 13.7205 13.2205 12.2786 13.2205 10.4999C13.2205 8.72121 11.7786 7.2793 9.99991 7.2793C8.22121 7.2793 6.7793 8.72121 6.7793 10.4999C6.7793 12.2786 8.22121 13.7205 9.99991 13.7205Z" fill="#0C0F4A"/>
</svg>
