<svg width="19" height="19" viewBox="0 0 19 19" fill="none" xmlns="http://www.w3.org/2000/svg">
<path d="M3.25089 4.20578C3.25089 3.47285 3.46824 2.75637 3.87543 2.14696C4.28263 1.53755 4.86139 1.06257 5.53853 0.782087C6.21568 0.501606 6.96078 0.428219 7.67964 0.571207C8.39849 0.714195 9.05879 1.06714 9.57705 1.5854C10.0953 2.10366 10.4483 2.76397 10.5912 3.48282C10.7342 4.20167 10.6608 4.94678 10.3804 5.62392C10.0999 6.30106 9.62491 6.87983 9.01549 7.28702C8.40608 7.69422 7.68961 7.91156 6.95667 7.91156C5.97384 7.91156 5.03126 7.52113 4.33629 6.82616C3.64132 6.13119 3.25089 5.18861 3.25089 4.20578ZM9.82032 15.6196C9.57488 15.3907 9.4 15.0964 9.31629 14.7714C9.23258 14.4464 9.24352 14.1042 9.34783 13.7852C9.44925 13.4618 9.64087 13.1741 9.90016 12.9558C10.1595 12.7376 10.4757 12.5978 10.8116 12.553L11.9697 12.3863C11.9697 12.3863 12.155 12.3687 12.2105 12.2566L12.5811 11.5154C12.6108 11.4618 12.6237 11.4005 12.6182 11.3394C12.6066 11.2872 12.581 11.2391 12.5441 11.2004C12.0569 10.7105 11.4715 10.3292 10.8264 10.0817C10.1813 9.83425 9.4911 9.72611 8.80123 9.76445H5.09545C1.33408 9.76445 0 12.516 0 14.8784C0 16.9907 1.121 18.1025 3.24256 18.1025H10.2743C10.4225 18.1025 10.517 17.9913 10.5615 17.7504L10.7468 16.685C10.7567 16.6397 10.7542 16.5925 10.7395 16.5484C10.7248 16.5044 10.6985 16.4652 10.6634 16.4349L9.82032 15.6196ZM17.9425 14.6181C17.9973 14.5654 18.036 14.4982 18.0543 14.4244C18.0725 14.3505 18.0695 14.2731 18.0455 14.2009C18.0216 14.1287 17.9777 14.0648 17.919 14.0165C17.8603 13.9681 17.7891 13.9374 17.7136 13.9279L15.8681 13.6657C15.8024 13.6566 15.7398 13.6317 15.6858 13.5931C15.6317 13.5546 15.5878 13.5035 15.5578 13.4443L14.7573 11.8582C14.7198 11.7855 14.663 11.7245 14.5932 11.6819C14.5233 11.6394 14.4431 11.6168 14.3613 11.6168C14.2795 11.6168 14.1992 11.6394 14.1294 11.6819C14.0595 11.7245 14.0027 11.7855 13.9652 11.8582L13.1657 13.4443C13.1356 13.5035 13.0917 13.5545 13.0377 13.593C12.9836 13.6316 12.9211 13.6565 12.8553 13.6657L11.0099 13.9279C10.9342 13.9371 10.8628 13.9676 10.8038 14.0159C10.7448 14.0641 10.7008 14.1282 10.6768 14.2005C10.6528 14.2728 10.6499 14.3505 10.6683 14.4244C10.6868 14.4984 10.7259 14.5655 10.781 14.6181L12.1151 15.891C12.1632 15.9364 12.1992 15.993 12.2201 16.0557C12.2409 16.1184 12.2459 16.1854 12.2346 16.2505L11.9298 17.9913C11.917 18.072 11.9268 18.1547 11.9584 18.23C11.99 18.3054 12.0419 18.3705 12.1084 18.418C12.175 18.4654 12.2534 18.4934 12.3349 18.4987C12.4165 18.504 12.4979 18.4864 12.57 18.448L14.17 17.6253C14.2293 17.5947 14.295 17.5787 14.3617 17.5787C14.4285 17.5787 14.4942 17.5947 14.5535 17.6253L16.1544 18.4489C16.2265 18.4871 16.3078 18.5045 16.3892 18.499C16.4706 18.4936 16.5488 18.4656 16.6152 18.4182C16.6816 18.3707 16.7334 18.3058 16.765 18.2305C16.7965 18.1553 16.8064 18.0728 16.7937 17.9922L16.4907 16.2496C16.4795 16.1845 16.4844 16.1177 16.5051 16.055C16.5257 15.9923 16.5615 15.9357 16.6093 15.8901L17.9425 14.6181Z" fill="#0C0F4A" fill-opacity="0.8"/>
</svg>
