<svg width="20" height="21" viewBox="0 0 20 21" fill="none" xmlns="http://www.w3.org/2000/svg">
<path d="M12.158 2.65817C11.8413 2.3415 11.4163 2.1665 10.9747 2.1665H4.99967C4.08301 2.1665 3.33301 2.9165 3.33301 3.83317V17.1665C3.33301 18.0832 4.07467 18.8332 4.99134 18.8332H14.9997C15.9163 18.8332 16.6663 18.0832 16.6663 17.1665V7.85817C16.6663 7.4165 16.4913 6.9915 16.1747 6.68317L12.158 2.65817ZM12.4997 15.4998H7.49967C7.04134 15.4998 6.66634 15.1248 6.66634 14.6665C6.66634 14.2082 7.04134 13.8332 7.49967 13.8332H12.4997C12.958 13.8332 13.333 14.2082 13.333 14.6665C13.333 15.1248 12.958 15.4998 12.4997 15.4998ZM12.4997 12.1665H7.49967C7.04134 12.1665 6.66634 11.7915 6.66634 11.3332C6.66634 10.8748 7.04134 10.4998 7.49967 10.4998H12.4997C12.958 10.4998 13.333 10.8748 13.333 11.3332C13.333 11.7915 12.958 12.1665 12.4997 12.1665ZM10.833 7.1665V3.4165L15.4163 7.99984H11.6663C11.208 7.99984 10.833 7.62484 10.833 7.1665Z" fill="#0C0F4A" fill-opacity="0.8"/>
</svg>
