<svg width="94" height="94" viewBox="0 0 94 94" fill="none" xmlns="http://www.w3.org/2000/svg">
<rect width="94" height="94" rx="47" fill="#C5C5D4" fill-opacity="0.16"/>
<path d="M46.4994 46.0718C51.6444 46.0718 55.8152 41.9009 55.8152 36.756C55.8152 31.611 51.6444 27.4402 46.4994 27.4402C41.3544 27.4402 37.1836 31.611 37.1836 36.756C37.1836 41.9009 41.3544 46.0718 46.4994 46.0718Z" fill="#C2C6D0"/>
<path d="M46.5 18C30.2284 18 17 31.2284 17 47.5C17 63.7716 30.2284 77 46.5 77C62.7716 77 76 63.7716 76 47.5C76 31.2284 62.7716 18 46.5 18ZM64.8832 64.2063C63.2684 55.5116 55.6295 48.9284 46.5 48.9284C37.3705 48.9284 29.7316 55.5116 28.1168 64.2063C24.08 59.7968 21.6579 53.9589 21.6579 47.5C21.6579 33.7747 32.7747 22.6579 46.5 22.6579C60.2253 22.6579 71.3421 33.7747 71.3421 47.5C71.3421 53.9589 68.92 59.7968 64.8832 64.2063Z" fill="#C2C6D0"/>
</svg>
