<svg width="20" height="21" viewBox="0 0 20 21" fill="none" xmlns="http://www.w3.org/2000/svg">
<g clip-path="url(#clip0_824_2947)">
<path fill-rule="evenodd" clip-rule="evenodd" d="M8.87057 11.3868C8.60213 11.3615 8.33128 11.3456 8.05989 11.3393V8.52772H11.3472C11.3287 9.01542 11.263 9.49443 11.1534 9.95921H10.0549C9.7772 9.95921 9.54019 10.101 9.41077 10.351C9.41077 10.351 9.15065 10.8498 8.87057 11.3868ZM11.7104 9.95921C11.8123 9.49332 11.8733 9.0145 11.8905 8.52772H14.3266C14.3065 9.02078 14.2318 9.49998 14.1083 9.95921H11.7104ZM1.25 7.98474C1.3136 6.42735 1.92184 5.01009 2.88929 3.91822C2.90149 3.92968 2.9148 3.93985 2.92922 3.94909C3.40417 4.25063 3.94585 4.49669 4.52988 4.6873C4.02535 5.68489 3.72585 6.80265 3.68777 7.98474H1.25ZM3.27087 3.5224C4.28566 2.55365 5.61121 1.90788 7.08264 1.75C6.15641 2.39595 5.37402 3.23455 4.79425 4.207C4.23944 4.03136 3.724 3.80323 3.27087 3.5224ZM8.49619 1.75018C9.96725 1.90844 11.2924 2.55458 12.3068 3.52333C11.8537 3.8036 11.3383 4.03155 10.7838 4.207C10.2039 3.23455 9.4215 2.39614 8.49619 1.75018ZM12.6884 3.91951C13.6553 5.01102 14.263 6.4279 14.3266 7.98474H11.8912C11.853 6.80265 11.5533 5.68489 11.0484 4.6873C11.6324 4.49669 12.1745 4.25063 12.6496 3.94909C12.6637 3.94022 12.6766 3.93024 12.6884 3.91951ZM7.07857 14.7619C5.60955 14.6033 4.28584 13.9583 3.27217 12.9912C3.72493 12.7109 4.23999 12.4829 4.79406 12.3077C5.36311 13.2659 6.13626 14.1049 7.07857 14.7619ZM2.8904 12.5952C1.92239 11.5033 1.31378 10.0857 1.25 8.52772H3.68851C3.72955 9.69595 4.02239 10.8174 4.53062 11.827C3.94641 12.0176 3.40435 12.2637 2.92922 12.5654C2.91517 12.5743 2.90223 12.5843 2.8904 12.5952ZM5.06084 4.84241C5.83935 5.04467 6.67536 5.15559 7.51691 5.17519V7.98474H4.23093C4.27013 6.85497 4.56556 5.78879 5.06084 4.84241ZM7.51691 2.11088V4.64293C6.77186 4.62444 6.0318 4.52997 5.33741 4.35915C5.89555 3.46398 6.64041 2.69619 7.51691 2.11088ZM10.2407 4.35915C9.54592 4.52997 8.80531 4.62463 8.05989 4.64293V2.10958C8.93638 2.69508 9.6818 3.46324 10.2407 4.35915ZM11.3481 7.98474H8.05989V5.17519C8.90181 5.15559 9.73837 5.04467 10.5174 4.84241C11.0129 5.78879 11.3087 6.85497 11.3481 7.98474ZM5.33723 12.1553C6.03162 11.9847 6.77168 11.89 7.51691 11.8716V14.4036C6.62304 13.8074 5.88575 13.0383 5.33723 12.1553ZM4.23186 8.52772H7.51691V11.3393C6.67554 11.3589 5.8399 11.4698 5.06158 11.6719C4.5626 10.7139 4.27401 9.64381 4.23186 8.52772ZM11.0417 18.0013H9.42649V14.5536C9.54037 14.5785 9.65869 14.5916 9.77997 14.5916C10.2059 14.5916 10.5945 14.4301 10.8876 14.1651C11.1802 14.4301 11.5685 14.5916 11.9946 14.5916C12.4217 14.5916 12.8104 14.4301 13.1033 14.1651C13.3963 14.4301 13.7849 14.5916 14.2109 14.5916C14.637 14.5916 15.0253 14.4301 15.3179 14.1651C15.6109 14.4301 15.9995 14.5916 16.4255 14.5916C16.5468 14.5916 16.6651 14.5785 16.779 14.5536V18.0013H13.0652V15.4556C13.0652 15.3668 12.9831 15.2932 12.8826 15.2932H11.2227C11.122 15.2932 11.0417 15.3668 11.0417 15.4556V18.0013ZM10.6788 12.6706H8.81344L9.89274 10.6013C9.9251 10.5381 9.98481 10.5022 10.0549 10.5022H11.2494L10.6788 12.6706ZM11.8018 10.5022H12.8312V12.6706H11.2403L11.7927 10.5711C11.7988 10.5482 11.8016 10.5249 11.8018 10.5022ZM13.3741 10.5022H14.4037C14.4037 10.5249 14.4067 10.5482 14.4128 10.5711L14.9652 12.6706H13.3741V10.5022ZM14.9561 10.5022H16.1523C16.2205 10.5022 16.2804 10.5381 16.3127 10.6013L17.392 12.6706H15.5266L14.9561 10.5022ZM17.5 13.2136C17.3787 13.6935 16.9432 14.0487 16.4255 14.0487C15.9079 14.0487 15.4723 13.6935 15.351 13.2136H17.5ZM15.2837 13.2136C15.1628 13.6935 14.7285 14.0487 14.2109 14.0487C13.6932 14.0487 13.2577 13.6935 13.1364 13.2136H15.2837ZM13.0693 13.2136C12.9482 13.6935 12.5135 14.0487 11.9946 14.0487C11.4769 14.0487 11.0427 13.6935 10.9216 13.2136H13.0693ZM10.8545 13.2136C10.7332 13.6935 10.2976 14.0487 9.77997 14.0487C9.26232 14.0487 8.82675 13.6935 8.70547 13.2136H10.8545Z" fill="#0C0F4A" fill-opacity="0.8"/>
</g>
<defs>
<clipPath id="clip0_824_2947">
<rect width="20" height="20" fill="white" transform="translate(0 0.5)"/>
</clipPath>
</defs>
</svg>
