<svg width="20" height="21" viewBox="0 0 20 21" fill="none" xmlns="http://www.w3.org/2000/svg">
<path d="M1.73617 13.0735H3.68048C3.94893 13.0735 4.16665 13.3038 4.16665 13.5881V18.7352C4.16665 19.0194 3.94893 19.2499 3.68048 19.2499H1.73617C1.46772 19.2499 1.25 19.0194 1.25 18.7352V13.5881C1.25 13.3038 1.46772 13.0735 1.73617 13.0735Z" fill="#0C0F4A" fill-opacity="0.8"/>
<path d="M6.59683 8.95581H8.54132C8.80977 8.95581 9.02749 9.18633 9.02749 9.47058V18.7353C9.02749 19.0195 8.80977 19.25 8.54132 19.25H6.59683C6.32838 19.25 6.11084 19.0195 6.11084 18.7353V9.47058C6.11084 9.18633 6.32838 8.95581 6.59683 8.95581Z" fill="#0C0F4A" fill-opacity="0.8"/>
<path d="M11.4583 11.0146H13.4028C13.6713 11.0146 13.8888 11.2452 13.8888 11.5294V18.7352C13.8888 19.0195 13.6713 19.25 13.4028 19.25H11.4583C11.1899 19.25 10.9722 19.0195 10.9722 18.7352V11.5294C10.9722 11.2452 11.1899 11.0146 11.4583 11.0146Z" fill="#0C0F4A" fill-opacity="0.8"/>
<path d="M16.3192 7.92651H18.2635C18.5319 7.92651 18.7497 8.15704 18.7497 8.44128V18.7353C18.7497 19.0195 18.5319 19.2501 18.2635 19.2501H16.3192C16.0507 19.2501 15.833 19.0195 15.833 18.7353V8.44128C15.833 8.15704 16.0507 7.92651 16.3192 7.92651Z" fill="#0C0F4A" fill-opacity="0.8"/>
<path d="M17.2916 1.75C16.4866 1.75094 15.8341 2.44176 15.8333 3.29411C15.8352 3.46225 15.8633 3.62887 15.9166 3.7872L13.4831 5.31887C13.1637 4.96018 12.7007 4.78639 12.2392 4.8518C11.7776 4.9172 11.3743 5.21389 11.1551 5.64892L9.00875 4.52326C9.01925 4.4571 9.02548 4.39037 9.0278 4.32346C9.02886 3.69842 8.67407 3.13446 8.12898 2.89451C7.58389 2.65475 6.95602 2.78651 6.53857 3.22833C6.12094 3.67015 5.99614 4.33477 6.22241 4.91211L3.4382 7.11217C3.21746 6.97288 2.96538 6.89861 2.70833 6.8971C1.90297 6.8971 1.25 7.5883 1.25 8.44121C1.25 9.29394 1.90297 9.98533 2.70833 9.98533C3.51368 9.98533 4.16665 9.29394 4.16665 8.44121C4.1654 8.25536 4.13229 8.07159 4.06892 7.89836L6.8809 5.67625C7.43097 6.00102 8.11705 5.90583 8.5694 5.44177L11.0102 6.72181C11.1729 7.48915 11.8549 8.00411 12.5931 7.91702C13.3314 7.82994 13.8897 7.16891 13.8888 6.38234C13.8888 6.34313 13.8806 6.30619 13.8779 6.26773L16.5247 4.60167C16.7541 4.75529 17.0199 4.83728 17.2916 4.83822C18.0969 4.83822 18.7499 4.14684 18.7499 3.29411C18.7499 2.44138 18.0969 1.75 17.2916 1.75Z" fill="#0C0F4A" fill-opacity="0.8"/>
</svg>
