<svg width="17" height="17" viewBox="0 0 17 17" fill="none" xmlns="http://www.w3.org/2000/svg">
<path d="M12.232 10.8201H11.491L11.228 10.5601C12.354 9.2501 12.936 7.4601 12.617 5.5601C12.176 2.9501 9.998 0.870087 7.371 0.550087C3.401 0.0600865 0.0590014 3.40015 0.548001 7.37015C0.867001 9.99015 2.95 12.1701 5.559 12.6101C7.464 12.9301 9.257 12.35 10.571 11.22L10.824 11.48V12.23L14.813 16.21C15.198 16.6 15.827 16.6 16.211 16.21C16.596 15.83 16.596 15.2001 16.211 14.8101L12.232 10.8201ZM6.601 10.8201C4.264 10.8201 2.378 8.93014 2.378 6.60014C2.378 4.26014 4.264 2.37992 6.601 2.37992C8.93799 2.37992 10.824 4.26014 10.824 6.60014C10.824 8.93014 8.93799 10.8201 6.601 10.8201Z" fill="white"/>
</svg>
