<svg width="23" height="18" viewBox="0 0 23 18" fill="none" xmlns="http://www.w3.org/2000/svg">
<path d="M1.18993 5.89015C1.10993 5.77015 1.05001 5.64013 1.02001 5.50013C1.00001 5.36013 1.00002 5.21008 1.03002 5.07008C1.06002 4.94008 1.11994 4.80007 1.19994 4.69007C1.28994 4.57007 1.39001 4.47015 1.52001 4.39015L2.47997 3.79017C2.53997 3.76017 2.5999 3.75013 2.6599 3.75013C2.7199 3.76013 2.78006 3.79009 2.82006 3.83009C3.07006 4.11009 3.39 4.32008 3.76 4.45008C3.77 4.08008 3.69002 3.72015 3.53002 3.39015C3.51002 3.33015 3.50001 3.2801 3.52001 3.2201C3.54001 3.1701 3.57011 3.1201 3.62011 3.0901L7.56005 0.640147C8.08005 0.320147 8.67002 0.110161 9.28002 0.0301614C9.90002 -0.0398386 10.5201 0.0100833 11.1101 0.200083C11.7001 0.390083 12.2299 0.700127 12.6699 1.12013C13.1099 1.53013 13.4499 2.0401 13.6499 2.5901C13.6699 2.6501 13.6699 2.70014 13.6599 2.76014C13.6399 2.81014 13.6 2.85014 13.55 2.88014C13.5 2.91014 13.4399 2.93018 13.3799 2.92018C13.3199 2.92018 13.27 2.90012 13.23 2.86012C12.72 2.40012 12.0799 2.10012 11.3899 1.99012C10.7099 1.87012 10.0001 1.96011 9.3601 2.23011C9.3201 2.24011 9.29 2.26017 9.26 2.29017C9.23 2.32017 9.20994 2.36015 9.19994 2.39015C9.18994 2.43015 9.18993 2.47013 9.18993 2.50013C9.19993 2.54013 9.21998 2.58012 9.23998 2.61012L10.52 4.4701C10.56 4.5301 10.57 4.59017 10.56 4.66017C10.55 4.72017 10.5099 4.78008 10.4499 4.82008L9.57006 5.36012L10.4299 6.61012L8.24999 7.96009L7.38988 6.7201L6.51 7.26014C6.46 7.30014 6.40007 7.31018 6.33007 7.30018C6.27007 7.29018 6.21992 7.27011 6.17992 7.23011C5.91992 6.95011 5.59998 6.74011 5.23998 6.60011C5.21998 6.97011 5.28995 7.34018 5.45995 7.67018C5.47995 7.72018 5.47996 7.7801 5.46996 7.8401C5.44996 7.8901 5.4101 7.9401 5.3601 7.9701L4.4099 8.58009C4.2199 8.69009 4.01003 8.75013 3.79003 8.75013C3.71003 8.75013 3.63005 8.74011 3.56005 8.73011C3.41005 8.70011 3.26988 8.64008 3.13988 8.57008C3.01988 8.49008 2.91007 8.38014 2.83007 8.26014L1.18993 5.89015ZM13.6799 11.3301H13.54C13.5 11.5001 13.41 11.6501 13.27 11.7601C13.14 11.8701 12.96 11.9302 12.79 11.9302H12.56C12.53 12.1002 12.43 12.2501 12.3 12.3601C12.16 12.4701 11.99 12.5302 11.81 12.5402H11.5901C11.5701 12.6002 11.55 12.6501 11.52 12.7101L14.4299 16.9401C14.5199 17.0601 14.64 17.1601 14.77 17.2301C14.91 17.3001 15.06 17.3401 15.22 17.3401C15.4 17.3401 15.58 17.2901 15.73 17.1901L16.3501 16.8002C16.4501 16.7402 16.5401 16.6602 16.6101 16.5602C16.6801 16.4702 16.72 16.3601 16.75 16.2501C16.77 16.1301 16.77 16.0202 16.75 15.9002C16.73 15.7902 16.6801 15.6801 16.6101 15.5901L13.6799 11.3301ZM23 5.03016C22.99 5.08016 22.9599 5.13017 22.9199 5.16017C22.8799 5.20017 22.83 5.23011 22.77 5.23011L21.79 5.36012V5.7201C21.79 5.7501 21.79 5.79008 21.78 5.82008C21.76 5.85008 21.74 5.88016 21.72 5.90016C21.7 5.92016 21.6699 5.94009 21.6399 5.96009C21.5999 5.97009 21.57 5.98011 21.54 5.98011L20.8201 6.00013V6.33009C20.8201 6.36009 20.82 6.39019 20.8 6.43019C20.79 6.46019 20.77 6.49014 20.75 6.51014C20.7 6.56014 20.63 6.5801 20.56 6.5901L19.8301 6.60011V6.94007C19.8301 6.97007 19.83 7.00016 19.81 7.03016C19.8 7.06016 19.78 7.09013 19.76 7.12013C19.74 7.14013 19.7099 7.16018 19.6799 7.17018C19.6499 7.19018 19.6101 7.19007 19.5801 7.19007L18.8501 7.21009V7.54017C18.8501 7.58017 18.8401 7.61015 18.8301 7.64015C18.8201 7.67015 18.8 7.7001 18.78 7.7201C18.75 7.7501 18.7199 7.77016 18.6899 7.78016C18.6599 7.79016 18.6201 7.80018 18.5901 7.80018L17.8601 7.82008V8.15016C17.8601 8.18016 17.8501 8.21013 17.8401 8.25013C17.8301 8.28013 17.81 8.30009 17.79 8.33009C17.76 8.35009 17.7399 8.37014 17.6999 8.38014C17.6699 8.40014 17.6401 8.41017 17.6001 8.41017L16.8701 8.42018V8.76014C16.8701 8.82014 16.85 8.89007 16.8 8.94007C16.78 8.96007 16.75 8.98012 16.72 8.99012C16.69 9.01012 16.6501 9.01014 16.6201 9.01014L15.8899 9.03016V9.36012C15.8899 9.43012 15.86 9.49017 15.81 9.54017C15.76 9.58017 15.6899 9.61012 15.6299 9.61012L14.8899 9.63014V9.96009C14.8999 9.99009 14.8899 10.0302 14.8799 10.0602C14.8699 10.0902 14.8501 10.1201 14.8201 10.1401C14.8001 10.1601 14.77 10.1801 14.74 10.2001C14.71 10.2101 14.6699 10.2201 14.6399 10.2201L13.99 10.2401V10.5701C13.99 10.6401 13.9599 10.7001 13.9099 10.7501C13.8599 10.8001 13.8 10.8201 13.73 10.8201L13 10.8401V11.1702C13 11.2002 12.99 11.2402 12.98 11.2702C12.97 11.3002 12.9499 11.3301 12.9299 11.3501C12.8999 11.3701 12.8701 11.3902 12.8401 11.4102C12.8101 11.4202 12.78 11.4302 12.74 11.4302L12.01 11.4501V11.7802C12.01 11.8102 12.01 11.8401 11.99 11.8701C11.98 11.9001 11.9599 11.9301 11.9399 11.9601C11.9199 11.9801 11.8901 12.0001 11.8601 12.0101C11.8201 12.0301 11.79 12.0302 11.76 12.0302L11.02 12.0502V12.3801C11.03 12.4201 11.02 12.4501 11.01 12.4801C11 12.5101 10.9799 12.5402 10.9499 12.5602C10.9299 12.5902 10.9001 12.6101 10.8701 12.6201C10.8401 12.6301 10.8 12.6401 10.77 12.6401L10.04 12.6602V12.9901C10.04 13.0601 10.0099 13.1202 9.95995 13.1702C9.90995 13.2202 9.84001 13.2401 9.77001 13.2401L9.04003 13.2601V13.5901C9.04003 13.6501 9.01997 13.7101 8.97997 13.7601C8.93997 13.8001 8.88006 13.8301 8.82006 13.8401L8.05004 13.9801L8.12011 14.1201C8.15011 14.1701 8.15988 14.2402 8.13988 14.2902C8.12988 14.3502 8.09002 14.4101 8.03002 14.4401L7.23998 14.9401L7.34008 15.4901C7.35008 15.5401 7.34006 15.5801 7.32006 15.6301C7.30006 15.6701 7.26996 15.7101 7.21996 15.7401L3.64989 17.9601C3.60989 17.9801 3.56 18.0001 3.51 18.0001C3.46 18.0001 3.41987 17.9901 3.37987 17.9701C3.33987 17.9501 3.31003 17.9201 3.29003 17.8901L0.0400275 13.1702C0.0100275 13.1202 -0.0100018 13.0501 0.00999817 12.9901C0.0199982 12.9201 0.0601056 12.8601 0.120106 12.8301L5.88988 9.24012C5.91988 9.22012 5.97 9.20008 6.01 9.20008C6.05 9.20008 6.09988 9.2001 6.13988 9.2201C6.17988 9.2401 6.20998 9.26018 6.23998 9.30018C6.26998 9.33018 6.28003 9.37017 6.29003 9.41017L6.35009 9.74012L17.9099 2.55018C17.9499 2.52018 17.99 2.51014 18.04 2.51014C18.08 2.50014 18.1299 2.51016 18.1699 2.53016L22.8501 4.77015C22.9001 4.79015 22.94 4.83013 22.97 4.87013C23 4.92013 23.01 4.97016 23 5.03016ZM5.63988 14.9102L5.06005 11.5402L2.08007 13.4002L3.87987 16.0001L5.63988 14.9102Z" fill="white"/>
</svg>
