<svg width="16" height="16" viewBox="0 0 16 16" fill="none" xmlns="http://www.w3.org/2000/svg">
<path d="M8 16C12.41 16 16 12.408 16 8C16 3.592 12.41 0 8 0C3.59 0 0 3.592 0 8C0 12.408 3.59 16 8 16ZM8.6001 11.2C8.6001 11.528 8.33 11.8 8 11.8C7.67 11.8 7.3999 11.528 7.3999 11.2V7.20001C7.3999 6.87201 7.67 6.59998 8 6.59998C8.33 6.59998 8.6001 6.87201 8.6001 7.20001V11.2ZM7.26001 4.49597C7.30001 4.39197 7.35993 4.31199 7.42993 4.23199C7.50993 4.15999 7.59995 4.10403 7.69995 4.06403C7.78995 4.02403 7.9 4 8 4C8.1 4 8.21005 4.02403 8.30005 4.06403C8.40005 4.10403 8.49007 4.15999 8.57007 4.23199C8.64007 4.31199 8.69999 4.39197 8.73999 4.49597C8.77999 4.59197 8.80005 4.69599 8.80005 4.79999C8.80005 4.90399 8.77999 5.008 8.73999 5.104C8.69999 5.2 8.64007 5.28798 8.57007 5.36798C8.49007 5.43998 8.40005 5.49601 8.30005 5.53601C8.11005 5.61601 7.88995 5.61601 7.69995 5.53601C7.59995 5.49601 7.50993 5.43998 7.42993 5.36798C7.35993 5.28798 7.30001 5.2 7.26001 5.104C7.22001 5.008 7.19995 4.90399 7.19995 4.79999C7.19995 4.69599 7.22001 4.59197 7.26001 4.49597Z" fill="white"/>
</svg>
