<svg width="12" height="20" viewBox="0 0 12 20" fill="none" xmlns="http://www.w3.org/2000/svg">
<path d="M12.0003 1.9838C11.9903 1.8928 11.9404 1.81377 11.8704 1.76877L8.91016 0.0347603C8.80017 -0.0292397 8.66033 -0.00424213 8.58033 0.0947579L0.0603111 10.3918C0.000311133 10.4748 -0.0197182 10.5928 0.0302818 10.6918C0.0702818 10.7908 0.160272 10.8558 0.270272 10.8488L5.52027 10.6658L2.50025 15.4258L1.84034 14.1398C1.79034 14.0388 1.68032 13.9818 1.57032 13.9978C1.46032 14.0138 1.37035 14.0988 1.35035 14.2118L0.190194 19.6638C0.170194 19.7658 0.210292 19.8738 0.290292 19.9388C0.330292 19.9798 0.390204 19.9998 0.450204 19.9998C0.490204 19.9998 0.530311 19.9908 0.560311 19.9728L5.37037 17.5928C5.46037 17.5428 5.52027 17.4358 5.52027 17.3208C5.51027 17.2068 5.43033 17.1098 5.33033 17.0778L3.98023 16.6618L10.9602 8.35477C11.0202 8.27277 11.0403 8.15777 11.0003 8.05777C10.9603 7.95877 10.8603 7.89578 10.7603 7.89578H5.56031L11.9102 2.2208C11.9702 2.1618 12.0103 2.0738 12.0003 1.9838Z" fill="white"/>
</svg>
