<svg width="14" height="14" viewBox="0 0 14 14" fill="none" xmlns="http://www.w3.org/2000/svg">
<path d="M4.85469 3.84345C4.84896 3.88379 4.8289 3.92072 4.7979 3.94742C4.76689 3.97411 4.72722 3.98876 4.68617 3.9887H4.67529V4.32502H9.89308V3.9887H9.8822C9.84117 3.98873 9.80146 3.97404 9.77048 3.94735C9.7395 3.92066 9.71915 3.88377 9.71342 3.84345C9.64455 3.35839 9.44721 2.9002 9.14128 2.5158C8.83534 2.13139 8.4318 1.83461 7.9723 1.65576V3.56158C7.9723 3.58972 7.96104 3.61674 7.94099 3.63664C7.92094 3.65654 7.89397 3.66772 7.86562 3.66772C7.83727 3.66772 7.81004 3.65654 7.78999 3.63664C7.76994 3.61674 7.75868 3.58972 7.75868 3.56158V1.22363H6.80837V3.56158C6.80701 3.5887 6.79529 3.6143 6.77546 3.63302C6.75564 3.65174 6.72932 3.66219 6.70196 3.66219C6.67459 3.66219 6.64827 3.65174 6.62845 3.63302C6.60862 3.6143 6.59664 3.5887 6.59528 3.56158V1.65576C6.13577 1.83461 5.7325 2.13139 5.42657 2.5158C5.12064 2.9002 4.92303 3.35839 4.85416 3.84345H4.85469Z" fill="white"/>
<path d="M5.27734 4.53687H9.29166V5.32941C9.28468 5.85315 9.07021 6.35309 8.69457 6.721C8.31892 7.08891 7.8124 7.29522 7.28463 7.29522C6.75687 7.29522 6.25035 7.08891 5.8747 6.721C5.49906 6.35309 5.28433 5.85315 5.27734 5.32941V4.53687Z" fill="white"/>
<path d="M7.72249 8.7875C7.58469 8.84786 7.43578 8.87902 7.28515 8.87902C7.13453 8.87902 6.98535 8.84786 6.84755 8.7875C6.53995 8.65268 6.29023 8.41449 6.14218 8.11485C6.11363 8.05739 6.10525 7.99212 6.1183 7.92937C6.16353 7.71464 6.27017 7.51733 6.42534 7.36108C6.69762 7.47459 6.98983 7.53307 7.28515 7.53307C7.58047 7.53307 7.87295 7.47459 8.14523 7.36108C8.30012 7.51743 8.40645 7.71472 8.45147 7.92937C8.46486 7.992 8.45683 8.05727 8.42865 8.11485C8.28058 8.41451 8.03066 8.6527 7.72302 8.7875H7.72249Z" fill="white"/>
<path d="M4.31006 8.12747C4.31008 8.12449 4.31124 8.1216 4.31324 8.11937C4.31524 8.11715 4.31796 8.11571 4.32094 8.11536L5.09928 8.00586V10.5016C5.09928 10.5506 5.11878 10.5977 5.15368 10.6324C5.18859 10.6671 5.23589 10.6867 5.28531 10.6868H9.28184C9.30638 10.6868 9.33081 10.6821 9.3535 10.6728C9.37618 10.6635 9.39664 10.6499 9.414 10.6327C9.43137 10.6155 9.4452 10.595 9.4546 10.5725C9.464 10.55 9.46893 10.5259 9.46893 10.5016V8.02002C9.46894 8.01826 9.46926 8.01647 9.46999 8.01488C9.47073 8.01328 9.47184 8.01188 9.47318 8.01073C9.47452 8.00959 9.47599 8.00872 9.47769 8.00823C9.47939 8.00774 9.48125 8.00765 9.483 8.0079L10.247 8.11542C10.25 8.11578 10.2527 8.11721 10.2547 8.11944C10.2567 8.12166 10.2579 8.12455 10.2579 8.12754V12.6553H4.31059L4.31006 8.12747Z" fill="white"/>
<path d="M3.15443 9.31201L2.89065 11.9052C2.881 12 2.89173 12.0958 2.9217 12.1864C2.95166 12.2769 3.00031 12.3602 3.06473 12.4308C3.12915 12.5015 3.20783 12.558 3.29561 12.5966C3.38339 12.6353 3.47823 12.6552 3.57425 12.6551H4.09783V8.35327L4.08695 8.35432C3.84529 8.38626 3.62155 8.49817 3.45191 8.67195C3.28228 8.84573 3.17654 9.07121 3.15204 9.31194L3.15443 9.31201Z" fill="white"/>
<path d="M7.80786 8.98117C7.64293 9.05341 7.46481 9.09074 7.28454 9.09074C7.10427 9.09074 6.92588 9.05341 6.76095 8.98117C6.40727 8.82629 6.11996 8.55251 5.94971 8.20805C5.93453 8.17766 5.92255 8.14584 5.91388 8.11304L5.31201 8.19277V10.4754H9.25574V8.19277L8.65413 8.11304C8.64581 8.1458 8.63417 8.17762 8.61937 8.20805C8.44909 8.55252 8.16158 8.82631 7.80786 8.98117Z" fill="white"/>
<path d="M11.6785 11.9052L11.4145 9.31194C11.39 9.07132 11.2846 8.84598 11.1151 8.67221C10.9456 8.49845 10.7221 8.38642 10.4806 8.35432L10.4697 8.35327V12.6552H10.9938C11.0898 12.6551 11.1848 12.6351 11.2725 12.5964C11.3602 12.5578 11.4388 12.5012 11.5031 12.4306C11.5674 12.3599 11.6159 12.2767 11.6459 12.1862C11.6758 12.0957 11.6863 12 11.6766 11.9052L11.6785 11.9052Z" fill="white"/>
</svg>
