<svg width="27" height="26" viewBox="0 0 27 26" fill="none" xmlns="http://www.w3.org/2000/svg">
<path d="M11.3421 20.612V15.3076H15.5857V20.612C15.5857 21.1955 16.0631 21.6729 16.6465 21.6729H19.8292C20.4127 21.6729 20.8901 21.1955 20.8901 20.612V13.1858H22.6936C23.1816 13.1858 23.415 12.5811 23.0437 12.2629L14.1747 4.27443C13.7715 3.91373 13.1562 3.91373 12.7531 4.27443L3.88413 12.2629C3.52343 12.5811 3.74621 13.1858 4.23422 13.1858H6.03772V20.612C6.03772 21.1955 6.51511 21.6729 7.0986 21.6729H10.2812C10.8647 21.6729 11.3421 21.1955 11.3421 20.612Z" fill="#4F55F0"/>
<path d="M19.4137 5.22852H16.6436L19.8262 8.41116V5.68213C19.8262 5.43161 19.6415 5.22852 19.4137 5.22852Z" fill="#4F55F0"/>
</svg>
