<svg width="27" height="26" viewBox="0 0 27 26" fill="none" xmlns="http://www.w3.org/2000/svg">
<g opacity="0.5">
<path d="M14.2726 20.2386L13.7542 15.6785L14.1147 14.7073C14.1147 14.7073 13.4817 13.9897 13.4817 13.9619C13.455 13.9641 13.4372 13.9653 13.4372 13.9653C13.4372 13.9653 13.4205 13.9641 13.3927 13.9619L12.6707 14.7073L13.0311 15.6785L12.5294 20.1017L12.1611 23.3357C12.5583 23.358 12.981 23.3691 13.4372 23.3691C13.8588 23.3691 14.2526 23.3591 14.6242 23.3413L14.2726 20.2386Z" fill="#0C0F4A"/>
<path d="M11.6037 17.8754L12.1667 16.5459L11.0419 15.8829L11.5359 14.0039C9.8538 14.1763 7.35182 14.7849 5.41943 16.7595C5.35157 18.1902 5.4873 20.0981 6.10139 20.9158C6.65429 21.6534 7.59546 23.054 11.8685 23.3232C11.6805 22.7981 11.6037 17.8754 11.6037 17.8754Z" fill="#0C0F4A"/>
<path d="M21.3646 16.7595C19.4322 14.786 16.9303 14.1775 15.2493 14.0039L15.7432 15.8829L14.6196 16.5459L15.1814 17.8754C15.1814 17.8754 15.1636 17.9288 15.1347 18.0211C15.1202 18.8377 15.0401 22.8682 14.8711 23.3254C19.1819 23.064 20.1287 21.6545 20.6838 20.9147C21.2968 20.0981 21.4325 18.1902 21.3646 16.7595Z" fill="#0C0F4A"/>
<path d="M16.5894 8.42061C16.6539 8.40504 16.7151 8.39057 16.7763 8.375C16.7418 8.37945 16.7084 8.38279 16.6728 8.39169C16.6405 8.39725 16.6138 8.40837 16.5894 8.42061Z" fill="#0C0F4A"/>
<path d="M18.5079 8.1204C18.5079 7.90207 18.3389 7.75652 18.0853 7.75652H17.9163C17.9163 7.68374 17.9163 7.57458 17.9163 7.5018C17.9163 6.00989 16.9021 4.66352 15.3807 4.04492L15.2962 5.46406C15.254 6.04627 14.7046 6.48293 14.0285 6.48293H12.8029C12.1268 6.48293 11.5774 6.04627 11.5352 5.46406L11.4084 4.04492C9.88707 4.66352 8.87285 6.00989 8.87285 7.5018C8.87285 7.57458 8.87285 7.68374 8.87285 7.75652H8.74608C8.49252 7.75652 8.32349 7.90207 8.32349 8.1204C8.32349 8.33873 8.49252 8.48429 8.74608 8.48429H9.37996H17.4092H18.0431C18.2966 8.48429 18.5079 8.33873 18.5079 8.1204Z" fill="#0C0F4A"/>
<path d="M12.6204 5.61139H14.1576C14.4227 5.61139 14.6347 5.46427 14.6877 5.28037L14.8467 3.5517C14.8997 3.25746 14.5287 3 14.1046 3H12.7264C12.3024 3 11.9313 3.25746 11.9843 3.5517L12.1433 5.28037C12.1433 5.46427 12.3554 5.61139 12.6204 5.61139Z" fill="#0C0F4A"/>
<path d="M13.4156 13.1847C15.5237 13.1847 17.3367 11.0887 17.4632 9.26758H9.36792C9.49441 11.0543 11.3074 13.1847 13.4156 13.1847Z" fill="#0C0F4A"/>
</g>
</svg>
