<svg width="26" height="26" viewBox="0 0 26 26" fill="none" xmlns="http://www.w3.org/2000/svg">
<g opacity="0.5">
<path d="M10.3682 13.9971L10.8183 13.5469L12.661 15.3897L12.2109 15.8398L10.3682 13.9971Z" fill="#0C0F4A"/>
<path d="M20.2185 7.23963L22.695 6.17544L23.3216 4.13325L22.0751 2.88672L20.0296 3.5133L18.972 5.98647L18.9687 5.98978L13.6875 11.2743L14.934 12.5208L20.2185 7.23963Z" fill="#0C0F4A"/>
<path d="M22.5754 17.6227C21.4549 16.5021 19.784 16.2734 18.4314 16.9298L9.27798 7.77643C9.93771 6.42713 9.70565 4.75293 8.5851 3.63238C7.59716 2.64444 6.17823 2.34607 4.9317 2.7439L6.344 4.60706L4.451 6.50006L2.58783 5.08777C2.19332 6.3343 2.48506 7.75322 3.473 8.74448C4.59355 9.86503 6.26443 10.0938 7.61705 9.43736L16.7704 18.5907C16.1107 19.94 16.3428 21.6142 17.4633 22.7348C18.4512 23.7227 19.8702 24.0211 21.1167 23.6233L19.7044 21.7601L21.5974 19.8671L23.4606 21.2794C23.8551 20.0329 23.5633 18.6106 22.5754 17.6227Z" fill="#0C0F4A"/>
<path d="M9.44978 14.0485C9.25749 13.8562 8.94255 13.8562 8.75026 14.0485L2.81267 19.9861C2.62039 20.1784 2.62039 20.4933 2.81267 20.6856L5.52122 23.3942C5.7135 23.5864 6.02845 23.5864 6.22073 23.3942L12.1583 17.4566C12.3506 17.2643 12.3506 16.9493 12.1583 16.7571L9.44978 14.0485ZM5.26595 20.364C5.20296 20.427 5.12008 20.4569 5.03719 20.4569C4.95431 20.4569 4.87143 20.427 4.80844 20.364C4.68246 20.2381 4.68246 20.0358 4.80844 19.9099L9.15804 15.5603C9.28402 15.4343 9.48624 15.4343 9.61222 15.5603C9.7382 15.6862 9.7382 15.8885 9.61222 16.0144L5.26595 20.364ZM10.756 17.1582L6.4097 21.5078C6.34671 21.5708 6.26383 21.6006 6.18095 21.6006C6.09807 21.6006 6.01519 21.5708 5.9522 21.5078C5.82622 21.3818 5.82622 21.1796 5.9522 21.0536L10.3018 16.704C10.4278 16.578 10.63 16.578 10.756 16.704C10.882 16.83 10.882 17.0322 10.756 17.1582Z" fill="#0C0F4A"/>
</g>
</svg>
