<svg width="16" height="20" viewBox="0 0 16 20" fill="none" xmlns="http://www.w3.org/2000/svg">
<path fill-rule="evenodd" clip-rule="evenodd" d="M1.18699 0.5H12.084V3.19995C12.084 3.83995 12.61 4.36011 13.257 4.36011H15.996V19.1101C15.996 19.3301 15.82 19.5 15.605 19.5H1.18699C0.971989 19.5 0.79599 19.3301 0.79599 19.1101V0.889893C0.79599 0.669893 0.971989 0.5 1.18699 0.5ZM12.866 0.530029V3.19995C12.866 3.41995 13.042 3.59009 13.257 3.59009H15.962C15.943 3.55009 15.916 3.50998 15.881 3.47998L12.981 0.610107C12.946 0.580107 12.908 0.550029 12.866 0.530029ZM4.28799 13.6101H12.504C12.72 13.6101 12.895 13.44 12.895 13.23C12.895 13.01 12.72 12.8401 12.504 12.8401H4.28799C4.07199 12.8401 3.897 13.01 3.897 13.23C3.897 13.44 4.07199 13.6101 4.28799 13.6101ZM4.28799 17.1599H12.504C12.72 17.1599 12.895 16.99 12.895 16.78C12.895 16.56 12.72 16.3899 12.504 16.3899H4.28799C4.07199 16.3899 3.897 16.56 3.897 16.78C3.897 16.99 4.07199 17.1599 4.28799 17.1599ZM4.28799 15.3899H12.504C12.72 15.3899 12.895 15.21 12.895 15C12.895 14.79 12.72 14.6201 12.504 14.6201H4.28799C4.07199 14.6201 3.897 14.79 3.897 15C3.897 15.21 4.07199 15.3899 4.28799 15.3899ZM11.169 7.83008L8.39599 5.87012L5.62299 7.83008V10.29C5.62299 10.58 5.86299 10.8201 6.15599 10.8201H7.522V8.52002C7.522 8.14002 7.83799 7.83008 8.22399 7.83008H8.56799C8.95399 7.83008 9.27 8.14002 9.27 8.52002V10.8201H10.636C10.929 10.8201 11.169 10.58 11.169 10.29V7.83008ZM4.91699 7.37988L8.39599 4.91992L11.874 7.37988C12.136 7.56988 12.5 7.51 12.688 7.25C12.876 6.99 12.815 6.62994 12.553 6.43994L8.74599 3.75C8.54799 3.6 8.26799 3.58999 8.05599 3.73999L4.23799 6.43994C3.97699 6.62994 3.91599 6.99 4.10399 7.25C4.29099 7.51 4.65599 7.56988 4.91699 7.37988Z" fill="white"/>
</svg>
