<svg width="26" height="26" viewBox="0 0 26 26" fill="none" xmlns="http://www.w3.org/2000/svg">
<g clip-path="url(#clip0_951_447)">
<path d="M7.61701 14.7509C8.21515 14.7509 8.7888 14.5132 9.21175 14.0903C9.63471 13.6673 9.87232 13.0937 9.87232 12.4955C9.87232 11.8974 9.63471 11.3238 9.21175 10.9008C8.7888 10.4778 8.21515 10.2402 7.61701 10.2402C7.01886 10.2402 6.44521 10.4778 6.02226 10.9008C5.59931 11.3238 5.36169 11.8974 5.36169 12.4955C5.36169 13.0937 5.59931 13.6673 6.02226 14.0903C6.44521 14.5132 7.01886 14.7509 7.61701 14.7509Z" fill="#4F55F0"/>
<path d="M21.9007 20.7652C21.9007 21.5627 21.5838 22.3276 21.0199 22.8915C20.456 23.4554 19.6911 23.7722 18.8936 23.7722H3.85816C3.06063 23.7722 2.29577 23.4554 1.73183 22.8915C1.16789 22.3276 0.851074 21.5627 0.851074 20.7652V8.73682C0.851074 7.93982 1.16748 7.17541 1.73077 6.61156C2.29405 6.04771 3.05814 5.73054 3.85515 5.72974C3.85515 4.93221 4.17197 4.16735 4.73591 3.60341C5.29984 3.03947 6.06471 2.72266 6.86223 2.72266H21.8977C22.6952 2.72266 23.46 3.03947 24.024 3.60341C24.5879 4.16735 24.9047 4.93221 24.9047 5.72974V17.7581C24.9047 18.5551 24.5883 19.3195 24.025 19.8833C23.4618 20.4472 22.6977 20.7644 21.9007 20.7652ZM21.8977 4.2262H6.86223C6.46347 4.2262 6.08104 4.38461 5.79907 4.66658C5.5171 4.94854 5.35869 5.33098 5.35869 5.72974H18.8936C19.6911 5.72974 20.456 6.04656 21.0199 6.61049C21.5838 7.17443 21.9007 7.9393 21.9007 8.73682V19.2616C22.2989 19.2608 22.6806 19.1021 22.9619 18.8202C23.2432 18.5383 23.4012 18.1563 23.4012 17.7581V5.72974C23.4012 5.33098 23.2428 4.94854 22.9608 4.66658C22.6789 4.38461 22.2964 4.2262 21.8977 4.2262ZM3.85816 7.23328C3.45939 7.23328 3.07696 7.39169 2.79499 7.67366C2.51302 7.95563 2.35462 8.33806 2.35462 8.73682V20.7652L6.33299 17.2258C6.45588 17.1034 6.61733 17.0272 6.78997 17.0102C6.96261 16.9932 7.13582 17.0365 7.28022 17.1326L11.2796 19.7984L16.8578 14.2202C16.9693 14.1086 17.113 14.0349 17.2687 14.0096C17.4244 13.9842 17.5842 14.0085 17.7253 14.0789L20.3971 17.0063V8.73682C20.3971 8.33806 20.2387 7.95563 19.9567 7.67366C19.6748 7.39169 19.2923 7.23328 18.8936 7.23328H3.85816Z" fill="#4F55F0"/>
</g>
<defs>
<clipPath id="clip0_951_447">
<rect width="25.4612" height="25.4612" fill="white" transform="translate(0.0948486 0.454102)"/>
</clipPath>
</defs>
</svg>
