<svg width="27" height="26" viewBox="0 0 27 26" fill="none" xmlns="http://www.w3.org/2000/svg">
<g opacity="0.5">
<path d="M16.3304 3.20209C15.9273 2.79896 15.3863 2.57617 14.824 2.57617H7.21747C6.0505 2.57617 5.0957 3.53097 5.0957 4.69794V21.6721C5.0957 22.839 6.03989 23.7938 7.20686 23.7938H19.9481C21.115 23.7938 22.0698 22.839 22.0698 21.6721V9.822C22.0698 9.25973 21.847 8.71868 21.4439 8.32615L16.3304 3.20209ZM16.7654 19.5503H10.4001C9.81663 19.5503 9.33923 19.0729 9.33923 18.4894C9.33923 17.9059 9.81663 17.4285 10.4001 17.4285H16.7654C17.3489 17.4285 17.8263 17.9059 17.8263 18.4894C17.8263 19.0729 17.3489 19.5503 16.7654 19.5503ZM16.7654 15.3068H10.4001C9.81663 15.3068 9.33923 14.8294 9.33923 14.2459C9.33923 13.6624 9.81663 13.185 10.4001 13.185H16.7654C17.3489 13.185 17.8263 13.6624 17.8263 14.2459C17.8263 14.8294 17.3489 15.3068 16.7654 15.3068ZM14.6436 8.94147V4.1675L20.4785 10.0023H15.7045C15.121 10.0023 14.6436 9.52495 14.6436 8.94147Z" fill="#0C0F4A"/>
</g>
</svg>
