<svg width="26" height="26" viewBox="0 0 26 26" fill="none" xmlns="http://www.w3.org/2000/svg">
<g opacity="0.5">
<path d="M12.3871 18.1814V16.1764H9.73485C9.52559 16.1764 9.35596 16.3468 9.35596 16.5571V23.79H15.4183V22.517L14.1153 21.5725C13.0316 20.7857 12.389 19.5247 12.3871 18.1814Z" fill="#0C0F4A"/>
<path d="M16.1733 23.7917H17.1717L16.1733 23.068V23.7917Z" fill="#0C0F4A"/>
<path d="M12.3863 5.62146L4.80835 11.5407V23.4118C4.80835 23.622 4.97799 23.7925 5.18724 23.7925H8.5973V16.5595C8.5973 15.9288 9.10621 15.4175 9.73399 15.4175H12.3863V12.2068C12.3863 12.0555 12.4756 11.9187 12.6136 11.8581L17.5771 9.6757L12.3863 5.62146Z" fill="#0C0F4A"/>
<path d="M12.6183 4.83794L18.3813 9.34024C18.4543 9.32376 18.5306 9.33 18.6 9.35813L22.2374 10.957V10.2718L20.1189 8.61619C20.1163 8.61619 20.1129 8.61352 20.1102 8.61162L12.3857 2.57556L4.66154 8.61391L4.65586 8.61657L2.53442 10.2741V12.3564L12.1531 4.83794C12.2899 4.731 12.4815 4.731 12.6183 4.83794Z" fill="#0C0F4A"/>
<path d="M5.56494 6.94096L7.83831 5.16433V3.61572H5.56494V6.94096Z" fill="#0C0F4A"/>
<path d="M14.6604 13.4499V18.1825C14.6616 18.792 14.9532 19.3641 15.4447 19.7212L18.4494 21.8987L21.454 19.7209C21.9458 19.3641 22.2375 18.792 22.2383 18.1825V13.4499L18.4494 11.7837L14.6604 13.4499ZM20.933 13.9574C21.0166 14.0134 21.0747 14.1005 21.0943 14.1995C21.114 14.2986 21.0937 14.4014 21.038 14.4854L18.0068 19.0535C17.9458 19.1454 17.848 19.2061 17.7389 19.2199C17.7232 19.222 17.7074 19.223 17.6916 19.2229C17.5979 19.2229 17.5076 19.1881 17.4381 19.1251L15.9225 17.7547C15.8188 17.6645 15.7717 17.5251 15.7993 17.3901C15.8269 17.2551 15.925 17.1457 16.0557 17.104C16.1864 17.0622 16.3294 17.0948 16.4295 17.189L17.6196 18.2648L20.4075 14.0628C20.4632 13.9788 20.5499 13.9205 20.6485 13.9007C20.7471 13.8809 20.8494 13.9013 20.933 13.9574Z" fill="#0C0F4A"/>
<path d="M13.1431 12.4548V18.1828C13.1448 19.2815 13.6703 20.3127 14.5563 20.9565L18.4476 23.7766L22.3389 20.9565C23.2249 20.3127 23.7504 19.2815 23.7521 18.1828V12.4548L18.4476 10.1219L13.1431 12.4548ZM22.767 12.8529C22.905 12.9135 22.9943 13.0504 22.9943 13.2016V18.1828C22.993 19.0368 22.5845 19.8384 21.8955 20.3386L18.6693 22.6772C18.5369 22.7731 18.3583 22.7731 18.2259 22.6772L14.9997 20.339C14.3106 19.8387 13.902 19.037 13.9009 18.1828V13.2016C13.9009 13.0504 13.9902 12.9135 14.1282 12.8529L18.296 11.0196C18.3927 10.9772 18.5025 10.9772 18.5992 11.0196L22.767 12.8529Z" fill="#0C0F4A"/>
</g>
</svg>
