<svg width="56" height="56" viewBox="0 0 56 56" fill="none" xmlns="http://www.w3.org/2000/svg">
<circle cx="28" cy="28" r="28" fill="#FFA500"/>
<path d="M17.6396 18.3047V37.5547C17.6396 38.9984 18.8209 40.1797 20.2646 40.1797H36.0146C37.4584 40.1797 38.6396 38.9984 38.6396 37.5547V26.031C38.6396 25.331 38.3684 24.666 37.8696 24.176L30.1433 16.4497C29.6533 15.951 28.9883 15.6797 28.2883 15.6797H20.2646C18.8209 15.6797 17.6396 16.861 17.6396 18.3047ZM24.5696 24.482L27.5183 21.6995C27.8596 21.367 28.3933 21.3495 28.7433 21.6733L31.7096 24.482C32.0596 24.8232 32.0771 25.3745 31.7446 25.7245C31.5696 25.9082 31.3334 25.9957 31.1059 25.9957C30.8872 25.9957 30.6684 25.917 30.5022 25.7595L29.0147 24.342V30.432C29.0147 30.9132 28.6209 31.307 28.1397 31.307C27.6584 31.307 27.2647 30.9132 27.2647 30.432V24.342L25.7772 25.7595C25.4272 26.092 24.8672 26.0745 24.5347 25.7245C24.2022 25.3745 24.2196 24.8145 24.5696 24.482ZM24.2984 32.672H31.981C32.4623 32.672 32.856 33.0658 32.856 33.547C32.856 34.037 32.4623 34.422 31.981 34.422H24.2984C23.8171 34.422 23.4234 34.037 23.4234 33.547C23.4234 33.0658 23.8171 32.672 24.2984 32.672Z" fill="white"/>
</svg>
