<svg width="188" height="161" viewBox="0 0 188 161" fill="none" xmlns="http://www.w3.org/2000/svg">
<path d="M113.259 65.4168H43.8102C43.2323 65.4161 42.6782 65.1863 42.2696 64.7776C41.8609 64.3689 41.631 63.8148 41.6304 63.2369V10.5038C41.631 9.92584 41.8609 9.37173 42.2695 8.96303C42.6782 8.55433 43.2323 8.32442 43.8102 8.32373H129.056C129.633 8.32442 130.188 8.55433 130.596 8.96303C131.005 9.37173 131.235 9.92584 131.235 10.5038V47.4407C131.23 52.2066 129.334 56.7758 125.964 60.1458C122.594 63.5158 118.025 65.4114 113.259 65.4168Z" fill="white"/>
<path d="M113.259 65.6136H43.8095C43.1792 65.6129 42.575 65.3621 42.1293 64.9165C41.6836 64.4708 41.4329 63.8665 41.4321 63.2362V10.5031C41.4328 9.87276 41.6835 9.26845 42.1292 8.82272C42.5749 8.37699 43.1792 8.12624 43.8095 8.12549H129.055C129.685 8.12621 130.289 8.37695 130.735 8.82268C131.181 9.26842 131.432 9.87275 131.432 10.5031V47.44C131.427 52.2583 129.51 56.8776 126.103 60.2846C122.696 63.6917 118.077 65.6081 113.259 65.6136ZM43.8095 8.91564C43.3887 8.91616 42.9852 9.08358 42.6877 9.38118C42.3901 9.67878 42.2227 10.0823 42.2223 10.5031V63.2362C42.2228 63.657 42.3901 64.0605 42.6877 64.358C42.9853 64.6556 43.3887 64.823 43.8095 64.8234H113.259C117.867 64.8182 122.286 62.9851 125.545 59.7262C128.804 56.4673 130.637 52.0488 130.642 47.44V10.5031C130.642 10.0823 130.474 9.67878 130.177 9.38118C129.879 9.08358 129.476 8.91616 129.055 8.91564H43.8095Z" fill="#CCCCCC"/>
<path d="M112.204 26.1319H60.6607C60.1875 26.1319 59.7336 25.9439 59.399 25.6093C59.0644 25.2747 58.8765 24.8209 58.8765 24.3477C58.8765 23.8745 59.0644 23.4207 59.399 23.0861C59.7336 22.7515 60.1875 22.5635 60.6607 22.5635H112.204C112.677 22.5642 113.13 22.7525 113.464 23.087C113.798 23.4215 113.986 23.8749 113.986 24.3477C113.986 24.8204 113.798 25.2738 113.464 25.6084C113.13 25.9429 112.677 26.1312 112.204 26.1319Z" fill="#CCCCCC"/>
<path d="M112.204 38.4226H60.6607C60.1875 38.4226 59.7336 38.2347 59.399 37.9001C59.0644 37.5655 58.8765 37.1116 58.8765 36.6384C58.8765 36.1652 59.0644 35.7114 59.399 35.3768C59.7336 35.0422 60.1875 34.8542 60.6607 34.8542H112.204C112.677 34.8542 113.131 35.0422 113.466 35.3768C113.801 35.7114 113.988 36.1652 113.988 36.6384C113.988 37.1116 113.801 37.5655 113.466 37.9001C113.131 38.2347 112.677 38.4226 112.204 38.4226Z" fill="#CCCCCC"/>
<path d="M112.204 51.0669H60.6607C60.1875 51.0669 59.7336 50.879 59.399 50.5444C59.0644 50.2098 58.8765 49.7559 58.8765 49.2827C58.8765 48.8095 59.0644 48.3557 59.399 48.0211C59.7336 47.6865 60.1875 47.4985 60.6607 47.4985H112.204C112.677 47.4985 113.131 47.6865 113.466 48.0211C113.801 48.3557 113.988 48.8095 113.988 49.2827C113.988 49.7559 113.801 50.2098 113.466 50.5444C113.131 50.879 112.677 51.0669 112.204 51.0669Z" fill="#CCCCCC"/>
<path d="M128.415 21.3093C134.3 21.3093 139.07 16.5391 139.07 10.6547C139.07 4.77026 134.3 0 128.415 0C122.531 0 117.761 4.77026 117.761 10.6547C117.761 16.5391 122.531 21.3093 128.415 21.3093Z" fill="#4F55F0"/>
<path d="M126.964 16.2001C126.78 16.2001 126.598 16.1572 126.434 16.0749C126.269 15.9926 126.126 15.8731 126.016 15.7259L123.109 11.8502C123.016 11.7257 122.948 11.584 122.909 11.4332C122.871 11.2824 122.862 11.1255 122.884 10.9715C122.906 10.8174 122.958 10.6692 123.037 10.5353C123.117 10.4013 123.222 10.2843 123.346 10.191C123.471 10.0976 123.612 10.0297 123.763 9.99103C123.914 9.95241 124.071 9.94386 124.225 9.96588C124.379 9.98789 124.527 10.04 124.661 10.1193C124.795 10.1986 124.912 10.3035 125.005 10.4281L126.907 12.9635L131.791 5.63715C131.966 5.37561 132.237 5.19404 132.545 5.1324C132.853 5.07075 133.173 5.13407 133.435 5.30843C133.696 5.4828 133.878 5.75392 133.94 6.06215C134.001 6.37038 133.938 6.69048 133.764 6.95202L127.95 15.6723C127.845 15.83 127.704 15.9602 127.538 16.052C127.372 16.1437 127.186 16.1944 126.997 16.1997C126.986 16.1999 126.975 16.2001 126.964 16.2001Z" fill="white"/>
<path d="M87.6268 111.217H18.1777C13.4118 111.211 8.84266 109.316 5.47266 105.946C2.10266 102.576 0.207037 98.0066 0.20166 93.2407V56.3036C0.202339 55.7256 0.432243 55.1715 0.840937 54.7628C1.24963 54.3541 1.80375 54.1242 2.38173 54.1235H87.6268C88.2048 54.1242 88.7589 54.3541 89.1676 54.7628C89.5763 55.1715 89.8062 55.7256 89.8069 56.3036V109.037C89.8062 109.615 89.5763 110.169 89.1676 110.577C88.7589 110.986 88.2048 111.216 87.6268 111.217Z" fill="white"/>
<path d="M87.6261 111.416H18.177C13.3588 111.41 8.73942 109.494 5.33239 106.087C1.92537 102.68 0.00889619 98.0605 0.00341797 93.2422V56.3051C0.00413216 55.6747 0.25486 55.0704 0.700592 54.6247C1.14632 54.1789 1.75066 53.9282 2.38102 53.9275H87.6261C88.2564 53.9282 88.8608 54.1789 89.3065 54.6247C89.7522 55.0704 90.003 55.6747 90.0037 56.3051V109.038C90.003 109.669 89.7522 110.273 89.3065 110.719C88.8608 111.164 88.2564 111.415 87.6261 111.416ZM2.38102 54.7176C1.96016 54.7182 1.55668 54.8856 1.25909 55.1832C0.961494 55.4808 0.794081 55.8842 0.793574 56.3051V93.2422C0.79878 97.851 2.63192 102.27 5.89082 105.528C9.14971 108.787 13.5682 110.62 18.177 110.626H87.6261C88.047 110.625 88.4505 110.458 88.7481 110.16C89.0457 109.863 89.2131 109.459 89.2135 109.038V56.3051C89.213 55.8842 89.0456 55.4808 88.748 55.1832C88.4504 54.8856 88.0469 54.7182 87.6261 54.7176H2.38102Z" fill="#CCCCCC"/>
<path d="M70.7761 71.9329H19.2324C18.7592 71.9329 18.3054 71.7449 17.9708 71.4103C17.6362 71.0757 17.4482 70.6219 17.4482 70.1487C17.4482 69.6755 17.6362 69.2217 17.9708 68.8871C18.3054 68.5525 18.7592 68.3645 19.2324 68.3645H70.7761C71.2493 68.3645 71.7031 68.5525 72.0377 68.8871C72.3723 69.2217 72.5603 69.6755 72.5603 70.1487C72.5603 70.6219 72.3723 71.0757 72.0377 71.4103C71.7031 71.7449 71.2493 71.9329 70.7761 71.9329Z" fill="#CCCCCC"/>
<path d="M70.7761 84.2246H19.2324C18.7592 84.2246 18.3054 84.0367 17.9708 83.7021C17.6362 83.3675 17.4482 82.9137 17.4482 82.4405C17.4482 81.9673 17.6362 81.5134 17.9708 81.1788C18.3054 80.8442 18.7592 80.6562 19.2324 80.6562H70.7761C71.2493 80.6562 71.7031 80.8442 72.0377 81.1788C72.3723 81.5134 72.5603 81.9673 72.5603 82.4405C72.5603 82.9137 72.3723 83.3675 72.0377 83.7021C71.7031 84.0367 71.2493 84.2246 70.7761 84.2246Z" fill="#CCCCCC"/>
<path d="M70.7761 96.8663H19.2324C18.7592 96.8663 18.3054 96.6783 17.9708 96.3437C17.6362 96.0091 17.4482 95.5553 17.4482 95.0821C17.4482 94.6089 17.6362 94.155 17.9708 93.8204C18.3054 93.4858 18.7592 93.2979 19.2324 93.2979H70.7761C71.2493 93.2979 71.7031 93.4858 72.0377 93.8204C72.3723 94.155 72.5603 94.6089 72.5603 95.0821C72.5603 95.5553 72.3723 96.0091 72.0377 96.3437C71.7031 96.6783 71.2493 96.8663 70.7761 96.8663Z" fill="#CCCCCC"/>
<path d="M87.7216 67.533C93.606 67.533 98.3762 62.7627 98.3762 56.8783C98.3762 50.9939 93.606 46.2236 87.7216 46.2236C81.8372 46.2236 77.0669 50.9939 77.0669 56.8783C77.0669 62.7627 81.8372 67.533 87.7216 67.533Z" fill="#4F55F0"/>
<path d="M86.2696 62.4237C86.0856 62.4237 85.9041 62.3809 85.7395 62.2986C85.575 62.2163 85.4319 62.0968 85.3215 61.9495L82.4147 58.0738C82.3214 57.9493 82.2534 57.8076 82.2148 57.6568C82.1762 57.5061 82.1676 57.3492 82.1896 57.1951C82.2117 57.041 82.2638 56.8928 82.3431 56.7589C82.4224 56.625 82.5273 56.508 82.6518 56.4146C82.7763 56.3212 82.918 56.2533 83.0688 56.2147C83.2196 56.176 83.3765 56.1675 83.5305 56.1895C83.6846 56.2115 83.8328 56.2637 83.9668 56.343C84.1007 56.4223 84.2177 56.5272 84.311 56.6517L86.2127 59.1871L91.097 51.8608C91.2714 51.5992 91.5425 51.4177 91.8507 51.356C92.159 51.2944 92.4791 51.3577 92.7406 51.5321C93.0021 51.7064 93.1837 51.9776 93.2454 52.2858C93.307 52.594 93.2437 52.9141 93.0693 53.1757L87.2558 61.8959C87.1506 62.0536 87.0092 62.1838 86.8433 62.2756C86.6775 62.3674 86.492 62.418 86.3025 62.4234C86.2916 62.4236 86.2806 62.4237 86.2696 62.4237Z" fill="white"/>
<path d="M174.156 160.369H76.9809C72.215 160.364 67.6459 158.468 64.2759 155.098C60.9059 151.728 59.0103 147.159 59.0049 142.393V88.0647C59.0057 87.3197 59.3021 86.6055 59.8289 86.0787C60.3557 85.5518 61.07 85.2555 61.815 85.2546H174.156C174.901 85.2555 175.615 85.5519 176.142 86.0787C176.669 86.6055 176.965 87.3197 176.966 88.0647V157.559C176.965 158.304 176.669 159.018 176.142 159.545C175.615 160.072 174.901 160.369 174.156 160.369Z" fill="white"/>
<path d="M174.159 160.568H76.9841C72.1659 160.563 67.5465 158.647 64.1395 155.24C60.7325 151.832 58.816 147.213 58.8105 142.395V88.0662C58.8114 87.2688 59.1286 86.5044 59.6925 85.9405C60.2563 85.3767 61.0208 85.0595 61.8182 85.0586H174.159C174.956 85.0595 175.721 85.3767 176.285 85.9406C176.849 86.5044 177.166 87.2689 177.167 88.0662V157.561C177.166 158.358 176.849 159.123 176.285 159.686C175.721 160.25 174.956 160.568 174.159 160.568ZM61.8182 85.8487C61.2303 85.8494 60.6667 86.0833 60.251 86.499C59.8352 86.9147 59.6014 87.4783 59.6007 88.0662V142.395C59.6059 147.004 61.439 151.422 64.6979 154.681C67.9568 157.94 72.3754 159.773 76.9841 159.778H174.159C174.747 159.778 175.311 159.544 175.726 159.128C176.142 158.712 176.376 158.149 176.376 157.561V88.0662C176.376 87.4784 176.142 86.9147 175.726 86.499C175.311 86.0833 174.747 85.8495 174.159 85.8487H61.8182Z" fill="#CCCCCC"/>
<path d="M151.953 108.662H84.0258C83.7167 108.662 83.4106 108.602 83.125 108.484C82.8394 108.366 82.5798 108.192 82.3612 107.974C82.1425 107.756 81.969 107.496 81.8507 107.211C81.7323 106.925 81.6714 106.619 81.6714 106.31C81.6714 106.001 81.7323 105.695 81.8507 105.41C81.969 105.124 82.1425 104.865 82.3612 104.647C82.5798 104.428 82.8394 104.255 83.125 104.137C83.4106 104.019 83.7167 103.959 84.0258 103.959H151.953C152.262 103.959 152.568 104.019 152.854 104.137C153.139 104.255 153.399 104.428 153.617 104.647C153.836 104.865 154.01 105.124 154.128 105.41C154.246 105.695 154.307 106.001 154.307 106.31C154.307 106.619 154.246 106.925 154.128 107.211C154.01 107.496 153.836 107.756 153.617 107.974C153.399 108.192 153.139 108.366 152.854 108.484C152.568 108.602 152.262 108.662 151.953 108.662Z" fill="#CCCCCC"/>
<path d="M151.953 124.86H84.0258C83.7167 124.86 83.4106 124.799 83.125 124.682C82.8394 124.564 82.5798 124.39 82.3612 124.172C82.1425 123.954 81.969 123.694 81.8507 123.409C81.7323 123.123 81.6714 122.817 81.6714 122.508C81.6714 122.199 81.7323 121.893 81.8507 121.608C81.969 121.322 82.1425 121.063 82.3612 120.845C82.5798 120.626 82.8394 120.453 83.125 120.335C83.4106 120.217 83.7167 120.157 84.0258 120.157H151.953C152.576 120.157 153.174 120.405 153.615 120.846C154.056 121.287 154.304 121.885 154.304 122.508C154.304 123.132 154.056 123.73 153.615 124.171C153.174 124.612 152.576 124.86 151.953 124.86Z" fill="#CCCCCC"/>
<path d="M151.95 141.522H84.0227C83.3991 141.522 82.801 141.274 82.3601 140.834C81.9191 140.393 81.6714 139.795 81.6714 139.171C81.6714 138.547 81.9191 137.949 82.3601 137.508C82.801 137.067 83.3991 136.82 84.0227 136.82H151.95C152.259 136.819 152.565 136.88 152.851 136.998C153.136 137.116 153.396 137.289 153.614 137.507C153.833 137.726 154.006 137.985 154.125 138.27C154.243 138.556 154.304 138.862 154.304 139.171C154.304 139.48 154.243 139.786 154.125 140.071C154.006 140.357 153.833 140.616 153.614 140.835C153.396 141.053 153.136 141.226 152.851 141.344C152.565 141.462 152.259 141.523 151.95 141.522Z" fill="#CCCCCC"/>
<path d="M174.509 102.995C181.958 102.995 187.997 96.9567 187.997 89.5078C187.997 82.0588 181.958 76.0203 174.509 76.0203C167.061 76.0203 161.022 82.0588 161.022 89.5078C161.022 96.9567 167.061 102.995 174.509 102.995Z" fill="#4F55F0"/>
<path d="M172.671 96.5279C172.439 96.5279 172.209 96.4737 172.001 96.3695C171.792 96.2653 171.611 96.114 171.471 95.9277L167.792 91.0215C167.674 90.8638 167.588 90.6845 167.539 90.4936C167.49 90.3028 167.479 90.1042 167.507 89.9091C167.535 89.7141 167.601 89.5264 167.701 89.3569C167.801 89.1874 167.934 89.0393 168.092 88.9211C168.249 88.8029 168.429 88.7169 168.62 88.668C168.811 88.6191 169.009 88.6083 169.204 88.6362C169.399 88.664 169.587 88.73 169.756 88.8304C169.926 88.9308 170.074 89.0636 170.192 89.2212L172.6 92.4307L178.782 83.1565C179.003 82.826 179.347 82.5967 179.736 82.5189C180.126 82.4412 180.531 82.5214 180.862 82.742C181.193 82.9625 181.422 83.3053 181.501 83.6951C181.579 84.085 181.499 84.4899 181.279 84.821L173.92 95.8598C173.787 96.0594 173.608 96.2242 173.398 96.3404C173.188 96.4565 172.953 96.5207 172.713 96.5274C172.699 96.5277 172.685 96.5279 172.671 96.5279Z" fill="white"/>
</svg>
