<svg width="180" height="161" viewBox="0 0 180 161" fill="none" xmlns="http://www.w3.org/2000/svg">
<g clip-path="url(#clip0_862_502)">
<path d="M92.1706 0.348555L86.3492 1.84977L14.6284 20.3451L8.80703 21.8463C5.9814 22.5784 3.56153 24.4014 2.07833 26.9154C0.595132 29.4295 0.169723 32.4292 0.895436 35.2564L26.1383 133.143C26.8704 135.968 28.6934 138.388 31.2074 139.871C33.7214 141.354 36.7211 141.78 39.5484 141.054L39.5634 141.05L122.897 119.56L122.912 119.556C125.738 118.824 128.157 117.001 129.641 114.487C131.124 111.973 131.549 108.974 130.824 106.146L105.581 8.2602C104.849 5.43456 103.026 3.01469 100.512 1.53148C97.9975 0.0482653 94.9979 -0.377153 92.1706 0.348555Z" fill="#F2F2F2"/>
<path d="M92.9629 3.41784L86.0679 5.19594L16.4942 23.1376L9.59929 24.9157C7.58709 25.437 5.86384 26.7352 4.80761 28.5255C3.75138 30.3158 3.44843 32.4519 3.96523 34.4653L29.2081 132.351C29.7294 134.364 31.0276 136.087 32.8179 137.143C34.6082 138.199 36.7443 138.502 38.7577 137.985L38.7727 137.982L122.106 116.492L122.121 116.488C124.134 115.966 125.857 114.668 126.913 112.878C127.969 111.087 128.272 108.951 127.755 106.938L102.512 9.05192C101.991 7.03973 100.693 5.31649 98.9027 4.26027C97.1124 3.20404 94.9763 2.90107 92.9629 3.41784Z" fill="white"/>
<path d="M87.7567 35.1154L45.6003 45.9867C45.1295 46.1081 44.6297 46.0375 44.2109 45.7904C43.7921 45.5434 43.4886 45.14 43.3672 44.6692C43.2457 44.1983 43.3163 43.6986 43.5634 43.2798C43.8105 42.861 44.2138 42.5575 44.6847 42.4361L86.841 31.5648C87.3117 31.4438 87.8111 31.5147 88.2296 31.7618C88.648 32.009 88.9512 32.4121 89.0726 32.8827C89.1939 33.3532 89.1235 33.8527 88.8768 34.2714C88.63 34.6901 88.2271 34.9936 87.7567 35.1154Z" fill="#F2F2F2"/>
<path d="M96.6248 39.2186L47.1452 51.9784C46.6744 52.0998 46.1746 52.0292 45.7558 51.7821C45.337 51.535 45.0335 51.1317 44.9121 50.6609C44.7907 50.19 44.8613 49.6902 45.1083 49.2715C45.3554 48.8527 45.7587 48.5492 46.2296 48.4277L95.7092 35.6679C96.18 35.5465 96.6798 35.6171 97.0986 35.8642C97.5174 36.1113 97.8209 36.5146 97.9423 36.9854C98.0637 37.4563 97.9931 37.9561 97.746 38.3749C97.499 38.7937 97.0956 39.0972 96.6248 39.2186Z" fill="#F2F2F2"/>
<path d="M94.6795 61.9671L52.5232 72.8384C52.29 72.8985 52.0473 72.9121 51.8089 72.8785C51.5705 72.8448 51.3411 72.7645 51.1337 72.6422C50.9264 72.5198 50.7451 72.3578 50.6004 72.1654C50.4556 71.9731 50.3501 71.754 50.29 71.5209C50.2299 71.2878 50.2163 71.0451 50.25 70.8067C50.2836 70.5683 50.3639 70.3388 50.4863 70.1315C50.6086 69.9241 50.7706 69.7429 50.963 69.5981C51.1554 69.4533 51.3744 69.3479 51.6075 69.2878L93.7639 58.4165C93.997 58.3564 94.2397 58.3427 94.4781 58.3764C94.7165 58.4101 94.946 58.4904 95.1533 58.6127C95.3607 58.7351 95.5419 58.8971 95.6867 59.0894C95.8315 59.2818 95.9369 59.5008 95.997 59.734C96.0572 59.9671 96.0708 60.2098 96.0371 60.4482C96.0034 60.6866 95.9231 60.916 95.8008 61.1234C95.6784 61.3308 95.5164 61.512 95.3241 61.6568C95.1317 61.8015 94.9127 61.907 94.6795 61.9671Z" fill="#F2F2F2"/>
<path d="M103.549 66.0704L54.0695 78.8302C53.8364 78.8903 53.5937 78.9039 53.3553 78.8703C53.1169 78.8366 52.8875 78.7563 52.6801 78.6339C52.4727 78.5116 52.2915 78.3496 52.1467 78.1572C52.002 77.9648 51.8965 77.7458 51.8364 77.5127C51.7763 77.2796 51.7627 77.0369 51.7963 76.7985C51.83 76.5601 51.9103 76.3306 52.0327 76.1233C52.155 75.9159 52.317 75.7347 52.5094 75.5899C52.7017 75.4451 52.9208 75.3397 53.1539 75.2796L102.633 62.5198C103.104 62.3983 103.604 62.4689 104.023 62.716C104.442 62.9631 104.745 63.3664 104.867 63.8373C104.988 64.3081 104.917 64.8079 104.67 65.2267C104.423 65.6455 104.02 65.949 103.549 66.0704Z" fill="#F2F2F2"/>
<path d="M101.605 88.8187L59.4487 99.69C58.978 99.811 58.4785 99.7402 58.0599 99.4931C57.6414 99.246 57.3381 98.8428 57.2168 98.3722C57.0954 97.9015 57.1659 97.402 57.4127 96.9833C57.6595 96.5646 58.0625 96.261 58.5331 96.1393L100.689 85.268C101.16 85.1466 101.66 85.2172 102.079 85.4643C102.498 85.7114 102.801 86.1147 102.923 86.5855C103.044 87.0564 102.973 87.5562 102.726 87.975C102.479 88.3938 102.076 88.6973 101.605 88.8187Z" fill="#F2F2F2"/>
<path d="M110.473 92.9212L60.9935 105.681C60.7603 105.741 60.5174 105.755 60.2789 105.722C60.0403 105.688 59.8107 105.608 59.6032 105.486C59.3956 105.363 59.2142 105.201 59.0694 105.009C58.9245 104.816 58.8189 104.597 58.7588 104.364C58.6986 104.131 58.685 103.888 58.7188 103.649C58.7525 103.411 58.8329 103.181 58.9554 102.974C59.0779 102.766 59.2401 102.585 59.4327 102.44C59.6253 102.296 59.8445 102.19 60.0778 102.13L109.557 89.3706C110.028 89.2492 110.528 89.3198 110.947 89.5668C111.366 89.8139 111.669 90.2172 111.791 90.6881C111.912 91.1589 111.841 91.6587 111.594 92.0775C111.347 92.4963 110.944 92.7998 110.473 92.9212Z" fill="#F2F2F2"/>
<path d="M38.4027 57.1337L23.4839 60.981C23.2582 61.0389 23.0187 61.005 22.8179 60.8865C22.6172 60.7681 22.4716 60.5749 22.4132 60.3492L18.9886 47.0695C18.9306 46.8437 18.9646 46.6042 19.083 46.4034C19.2015 46.2027 19.3947 46.0571 19.6203 45.9987L34.5391 42.1514C34.7648 42.0935 35.0043 42.1274 35.2051 42.2459C35.4058 42.3643 35.5514 42.5575 35.6098 42.7832L39.0344 56.0629C39.0924 56.2887 39.0584 56.5282 38.94 56.729C38.8216 56.9297 38.6283 57.0753 38.4027 57.1337Z" fill="#E6E6E6"/>
<path d="M45.328 83.985L30.4092 87.8323C30.1835 87.8902 29.944 87.8563 29.7432 87.7378C29.5425 87.6194 29.3969 87.4262 29.3385 87.2005L25.9139 73.9208C25.8559 73.695 25.8899 73.4555 26.0083 73.2547C26.1268 73.054 26.32 72.9084 26.5456 72.85L41.4643 69.0027C41.6901 68.9448 41.9296 68.9788 42.1304 69.0972C42.3311 69.2156 42.4767 69.4089 42.5351 69.6345L45.9597 82.9142C46.0177 83.14 45.9837 83.3795 45.8653 83.5803C45.7468 83.781 45.5536 83.9266 45.328 83.985Z" fill="#E6E6E6"/>
<path d="M52.2523 110.837L37.3336 114.684C37.1078 114.742 36.8683 114.708 36.6675 114.59C36.4668 114.471 36.3212 114.278 36.2628 114.052L32.8382 100.773C32.7802 100.547 32.8142 100.307 32.9326 100.107C33.0511 99.9058 33.2443 99.7602 33.4699 99.7018L48.3887 95.8545C48.6144 95.7966 48.854 95.8306 49.0547 95.949C49.2554 96.0674 49.401 96.2607 49.4595 96.4863L52.884 109.766C52.942 109.992 52.908 110.231 52.7896 110.432C52.6712 110.633 52.4779 110.778 52.2523 110.837Z" fill="#E6E6E6"/>
<path d="M150.312 25.1611H64.2215C61.3026 25.1644 58.5042 26.3254 56.4402 28.3894C54.3762 30.4534 53.2152 33.2519 53.2119 36.1708V137.259C53.2152 140.178 54.3762 142.977 56.4402 145.041C58.5042 147.105 61.3026 148.266 64.2215 148.269H150.312C153.231 148.266 156.03 147.105 158.094 145.041C160.158 142.977 161.319 140.178 161.322 137.259V36.1708C161.319 33.2519 160.158 30.4534 158.094 28.3894C156.03 26.3254 153.231 25.1644 150.312 25.1611Z" fill="#E6E6E6"/>
<path d="M150.313 28.3308H64.2221C62.1434 28.3331 60.1506 29.1599 58.6808 30.6297C57.2109 32.0995 56.3842 34.0924 56.3818 36.171V137.26C56.3842 139.338 57.2109 141.331 58.6808 142.801C60.1506 144.271 62.1434 145.097 64.2221 145.1H150.313C152.392 145.097 154.384 144.271 155.854 142.801C157.324 141.331 158.151 139.338 158.153 137.26V36.171C158.151 34.0924 157.324 32.0996 155.854 30.6298C154.384 29.1599 152.392 28.3332 150.313 28.3308Z" fill="white"/>
<path d="M137.356 83.879H93.8208C93.5799 83.8792 93.3412 83.832 93.1186 83.74C92.8959 83.648 92.6935 83.513 92.5231 83.3427C92.3526 83.1724 92.2174 82.9702 92.1251 82.7476C92.0328 82.5251 91.9854 82.2865 91.9854 82.0456C91.9854 81.8046 92.0328 81.566 92.1251 81.3435C92.2174 81.1209 92.3526 80.9187 92.5231 80.7484C92.6935 80.5782 92.8959 80.4431 93.1186 80.3511C93.3412 80.2591 93.5799 80.2119 93.8208 80.2122H137.356C137.842 80.2127 138.308 80.4061 138.651 80.7499C138.995 81.0936 139.188 81.5597 139.188 82.0456C139.188 82.5314 138.995 82.9975 138.651 83.3412C138.308 83.685 137.842 83.8784 137.356 83.879Z" fill="#E6E6E6"/>
<path d="M144.919 90.0665H93.8208C93.5799 90.0667 93.3412 90.0195 93.1186 89.9275C92.8959 89.8355 92.6935 89.7005 92.5231 89.5302C92.3526 89.3599 92.2174 89.1577 92.1251 88.9351C92.0328 88.7126 91.9854 88.474 91.9854 88.2331C91.9854 87.9921 92.0328 87.7535 92.1251 87.531C92.2174 87.3084 92.3526 87.1062 92.5231 86.9359C92.6935 86.7656 92.8959 86.6306 93.1186 86.5386C93.3412 86.4466 93.5799 86.3994 93.8208 86.3997H144.919C145.405 86.3997 145.872 86.5928 146.216 86.9366C146.559 87.2805 146.753 87.7468 146.753 88.2331C146.753 88.7193 146.559 89.1856 146.216 89.5295C145.872 89.8733 145.405 90.0665 144.919 90.0665Z" fill="#E6E6E6"/>
<path d="M137.356 111.608H93.8208C93.5799 111.609 93.3412 111.561 93.1186 111.469C92.8959 111.377 92.6935 111.242 92.5231 111.072C92.3526 110.902 92.2174 110.7 92.1251 110.477C92.0328 110.255 91.9854 110.016 91.9854 109.775C91.9854 109.534 92.0328 109.296 92.1251 109.073C92.2174 108.85 92.3526 108.648 92.5231 108.478C92.6935 108.308 92.8959 108.173 93.1186 108.081C93.3412 107.989 93.5799 107.941 93.8208 107.942H137.356C137.843 107.942 138.309 108.135 138.653 108.479C138.997 108.822 139.19 109.289 139.19 109.775C139.19 110.261 138.997 110.728 138.653 111.071C138.309 111.415 137.843 111.608 137.356 111.608Z" fill="#E6E6E6"/>
<path d="M144.919 117.797H93.8208C93.5799 117.797 93.3412 117.75 93.1186 117.658C92.8959 117.566 92.6935 117.431 92.5231 117.261C92.3526 117.091 92.2174 116.888 92.1251 116.666C92.0328 116.443 91.9854 116.205 91.9854 115.964C91.9854 115.723 92.0328 115.484 92.1251 115.262C92.2174 115.039 92.3526 114.837 92.5231 114.667C92.6935 114.496 92.8959 114.361 93.1186 114.269C93.3412 114.177 93.5799 114.13 93.8208 114.13H144.919C145.16 114.13 145.399 114.177 145.621 114.269C145.844 114.361 146.046 114.496 146.217 114.667C146.387 114.837 146.523 115.039 146.615 115.262C146.707 115.484 146.755 115.723 146.755 115.964C146.755 116.205 146.707 116.443 146.615 116.666C146.523 116.888 146.387 117.091 146.217 117.261C146.046 117.431 145.844 117.566 145.621 117.658C145.399 117.75 145.16 117.797 144.919 117.797Z" fill="#E6E6E6"/>
<path d="M84.0682 92.875H68.6613C68.4283 92.8748 68.2048 92.7821 68.04 92.6173C67.8752 92.4525 67.7825 92.229 67.7822 91.9959V78.2817C67.7825 78.0486 67.8752 77.8252 68.04 77.6604C68.2048 77.4955 68.4283 77.4028 68.6613 77.4026H84.0682C84.3012 77.4028 84.5247 77.4955 84.6895 77.6604C84.8543 77.8252 84.947 78.0486 84.9473 78.2817V91.9959C84.947 92.229 84.8543 92.4525 84.6895 92.6173C84.5247 92.7821 84.3012 92.8748 84.0682 92.875Z" fill="#E6E6E6"/>
<path d="M84.0682 120.606H68.6613C68.4283 120.605 68.2048 120.513 68.04 120.348C67.8752 120.183 67.7825 119.959 67.7822 119.726V106.012C67.7825 105.779 67.8752 105.556 68.04 105.391C68.2048 105.226 68.4283 105.133 68.6613 105.133H84.0682C84.3012 105.133 84.5247 105.226 84.6895 105.391C84.8543 105.556 84.947 105.779 84.9473 106.012V119.726C84.947 119.959 84.8543 120.183 84.6895 120.348C84.5247 120.513 84.3012 120.605 84.0682 120.606Z" fill="#E6E6E6"/>
<path d="M137.404 53.0093H105.307C104.821 53.0093 104.354 52.8162 104.011 52.4723C103.667 52.1285 103.474 51.6622 103.474 51.1759C103.474 50.6897 103.667 50.2233 104.011 49.8795C104.354 49.5357 104.821 49.3425 105.307 49.3425H137.404C137.89 49.3425 138.357 49.5357 138.7 49.8795C139.044 50.2233 139.237 50.6897 139.237 51.1759C139.237 51.6622 139.044 52.1285 138.7 52.4723C138.357 52.8162 137.89 53.0093 137.404 53.0093Z" fill="#CCCCCC"/>
<path d="M144.966 59.1978H105.307C105.066 59.1978 104.827 59.1504 104.605 59.0582C104.382 58.9661 104.18 58.8311 104.01 58.6608C103.84 58.4906 103.705 58.2885 103.613 58.066C103.521 57.8436 103.473 57.6052 103.473 57.3644C103.473 57.1236 103.521 56.8852 103.613 56.6628C103.705 56.4404 103.84 56.2382 104.01 56.068C104.18 55.8977 104.382 55.7627 104.605 55.6706C104.827 55.5784 105.066 55.531 105.307 55.531H144.966C145.453 55.531 145.919 55.7242 146.263 56.068C146.607 56.4118 146.8 56.8782 146.8 57.3644C146.8 57.8506 146.607 58.317 146.263 58.6608C145.919 59.0046 145.453 59.1978 144.966 59.1978Z" fill="#CCCCCC"/>
<path d="M98.2041 66.6956H68.6135C68.3804 66.6953 68.157 66.6026 67.9921 66.4378C67.8273 66.273 67.7346 66.0495 67.7344 65.8165V42.7226C67.7346 42.4895 67.8273 42.2661 67.9921 42.1013C68.157 41.9365 68.3804 41.8438 68.6135 41.8435H98.2041C98.4372 41.8438 98.6607 41.9365 98.8255 42.1013C98.9903 42.2661 99.083 42.4895 99.0833 42.7226V65.8165C99.083 66.0495 98.9903 66.273 98.8255 66.4378C98.6607 66.6026 98.4372 66.6953 98.2041 66.6956Z" fill="#4B4BFF"/>
</g>
<defs>
<clipPath id="clip0_862_502">
<rect width="178.909" height="160.57" fill="white" transform="translate(0.54541 -0.00170898)"/>
</clipPath>
</defs>
</svg>
