<svg width="47" height="47" viewBox="0 0 47 47" fill="none" xmlns="http://www.w3.org/2000/svg">
<rect x="0.12207" y="0.566406" width="46.4336" height="46.4336" rx="23.2168" fill="#0C0F4A"/>
<path d="M18.3131 20.0514C18.0632 20.3041 17.5955 20.1146 17.3394 19.9237C16.809 19.7658 16.4085 20.219 16.4743 20.7215C16.5312 21.1966 16.874 21.1667 16.4525 21.5929L15.4242 22.6327C15.1088 22.9516 14.7691 22.7798 14.454 22.4626L13.3138 21.3145C12.999 20.9976 12.7141 20.771 13.029 20.4521L14.2271 19.239C14.5624 18.8995 14.7548 19.2659 15.1092 19.2346C15.508 19.2317 15.9023 18.7324 15.7881 18.3505C15.7522 18.2968 15.7224 18.2429 15.7005 18.1887L15.6985 18.1838C15.6237 17.9945 15.7589 17.6879 15.94 17.5045C15.94 17.5045 17.4827 15.9809 17.5594 15.9032C19.5621 13.8754 21.7141 14.5588 22.478 14.8242C22.4779 15.132 22.5352 15.2279 21.7139 15.1358C20.893 15.0437 18.3979 16.37 19.5989 17.5756C19.6743 17.6513 20.2742 18.0626 19.4261 18.9202L18.3131 20.0514ZM24.5556 26.8695C25.1293 26.2444 25.6819 25.5989 26.2582 24.9791C27.7769 26.456 29.4983 28.1187 31.5393 30.1368C31.9302 30.5232 31.2753 31.3922 30.9954 31.6722L30.9887 31.6789L30.9818 31.6857C30.7018 31.9658 29.9516 32.6186 29.5059 32.1714L24.5556 26.8695ZM19.9602 18.9169C19.9602 18.9169 21.0822 19.964 23.2421 22.0397C22.6795 22.5598 22.0684 23.1025 21.5153 23.5892L18.5102 20.3633L19.9602 18.9169ZM33.7318 17.9885C34.1255 20.1278 32.2929 21.8384 32.2929 21.8384C31.2011 22.9276 30.0509 23.0501 28.716 22.5459C27.9508 22.2552 27.2215 23.0679 27.2215 23.0679C27.2215 23.0679 20.2603 30.7479 19.7061 31.3008C19.1517 31.8539 18.7614 31.9202 18.2945 31.9185C17.823 31.9128 17.3428 31.6613 16.9933 31.3126L16.9847 31.3041L16.9763 31.2958C16.6271 30.9474 16.3705 30.4638 16.369 29.9977C16.3673 29.5318 16.4975 29.0623 16.9799 28.5811C17.4622 28.0999 25.2326 21.0838 25.2326 21.0838C25.2326 21.0838 26.0088 20.3008 25.7474 19.6095C25.2336 18.2443 25.6852 17.0522 26.7727 15.9673C27.9487 14.7941 28.9723 14.5313 30.328 14.5678L30.6689 14.9079L28.7731 16.8326C28.5151 17.09 28.2873 18.206 28.7928 18.7103L29.4796 19.3954C30.1098 20.0241 31.2865 19.7304 31.5445 19.473L33.4037 17.6361L33.7443 17.976L33.7318 17.9885Z" fill="white"/>
</svg>
