<svg width="138" height="161" viewBox="0 0 138 161" fill="none" xmlns="http://www.w3.org/2000/svg">
<g clip-path="url(#clip0_862_1619)">
<path d="M137.884 142.596H100.906V142.117C110.586 142.117 119.87 138.272 126.715 131.427C133.56 124.582 137.405 115.299 137.405 105.619V79.8123H137.884V142.596Z" fill="#F2F2F2"/>
<path d="M36.9888 49.3232C36.0058 49.6977 35.002 50.0151 33.9824 50.274C32.6357 50.6022 31.8753 50.7543 30.5754 50.2498C30.5297 50.2321 30.4861 50.2146 30.445 50.1974C27.9812 49.1498 25.875 47.4085 24.3828 45.1855C22.8907 42.9626 22.077 40.3537 22.0407 37.6766C22.0342 37.5848 22.0342 37.4883 22.0342 37.3941C22.0329 36.9403 22.0546 36.4868 22.0992 36.0353C22.1562 35.4203 22.2545 34.8098 22.3937 34.208L22.3807 34.2056C21.3283 33.1294 20.9233 31.6553 21.0576 30.1741C21.1496 29.1699 21.4683 28.1997 21.9897 27.3366C22.5111 26.4734 23.2216 25.7399 24.0676 25.1912C25.3936 24.3576 26.8886 23.8299 28.4441 23.6465C28.8618 23.5983 29.2818 23.5739 29.7023 23.5735H33.6521C34.4679 23.3825 35.2967 23.2518 36.1316 23.1826H36.1381C44.0877 22.5232 50.3568 27.7933 49.7721 34.2056C49.7678 34.2127 49.7613 34.2197 49.757 34.2268C49.5881 34.5023 49.4386 34.7637 49.3065 35.0133C49.1788 35.2464 49.0705 35.4701 48.9774 35.6821C48.2519 37.3211 51.6994 62.7497 50.4629 63.1359C49.7591 63.3549 46.9223 44.4327 47.4312 48.0309C48.0722 52.5451 40.6511 47.9694 36.9888 49.3232Z" fill="#2F2E41"/>
<path d="M48.9647 95.2909L59.9843 118.767L17.5942 114.474L26.443 91.937L48.9647 95.2909Z" fill="#FFB6B6"/>
<path d="M71.0858 142.36C63.7144 144.813 55.9462 145.854 48.1889 145.427L44.8157 139.956C44.8157 139.956 44.6744 141.993 44.4637 145.108C40.7711 144.68 37.1266 143.908 33.5779 142.8C26.8482 140.696 20.5398 137.435 14.1453 134.428C12.8501 126.707 12.3641 114.802 19.5247 107.871L58.0668 114.933C58.0668 114.933 64.2507 119.559 62.5964 121.215C60.9421 122.87 60.6859 122.614 61.7728 123.7C62.8598 124.787 65.2083 126.241 65.2323 127.191C65.2418 127.562 67.8777 134.292 71.0858 142.36Z" fill="#2F2E41"/>
<path d="M42.2344 49.9263L32.9227 50.5759L26.9042 56.3916L24.7964 56.7679C22.9018 57.1057 21.197 58.127 20.0053 59.6382C18.8136 61.1493 18.2178 63.0453 18.331 64.9665C18.7646 72.3121 19.7353 83.2877 21.7643 86.8486C24.9104 92.3701 27.509 90.6377 24.9104 92.3701C22.3118 94.1025 20.5671 92.7412 21.7643 95.4791C22.9614 98.217 20.1463 101.729 20.1463 101.729L19.0256 102.849L20.2142 103.337L58.0875 108.265C58.0875 108.265 54.8127 93.5407 56.8607 89.9237C58.9087 86.3067 63.8744 75.3733 59.4426 71.0953L55.1094 55.8465L47.6557 53.6481L42.2344 49.9263Z" fill="#4B4BFF"/>
<path d="M98.6017 110.358C97.9786 110.338 97.3671 110.183 96.8097 109.904C96.2523 109.625 95.7622 109.228 95.3733 108.74C94.9845 108.253 94.7061 107.687 94.5575 107.081C94.4089 106.476 94.3936 105.845 94.5126 105.233L76.7471 93.2019L78.8668 87.4697L99.8627 101.914C100.878 102.191 101.756 102.831 102.331 103.712C102.906 104.594 103.138 105.655 102.983 106.696C102.827 107.737 102.295 108.685 101.488 109.359C100.681 110.034 99.6536 110.39 98.6017 110.358Z" fill="#FFB6B6"/>
<path d="M48.4228 55.126L45.8413 56.1482L59.6124 83.044L88.1207 102.476L92.2301 95.5308L70.5292 76.7866L61.8412 60.1243C60.6185 57.7794 58.5703 55.9707 56.0921 55.0476C53.614 54.1245 50.8816 54.1524 48.4228 55.126Z" fill="#4B4BFF"/>
<path d="M37.0934 47.5608C42.2574 47.5608 46.4436 43.3746 46.4436 38.2106C46.4436 33.0466 42.2574 28.8604 37.0934 28.8604C31.9294 28.8604 27.7432 33.0466 27.7432 38.2106C27.7432 43.3746 31.9294 47.5608 37.0934 47.5608Z" fill="#FFB6B6"/>
<path d="M45.2247 34.2568C45.0687 34.339 44.915 34.4148 44.7591 34.4906C44.5967 34.5686 44.4342 34.6466 44.2697 34.7202C41.1405 36.1386 38.5917 36.2967 37.0456 34.2568C37.0033 33.1836 36.7617 32.1276 36.3331 31.1428C36.4088 32.2433 36.1188 33.3381 35.5081 34.2568H32.3941C29.1869 36.3855 27.5412 38.3409 29.7673 45.329C29.9124 45.7881 30.9064 62.0986 31.19 63.3524C26.335 61.4901 22.1469 41.7169 22.0408 36.5067C22.0343 36.4223 22.0343 36.3335 22.0343 36.2469C22.033 35.8295 22.0547 35.4124 22.0993 34.9974C22.1564 34.4308 22.2548 33.8692 22.3938 33.3169L22.3808 33.3148C21.8868 32.8425 21.51 32.2614 21.2802 31.6178C21.0505 30.9741 20.9743 30.2857 21.0577 29.6074C21.8721 28.541 22.88 27.6374 24.0287 26.9439C25.0733 26.4381 26.162 26.0292 27.2813 25.7225C27.3095 25.716 27.3333 25.7095 27.3614 25.703C27.7036 25.6099 28.0544 25.5255 28.4052 25.4518C29.1282 25.3002 29.8591 25.1896 30.5945 25.1205C30.6487 25.1184 30.7006 25.114 30.7483 25.114C31.0424 25.1142 31.3312 25.1935 31.5842 25.3436C31.5863 25.3436 31.5863 25.3457 31.5906 25.3457C31.8338 25.491 32.0354 25.6964 32.1761 25.9422C32.3168 26.1879 32.3919 26.4658 32.394 26.749H35.8632C35.9909 26.749 36.1187 26.7533 36.2465 26.7598C41.0777 26.9525 44.9605 29.0184 45.2095 33.7674C45.2203 33.9319 45.2247 34.0922 45.2247 34.2568Z" fill="#2F2E41"/>
<path d="M24.7142 34.6327C28.1162 34.6327 30.8742 31.8748 30.8742 28.4727C30.8742 25.0707 28.1162 22.3127 24.7142 22.3127C21.3121 22.3127 18.5542 25.0707 18.5542 28.4727C18.5542 31.8748 21.3121 34.6327 24.7142 34.6327Z" fill="#2F2E41"/>
<path d="M33.1711 25.6234C32.4713 28.9527 29.0186 30.9439 25.7154 30.1294C24.1292 29.7382 22.7634 28.733 21.9183 27.3348C21.0733 25.9366 20.8183 24.2599 21.2095 22.6737C22.024 19.3706 26.0327 20.3229 28.6651 18.1677C32.389 15.119 34.1149 21.1336 33.1711 25.6234Z" fill="#2F2E41"/>
<path d="M19.4846 118.298C24.7347 96.8888 35.1371 78.4869 52.3649 64.0693C53.0317 62.9724 54.1063 62.1849 55.353 61.8793C56.5997 61.5738 57.9167 61.7752 59.015 62.4395L99.97 87.2714C101.067 87.9381 101.854 89.0127 102.16 90.2594C102.465 91.5061 102.264 92.8231 101.6 93.9214C95.0241 115.89 85.1753 134.953 68.7194 148.15C68.0527 149.247 66.9781 150.035 65.7314 150.34C64.4847 150.646 63.1678 150.445 62.0694 149.78L21.1145 124.948C20.0176 124.282 19.23 123.207 18.9245 121.96C18.619 120.714 18.8204 119.397 19.4846 118.298Z" fill="#F2F2F2"/>
<path opacity="0.2" d="M26.764 125.514C25.6671 124.847 24.8795 123.772 24.574 122.526C24.2685 121.279 24.4699 119.962 25.1342 118.864C30.3842 97.454 40.7867 79.0522 58.0144 64.6345C58.4558 63.9166 59.079 63.3279 59.8209 62.9282L59.015 62.4395C57.9166 61.7752 56.5997 61.5738 55.353 61.8793C54.1063 62.1848 53.0317 62.9724 52.3649 64.0692C35.1371 78.4869 24.7347 96.8887 19.4847 118.298C18.8204 119.397 18.619 120.714 18.9245 121.96C19.23 123.207 20.0176 124.282 21.1144 124.948L62.0693 149.78C62.7983 150.219 63.6302 150.457 64.4808 150.47C65.3314 150.484 66.1705 150.272 66.9129 149.857L26.764 125.514Z" fill="black"/>
<path d="M74.7937 113.552L47.3028 96.9878C46.8661 96.7238 46.5519 96.2973 46.4294 95.802C46.3069 95.3066 46.386 94.7828 46.6493 94.3457C46.9127 93.9086 47.3388 93.5939 47.834 93.4708C48.3292 93.3476 48.8531 93.426 49.2905 93.6888L76.7814 110.253C77.217 110.518 77.5301 110.944 77.652 111.439C77.7739 111.934 77.6947 112.457 77.4316 112.893C77.1686 113.33 76.7432 113.644 76.2488 113.768C75.7543 113.891 75.2311 113.814 74.7937 113.552Z" fill="white"/>
<path d="M58.8015 91.5862L52.7535 87.9421C52.3152 87.6799 51.999 87.2543 51.8745 86.759C51.75 86.2637 51.8274 85.7392 52.0896 85.3009C52.3518 84.8626 52.7773 84.5464 53.2727 84.4219C53.768 84.2974 54.2925 84.3747 54.7308 84.6369L54.7412 84.6432L60.7892 88.2874C61.225 88.5517 61.5382 88.9781 61.6602 89.4731C61.7821 89.968 61.7029 90.4911 61.4398 90.9277C61.1768 91.3643 60.7513 91.6788 60.2567 91.8022C59.7622 91.9257 59.2388 91.848 58.8015 91.5862Z" fill="white"/>
<path d="M70.4246 120.804L42.9337 104.24C42.4965 103.976 42.1817 103.55 42.0584 103.055C41.9352 102.56 42.0137 102.036 42.2766 101.598C42.5395 101.161 42.9653 100.845 43.4605 100.722C43.9557 100.598 44.4797 100.676 44.9175 100.938L44.9214 100.941L72.4122 117.505C72.8479 117.77 73.161 118.196 73.2829 118.691C73.4048 119.186 73.3256 119.709 73.0625 120.145C72.7995 120.582 72.3741 120.896 71.8797 121.02C71.3852 121.143 70.8619 121.066 70.4246 120.804Z" fill="white"/>
<path d="M78.2849 82.3195C82.7195 82.3195 86.3144 78.7246 86.3144 74.29C86.3144 69.8554 82.7195 66.2605 78.2849 66.2605C73.8503 66.2605 70.2554 69.8554 70.2554 74.29C70.2554 78.7246 73.8503 82.3195 78.2849 82.3195Z" fill="#3F3D56"/>
<path d="M64.4441 160.329C73.9224 160.329 81.606 152.646 81.606 143.167C81.606 133.689 73.9224 126.005 64.4441 126.005C54.9659 126.005 47.2822 133.689 47.2822 143.167C47.2822 152.646 54.9659 160.329 64.4441 160.329Z" fill="white"/>
<path d="M64.4443 160.569C61.0026 160.569 57.6383 159.548 54.7766 157.636C51.915 155.724 49.6846 153.006 48.3676 149.827C47.0505 146.647 46.7059 143.148 47.3773 139.773C48.0488 136.397 49.706 133.296 52.1397 130.863C54.5733 128.429 57.6739 126.772 61.0494 126.1C64.4249 125.429 67.9237 125.774 71.1034 127.091C74.283 128.408 77.0008 130.638 78.9129 133.5C80.825 136.361 81.8455 139.726 81.8456 143.167C81.8404 147.781 80.0054 152.204 76.7431 155.466C73.4809 158.728 69.0578 160.563 64.4443 160.569ZM64.4443 126.245C61.0973 126.245 57.8255 127.237 55.0426 129.097C52.2597 130.956 50.0907 133.599 48.8099 136.691C47.5291 139.784 47.194 143.186 47.847 146.469C48.4999 149.752 50.1116 152.767 52.4783 155.133C54.845 157.5 57.8603 159.112 61.1429 159.765C64.4256 160.418 67.8281 160.083 70.9203 158.802C74.0125 157.521 76.6554 155.352 78.5149 152.569C80.3743 149.786 81.3668 146.514 81.3668 143.167C81.3617 138.681 79.5771 134.379 76.4046 131.207C73.2322 128.034 68.9308 126.25 64.4443 126.245Z" fill="#3F3D56"/>
<path d="M62.1031 152.099C61.8067 152.099 61.5144 152.03 61.2494 151.898C60.9843 151.765 60.7538 151.573 60.576 151.336L55.894 145.093C55.7433 144.892 55.6337 144.664 55.5713 144.421C55.5088 144.178 55.4949 143.925 55.5303 143.677C55.5657 143.429 55.6496 143.19 55.7774 142.974C55.9052 142.758 56.0742 142.569 56.2749 142.419C56.4755 142.268 56.7039 142.159 56.9469 142.097C57.1899 142.035 57.4428 142.021 57.6911 142.056C57.9394 142.092 58.1782 142.176 58.3939 142.304C58.6097 142.432 58.7981 142.601 58.9484 142.802L62.0116 146.886L69.8788 135.085C70.0179 134.877 70.1967 134.697 70.405 134.558C70.6133 134.418 70.847 134.321 71.0929 134.272C71.3387 134.223 71.5918 134.223 71.8377 134.271C72.0837 134.32 72.3176 134.417 72.5262 134.556C72.7348 134.695 72.914 134.874 73.0535 135.082C73.193 135.29 73.2901 135.524 73.3393 135.77C73.3884 136.016 73.3887 136.269 73.34 136.515C73.2914 136.761 73.1948 136.995 73.0557 137.203L63.6917 151.249C63.5223 151.503 63.2944 151.713 63.0273 151.861C62.7601 152.009 62.4614 152.09 62.1562 152.099C62.1385 152.099 62.1208 152.099 62.1031 152.099Z" fill="#4B4BFF"/>
<path d="M113.013 48.4584C113.306 48.3921 113.467 47.9963 113.372 47.5744C113.276 47.1524 112.961 46.8641 112.668 46.9304C112.374 46.9968 112.214 47.3926 112.309 47.8145C112.404 48.2365 112.719 48.5247 113.013 48.4584Z" fill="#E6E6E6"/>
<path d="M121.716 50.31C122.01 50.2437 122.17 49.8479 122.075 49.4259C121.98 49.004 121.664 48.7157 121.371 48.782C121.077 48.8483 120.917 49.2441 121.012 49.6661C121.107 50.088 121.423 50.3763 121.716 50.31Z" fill="#E6E6E6"/>
<path d="M91.5982 29.982C91.6462 29.5521 91.4427 29.1765 91.1437 29.1431C90.8446 29.1097 90.5632 29.4311 90.5152 29.861C90.4672 30.2909 90.6707 30.6665 90.9697 30.6999C91.2688 30.7333 91.5502 30.4119 91.5982 29.982Z" fill="#E6E6E6"/>
<path d="M83.981 25.3834C84.029 24.9535 83.8255 24.5779 83.5265 24.5445C83.2274 24.5111 82.946 24.8325 82.898 25.2624C82.85 25.6923 83.0535 26.0679 83.3525 26.1013C83.6516 26.1347 83.933 25.8133 83.981 25.3834Z" fill="#E6E6E6"/>
<path d="M0.595024 63.3523H0.116211V0.568604H37.0938V1.04742C27.4137 1.04742 18.1301 4.89281 11.2853 11.7377C4.44042 18.5825 0.595024 27.8661 0.595024 37.5462V63.3523Z" fill="#F2F2F2"/>
<path d="M22.0388 118.525C21.4269 118.274 20.8767 117.894 20.4264 117.409C19.976 116.925 19.6362 116.349 19.4305 115.72C19.2248 115.092 19.1581 114.426 19.2349 113.769C19.3118 113.112 19.5304 112.48 19.8757 111.916L6.68311 93.3714L10.9154 88.4612L26.4234 110.602C27.3296 111.253 27.9652 112.215 28.2098 113.304C28.4544 114.393 28.2909 115.534 27.7505 116.511C27.21 117.487 26.3301 118.232 25.2774 118.603C24.2247 118.974 23.0724 118.947 22.0388 118.525Z" fill="#FFB6B6"/>
<path d="M22.3417 59.7576C21.6743 59.3649 20.8887 59.2229 20.1261 59.3572C19.3634 59.4915 18.6736 59.8932 18.1804 60.4902L0.355469 85.4193L16.8745 108.881L23.3385 101.938L13.2834 86.1375L26.6467 73.4142C27.7449 71.0084 27.9126 68.2811 27.1175 65.7589C26.3224 63.2367 24.621 61.0986 22.3417 59.7576Z" fill="#4B4BFF"/>
</g>
<defs>
<clipPath id="clip0_862_1619">
<rect width="137.768" height="160" fill="white" transform="translate(0.116211 0.568359)"/>
</clipPath>
</defs>
</svg>
