<svg width="200" height="155" viewBox="0 0 200 155" fill="none" xmlns="http://www.w3.org/2000/svg">
<g clip-path="url(#clip0_862_628)">
<g opacity="0.2">
<path d="M44.7735 38.8758C42.2615 37.6943 38.1071 39.6153 36.782 42.4261C34.2533 47.7916 42.4319 55.5623 45.4058 54.7283C48.7295 53.7962 49.3854 41.0448 44.773 38.8758H44.7735Z" stroke="#0F31AC" stroke-width="0.908482" stroke-miterlimit="10" stroke-linecap="round"/>
<path d="M32.2116 51.0281C31.3149 50.5094 21.8185 45.0163 16.4439 49.3638C12.6701 52.4163 12.6342 58.9419 15.4701 62.609C21.0867 69.8723 38.5032 66.6159 40.3102 61.4184C41.5271 57.9185 35.8137 53.1117 32.2116 51.0281Z" stroke="#0F31AC" stroke-width="0.908482" stroke-miterlimit="10" stroke-linecap="round"/>
<path d="M44.4296 140.719C67.5455 134.981 93.8111 129.14 134.597 130.135C157.406 130.692 162.575 123.613 179.862 114.812C195.27 106.968 202.838 91.3706 198.19 82.5306C193.498 73.6062 179.206 77.1592 167.501 63.8745C162.17 57.824 163.108 53.5832 160.031 46.8736C150.285 25.6283 113.758 9.02265 95.7462 17.8108C71.9499 29.4208 92.2935 79.5858 65.6936 93.2893C48.868 101.958 36.1506 85.3169 19.5372 98.0202C11.3055 104.315 1.23768 113.144 0.459109 122.731C0.459109 122.731 -0.631071 146.17 44.4296 140.719Z" stroke="#0F31AC" stroke-width="0.908482" stroke-miterlimit="10" stroke-linecap="round"/>
<path d="M172.141 114.614C172.141 114.614 167.954 120.166 163.766 127.783C159.99 134.652 157.119 143.907 156.485 151.635C154.707 151.551 152.753 151.472 150.642 151.397C138.135 150.953 120.079 150.675 100.002 150.675C77.1769 150.675 56.9646 151.035 44.5479 151.588C44.1205 151.607 43.7021 151.626 43.2933 151.646C27.7914 132.432 -3.42444 98.9575 25.3026 85.1867C25.3026 85.1867 27.4071 84.5458 30.5623 83.169C40.5483 78.8105 61.0691 67.0825 58.7865 44.9696C58.7865 44.9696 58.0089 40.8433 58.0089 35.1017C58.0089 21.6761 62.2592 -0.578039 90.6347 0.437644C107.818 1.05359 123.643 9.79773 133.211 23.7938C142.596 37.5214 157.601 54.4114 169.821 44.7688C172.642 42.5421 176.372 41.7172 179.854 42.6961C188.65 45.1667 198.642 57.9568 172.141 114.614Z" fill="#ACBCF8"/>
</g>
<path opacity="0.15" d="M194.957 152.383C194.957 153.291 152.443 154.028 99.9989 154.028C70.4083 154.028 43.9787 153.794 26.5636 153.426C22.5522 153.341 19.02 153.25 16.037 153.152C14.0724 153.088 12.3463 153.021 10.8787 152.952C7.10302 152.775 5.04077 152.583 5.04077 152.383C5.04077 152.128 8.38762 151.886 14.3613 151.672C16.8079 151.583 19.6941 151.499 22.9719 151.421C40.219 151.007 68.2942 150.738 99.9984 150.738C127.886 150.738 152.966 150.946 170.339 151.278C185.635 151.57 194.957 151.958 194.957 152.383L194.957 152.383Z" fill="#040C2B"/>
<path d="M134.674 26.9876H125.6C124.592 26.9876 123.775 26.1704 123.775 25.1629V17.2436C123.775 16.2357 124.592 15.4189 125.6 15.4189H134.674C135.682 15.4189 136.499 16.2361 136.499 17.2436V25.1629C136.499 26.1708 135.682 26.9876 134.674 26.9876Z" fill="#DEE4FC"/>
<path d="M128.246 24.5026L125.928 22.1242C125.526 21.7117 125.534 21.0513 125.947 20.6488C126.359 20.2468 127.02 20.255 127.422 20.6679L128.784 22.0651L132.863 17.9865C133.27 17.579 133.931 17.579 134.338 17.9865C134.745 18.394 134.745 19.0544 134.338 19.4619L129.291 24.5089C129.002 24.7983 128.532 24.7951 128.246 24.5021L128.246 24.5026Z" fill="white"/>
<path d="M18.1195 108.16H9.04514C8.03718 108.16 7.22046 107.343 7.22046 106.336V98.4165C7.22046 97.4085 8.03764 96.5918 9.04514 96.5918H18.1195C19.1275 96.5918 19.9442 97.409 19.9442 98.4165V106.336C19.9442 107.344 19.127 108.16 18.1195 108.16Z" fill="#DEE4FC"/>
<path d="M12.1023 101.668V105.338C12.1023 105.338 12.6124 105.207 13.0366 105.694C13.0553 105.715 13.0702 105.739 13.0825 105.765C13.1279 105.86 13.3292 106.148 14.0927 106.148H16.1132C16.1336 106.148 16.1536 106.146 16.1736 106.143C16.3108 106.117 16.7837 105.979 16.7641 105.334C16.761 105.23 16.8141 105.132 16.904 105.074C17.0948 104.95 17.3692 104.645 17.1829 103.959C17.1602 103.875 17.1766 103.785 17.2284 103.713C17.391 103.489 17.6903 102.968 17.2892 102.582C17.2156 102.511 17.1848 102.41 17.2057 102.312C17.2652 102.029 17.2929 101.473 16.641 101.332C16.6179 101.327 16.5942 101.324 16.5706 101.324H15.3633C15.1761 101.324 15.0308 101.168 15.0526 100.989C15.1593 100.113 15.3378 97.8895 14.249 98.8347C14.1959 98.8806 14.1604 98.9424 14.1491 99.0101C14.0696 99.4825 13.6385 101.517 12.1018 101.669L12.1023 101.668Z" fill="white"/>
<path d="M12.1259 101.678H9.67163V105.327H12.1259V101.678Z" fill="white"/>
<path opacity="0.1" d="M12.0188 101.678H11.937V105.327H12.0188V101.678Z" fill="black"/>
<path opacity="0.1" d="M11.0771 102.469C11.1296 102.247 10.9918 102.024 10.7694 101.971C10.5469 101.919 10.3241 102.056 10.2716 102.279C10.2191 102.501 10.3568 102.724 10.5793 102.777C10.8017 102.829 11.0246 102.691 11.0771 102.469Z" fill="black"/>
<path d="M11.0199 102.455C11.0649 102.264 10.9467 102.073 10.7557 102.028C10.5648 101.983 10.3735 102.101 10.3284 102.292C10.2834 102.483 10.4016 102.674 10.5925 102.719C10.7835 102.764 10.9748 102.646 11.0199 102.455Z" fill="#ACBCF8"/>
<path d="M189.911 81.2695H180.837C179.829 81.2695 179.012 80.4524 179.012 79.4449V71.5256C179.012 70.5176 179.829 69.7009 180.837 69.7009H189.911C190.919 69.7009 191.736 70.5181 191.736 71.5256V79.4449C191.736 80.4528 190.919 81.2695 189.911 81.2695Z" fill="#DEE4FC"/>
<path d="M183.155 78.7191L185.352 77.6222L187.533 78.7514L187.133 76.3907L188.916 74.7336L186.471 74.3716L185.392 72.2185L184.282 74.3557L181.832 74.6814L183.59 76.3644L183.155 78.7191Z" fill="white"/>
<path d="M63.9117 75.5061H56.3872V151.472H63.9117V75.5061Z" fill="#CDD7FB"/>
<path d="M63.9122 65.9607H56.3904V75.527H63.9122V65.9607Z" fill="#6275BA"/>
<path d="M138.787 75.5063H61.0312V151.473H138.787V75.5063Z" fill="#E3E9F7"/>
<path d="M138.785 65.9609H61.0593V75.5273H138.785V65.9609Z" fill="#829CF8"/>
<path d="M65.9135 71.8282C66.8026 71.8282 67.5234 71.1428 67.5234 70.2974C67.5234 69.452 66.8026 68.7666 65.9135 68.7666C65.0245 68.7666 64.3037 69.452 64.3037 70.2974C64.3037 71.1428 65.0245 71.8282 65.9135 71.8282Z" fill="#E3E9F7"/>
<path d="M70.6098 71.8282C71.4989 71.8282 72.2197 71.1428 72.2197 70.2974C72.2197 69.452 71.4989 68.7666 70.6098 68.7666C69.7207 68.7666 69 69.452 69 70.2974C69 71.1428 69.7207 71.8282 70.6098 71.8282Z" fill="#E3E9F7"/>
<path d="M75.3039 71.8282C76.193 71.8282 76.9138 71.1428 76.9138 70.2974C76.9138 69.452 76.193 68.7666 75.3039 68.7666C74.4148 68.7666 73.6941 69.452 73.6941 70.2974C73.6941 71.1428 74.4148 71.8282 75.3039 71.8282Z" fill="#E3E9F7"/>
<path d="M126.664 83.302H73.1503C71.7013 83.302 70.5266 84.4767 70.5266 85.9257V129.526C70.5266 130.975 71.7013 132.15 73.1503 132.15H126.664C128.113 132.15 129.288 130.975 129.288 129.526V85.9257C129.288 84.4767 128.113 83.302 126.664 83.302Z" fill="white"/>
<path opacity="0.15" d="M112.08 137.251H87.7432C86.9088 137.251 86.2324 137.928 86.2324 138.762V142.165C86.2324 143 86.9088 143.676 87.7432 143.676H112.08C112.914 143.676 113.59 143 113.59 142.165V138.762C113.59 137.928 112.914 137.251 112.08 137.251Z" fill="black"/>
<path d="M111.804 136.863H88.0181C87.1837 136.863 86.5073 137.539 86.5073 138.374V141.648C86.5073 142.482 87.1837 143.159 88.0181 143.159H111.804C112.638 143.159 113.314 142.482 113.314 141.648V138.374C113.314 137.539 112.638 136.863 111.804 136.863Z" fill="#829CF8"/>
<path d="M95.4876 140.507C95.4876 140.708 95.4154 140.866 95.2705 140.982C95.1256 141.098 94.9243 141.156 94.6663 141.156C94.4288 141.156 94.2185 141.111 94.0354 141.022V140.583C94.1858 140.65 94.3129 140.697 94.417 140.725C94.521 140.752 94.6164 140.766 94.7027 140.766C94.8062 140.766 94.8857 140.746 94.9412 140.707C94.9966 140.667 95.0243 140.608 95.0243 140.53C95.0243 140.486 95.012 140.447 94.9875 140.413C94.963 140.379 94.9275 140.346 94.8798 140.315C94.8326 140.284 94.7363 140.233 94.5909 140.164C94.4547 140.1 94.3529 140.039 94.2848 139.98C94.2166 139.921 94.1626 139.852 94.1217 139.774C94.0813 139.696 94.0608 139.605 94.0608 139.5C94.0608 139.302 94.1276 139.148 94.2612 139.035C94.3947 138.922 94.5796 138.866 94.8149 138.866C94.9307 138.866 95.0411 138.88 95.1465 138.907C95.2514 138.935 95.3618 138.973 95.4763 139.023L95.3241 139.39C95.2051 139.342 95.1069 139.307 95.0293 139.288C94.9516 139.269 94.8753 139.259 94.7999 139.259C94.7104 139.259 94.6418 139.28 94.5941 139.322C94.5464 139.363 94.5223 139.417 94.5223 139.485C94.5223 139.526 94.5319 139.563 94.5514 139.594C94.5705 139.625 94.6014 139.655 94.6436 139.684C94.6859 139.713 94.7854 139.764 94.943 139.84C95.151 139.939 95.2941 140.039 95.3713 140.139C95.4485 140.239 95.4872 140.362 95.4872 140.507L95.4876 140.507Z" fill="white"/>
<path d="M97.7055 138.898V140.339C97.7055 140.504 97.6687 140.648 97.5951 140.772C97.5215 140.896 97.4152 140.991 97.2758 141.057C97.1363 141.123 96.9719 141.156 96.782 141.156C96.4954 141.156 96.2733 141.082 96.1148 140.936C95.9562 140.789 95.8772 140.588 95.8772 140.333V138.897H96.3482V140.261C96.3482 140.433 96.3828 140.559 96.4518 140.639C96.5209 140.719 96.6353 140.759 96.7948 140.759C96.9542 140.759 97.0609 140.719 97.1309 140.638C97.2004 140.557 97.2354 140.43 97.2354 140.258V138.897H97.7064L97.7055 138.898Z" fill="white"/>
<path d="M98.25 138.898H98.9431C99.2593 138.898 99.4882 138.943 99.6313 139.033C99.7739 139.123 99.8453 139.266 99.8453 139.461C99.8453 139.595 99.8139 139.704 99.7517 139.789C99.689 139.874 99.6063 139.926 99.5023 139.943V139.958C99.6436 139.99 99.7453 140.049 99.808 140.135C99.8707 140.221 99.9016 140.336 99.9016 140.479C99.9016 140.682 99.828 140.841 99.6813 140.955C99.5345 141.069 99.3351 141.126 99.083 141.126H98.2495V138.898L98.25 138.898ZM98.7224 139.78H98.9967C99.1248 139.78 99.2175 139.76 99.2747 139.72C99.332 139.681 99.361 139.615 99.361 139.524C99.361 139.438 99.3297 139.377 99.2675 139.34C99.2048 139.303 99.1062 139.285 98.9713 139.285H98.7228V139.78H98.7224ZM98.7224 140.155V140.735H99.0303C99.1603 140.735 99.2566 140.71 99.3183 140.661C99.3801 140.611 99.4115 140.535 99.4115 140.432C99.4115 140.247 99.2793 140.155 99.0154 140.155H98.7228H98.7224Z" fill="white"/>
<path d="M101.292 141.125L100.755 139.377H100.742C100.761 139.733 100.771 139.97 100.771 140.089V141.125H100.349V138.898H100.992L101.519 140.601H101.528L102.087 138.898H102.731V141.125H102.291V140.071C102.291 140.021 102.291 139.964 102.293 139.899C102.294 139.834 102.301 139.661 102.313 139.381H102.3L101.725 141.125H101.292H101.292Z" fill="white"/>
<path d="M103.289 141.126V138.898H103.761V141.126H103.289Z" fill="white"/>
<path d="M105.181 141.126H104.708V139.291H104.103V138.898H105.785V139.291H105.18V141.126H105.181Z" fill="white"/>
<path d="M129.288 85.9264V94.2463H70.5266V85.9264C70.5266 84.4774 71.7013 83.3027 73.1503 83.3027H126.664C128.113 83.3027 129.288 84.4774 129.288 85.9264H129.288Z" fill="#F4F6FC"/>
<path d="M83.8395 98.894H80.3523V102.377H83.8395V98.894Z" stroke="#CDD7FB" stroke-width="0.454241" stroke-miterlimit="10"/>
<path d="M83.8405 105.185H80.3533V108.668H83.8405V105.185Z" stroke="#CDD7FB" stroke-width="0.454241" stroke-miterlimit="10"/>
<path d="M83.8405 111.476H80.3533V114.959H83.8405V111.476Z" stroke="#CDD7FB" stroke-width="0.454241" stroke-miterlimit="10"/>
<path d="M83.8405 117.767H80.3533V121.25H83.8405V117.767Z" stroke="#CDD7FB" stroke-width="0.454241" stroke-miterlimit="10"/>
<path d="M83.8451 124.024H80.3579V127.507H83.8451V124.024Z" stroke="#CDD7FB" stroke-width="0.454241" stroke-miterlimit="10"/>
<path d="M80.8943 106.892C81.0764 106.985 81.2404 107.095 81.3989 107.211C81.557 107.327 81.7078 107.451 81.8532 107.579L81.5579 107.577C81.681 107.435 81.8105 107.298 81.9427 107.165C82.0762 107.033 82.2139 106.905 82.3565 106.781C82.4996 106.659 82.6486 106.542 82.8039 106.431C82.9602 106.322 83.121 106.217 83.2995 106.129C83.2123 106.308 83.1069 106.468 82.9974 106.625C82.887 106.78 82.7698 106.929 82.6472 107.072C82.5241 107.215 82.396 107.352 82.2638 107.486C82.1303 107.618 81.994 107.748 81.8514 107.871L81.681 108.017L81.5561 107.869C81.4312 107.72 81.3117 107.566 81.2 107.405C81.0882 107.243 80.9824 107.077 80.8943 106.892Z" fill="#F6471E"/>
<path d="M86.3936 100.635H119.468" stroke="#829CF8" stroke-width="0.454241" stroke-miterlimit="10"/>
<path d="M86.3936 106.927H119.468" stroke="#829CF8" stroke-width="0.454241" stroke-miterlimit="10"/>
<path d="M86.3936 113.194H119.468" stroke="#829CF8" stroke-width="0.454241" stroke-miterlimit="10"/>
<path d="M86.3936 119.479H119.468" stroke="#829CF8" stroke-width="0.454241" stroke-miterlimit="10"/>
<path d="M86.3936 125.764H119.468" stroke="#829CF8" stroke-width="0.454241" stroke-miterlimit="10"/>
<path d="M142.429 139.765C142.429 139.765 135.991 144.082 136.483 144.374C136.974 144.666 146.408 149.982 146.408 149.982L155.504 144.436L147.376 139.258L142.429 139.765Z" fill="#081956"/>
<path d="M139.04 148.607L148.259 145.734L149.918 148.853L140.024 151.818L139.04 148.607Z" fill="#C9885B"/>
<path d="M140.132 149.329C140.132 149.329 140.87 151.434 140.27 151.91L139.656 152.171L136.337 152.648H134.524C134.524 152.648 134.186 152.97 133.879 152.771C133.879 152.771 133.533 152.591 133.286 152.375C133.142 152.25 133.067 152.065 133.084 151.876C133.167 150.925 133.529 147.403 134.34 147.27L135.369 147.163L140.132 149.329H140.132Z" fill="#040C2B"/>
<path d="M159.289 146.087C158.806 146.493 158.109 146.873 157.338 147.211C156.37 147.636 155.283 147.996 154.351 148.264C153.219 148.588 152.315 148.776 152.13 148.776C151.337 148.776 150.707 148.882 150.201 148.987C150.151 148.998 150.104 149.008 150.057 149.018C149.516 149.135 149.129 149.238 148.84 149.176C148.587 149.121 148.046 148.965 147.707 148.864C147.508 148.805 147.337 148.674 147.232 148.494C147.134 148.327 147.042 148.148 146.957 147.966C146.871 147.781 146.793 147.595 146.723 147.417C146.491 146.824 146.354 146.327 146.354 146.327C147.093 145.799 151.592 143.46 151.592 143.46L152.36 141.401C153.025 141.738 154.611 140.532 155.538 139.743C156.146 139.227 156.903 138.914 157.698 138.857C160.571 138.655 161.394 140.602 161.394 140.602C162.562 143.382 159.289 146.086 159.289 146.086L159.289 146.087Z" fill="#081956"/>
<path opacity="0.1" d="M156.709 139.25C156.709 139.25 156.172 140.172 155.403 140.694C155.403 140.694 152.1 143.214 149.918 144.197L146.354 146.149L150.026 144.397C150.026 144.397 154.866 141.693 155.496 140.863C155.496 140.863 156.295 140.248 156.709 139.25V139.25Z" fill="black"/>
<path d="M151.531 149.406V152.709L142.804 150.527L145.432 147.485L145.584 147.533L146.958 147.966C147.093 148.255 147.246 148.539 147.414 148.776C147.414 148.776 148.457 149.093 148.841 149.175C149.13 149.238 149.517 149.134 150.058 149.018C150.105 149.008 150.153 148.997 150.202 148.987L151.115 149.274L151.532 149.406H151.531Z" fill="#DB965F"/>
<path d="M160.706 152.402C160.706 152.402 159.17 153.124 158.509 153.093C158.509 153.093 153.73 152.801 153.561 153.001C153.561 153.001 151.426 153.462 150.811 152.525C150.811 152.525 151.088 150.789 150.703 149.99C150.703 149.99 150.428 149.375 150.059 149.018C150.588 148.903 151.262 148.776 152.132 148.776C152.318 148.776 153.222 148.588 154.354 148.263L155.742 148.207C155.742 148.207 157.417 147.5 158.508 147.762C158.508 147.762 160.29 147.915 161.135 149.836C161.135 149.836 161.796 151.941 160.705 152.402L160.706 152.402Z" fill="#040C2B"/>
<path d="M149.489 148.776C149.509 148.773 149.529 148.77 149.549 148.769L149.489 148.776Z" fill="black"/>
<path opacity="0.1" d="M156.956 148.161C156.618 148.116 155.696 148.684 155.696 148.684C154.912 149.129 152.715 149.129 152.715 149.129C152.465 149.035 151.627 149.175 151.115 149.275C150.872 149.322 150.702 149.36 150.702 149.36C150.702 149.36 149.373 149.814 148.959 149.506C148.544 149.199 147.476 148.991 147.476 148.991C147.129 148.944 146.047 147.965 145.584 147.534L146.959 147.966C147.094 148.255 147.247 148.539 147.415 148.776C147.415 148.776 148.458 149.093 148.842 149.176C149.13 149.238 149.518 149.135 150.058 149.018C150.105 149.008 150.153 148.998 150.203 148.987C150.708 148.882 151.339 148.776 152.131 148.776C152.317 148.776 153.221 148.588 154.353 148.264C155.285 147.997 156.371 147.636 157.34 147.211C157.774 147.372 158.181 147.526 158.216 147.546C158.611 147.784 156.955 148.161 156.955 148.161L156.956 148.161Z" fill="black"/>
<path d="M145.985 147.624C145.985 147.624 146.339 147.24 145.186 146.978L139.04 143.091L138.195 141.186C138.195 141.186 134.093 136.777 131.205 138.206C131.205 138.206 128.789 139.429 129.376 142.109C129.597 143.119 130.186 144.01 131.016 144.625C132.248 145.539 134.62 147.226 136.229 147.916C136.229 147.916 140.792 149.805 141.56 150.743L142.752 151.722C142.896 151.84 143.11 151.809 143.216 151.656L145.985 147.624H145.985Z" fill="#081956"/>
<path d="M141.744 114.422L150.701 114.929C150.701 114.929 151.085 116.588 151.423 119.2C151.423 119.2 151.93 122.687 153.835 124.193L147.782 126.667L140.96 124.285L141.313 119.476C141.313 119.476 141.344 114.867 141.744 114.422H141.744Z" fill="black"/>
<path d="M149.147 122.964C149.147 122.964 148.456 124.93 148.394 124.9C148.333 124.869 143.478 124.224 143.478 124.224L143.631 122.411C144.108 121.904 143.631 117.31 143.631 117.31L148.993 118.769C148.725 119.547 148.72 120.445 148.8 121.21C148.809 121.293 148.818 121.374 148.828 121.453C148.942 122.321 149.147 122.964 149.147 122.964Z" fill="#C9885B"/>
<path d="M152.053 131.983C152.053 131.983 151.946 136.823 152.207 137.914H139.409C139.409 137.914 140.084 134.918 139.839 132.567L136.689 126.897C136.689 126.897 137.158 124.447 138.602 123.909C138.602 123.909 142.22 122.426 142.727 122.073C142.727 122.073 143.838 121.397 143.843 121.105C143.843 121.105 143.846 121.858 144.439 122.659C144.727 123.048 145.153 123.447 145.785 123.778C145.785 123.778 148.236 124.214 148.831 121.453L149.206 121.67L149.984 122.119L150.066 122.166L151.309 122.726C151.309 122.726 154.066 123.44 155.173 125.376L153.529 130.861L152.054 131.983L152.053 131.983Z" fill="white"/>
<path opacity="0.05" d="M150.066 122.166C149.588 123.183 148.601 125.002 147.598 125.145C147.598 125.145 147.103 125.429 145.967 125.293C145.592 125.248 145.253 125.04 145.049 124.722C144.914 124.513 144.641 124.239 144.095 123.931C142.865 123.24 143.849 122.763 143.849 122.763C143.849 122.763 145.047 124.669 147.398 123.946C147.398 123.946 148.727 123.486 149.206 121.669L149.984 122.118L150.066 122.165L150.066 122.166Z" fill="black"/>
<path opacity="0.1" d="M148.83 121.453C148.235 124.214 145.783 123.778 145.783 123.778C145.151 123.447 144.725 123.048 144.438 122.659C145.678 123.563 147.227 123.087 147.227 123.087C147.993 122.942 148.55 121.892 148.8 121.21C148.809 121.293 148.819 121.374 148.829 121.453H148.83Z" fill="black"/>
<path d="M151.531 129.509L152.775 136.945L155.925 137.913V128.219C155.925 128.219 156.002 125.005 153.835 123.977L151.531 129.509Z" fill="white"/>
<path d="M152.914 135.378L150.486 139.25L152.714 140.694C152.714 140.694 155.925 139.941 155.925 137.913V136.077L152.913 135.378H152.914Z" fill="white"/>
<path d="M140.438 130.938L138.502 136.638L135.383 137.007L136.182 130.216C136.182 130.216 136.29 124.762 138.41 123.978L141.267 127.619L140.438 130.938Z" fill="white"/>
<path d="M138.319 135.947L140.962 139.388L139.471 141.048C139.471 141.048 137.398 140.531 136.15 139.689C135.548 139.283 135.222 138.576 135.301 137.854L135.509 135.947H138.319V135.947Z" fill="white"/>
<path opacity="0.1" d="M140.101 129.709C140.101 129.709 139.863 132.635 139.97 133.957C139.97 133.957 139.501 131.137 140.101 129.709Z" fill="black"/>
<path opacity="0.1" d="M151.764 129.709C151.764 129.709 152.002 132.635 151.895 133.957C151.895 133.957 152.364 131.137 151.764 129.709Z" fill="black"/>
<path opacity="0.2" d="M140.668 142.154C140.668 142.154 146.23 146.026 149.917 142.691C149.917 142.691 153.851 142.507 153.728 143.106C153.728 143.106 149.203 147.247 146.038 147.493C146.038 147.493 135.029 144.028 137.81 142.323C137.81 142.323 139.377 141.416 140.668 142.154H140.668Z" fill="black"/>
<path d="M137.107 135.996L137.49 142.744C137.507 143.043 137.751 143.278 138.049 143.284L152.796 143.572C153.102 143.578 153.358 143.342 153.377 143.037L153.798 136.341C153.818 136.017 153.565 135.741 153.24 135.734L137.691 135.392C137.357 135.385 137.089 135.663 137.107 135.996Z" fill="#0F31AC"/>
<path d="M142.819 113.361C142.819 113.361 141.221 117.156 143.157 118.262C143.157 118.262 143.556 120.629 146.046 121.212C146.046 121.212 149.211 120.905 149.349 118.063C149.349 118.063 151.454 116.634 149.641 113.929L148.058 111.379L142.819 113.361V113.361Z" fill="#DB965F"/>
<path d="M146.093 110.242C146.093 110.242 144.249 109.551 142.574 112.271C142.574 112.271 141.245 114.291 141.383 117.047L142.928 121.335C142.928 121.335 143.143 122.242 142.559 122.611C142.559 122.611 144.11 122.134 143.742 120.168L142.758 118.447L141.913 116.788L142.2 116.296C142.2 116.296 142.328 115.82 142.774 116.188C142.774 116.188 142.774 114.883 143.48 114.237C143.48 114.237 145.462 111.871 148.028 113.008C148.028 113.008 149.472 113.715 149.611 116.065L149.749 116.096C149.749 116.096 150.362 115.451 150.378 116.296L150.087 118.079L149.273 120.952C149.273 120.952 149.45 121.405 149.911 121.682C149.911 121.682 151.063 122.742 152.215 122.281L150.241 120.706L150.748 117.94L150.89 115.842C150.89 115.842 150.641 114.099 150.303 113.485C150.303 113.485 148.812 109.121 146.093 110.243V110.242Z" fill="black"/>
<path d="M149.227 115.389C149.031 115.362 149.074 115.22 148.567 115.097C147.045 114.728 146.477 115.574 146.477 115.574C146.001 115.466 145.601 115.574 145.601 115.574C144.372 114.237 143.005 115.574 143.005 115.574H142.498V115.973H143.02C143.128 116.711 143.405 117.156 143.405 117.156C144.142 117.955 145.187 117.356 145.187 117.356C146.032 116.956 145.771 115.896 145.771 115.896C145.986 115.666 146.401 115.865 146.401 115.865C146.324 116.603 146.739 117.11 146.739 117.11C147.753 117.74 148.628 117.233 148.628 117.233C149.151 117.003 149.228 115.727 149.228 115.727H149.904V115.282C149.904 115.282 149.379 115.411 149.228 115.389H149.227ZM144.925 117.387C144.925 117.387 143.65 117.694 143.327 116.634C143.327 116.634 143.112 116.081 143.235 115.697C143.235 115.697 143.895 114.959 144.955 115.328C144.955 115.328 145.708 115.543 145.616 116.204C145.616 116.204 145.693 116.91 144.925 117.387H144.925ZM148.244 117.31C148.244 117.31 147.23 117.402 146.938 116.941C146.938 116.941 146.477 116.526 146.615 115.788C146.615 115.788 146.784 115.189 148.013 115.22C148.013 115.22 149.012 115.113 149.027 115.896C149.027 115.896 148.981 116.956 148.244 117.31Z" fill="black"/>
<path opacity="0.1" d="M137.665 143.314C136.958 142.561 135.038 141.317 134.639 140.687C134.639 140.687 133.747 139.089 133.394 139.135C133.394 139.135 134.147 139.166 134.792 140.687L137.764 143.2L137.665 143.314Z" fill="black"/>
<path d="M73.809 112.829C74.1315 112.829 74.3936 112.594 74.3936 112.306V109.11L77.3571 107.399L74.3936 105.688V102.491C74.3936 102.203 74.1315 101.969 73.809 101.969H39.1186C38.6962 101.969 38.3523 102.313 38.3523 102.735V112.306C38.3523 112.594 38.6144 112.828 38.9369 112.828H73.809V112.829Z" fill="#040C2B"/>
<path d="M39.119 102.046H73.8098C74.0905 102.046 74.3181 102.246 74.3181 102.492V105.733L77.2053 107.4L74.3181 109.067V112.307C74.3181 112.554 74.0905 112.754 73.8098 112.754H38.9377C38.657 112.754 38.4294 112.554 38.4294 112.307V102.737C38.4294 102.355 38.7383 102.047 39.1194 102.047L39.119 102.046Z" fill="white"/>
<path d="M44.9347 110.255L42.9946 109.286L41.0687 110.283L41.4225 108.199L39.8477 106.736L42.0067 106.416L42.9592 104.515L43.9399 106.402L46.1035 106.69L44.5504 108.176L44.9347 110.255Z" fill="#FAA500"/>
<path d="M51.5416 110.255L49.6016 109.286L47.6756 110.283L48.0294 108.199L46.4546 106.736L48.6136 106.416L49.5661 104.515L50.5468 106.402L52.7104 106.69L51.1573 108.176L51.5416 110.255Z" fill="#FAA500"/>
<path d="M58.2721 110.255L56.3316 109.286L54.4056 110.283L54.7594 108.199L53.1846 106.736L55.3436 106.416L56.2961 104.515L57.2768 106.402L59.4404 106.69L57.8873 108.176L58.2721 110.255Z" fill="#FAA500"/>
<path d="M65.0011 110.255L63.0606 109.286L61.1346 110.284L61.4884 108.199L59.9136 106.736L62.0726 106.417L63.0256 104.515L64.0058 106.402L66.1694 106.69L64.6163 108.176L65.0011 110.255Z" fill="#FAA500"/>
<path d="M71.7296 110.255L69.7891 109.286L67.8631 110.284L68.217 108.199L66.6426 106.736L68.8016 106.417L69.7541 104.515L70.7344 106.402L72.8979 106.69L71.3449 108.176L71.7296 110.255Z" fill="#E3E9F7"/>
<path d="M76.3748 44.5721C79.1087 41.8381 79.1087 37.4055 76.3748 34.6715C73.6408 31.9376 69.2082 31.9376 66.4742 34.6715C63.7402 37.4055 63.7402 41.8381 66.4742 44.5721C69.2082 47.3061 73.6408 47.3061 76.3748 44.5721Z" fill="#E5E9FD"/>
<path d="M73.9575 39.8674C73.9525 40.835 73.4765 41.6826 72.7624 42.16C72.3745 42.4194 71.9157 42.5697 71.4247 42.5697C70.9337 42.5697 70.4749 42.4194 70.087 42.16C69.3729 41.683 68.8968 40.835 68.8918 39.8674H73.9575Z" fill="white"/>
<path d="M68.4126 39.3459C68.7942 39.3459 69.1035 38.954 69.1035 38.4705C69.1035 37.9871 68.7942 37.5952 68.4126 37.5952C68.031 37.5952 67.7217 37.9871 67.7217 38.4705C67.7217 38.954 68.031 39.3459 68.4126 39.3459Z" fill="white"/>
<path d="M74.4297 39.3461C74.8112 39.3461 75.1206 38.9542 75.1206 38.4708C75.1206 37.9874 74.8112 37.5955 74.4297 37.5955C74.0481 37.5955 73.7388 37.9874 73.7388 38.4708C73.7388 38.9542 74.0481 39.3461 74.4297 39.3461Z" fill="white"/>
<path d="M72.7639 42.1598C72.3759 42.4192 71.9171 42.5695 71.4261 42.5695C70.9351 42.5695 70.4763 42.4192 70.0884 42.1598C70.2174 41.7274 70.7675 41.4026 71.4261 41.4026C72.0848 41.4026 72.6349 41.7274 72.7639 42.1598Z" fill="#CDD7FB"/>
<path d="M44.7779 93.9715C47.5118 91.2376 47.5118 86.8049 44.7779 84.071C42.0439 81.337 37.6113 81.337 34.8773 84.071C32.1433 86.8049 32.1433 91.2376 34.8773 93.9715C37.6113 96.7055 42.0439 96.7055 44.7779 93.9715Z" fill="#E5E9FD"/>
<path d="M36.8171 88.745C37.1987 88.745 37.508 88.3531 37.508 87.8697C37.508 87.3863 37.1987 86.9944 36.8171 86.9944C36.4355 86.9944 36.1262 87.3863 36.1262 87.8697C36.1262 88.3531 36.4355 88.745 36.8171 88.745Z" fill="white"/>
<path d="M42.8335 88.745C43.2151 88.745 43.5244 88.3531 43.5244 87.8697C43.5244 87.3863 43.2151 86.9944 42.8335 86.9944C42.4519 86.9944 42.1426 87.3863 42.1426 87.8697C42.1426 88.3531 42.4519 88.745 42.8335 88.745Z" fill="white"/>
<path d="M42.3616 89.3901H37.2959V90.0043H42.3616V89.3901Z" fill="white"/>
<path d="M139.578 55.179C142.312 52.4451 142.312 48.0124 139.578 45.2785C136.844 42.5445 132.411 42.5445 129.677 45.2785C126.943 48.0124 126.943 52.4451 129.677 55.179C132.411 57.913 136.844 57.913 139.578 55.179Z" fill="#E5E9FD"/>
<path d="M131.616 49.953C131.998 49.953 132.307 49.5611 132.307 49.0777C132.307 48.5943 131.998 48.2024 131.616 48.2024C131.234 48.2024 130.925 48.5943 130.925 49.0777C130.925 49.5611 131.234 49.953 131.616 49.953Z" fill="white"/>
<path d="M137.632 49.953C138.014 49.953 138.323 49.5611 138.323 49.0777C138.323 48.5943 138.014 48.2024 137.632 48.2024C137.251 48.2024 136.941 48.5943 136.941 49.0777C136.941 49.5611 137.251 49.953 137.632 49.953Z" fill="white"/>
<path d="M137.161 50.5977H132.096V51.2118H137.161V50.5977Z" fill="white"/>
<path d="M165.068 104.167C168.934 104.167 172.068 101.033 172.068 97.1663C172.068 93.2999 168.934 90.1655 165.068 90.1655C161.201 90.1655 158.067 93.2999 158.067 97.1663C158.067 101.033 161.201 104.167 165.068 104.167Z" fill="#E5E9FD"/>
<path d="M162.06 96.8903C162.441 96.8903 162.751 96.4984 162.751 96.015C162.751 95.5315 162.441 95.1396 162.06 95.1396C161.678 95.1396 161.369 95.5315 161.369 96.015C161.369 96.4984 161.678 96.8903 162.06 96.8903Z" fill="white"/>
<path d="M168.076 96.8908C168.457 96.8908 168.767 96.4989 168.767 96.0155C168.767 95.532 168.457 95.1401 168.076 95.1401C167.694 95.1401 167.385 95.532 167.385 96.0155C167.385 96.4989 167.694 96.8908 168.076 96.8908Z" fill="white"/>
<path d="M167.017 97.1511C167.017 97.9906 166.144 98.671 165.068 98.671C163.991 98.671 163.118 97.9906 163.118 97.1511" fill="white"/>
<path d="M106.624 45.4355L105.127 47.5727L102.326 51.2094L99.5252 47.5727L98.0285 45.4355C97.3017 44.3976 97.5538 42.9667 98.5917 42.2404C98.9923 41.9601 99.4511 41.8252 99.9054 41.8252C100.629 41.8252 101.34 42.1663 101.787 42.8036L102.326 43.5731L102.864 42.8036C103.31 42.1663 104.022 41.8252 104.746 41.8252C105.2 41.8252 105.659 41.9597 106.059 42.2404C107.097 42.9672 107.35 44.3976 106.623 45.4355H106.624Z" fill="#E5E9FD"/>
<path d="M92.9512 16.5913L91.4545 18.7285L88.6537 22.3651L85.8528 18.7285L84.3561 16.5913C83.6293 15.5533 83.8814 14.1225 84.9193 13.3961C85.32 13.1159 85.7788 12.981 86.233 12.981C86.9562 12.981 87.668 13.3221 88.1145 13.9594L88.6532 14.7289L89.1919 13.9594C89.638 13.3221 90.3498 12.981 91.0734 12.981C91.5276 12.981 91.9869 13.1154 92.3871 13.3961C93.425 14.1229 93.6776 15.5533 92.9503 16.5913H92.9512Z" fill="#E5E9FD"/>
<path d="M42.6661 129.879L41.1694 132.016L38.3685 135.652L35.5677 132.016L34.0709 129.879C33.3441 128.841 33.5962 127.41 34.6342 126.683C35.0348 126.403 35.4936 126.268 35.9479 126.268C36.671 126.268 37.3828 126.609 37.8293 127.247L38.3681 128.016L38.9068 127.247C39.3528 126.609 40.0646 126.268 40.7882 126.268C41.2425 126.268 41.7017 126.403 42.1019 126.683C43.1398 127.41 43.3924 128.841 42.6652 129.879H42.6661Z" fill="#E5E9FD"/>
<path d="M163.403 69.6467L161.906 71.7839L159.105 75.4205L156.304 71.7839L154.808 69.6467C154.081 68.6087 154.333 67.1779 155.371 66.4516C155.772 66.1713 156.23 66.0364 156.685 66.0364C157.408 66.0364 158.12 66.3775 158.566 67.0148L159.105 67.7843L159.644 67.0148C160.09 66.3775 160.801 66.0364 161.525 66.0364C161.979 66.0364 162.439 66.1708 162.839 66.4516C163.877 67.1783 164.129 68.6087 163.402 69.6467H163.403Z" fill="#E5E9FD"/>
</g>
<defs>
<clipPath id="clip0_862_628">
<rect width="200" height="153.624" fill="white" transform="translate(0 0.404053)"/>
</clipPath>
</defs>
</svg>
