<svg width="188" height="161" viewBox="0 0 188 161" fill="none" xmlns="http://www.w3.org/2000/svg">
<path d="M133.379 159.479C132.038 159.478 130.72 159.139 129.546 158.495L20.4891 98.991C18.6266 97.972 17.2452 96.2576 16.6481 94.2238C16.051 92.19 16.2869 90.003 17.3041 88.1425L63.3266 4.18579C63.8314 3.2648 64.5132 2.45205 65.3328 1.79392C66.1525 1.1358 67.0941 0.645194 68.1038 0.350125C69.1136 0.0550548 70.1717 -0.0387025 71.2177 0.074206C72.2638 0.187115 73.2773 0.504477 74.2004 1.00817L183.257 60.5122C185.119 61.5311 186.501 63.2455 187.098 65.2793C187.695 67.3131 187.459 69.5002 186.442 71.3606L140.419 155.317C139.917 156.24 139.236 157.054 138.416 157.713C137.596 158.371 136.653 158.861 135.642 159.153C134.907 159.369 134.145 159.478 133.379 159.479ZM130.205 157.293C131.749 158.136 133.566 158.332 135.256 157.838C136.946 157.344 138.37 156.201 139.214 154.66L185.237 70.7031C186.08 69.1616 186.275 67.3495 185.78 65.6643C185.286 63.9792 184.141 62.5586 182.598 61.7143L73.5414 2.2103C71.9966 1.36751 70.1796 1.17143 68.4899 1.6652C66.8003 2.15898 65.3765 3.30216 64.5316 4.84327L18.5091 88.8C17.6663 90.3415 17.4709 92.1537 17.9656 93.8388C18.4604 95.524 19.6049 96.9445 21.1481 97.7888L130.205 157.293Z" fill="#F2F2F2"/>
<path d="M135.627 130.116C134.372 130.115 133.138 129.799 132.037 129.198L43.868 81.0912C43.0102 80.6242 42.2531 79.993 41.64 79.2337C41.027 78.4744 40.57 77.602 40.2953 76.6663C40.0206 75.7307 39.9335 74.7502 40.0391 73.7809C40.1446 72.8116 40.4408 71.8726 40.9105 71.0176L68.3966 20.8761C68.8653 20.0208 69.4983 19.2661 70.2594 18.6549C71.0205 18.0437 71.8949 17.5882 72.8325 17.3141C73.7701 17.0401 74.7527 16.9531 75.724 17.058C76.6954 17.1629 77.6365 17.4576 78.4937 17.9254L166.663 66.0326C167.52 66.5002 168.276 67.1318 168.889 67.8911C169.502 68.6505 169.958 69.5228 170.233 70.4582C170.508 71.3937 170.595 72.3739 170.49 73.343C170.385 74.3121 170.089 75.251 169.62 76.1062L142.134 126.248C141.499 127.417 140.559 128.393 139.414 129.074C138.268 129.755 136.96 130.115 135.627 130.116Z" fill="#F2F2F2"/>
<path d="M132.89 159.457H8.58985C6.6174 159.455 4.72638 158.672 3.33165 157.28C1.93692 155.889 1.15238 154.002 1.15015 152.034V56.3423C1.15238 54.3745 1.93692 52.4878 3.33165 51.0964C4.72638 49.7049 6.6174 48.9222 8.58985 48.9199H132.89C134.863 48.9221 136.754 49.7049 138.148 51.0964C139.543 52.4879 140.328 54.3745 140.33 56.3423V152.034C140.328 154.002 139.543 155.889 138.148 157.28C136.754 158.672 134.863 159.455 132.89 159.457Z" fill="white"/>
<path d="M132.891 160.028H8.5906C6.46642 160.026 4.42993 159.183 2.92791 157.684C1.42589 156.186 0.581005 154.154 0.578613 152.035V56.3425C0.581005 54.2232 1.42589 52.1915 2.92791 50.693C4.42993 49.1944 6.46642 48.3515 8.5906 48.3491H132.891C135.015 48.3515 137.052 49.1944 138.554 50.693C140.056 52.1915 140.9 54.2232 140.903 56.3425V152.035C140.9 154.154 140.056 156.186 138.554 157.684C137.052 159.183 135.015 160.026 132.891 160.028ZM8.5906 49.7194C6.83057 49.7214 5.14319 50.4198 3.89866 51.6615C2.65413 52.9031 1.95408 54.5865 1.9521 56.3425V152.035C1.95408 153.791 2.65413 155.474 3.89866 156.716C5.14319 157.957 6.83057 158.656 8.5906 158.658H132.891C134.651 158.656 136.338 157.957 137.583 156.716C138.827 155.474 139.527 153.79 139.529 152.035V56.3425C139.527 54.5865 138.827 52.9031 137.583 51.6615C136.338 50.4198 134.651 49.7214 132.891 49.7194H8.5906Z" fill="#E6E6E6"/>
<path d="M90.0846 80.3882C88.6405 80.3871 87.216 80.7204 85.923 81.3619C84.63 82.0033 83.5038 82.9354 82.6332 84.0848C81.6986 83.6835 80.6789 83.5201 79.6654 83.6092C78.652 83.6983 77.6766 84.037 76.8267 84.595C75.9769 85.153 75.2793 85.9129 74.7965 86.8063C74.3137 87.6997 74.0608 88.6988 74.0605 89.7138H99.4319C99.4319 88.4892 99.1902 87.2765 98.7204 86.1451C98.2507 85.0136 97.5621 83.9856 96.6942 83.1196C95.8262 82.2536 94.7957 81.5667 93.6617 81.0981C92.5276 80.6294 91.3121 80.3882 90.0846 80.3882Z" fill="#E6E6E6"/>
<path d="M34.5025 116.891C42.8159 116.891 49.5552 110.167 49.5552 101.873C49.5552 93.5792 42.8159 86.8555 34.5025 86.8555C26.1891 86.8555 19.4497 93.5792 19.4497 101.873C19.4497 110.167 26.1891 116.891 34.5025 116.891Z" fill="#4B4BFF"/>
<path d="M122.672 132.823C122.119 132.953 121.554 133.018 120.987 133.017H20.4936C19.2559 133.019 18.0381 132.707 16.9546 132.11L17.2224 131.727L28.4346 115.619L45.0492 91.7553L45.2918 91.4059L47.906 87.6513C48.0817 87.3986 48.3161 87.1922 48.5892 87.0496C48.8623 86.907 49.1659 86.8325 49.4741 86.8325C49.7823 86.8325 50.0859 86.907 50.359 87.0496C50.6321 87.1922 50.8665 87.3986 51.0422 87.6513L59.7272 100.123V100.125L64.8365 107.466L77.0331 124.983L95.5315 98.6387C95.7077 98.3875 95.942 98.1823 96.2146 98.0407C96.4872 97.8991 96.79 97.8251 97.0973 97.8251C97.4046 97.8251 97.7075 97.8991 97.98 98.0407C98.2526 98.1823 98.4869 98.3875 98.6631 98.6387L110.53 115.537L111.212 116.507L122.672 132.823Z" fill="#3F3D56"/>
<path d="M70.1059 95.9597C68.3243 95.9584 66.5667 96.3696 64.9714 97.161C63.3761 97.9524 61.9867 99.1024 60.9126 100.52C59.7596 100.025 58.5014 99.8238 57.2511 99.9337C56.0007 100.044 54.7973 100.461 53.7488 101.15C52.7003 101.838 51.8396 102.776 51.2439 103.878C50.6482 104.98 50.3362 106.213 50.3359 107.465H81.6383C81.6383 105.954 81.34 104.458 80.7605 103.062C80.1809 101.666 79.3314 100.398 78.2605 99.3296C77.1896 98.2612 75.9183 97.4137 74.5191 96.8355C73.12 96.2573 71.6203 95.9597 70.1059 95.9597Z" fill="#CCCCCC"/>
<path d="M120.988 133.245H20.4943C19.5021 133.246 18.5194 133.052 17.6024 132.674C16.6855 132.295 15.8524 131.74 15.1507 131.04C14.4491 130.34 13.8927 129.509 13.5134 128.594C13.1341 127.679 12.9393 126.699 12.9402 125.709V68.5586C12.9425 66.5604 13.7391 64.6448 15.1552 63.2319C16.5714 61.819 18.4916 61.0242 20.4943 61.022H120.988C122.99 61.0242 124.91 61.819 126.327 63.2319C127.743 64.6448 128.539 66.5604 128.542 68.5586V125.709C128.543 126.699 128.348 127.679 127.969 128.594C127.59 129.509 127.033 130.341 126.332 131.041C125.63 131.741 124.797 132.296 123.88 132.674C122.963 133.052 121.98 133.247 120.988 133.245ZM20.4943 61.4787C18.6129 61.4809 16.8092 62.2275 15.4788 63.5547C14.1485 64.882 13.4001 66.6815 13.398 68.5586V125.709C13.3971 126.639 13.5801 127.56 13.9364 128.419C14.2927 129.279 14.8154 130.059 15.4745 130.717C16.1336 131.375 16.9163 131.896 17.7777 132.252C18.639 132.607 19.5622 132.79 20.4943 132.789H120.988C121.92 132.79 122.843 132.607 123.704 132.252C124.566 131.897 125.349 131.375 126.008 130.717C126.667 130.06 127.19 129.279 127.546 128.419C127.902 127.56 128.085 126.639 128.084 125.709V68.5586C128.082 66.6815 127.333 64.882 126.003 63.5547C124.673 62.2275 122.869 61.4809 120.988 61.4787H20.4943Z" fill="#3F3D56"/>
</svg>
