<svg width="170" height="170" viewBox="0 0 170 170" fill="none" xmlns="http://www.w3.org/2000/svg">
<path opacity="0.3" d="M149.915 145.611C146.512 149.194 143.293 151.504 140.749 153.329C110.85 174.782 75.4707 168.528 67.9516 167.001C56.8483 164.746 35.3859 160.387 19.8689 142.139C-3.60693 114.532 0.0486057 71.0375 18.2581 42.3262C21.5889 37.0744 39.1831 7.92579 74.9433 3.25123C96.585 0.422291 121.812 6.12798 140.081 21.4337C178.429 53.562 175.699 118.467 149.915 145.611Z" fill="url(#paint0_linear_862_2670)"/>
<path d="M10.7363 1.19393C10.4625 0.348832 11.4479 -0.345645 12.16 0.185535C19.391 5.57847 37.1779 22.1676 36.9155 54.7216C36.5864 95.5655 46.6491 109.311 58.1141 117.091C58.1141 117.091 43.2894 114.505 32.5683 100.615C6.24569 66.5106 15.6046 16.2199 10.7363 1.19393Z" fill="url(#paint1_linear_862_2670)"/>
<path d="M17.1292 13.2112C18.4564 17.6031 19.6962 22.0189 20.7728 26.4736C21.8727 30.9219 22.8372 35.4016 23.6606 39.9048C24.4668 44.4109 25.1882 48.9313 25.7166 53.4757C26.2654 58.0175 26.6185 62.5778 26.957 67.1576C27.3209 71.7329 27.6614 76.3442 28.4751 80.9346C29.2828 85.5161 30.6505 90.0748 32.8105 94.2485C33.35 95.2885 33.9107 96.3228 34.5267 97.3137C35.1246 98.3164 35.767 99.2929 36.4267 100.258C37.756 102.181 39.2152 104.019 40.804 105.741C43.9911 109.176 47.6989 112.124 51.687 114.522C52.1067 114.774 52.6516 114.638 52.904 114.219C53.1518 113.806 53.0254 113.273 52.6233 113.015L52.6205 113.014C51.667 112.403 50.7217 111.782 49.8073 111.121C49.3447 110.798 48.8974 110.455 48.444 110.121C48.0036 109.769 47.5496 109.435 47.1206 109.071C45.3806 107.642 43.7428 106.093 42.2278 104.431C39.1847 101.125 36.62 97.3468 34.5495 93.3633C33.5364 91.3592 32.6727 89.284 31.9718 87.1495C31.2724 85.0142 30.736 82.8219 30.3242 80.5973C29.5 76.1457 29.1253 71.5844 28.7286 67.012C28.3258 62.4391 27.8896 57.8465 27.2652 53.279C26.9592 50.9948 26.6121 48.7162 26.2245 46.4451C26.0372 45.3085 25.8279 44.1757 25.6207 43.0427C25.4027 41.9117 25.1783 40.782 24.945 39.6544C24.0028 35.1455 22.9236 30.6676 21.7043 26.23C20.4638 21.7983 19.1062 17.401 17.5814 13.0634C17.5378 12.9394 17.402 12.8742 17.2781 12.9178C17.1577 12.9603 17.0929 13.0902 17.1292 13.2112Z" fill="white"/>
<path d="M44.8763 144.359C44.5924 145.971 42.7545 146.769 41.3712 145.894C33.7386 141.066 13.3929 125.464 9.70951 94.5041C6.59908 68.36 2.42805 54.4792 0.0978687 48.309C-0.39485 47.0042 1.06441 45.8289 2.23572 46.586C15.1583 54.9389 55.164 85.947 44.8763 144.359Z" fill="url(#paint2_linear_862_2670)"/>
<path d="M42.7087 144.75C42.6792 144.778 42.6468 144.804 42.6112 144.826C42.3133 145.016 41.9184 144.928 41.7291 144.63C41.5145 144.292 20.2016 110.448 14.2347 74.2921C14.1774 73.9441 14.4129 73.6153 14.7612 73.5574C15.1095 73.5001 15.4383 73.7357 15.4959 74.084C21.4193 109.977 42.5946 143.609 42.8077 143.944C42.9746 144.207 42.9262 144.544 42.7087 144.75Z" fill="white"/>
<path d="M41.0533 3.37573C36.9266 3.73461 33.7626 7.19071 33.7508 11.3331C33.679 36.665 33.5604 124.042 35.2115 154.968C35.3865 158.244 38.0725 160.818 41.3534 160.854C57.5805 161.028 104.257 161.349 130.756 159.654C136.275 159.301 140.57 154.73 140.563 149.199C140.531 122.613 140.106 47.8415 136.464 13.6645C136.028 9.56961 132.736 6.37327 128.631 6.05338C110.933 4.67441 63.9349 1.38571 41.0533 3.37573Z" fill="url(#paint3_linear_862_2670)"/>
<path d="M40.2682 17.9706C39.9496 39.6399 39.0422 111.725 40.6262 138.33C40.8577 142.219 43.8783 145.289 47.6081 145.419C62.9648 145.954 102.344 146.99 124.784 144.521C128.824 144.076 131.912 140.574 132.02 136.333C132.581 114.219 134.097 47.0806 132.558 20.7729C132.312 16.576 129.106 13.2273 125.087 12.9564C108.459 11.836 65.7615 9.25213 46.68 10.8412C43.098 11.1395 40.3234 14.2191 40.2682 17.9706Z" fill="url(#paint4_linear_862_2670)"/>
<path d="M77.3671 7.14691C77.3803 7.74558 77.8576 8.22907 78.4562 8.2473C81.4111 8.33707 89.7351 8.59188 93.4557 8.72596C94.1893 8.7524 94.7498 8.08117 94.5951 7.36363C94.5823 7.341 94.487 6.42098 93.5474 6.35567C91.0307 6.18066 83.4377 5.70882 78.4201 5.99835C77.3897 6.05775 77.3337 7.22955 77.3671 7.14691Z" fill="#1F5AA9"/>
<path d="M65.328 66.48C76.4516 66.48 85.469 57.4624 85.469 46.3387C85.469 35.2151 76.4516 26.1975 65.328 26.1975C54.2044 26.1975 45.187 35.2151 45.187 46.3387C45.187 57.4624 54.2044 66.48 65.328 66.48Z" fill="white"/>
<mask id="mask0_862_2670" style="mask-type:luminance" maskUnits="userSpaceOnUse" x="47" y="28" width="37" height="37">
<path d="M65.336 64.2795C75.2424 64.2795 83.2731 56.2487 83.2731 46.3422C83.2731 36.4356 75.2424 28.4048 65.336 28.4048C55.4295 28.4048 47.3988 36.4356 47.3988 46.3422C47.3988 56.2487 55.4295 64.2795 65.336 64.2795Z" fill="white"/>
</mask>
<g mask="url(#mask0_862_2670)">
<path d="M65.4142 49.6167C69.7556 49.6167 73.275 46.0973 73.275 41.7559C73.275 37.4144 69.7556 33.895 65.4142 33.895C61.0728 33.895 57.5535 37.4144 57.5535 41.7559C57.5535 46.0973 61.0728 49.6167 65.4142 49.6167Z" fill="url(#paint5_linear_862_2670)"/>
</g>
<mask id="mask1_862_2670" style="mask-type:luminance" maskUnits="userSpaceOnUse" x="47" y="28" width="37" height="37">
<path d="M65.336 64.2795C75.2424 64.2795 83.2731 56.2487 83.2731 46.3422C83.2731 36.4356 75.2424 28.4048 65.336 28.4048C55.4295 28.4048 47.3988 36.4356 47.3988 46.3422C47.3988 56.2487 55.4295 64.2795 65.336 64.2795Z" fill="white"/>
</mask>
<g mask="url(#mask1_862_2670)">
<path d="M53.4732 65.3627H78.5165C80.0519 65.3627 80.9719 63.3787 80.1451 61.8646C78.0179 57.9694 73.5673 52.2468 65.8595 52.505C58.4307 52.7539 54.0276 57.923 51.8141 61.6301C50.8744 63.2039 51.8327 65.3627 53.4732 65.3627Z" fill="url(#paint6_linear_862_2670)"/>
</g>
<path d="M95.7732 135.509H70.7208C69.9021 135.509 69.2323 134.839 69.2323 134.02V126.895C69.2323 126.076 69.9021 125.406 70.7208 125.406H95.7732C96.5919 125.406 97.2616 126.076 97.2616 126.895V134.02C97.2616 134.839 96.5919 135.509 95.7732 135.509Z" fill="url(#paint7_linear_862_2670)"/>
<g opacity="0.8">
<path d="M114.55 88.8245H58.0325C57.5835 88.8245 57.2161 88.4571 57.2161 88.0081V84.0784C57.2161 83.6294 57.5835 83.262 58.0325 83.262H114.55C114.999 83.262 115.366 83.6294 115.366 84.0784V88.0081C115.366 88.4571 114.999 88.8245 114.55 88.8245Z" fill="white"/>
<path d="M49.7485 89.403C51.6109 89.403 53.1207 87.8932 53.1207 86.0307C53.1207 84.1683 51.6109 82.6584 49.7485 82.6584C47.886 82.6584 46.3762 84.1683 46.3762 86.0307C46.3762 87.8932 47.886 89.403 49.7485 89.403Z" fill="white"/>
<path d="M114.538 99.264H58.0207C57.5716 99.264 57.2042 98.8966 57.2042 98.4476V94.5179C57.2042 94.0689 57.5716 93.7014 58.0207 93.7014H114.538C114.987 93.7014 115.355 94.0688 115.355 94.5179V98.4476C115.355 98.8966 114.987 99.264 114.538 99.264Z" fill="white"/>
<path d="M53.0777 97.0097C53.3761 95.1713 52.1276 93.4391 50.2892 93.1407C48.4508 92.8424 46.7186 94.0908 46.4202 95.9293C46.1219 97.7677 47.3703 99.4999 49.2087 99.7983C51.0472 100.097 52.7794 98.8482 53.0777 97.0097Z" fill="white"/>
<path d="M114.55 109.696H58.0324C57.5833 109.696 57.2159 109.328 57.2159 108.879V104.949C57.2159 104.5 57.5833 104.133 58.0324 104.133H114.55C114.999 104.133 115.366 104.5 115.366 104.949V108.879C115.366 109.328 114.999 109.696 114.55 109.696Z" fill="white"/>
<path d="M49.7483 110.274C51.6108 110.274 53.1206 108.764 53.1206 106.902C53.1206 105.039 51.6108 103.53 49.7483 103.53C47.8859 103.53 46.3761 105.039 46.3761 106.902C46.3761 108.764 47.8859 110.274 49.7483 110.274Z" fill="white"/>
<path d="M114.55 120.135H58.0324C57.5833 120.135 57.2159 119.768 57.2159 119.319V115.389C57.2159 114.94 57.5833 114.573 58.0324 114.573H114.55C114.999 114.573 115.366 114.94 115.366 115.389V119.319C115.366 119.768 114.999 120.135 114.55 120.135Z" fill="white"/>
<path d="M49.7483 120.714C51.6108 120.714 53.1206 119.204 53.1206 117.341C53.1206 115.479 51.6108 113.969 49.7483 113.969C47.8859 113.969 46.3761 115.479 46.3761 117.341C46.3761 119.204 47.8859 120.714 49.7483 120.714Z" fill="white"/>
</g>
<path d="M91.553 77.9512H47.2223C46.8239 77.9512 46.4979 77.6253 46.4979 77.2268V73.1131C46.4979 72.7147 46.8239 72.3887 47.2223 72.3887H91.553C91.9514 72.3887 92.2774 72.7147 92.2774 73.1131V77.2268C92.2774 77.6253 91.9514 77.9512 91.553 77.9512Z" fill="white"/>
<path d="M142.748 21.8693C142.629 20.029 141.517 18.3988 139.852 17.6077L118.27 7.35757C116.888 6.70112 115.284 6.70112 113.902 7.35757L92.3197 17.6077C90.6539 18.3988 89.5426 20.029 89.4235 21.8693C87.3992 53.1615 107.463 64.5631 114.04 67.4432C115.345 68.0144 116.827 68.0144 118.131 67.4432C124.708 64.5631 144.772 53.1614 142.748 21.8693Z" fill="url(#paint8_linear_862_2670)"/>
<path d="M109.551 11.8783C109.36 11.8783 109.176 11.7703 109.088 11.5857C108.967 11.3302 109.076 11.0247 109.331 10.9034L114.431 8.48153C114.686 8.3597 114.992 8.46873 115.113 8.72439C115.234 8.97987 115.126 9.28533 114.87 9.40661L109.771 11.8285C109.7 11.8623 109.625 11.8783 109.551 11.8783Z" fill="white"/>
<path d="M91.0682 28.7689C90.7934 28.7689 90.566 28.5508 90.5567 28.2739C90.4882 26.2315 90.5241 24.1028 90.6636 21.947C90.7532 20.5618 91.5908 19.3301 92.8496 18.7325L107.368 11.837C107.623 11.7152 107.929 11.8242 108.05 12.0799C108.172 12.3353 108.063 12.6408 107.807 12.7621L93.2891 19.6576C92.3657 20.0961 91.7515 20.9988 91.6857 22.0131C91.5485 24.1357 91.513 26.2305 91.5804 28.2395C91.5899 28.5222 91.3685 28.7591 91.0858 28.7687C91.0798 28.7689 91.074 28.7689 91.0682 28.7689Z" fill="white"/>
<path d="M137.529 23.0929C137.506 22.6264 137.228 22.21 136.806 22.0096L116.631 12.4274C116.286 12.2638 115.886 12.2638 115.542 12.4274L95.3666 22.0096C94.9447 22.21 94.667 22.6264 94.6431 23.0929C94.0465 34.7658 96.7427 44.5054 102.663 52.0542C107.176 57.8095 112.456 60.8937 115.549 62.3325C115.89 62.4911 116.282 62.4911 116.623 62.3325C119.717 60.8937 124.997 57.8094 129.51 52.0542C135.43 44.5055 138.126 34.7658 137.529 23.0929Z" fill="url(#paint9_linear_862_2670)"/>
<path d="M103.275 35.8861C104.943 34.8527 107.135 35.3924 108.132 37.0828L112.821 45.0326C113.291 45.8285 114.467 45.7491 114.825 44.8974L125.376 19.8054C125.902 18.5536 127.756 18.9279 127.769 20.2855C127.838 27.8814 126.172 42.3627 114.331 54.7363C114.331 54.7363 107.583 52.2988 101.913 40.6058C101.095 38.9167 101.679 36.875 103.275 35.8861Z" fill="url(#paint10_linear_862_2670)"/>
<path d="M146.278 161.375C146.278 161.375 146.665 163.562 146.854 165.727C146.928 166.574 146.276 167.308 145.427 167.344C142.544 167.464 136.376 167.697 134.163 167.599C133.83 167.584 133.613 167.243 133.736 166.934C133.839 166.674 134.038 166.465 134.292 166.348L144.479 161.666L146.278 161.375Z" fill="url(#paint11_linear_862_2670)"/>
<path d="M146.589 160.093L146.279 162.71C146.279 162.71 144.494 163.541 143.275 162.605L144.014 159.689L146.589 160.093Z" fill="url(#paint12_linear_862_2670)"/>
<path d="M146.36 110.904C146.494 111.587 147.08 144.998 143.508 159.971C143.45 160.215 143.574 160.467 143.806 160.562C144.354 160.786 145.428 161.11 146.715 161.153C147.114 161.167 147.471 160.908 147.583 160.525C148.604 157.051 153.496 139.646 154.134 123.019C154.847 104.44 154.134 122.387 154.134 122.387L153.716 110.902L146.36 110.904Z" fill="url(#paint13_linear_862_2670)"/>
<path d="M157.988 162.52C157.988 162.52 158.603 163.624 159.198 166.558C159.305 167.088 158.935 167.595 158.397 167.648C157.445 167.741 155.979 167.862 154.805 167.854C154.264 167.85 153.842 167.379 153.907 166.841C154.037 165.77 154.442 164.013 155.694 162.644L157.988 162.52Z" fill="url(#paint14_linear_862_2670)"/>
<path d="M158.539 159.156L157.813 163.112C157.813 163.112 157.096 163.646 155.678 163.259L156.024 159.002L158.539 159.156Z" fill="url(#paint15_linear_862_2670)"/>
<path d="M160.491 111.931C163.412 129.559 159.858 155.501 158.659 160.578C158.586 160.889 158.335 161.127 158.02 161.179C157.485 161.268 156.604 161.34 155.735 161.088C155.436 161.001 155.226 160.731 155.213 160.42C155.053 156.315 155.342 131.115 152.62 121.156C152.483 120.651 152.174 120.211 151.748 119.908L146.465 116.152L146.06 110.082L160.491 111.931Z" fill="url(#paint16_linear_862_2670)"/>
<path d="M141.893 78.5306C150.647 78.3859 160.305 80.829 160.305 80.829C162.914 96.0539 160.762 113.615 160.762 113.615C153.985 115.392 146.34 112.528 146.34 112.528C145.214 106.165 139.959 88.2552 139.959 88.2552C135.682 87.7243 132.159 86.4904 129.257 84.859C131.47 82.2936 132.514 79.0292 132.967 77.0996C136.062 78.0615 139.194 78.5752 141.893 78.5306Z" fill="url(#paint17_linear_862_2670)"/>
<path d="M116.039 65.638C116.898 64.5994 117.987 65.0907 117.987 65.0907C119.275 70.5321 126.029 74.944 132.968 77.1006C132.515 79.0302 131.472 82.2945 129.259 84.8599C117.743 78.3848 116.039 65.638 116.039 65.638Z" fill="url(#paint18_linear_862_2670)"/>
<path d="M116.233 65.9007C116.143 66.1868 117.185 66.6223 117.798 65.4524C117.82 64.8917 118.161 62.4897 117.826 62.033C116.041 59.6003 112.582 56.5508 112.582 56.5508C111.997 57.1277 112.479 57.6945 112.479 57.6945L114.157 59.4427C113.806 60.0771 113.378 60.6125 113.177 61.3798C113.025 61.9609 113.118 62.5818 113.412 63.1106C113.706 63.6414 114.108 64.3313 114.488 64.8711C115.207 65.893 116.233 65.9007 116.233 65.9007Z" fill="url(#paint19_linear_862_2670)"/>
<path d="M114.904 60.5781L116.433 61.8746L116.914 63.1654L115.55 64.678C115.55 64.678 115.092 62.1168 114.751 61.5625C114.41 61.0083 114.587 60.7403 114.904 60.5781Z" fill="url(#paint20_linear_862_2670)"/>
<path d="M156.939 89.3041L160.297 80.8281C160.297 80.8281 168.473 86.3836 169.818 93.4273C168.273 93.5411 165.462 93.9429 162.71 95.3323C162.105 92.0063 156.939 89.3041 156.939 89.3041Z" fill="url(#paint21_linear_862_2670)"/>
<path d="M149.791 97.2783C149.791 97.2783 158.971 102.466 162.068 98.0363C162.711 97.1165 162.865 96.2023 162.707 95.3308C165.458 93.9414 168.269 93.5396 169.814 93.4258C170.22 95.5492 170.005 97.8076 168.758 100.09C163.332 110.015 148.576 99.5417 148.576 99.5417L149.791 97.2783Z" fill="url(#paint22_linear_862_2670)"/>
<path d="M150.905 103.848L145.895 86.3522C145.838 86.1536 145.669 86.0087 145.464 85.9848C144.556 85.8789 141.926 85.5816 138.889 85.3247C135.231 85.0153 130.983 84.7645 128.444 84.9778C128.083 85.0081 127.865 85.3898 128.026 85.7145C129.469 88.635 135.407 100.515 138.381 104.407C138.479 104.535 138.631 104.611 138.794 104.609L150.418 104.501C150.756 104.498 150.998 104.174 150.905 103.848Z" fill="url(#paint23_linear_862_2670)"/>
<path d="M138.361 83.8062L134.729 83.2009C134.536 83.1687 134.377 83.3536 134.439 83.5398L134.798 84.6294C134.83 84.7242 134.912 84.7929 135.011 84.8061L138.507 85.273C138.688 85.2972 138.837 85.1329 138.795 84.9552L138.573 84.0039C138.548 83.9015 138.465 83.8235 138.361 83.8062Z" fill="url(#paint24_linear_862_2670)"/>
<path d="M141.092 86.8846L140.793 85.326C140.763 85.1696 140.633 85.0515 140.475 85.0354L133.139 84.291C132.892 84.2659 132.694 84.4922 132.752 84.7335L133.218 86.6758C133.256 86.8312 133.391 86.9435 133.551 86.9515L140.72 87.3124C140.953 87.3241 141.136 87.1141 141.092 86.8846Z" fill="url(#paint25_linear_862_2670)"/>
<path d="M149.706 99.6216C149.706 99.6216 150.404 96.7519 150.123 95.7337C149.841 94.7156 149.296 93.4066 147.478 93.6975C145.66 93.9884 143.515 94.7542 143.515 94.7542C143.515 94.7542 143.623 96.0804 145.005 95.6526L144.148 96.3156C144.148 96.3156 144.271 97.3775 145.438 96.8101L144.641 97.6894C144.641 97.6894 145.142 98.5615 146.001 98.0021C146.86 97.4428 147.271 99.9672 149.706 99.6216Z" fill="url(#paint26_linear_862_2670)"/>
<path d="M150.753 71.4258L153.538 79.4805C153.584 79.6139 153.53 79.7617 153.406 79.83C152.647 80.2498 149.911 81.4631 146.615 79.3732C146.272 79.1555 146.038 78.8004 145.986 78.3972L145.084 71.4258L150.753 71.4258Z" fill="url(#paint27_linear_862_2670)"/>
<path d="M144.697 63.9648C144.697 63.9648 141.638 69.7221 142.03 72.0477C142.422 74.3733 146.213 74.2064 149.523 72.3176L151.836 66.101L144.697 63.9648Z" fill="url(#paint28_linear_862_2670)"/>
<path d="M149.366 69.2691C149.232 69.2096 149.182 69.0449 149.263 68.9218C149.508 68.5475 149.967 67.7838 150.114 67.1152C150.114 67.1152 150.663 66.7631 148.714 66.2965C146.765 65.8299 143.858 65.1057 143.247 63.4466C142.652 61.8289 144.217 57.7609 146.714 61.0023C146.809 61.1256 146.995 61.1283 147.09 61.0049C147.499 60.4721 148.575 59.3662 150.069 60.0366C151.468 60.664 151.625 61.6886 151.606 62.205C151.6 62.357 151.736 62.4751 151.885 62.4466C152.592 62.3118 154.289 62.196 155.081 63.9363C155.733 65.3697 155.309 66.1812 154.923 66.578C154.798 66.7066 154.852 66.9183 155.024 66.9708C155.489 67.113 156.089 67.507 156.028 68.5955C155.945 70.1004 154.263 69.9678 153.784 69.8992C153.705 69.8879 153.626 69.9148 153.573 69.9736C153.163 70.4282 151.312 72.3581 149.309 72.5908C149.136 72.6109 149.001 72.4396 149.058 72.2746L149.925 69.7549C149.965 69.6379 149.909 69.5095 149.796 69.4594L149.366 69.2691Z" fill="url(#paint29_linear_862_2670)"/>
<path d="M149.014 69.6324C149.014 69.6324 151.191 68.1384 151.35 69.3966C151.509 70.6548 149.389 71.2191 148.339 70.75L149.014 69.6324Z" fill="url(#paint30_linear_862_2670)"/>
<defs>
<linearGradient id="paint0_linear_862_2670" x1="190.667" y1="218.163" x2="42.5348" y2="34.1931" gradientUnits="userSpaceOnUse">
<stop stop-color="#B37CFF"/>
<stop offset="1" stop-color="#F895E7"/>
</linearGradient>
<linearGradient id="paint1_linear_862_2670" x1="-2.78053" y1="47.7847" x2="71.8471" y2="69.172" gradientUnits="userSpaceOnUse">
<stop stop-color="#A737D5"/>
<stop offset="1" stop-color="#EF497A"/>
</linearGradient>
<linearGradient id="paint2_linear_862_2670" x1="17.7346" y1="143.734" x2="27.3815" y2="48.9804" gradientUnits="userSpaceOnUse">
<stop stop-color="#CE1567"/>
<stop offset="1" stop-color="#7A1DBC"/>
</linearGradient>
<linearGradient id="paint3_linear_862_2670" x1="33.3695" y1="82.7272" x2="139.783" y2="80.3963" gradientUnits="userSpaceOnUse">
<stop stop-color="#2B3582"/>
<stop offset="1" stop-color="#150E42"/>
</linearGradient>
<linearGradient id="paint4_linear_862_2670" x1="45.5082" y1="22.3193" x2="270.77" y2="335.522" gradientUnits="userSpaceOnUse">
<stop stop-color="#FDF53F"/>
<stop offset="1" stop-color="#D93C65"/>
</linearGradient>
<linearGradient id="paint5_linear_862_2670" x1="47.913" y1="102.231" x2="89.2955" y2="-40.7621" gradientUnits="userSpaceOnUse">
<stop stop-color="#FDF53F"/>
<stop offset="1" stop-color="#D93C65"/>
</linearGradient>
<linearGradient id="paint6_linear_862_2670" x1="54.0882" y1="104.02" x2="95.4708" y2="-38.9734" gradientUnits="userSpaceOnUse">
<stop stop-color="#FDF53F"/>
<stop offset="1" stop-color="#D93C65"/>
</linearGradient>
<linearGradient id="paint7_linear_862_2670" x1="98.8833" y1="65.8068" x2="75.381" y2="162.978" gradientUnits="userSpaceOnUse">
<stop stop-color="#FDF53F"/>
<stop offset="1" stop-color="#D93C65"/>
</linearGradient>
<linearGradient id="paint8_linear_862_2670" x1="192.238" y1="-51.2066" x2="91.4284" y2="60.0439" gradientUnits="userSpaceOnUse">
<stop stop-color="#53D8FF"/>
<stop offset="1" stop-color="#3840F7"/>
</linearGradient>
<linearGradient id="paint9_linear_862_2670" x1="139.103" y1="2.92821" x2="38.2938" y2="131.449" gradientUnits="userSpaceOnUse">
<stop stop-color="#53D8FF"/>
<stop offset="1" stop-color="#3840F7"/>
</linearGradient>
<linearGradient id="paint10_linear_862_2670" x1="77.5913" y1="72.2203" x2="145.065" y2="13.9846" gradientUnits="userSpaceOnUse">
<stop stop-color="#A737D5"/>
<stop offset="1" stop-color="#EF497A"/>
</linearGradient>
<linearGradient id="paint11_linear_862_2670" x1="134.486" y1="158.352" x2="171.793" y2="198.932" gradientUnits="userSpaceOnUse">
<stop stop-color="#CB236D"/>
<stop offset="1" stop-color="#4C246D"/>
</linearGradient>
<linearGradient id="paint12_linear_862_2670" x1="146.589" y1="161.37" x2="143.275" y2="161.37" gradientUnits="userSpaceOnUse">
<stop stop-color="#F9B776"/>
<stop offset="1" stop-color="#F47960"/>
</linearGradient>
<linearGradient id="paint13_linear_862_2670" x1="154.451" y1="136.028" x2="143.494" y2="136.028" gradientUnits="userSpaceOnUse">
<stop stop-color="#2B3582"/>
<stop offset="1" stop-color="#150E42"/>
</linearGradient>
<linearGradient id="paint14_linear_862_2670" x1="142.845" y1="150.661" x2="180.152" y2="191.241" gradientUnits="userSpaceOnUse">
<stop stop-color="#CB236D"/>
<stop offset="1" stop-color="#4C246D"/>
</linearGradient>
<linearGradient id="paint15_linear_862_2670" x1="158.539" y1="161.201" x2="155.678" y2="161.201" gradientUnits="userSpaceOnUse">
<stop stop-color="#F9B776"/>
<stop offset="1" stop-color="#F47960"/>
</linearGradient>
<linearGradient id="paint16_linear_862_2670" x1="161.616" y1="135.672" x2="146.06" y2="135.672" gradientUnits="userSpaceOnUse">
<stop stop-color="#2B3582"/>
<stop offset="1" stop-color="#150E42"/>
</linearGradient>
<linearGradient id="paint17_linear_862_2670" x1="151.042" y1="83.0124" x2="133.217" y2="130.955" gradientUnits="userSpaceOnUse">
<stop stop-color="#CE1567"/>
<stop offset="1" stop-color="#7A1DBC"/>
</linearGradient>
<linearGradient id="paint18_linear_862_2670" x1="132.968" y1="74.9172" x2="116.039" y2="74.9172" gradientUnits="userSpaceOnUse">
<stop stop-color="#F9B776"/>
<stop offset="1" stop-color="#F47960"/>
</linearGradient>
<linearGradient id="paint19_linear_862_2670" x1="119.796" y1="72.078" x2="131.156" y2="97.9252" gradientUnits="userSpaceOnUse">
<stop stop-color="#F9B776"/>
<stop offset="1" stop-color="#F47960"/>
</linearGradient>
<linearGradient id="paint20_linear_862_2670" x1="116.118" y1="63.471" x2="111.378" y2="56.183" gradientUnits="userSpaceOnUse">
<stop stop-color="#F9B776"/>
<stop offset="1" stop-color="#F47960"/>
</linearGradient>
<linearGradient id="paint21_linear_862_2670" x1="164.608" y1="88.0586" x2="146.783" y2="136.001" gradientUnits="userSpaceOnUse">
<stop stop-color="#CE1567"/>
<stop offset="1" stop-color="#7A1DBC"/>
</linearGradient>
<linearGradient id="paint22_linear_862_2670" x1="170.001" y1="98.8946" x2="148.576" y2="98.8946" gradientUnits="userSpaceOnUse">
<stop stop-color="#F9B776"/>
<stop offset="1" stop-color="#F47960"/>
</linearGradient>
<linearGradient id="paint23_linear_862_2670" x1="142.106" y1="83.6689" x2="130.325" y2="132.755" gradientUnits="userSpaceOnUse">
<stop stop-color="#9CFFFB"/>
<stop offset="1" stop-color="#9BFFFA"/>
</linearGradient>
<linearGradient id="paint24_linear_862_2670" x1="134.722" y1="75.9299" x2="137.231" y2="86.9476" gradientUnits="userSpaceOnUse">
<stop stop-color="#53D8FF"/>
<stop offset="1" stop-color="#3840F7"/>
</linearGradient>
<linearGradient id="paint25_linear_862_2670" x1="136.046" y1="80.5548" x2="137.246" y2="87.7545" gradientUnits="userSpaceOnUse">
<stop stop-color="#53D8FF"/>
<stop offset="1" stop-color="#3840F7"/>
</linearGradient>
<linearGradient id="paint26_linear_862_2670" x1="150.19" y1="96.6553" x2="143.515" y2="96.6553" gradientUnits="userSpaceOnUse">
<stop stop-color="#F9B776"/>
<stop offset="1" stop-color="#F47960"/>
</linearGradient>
<linearGradient id="paint27_linear_862_2670" x1="153.554" y1="75.9943" x2="145.084" y2="75.9943" gradientUnits="userSpaceOnUse">
<stop stop-color="#F9B776"/>
<stop offset="1" stop-color="#F47960"/>
</linearGradient>
<linearGradient id="paint28_linear_862_2670" x1="143.073" y1="70.6033" x2="152.387" y2="64.9228" gradientUnits="userSpaceOnUse">
<stop stop-color="#F9B776"/>
<stop offset="1" stop-color="#F47960"/>
</linearGradient>
<linearGradient id="paint29_linear_862_2670" x1="157.306" y1="58.9393" x2="145.274" y2="68.4424" gradientUnits="userSpaceOnUse">
<stop stop-color="#2B3582"/>
<stop offset="1" stop-color="#150E42"/>
</linearGradient>
<linearGradient id="paint30_linear_862_2670" x1="145.505" y1="72.7318" x2="153.885" y2="67.621" gradientUnits="userSpaceOnUse">
<stop stop-color="#F9B776"/>
<stop offset="1" stop-color="#F47960"/>
</linearGradient>
</defs>
</svg>
