<svg width="110" height="161" viewBox="0 0 110 161" fill="none" xmlns="http://www.w3.org/2000/svg">
<g clip-path="url(#clip0_862_2108)">
<path d="M86.8393 129.275C86.7556 129.367 86.6718 129.461 86.5908 129.555C85.4589 130.827 84.4364 132.185 83.5334 133.618C83.4605 133.728 83.3903 133.84 83.3254 133.95C81.1878 137.412 79.7326 141.227 79.0338 145.203C78.8771 146.102 78.7592 147.007 78.68 147.917C78.6233 148.618 78.589 149.319 78.5773 150.022C78.5341 152.971 78.8042 156.252 76.8407 158.506C76.3158 159.099 75.6752 159.586 74.9555 159.938C74.4134 160.21 73.8406 160.42 73.2485 160.563H67.1257C66.8178 160.519 66.5099 160.472 66.202 160.425C66.1939 160.425 66.1858 160.422 66.1777 160.422L66.1155 160.443L65.7455 160.563L65.7293 160.568V160.563C65.7298 160.553 65.7289 160.542 65.7266 160.532C65.7271 160.513 65.7262 160.493 65.7239 160.474V160.472C65.7212 160.419 65.7185 160.37 65.7185 160.317L65.7104 160.179C65.7104 160.179 65.7077 160.176 65.7104 160.176C65.7077 160.098 65.7023 160.019 65.6996 159.938C65.416 153.115 66.1074 146.063 69.4349 140.055C70.5759 137.996 72.0453 136.125 73.7887 134.51C73.7988 134.499 73.8097 134.49 73.8211 134.481C77.2809 131.286 81.7536 129.197 86.4747 129.268C86.5962 129.268 86.7177 129.27 86.8393 129.275Z" fill="#F0F0F0"/>
<path d="M86.8528 129.423C81.5059 132.079 77.1594 136.299 74.4308 141.483C73.823 142.588 73.399 143.78 73.1744 145.014C72.9958 146.222 73.1548 147.455 73.6349 148.584C74.0606 149.645 74.6231 150.683 74.7749 151.826C74.8436 152.413 74.7836 153.006 74.5987 153.568C74.4138 154.131 74.1082 154.649 73.702 155.088C72.7193 156.21 71.3789 156.923 70.0431 157.576C68.56 158.301 67.0076 159.031 65.9779 160.341C65.8531 160.5 65.6058 160.303 65.7304 160.145C67.522 157.865 70.6773 157.367 72.8261 155.513C73.8288 154.648 74.5682 153.485 74.4848 152.146C74.4118 150.975 73.8328 149.904 73.3921 148.833C72.9071 147.738 72.7064 146.545 72.8075 145.358C72.9664 144.117 73.3423 142.912 73.919 141.793C75.1759 139.255 76.8373 136.923 78.8424 134.884C81.1174 132.545 83.789 130.6 86.7416 129.133C86.9244 129.042 87.0344 129.333 86.8528 129.423Z" fill="white"/>
<path d="M75.2081 139.764C74.3719 139.202 73.7689 138.372 73.5069 137.42C73.2449 136.468 73.341 135.457 73.778 134.567C73.8671 134.388 74.1597 134.513 74.0705 134.693C73.6621 135.521 73.5727 136.462 73.8185 137.348C74.0643 138.234 74.6291 139.006 75.4111 139.524C75.5809 139.637 75.377 139.876 75.2081 139.764Z" fill="white"/>
<path d="M73.3458 148.073C75.3959 147.732 77.2378 146.656 78.5043 145.058C78.6296 144.9 78.8769 145.096 78.7517 145.255C77.4306 146.915 75.5114 148.031 73.3773 148.382C73.1738 148.415 73.1435 148.107 73.3458 148.073Z" fill="white"/>
<path d="M81.2855 132.922C81.5624 133.205 81.9073 133.416 82.2894 133.538C82.6715 133.659 83.0788 133.687 83.4747 133.618C83.6776 133.582 83.7078 133.891 83.5062 133.926C83.0684 134 82.6187 133.969 82.1962 133.836C81.7737 133.703 81.3914 133.471 81.0826 133.162C81.051 133.135 81.0311 133.098 81.0269 133.057C81.0228 133.017 81.0347 132.976 81.0603 132.944C81.0874 132.912 81.1262 132.892 81.1684 132.888C81.2105 132.884 81.2526 132.896 81.2855 132.922Z" fill="white"/>
<path d="M101.751 148.194C101.627 148.22 101.502 148.246 101.375 148.275H101.373C99.6801 148.631 98.02 149.119 96.4085 149.734C96.2843 149.781 96.1601 149.828 96.0358 149.878H96.0331C92.1917 151.392 88.672 153.579 85.651 156.33C85.6402 156.341 85.6294 156.349 85.6186 156.359C85.6121 156.367 85.6048 156.374 85.597 156.38L85.5835 156.393C84.3848 157.492 83.2734 158.677 82.2587 159.938C82.2587 159.941 82.256 159.944 82.2533 159.946C82.0912 160.15 81.9265 160.354 81.7644 160.563H65.7456L65.7294 160.568V160.563H65.6619C65.6619 160.561 65.6646 160.558 65.6673 160.555C65.6673 160.553 65.67 160.553 65.67 160.55C65.6889 160.524 65.7078 160.498 65.724 160.474V160.472C65.728 160.464 65.7335 160.457 65.7402 160.451C65.7564 160.425 65.7753 160.404 65.7888 160.38C65.8968 160.234 66.0022 160.085 66.1102 159.938C66.2858 159.695 66.464 159.452 66.645 159.212L66.6452 159.211L66.6458 159.21L66.6466 159.209L66.6477 159.209V159.206C66.6504 159.204 66.6504 159.201 66.6531 159.198L66.6585 159.193C68.8867 156.207 71.3931 153.373 74.2641 150.999C74.3505 150.926 74.437 150.853 74.5288 150.785C75.8289 149.72 77.2173 148.761 78.68 147.917C79.4795 147.459 80.3032 147.039 81.1513 146.657C83.3388 145.681 85.6711 145.044 88.0628 144.769H88.0683C88.0737 144.769 88.0791 144.766 88.0871 144.766C88.0953 144.766 88.1006 144.764 88.106 144.764C92.8623 144.23 97.7373 145.169 101.467 147.977C101.564 148.05 101.656 148.121 101.751 148.194Z" fill="#F0F0F0"/>
<path d="M65.6617 160.563H65.7292V160.569L65.7454 160.563H70.0317C68.7542 160.351 67.4794 160.187 66.2019 160.425C66.1722 160.43 66.1451 160.435 66.1154 160.443C65.9858 160.467 65.8562 160.498 65.7265 160.532C65.7184 160.535 65.7076 160.537 65.6995 160.54C65.6877 160.543 65.6767 160.548 65.6671 160.555C65.6602 160.556 65.6537 160.559 65.6482 160.563H65.6617Z" fill="white"/>
<path d="M101.673 148.322C101.573 148.306 101.475 148.288 101.375 148.275H101.373C99.2889 147.946 97.1738 147.843 95.0663 147.967C94.9609 147.972 94.8529 147.98 94.7449 147.985C91.8196 148.182 88.9434 148.816 86.2182 149.865C86.2155 149.865 86.2155 149.865 86.2155 149.867C86.1858 149.878 86.1561 149.888 86.1291 149.899C85.4944 150.147 84.8678 150.419 84.2547 150.712C83.0815 151.241 82.0014 151.945 81.0542 152.798C80.2958 153.523 79.7217 154.408 79.3769 155.384C79.3418 155.483 79.3067 155.58 79.2743 155.679C79.25 155.758 79.2257 155.839 79.2014 155.917C78.8827 157.013 78.6855 158.168 78.0967 159.17C77.9327 159.449 77.7331 159.707 77.5025 159.938C77.2643 160.178 76.9957 160.388 76.7031 160.563H76.0225C76.395 160.407 76.7403 160.197 77.0461 159.938C77.2839 159.74 77.4921 159.51 77.6646 159.256C78.3344 158.278 78.5397 157.086 78.853 155.975C78.9043 155.794 78.9583 155.619 79.0177 155.444C79.3295 154.485 79.852 153.603 80.5491 152.858C81.4474 151.96 82.4967 151.217 83.6524 150.66C84.3817 150.288 85.1307 149.952 85.8995 149.65C85.9995 149.608 86.0994 149.572 86.1993 149.535C91.0539 147.706 96.3255 147.168 101.467 147.977C101.567 147.99 101.664 148.008 101.764 148.024C101.967 148.058 101.875 148.356 101.673 148.322Z" fill="white"/>
<path d="M85.9441 149.791C85.6254 148.855 85.6606 147.841 86.0435 146.928C86.4263 146.015 87.1318 145.264 88.034 144.808C88.2169 144.717 88.3725 144.988 88.1894 145.079C87.3484 145.502 86.6913 146.202 86.3366 147.053C85.9819 147.903 85.953 148.848 86.2551 149.718C86.3205 149.907 86.0091 149.979 85.9441 149.791Z" fill="white"/>
<path d="M79.2888 155.341C81.1379 156.263 83.2782 156.477 85.2829 155.939C85.4815 155.886 85.5566 156.187 85.3583 156.241C83.271 156.796 81.0442 156.569 79.1222 155.605C78.9391 155.513 79.1067 155.249 79.2888 155.341Z" fill="white"/>
<path d="M95.0513 147.87C95.0967 148.257 95.2406 148.627 95.4702 148.947C95.6997 149.267 96.0077 149.526 96.3664 149.702C96.5507 149.792 96.3829 150.056 96.1998 149.966C95.8044 149.77 95.4646 149.483 95.2102 149.131C94.9558 148.778 94.7945 148.37 94.7403 147.943C94.7317 147.904 94.7391 147.862 94.761 147.827C94.7829 147.793 94.8176 147.767 94.8581 147.756C94.8994 147.747 94.9428 147.754 94.979 147.775C95.0151 147.796 95.0411 147.831 95.0513 147.87Z" fill="white"/>
<path d="M85.8156 44.045C85.8885 35.3884 86.2522 26.6481 86.9067 17.8241C86.9175 17.6489 86.931 17.4764 86.9445 17.3012C87.2902 12.7075 87.7134 8.09727 88.2139 3.47046V3.44432C88.2135 2.6817 87.9003 1.95046 87.3432 1.41121C86.7862 0.871964 86.0308 0.568814 85.243 0.568359H5.56745C4.78231 0.569853 4.02957 0.871542 3.47313 1.40774C2.91669 1.94394 2.60161 2.67123 2.5965 3.43124C1.90507 9.8028 1.36309 16.143 0.970569 22.4518C0.954364 22.6583 0.943564 22.8623 0.932761 23.0688C0.738299 26.1879 0.583449 29.2992 0.468212 32.4026C0.460109 32.5856 0.452005 32.7686 0.449304 32.9516C-0.288082 51.9931 0.429606 71.0612 2.5965 90.0002C2.60217 90.7598 2.91752 91.4865 3.47391 92.0221C4.03031 92.5578 4.78273 92.8591 5.56745 92.8605H85.243C86.0308 92.86 86.7862 92.5568 87.3432 92.0176C87.9003 91.4783 88.2135 90.7471 88.2139 89.9845V89.9557C87.8223 86.5909 87.4784 83.2042 87.1822 79.7958C87.139 79.2964 87.0967 78.797 87.0553 78.2977C86.85 75.8426 86.6708 73.378 86.5178 70.9038C86.4854 70.4044 86.4557 69.9051 86.4287 69.4057C86.1397 64.4538 85.9506 59.4636 85.8615 54.435C85.8507 53.9357 85.8426 53.4389 85.8345 52.9369C85.8021 50.4819 85.7922 48.0173 85.8048 45.5431C85.8048 45.0437 85.8075 44.5444 85.8156 44.045Z" fill="#F0F0F0"/>
<path d="M109.821 20.1772C109.82 19.4146 109.507 18.6834 108.95 18.1441C108.393 17.6049 107.637 17.3017 106.85 17.3013H27.1742C26.389 17.3028 25.6363 17.6045 25.0798 18.1407C24.5234 18.6769 24.2083 19.4041 24.2032 20.1642C21.5131 44.9941 21.0675 69.3849 22.869 92.8605C23.0877 95.7652 23.3434 98.6551 23.636 101.53C23.7927 103.07 23.9592 104.606 24.1357 106.137C24.1573 106.336 24.1789 106.534 24.2032 106.733C24.2089 107.493 24.5242 108.219 25.0806 108.755C25.637 109.291 26.3894 109.592 27.1742 109.593H106.85C107.637 109.593 108.393 109.29 108.95 108.751C109.507 108.211 109.82 107.48 109.821 106.717V106.689C106.599 79.035 106.599 49.9382 109.821 20.2034V20.1772Z" fill="white"/>
<path d="M109.821 20.1772C109.82 19.4146 109.507 18.6834 108.95 18.1441C108.393 17.6049 107.637 17.3017 106.85 17.3013H27.1742C26.389 17.3028 25.6363 17.6045 25.0798 18.1407C24.5234 18.6769 24.2083 19.4041 24.2032 20.1642C21.5131 44.9941 21.0675 69.3849 22.869 92.8605C23.0877 95.7652 23.3434 98.6551 23.636 101.53C23.7927 103.07 23.9592 104.606 24.1357 106.137C24.1573 106.336 24.1789 106.534 24.2032 106.733C24.2089 107.493 24.5242 108.219 25.0806 108.755C25.637 109.291 26.3894 109.592 27.1742 109.593H106.85C107.637 109.593 108.393 109.29 108.95 108.751C109.507 108.211 109.82 107.48 109.821 106.717V106.689C106.599 79.035 106.599 49.9382 109.821 20.2034V20.1772ZM109.28 106.733C109.276 107.354 109.018 107.948 108.562 108.386C108.107 108.824 107.491 109.07 106.85 109.07H27.1742C26.5298 109.07 25.9121 108.821 25.4564 108.38C25.0008 107.939 24.7443 107.341 24.7434 106.717V106.689C24.7245 106.521 24.7056 106.351 24.6867 106.184C24.5003 104.584 24.3265 102.98 24.1654 101.371C23.8818 98.5497 23.6306 95.7129 23.4119 92.8605C21.6104 69.3979 22.0533 45.0229 24.7434 20.2034V20.1772C24.7443 19.5534 25.0008 18.9555 25.4564 18.5144C25.9121 18.0733 26.5298 17.8251 27.1742 17.8242H106.85C107.492 17.8244 108.108 18.0706 108.564 18.509C109.019 18.9474 109.277 19.5424 109.28 20.1642C106.058 49.9225 106.058 79.0507 109.28 106.733Z" fill="#E4E4E4"/>
<path d="M32.6664 44.0452C32.4614 44.0457 32.2651 44.1249 32.1203 44.2654C31.9756 44.4058 31.8943 44.5962 31.8943 44.7946C31.8943 44.993 31.9756 45.1833 32.1203 45.3238C32.2651 45.4643 32.4614 45.5435 32.6664 45.544H97.4146C97.6195 45.5435 97.8159 45.4643 97.9607 45.3238C98.1054 45.1833 98.1867 44.993 98.1867 44.7946C98.1867 44.5962 98.1054 44.4058 97.9607 44.2654C97.8159 44.1249 97.6195 44.0457 97.4146 44.0452H32.6664Z" fill="#E6E6E6"/>
<path d="M32.6663 48.542C32.4612 48.5424 32.2647 48.6215 32.1198 48.762C31.9749 48.9025 31.8936 49.0929 31.8936 49.2914C31.8936 49.4899 31.9749 49.6803 32.1198 49.8208C32.2647 49.9613 32.4612 50.0404 32.6663 50.0408H76.6214C76.8265 50.0404 77.023 49.9613 77.1679 49.8208C77.3128 49.6803 77.3942 49.4899 77.3942 49.2914C77.3942 49.0929 77.3128 48.9025 77.1679 48.762C77.023 48.6215 76.8265 48.5424 76.6214 48.542H32.6663Z" fill="#E6E6E6"/>
<path d="M32.6663 52.9373C32.4612 52.9376 32.2647 53.0167 32.1198 53.1572C31.9749 53.2977 31.8936 53.4881 31.8936 53.6867C31.8936 53.8852 31.9749 54.0756 32.1198 54.2161C32.2647 54.3566 32.4612 54.4357 32.6663 54.4361H97.4144C97.6195 54.4357 97.8161 54.3566 97.9609 54.2161C98.1058 54.0756 98.1872 53.8852 98.1872 53.6867C98.1872 53.4881 98.1058 53.2977 97.9609 53.1572C97.8161 53.0167 97.6195 52.9376 97.4144 52.9373H32.6663Z" fill="#E6E6E6"/>
<path d="M32.6664 57.4341C32.4614 57.4346 32.2651 57.5138 32.1203 57.6543C31.9756 57.7948 31.8943 57.9851 31.8943 58.1835C31.8943 58.3819 31.9756 58.5722 32.1203 58.7127C32.2651 58.8532 32.4614 58.9324 32.6664 58.9329H76.6215C76.8265 58.9324 77.0229 58.8532 77.1676 58.7127C77.3124 58.5722 77.3937 58.3819 77.3937 58.1835C77.3937 57.9851 77.3124 57.7948 77.1676 57.6543C77.0229 57.5138 76.8265 57.4346 76.6215 57.4341H32.6664Z" fill="#E6E6E6"/>
<path d="M32.6664 69.406C32.4614 69.4065 32.2651 69.4857 32.1203 69.6262C31.9756 69.7667 31.8943 69.957 31.8943 70.1554C31.8943 70.3538 31.9756 70.5441 32.1203 70.6846C32.2651 70.8251 32.4614 70.9043 32.6664 70.9048H97.4146C97.6195 70.9043 97.8159 70.8251 97.9607 70.6846C98.1054 70.5441 98.1867 70.3538 98.1867 70.1554C98.1867 69.957 98.1054 69.7667 97.9607 69.6262C97.8159 69.4857 97.6195 69.4065 97.4146 69.406H32.6664Z" fill="#E6E6E6"/>
<path d="M32.6663 73.9028C32.4612 73.9032 32.2647 73.9823 32.1198 74.1228C31.9749 74.2633 31.8936 74.4537 31.8936 74.6522C31.8936 74.8508 31.9749 75.0412 32.1198 75.1817C32.2647 75.3222 32.4612 75.4013 32.6663 75.4016H76.6214C76.8265 75.4013 77.023 75.3222 77.1679 75.1817C77.3128 75.0412 77.3942 74.8508 77.3942 74.6522C77.3942 74.4537 77.3128 74.2633 77.1679 74.1228C77.023 73.9823 76.8265 73.9032 76.6214 73.9028H32.6663Z" fill="#E6E6E6"/>
<path d="M32.6663 78.2979C32.4612 78.2982 32.2647 78.3773 32.1198 78.5178C31.9749 78.6583 31.8936 78.8487 31.8936 79.0473C31.8936 79.2458 31.9749 79.4362 32.1198 79.5767C32.2647 79.7172 32.4612 79.7963 32.6663 79.7967H97.4144C97.6195 79.7963 97.8161 79.7172 97.9609 79.5767C98.1058 79.4362 98.1872 79.2458 98.1872 79.0473C98.1872 78.8487 98.1058 78.6583 97.9609 78.5178C97.8161 78.3773 97.6195 78.2982 97.4144 78.2979H32.6663Z" fill="#E6E6E6"/>
<path d="M32.6664 82.7949C32.4614 82.7954 32.2651 82.8746 32.1203 83.0151C31.9756 83.1556 31.8943 83.3459 31.8943 83.5443C31.8943 83.7427 31.9756 83.9331 32.1203 84.0735C32.2651 84.214 32.4614 84.2932 32.6664 84.2937H76.6215C76.8265 84.2932 77.0229 84.214 77.1676 84.0735C77.3124 83.9331 77.3937 83.7427 77.3937 83.5443C77.3937 83.3459 77.3124 83.1556 77.1676 83.0151C77.0229 82.8746 76.8265 82.7954 76.6215 82.7949H32.6664Z" fill="#E6E6E6"/>
<path d="M45.4775 34.74H33.1107C32.9506 34.7399 32.797 34.6782 32.6838 34.5686C32.5705 34.4589 32.5068 34.3103 32.5066 34.1552V32.2372C32.5068 32.0821 32.5705 31.9335 32.6838 31.8238C32.797 31.7142 32.9506 31.6525 33.1107 31.6523H45.4775C45.6376 31.6525 45.7912 31.7142 45.9045 31.8238C46.0177 31.9335 46.0814 32.0821 46.0816 32.2372V34.1552C46.0814 34.3103 46.0177 34.4589 45.9045 34.5686C45.7912 34.6782 45.6376 34.7399 45.4775 34.74Z" fill="#6C63FF"/>
<path d="M88.4397 96.4363L84.6517 97.6481C84.0204 97.8501 83.389 98.052 82.7577 98.254C82.173 98.4404 81.5402 98.662 80.9143 98.5819C80.4817 98.5265 79.9886 98.2855 79.8538 97.8546C79.7263 97.447 79.9966 97.0205 80.3241 96.7793C81.228 96.1136 82.371 96.7912 83.0115 97.4806C83.795 98.3238 84.2383 99.4123 84.9731 100.295C85.6272 101.086 86.4565 101.726 87.3997 102.166C89.2744 103.023 91.5611 102.932 93.2333 101.683C95.23 100.192 95.4336 97.6078 95.4443 95.3532C95.4406 95.2515 95.3964 95.1552 95.3208 95.0845C95.2452 95.0139 95.1442 94.9744 95.0391 94.9744C94.9341 94.9744 94.8331 95.0139 94.7575 95.0845C94.6819 95.1552 94.6377 95.2515 94.634 95.3532C94.6244 97.3965 94.5043 99.9013 92.5797 101.18C90.7361 102.405 88.3131 102.08 86.6158 100.775C85.67 100.048 85.0881 99.0993 84.4671 98.1174C83.8609 97.159 83.1082 96.2298 81.9674 95.857C81.4781 95.6849 80.9425 95.6816 80.4511 95.8477C79.9596 96.0138 79.5425 96.3391 79.2703 96.7686C79.1459 96.9712 79.0675 97.1972 79.0404 97.4315C79.0133 97.6657 79.0381 97.9029 79.1131 98.1271C79.1881 98.3514 79.3115 98.5576 79.4753 98.7321C79.6391 98.9066 79.8393 99.0452 80.0628 99.1389C81.3856 99.7491 82.8989 99.0341 84.1726 98.6266L88.6551 97.1926C89.1479 97.035 88.9368 96.2773 88.4397 96.4363Z" fill="#6C63FF"/>
<path d="M77.2145 154.086L74.5583 154.933L69.9187 145.419L73.839 144.169L77.2145 154.086Z" fill="#9F616A"/>
<path d="M79.1096 156.247L78.9287 155.716L78.4533 154.317L78.1292 153.365L77.2434 153.648L77.0597 153.635L74.6262 153.475L74.3021 153.454L73.8214 153.423L73.3244 153.389L71.9361 155.342H71.9334C71.4145 155.506 70.9343 155.767 70.5208 156.112C70.1072 156.457 69.7685 156.878 69.5243 157.35C69.4946 157.408 69.4676 157.465 69.4405 157.523C69.3736 157.663 69.3167 157.808 69.2704 157.957C69.0602 158.597 69.0212 159.279 69.157 159.938C69.1919 160.102 69.236 160.263 69.2893 160.422L69.2974 160.448L69.3298 160.545L69.5243 160.482L71.2312 159.938L77.2109 158.032L78.3966 157.653L78.7612 157.536H78.7639L79.4715 157.311L79.1096 156.247Z" fill="#2F2E41"/>
<path d="M52.0373 156.323L49.2408 156.323L47.9104 145.881L52.0379 145.881L52.0373 156.323Z" fill="#9F616A"/>
<path d="M47.5618 110.548L46.3221 112.624C46.3221 112.624 44.9599 112.985 45.4051 117.283C45.7194 120.318 45.8214 133.909 46.6129 142.738C46.9423 146.412 47.3911 149.262 48.0244 150.183L48.4143 150.521L52.4837 150.897L52.5863 150.863L54.0806 140.646C54.3488 138.812 54.3087 136.948 53.9617 135.127L53.6916 132.251L57.4385 117.689C57.4385 117.689 61.254 127.022 63.6848 135.911C64.2699 138.051 66.4926 139.412 67.3352 141.248C67.6176 141.863 67.895 142.459 68.1656 143.031C69.9479 146.798 70.8413 149.54 71.5173 149.768H72.0575L75.2985 148.722L75.9361 147.17L70.9771 133.035L67.2637 110.212C60.1881 106.529 53.551 106.119 47.5618 110.548Z" fill="#2F2E41"/>
<path d="M67.8305 79.796C67.5861 79.2751 67.2989 78.7742 66.9716 78.2979C66.2232 77.169 65.1833 76.2488 63.9547 75.6285L62.8906 75.401L60.9838 74.9931L59.9791 73.9029L58.3315 72.1172H52.6597L51.9008 73.9029L51.2634 75.401L50.9906 76.0389L46.1344 78.3894C46.1317 78.3894 46.1317 78.3894 46.129 78.392C46.1938 78.8626 46.2577 79.3306 46.3208 79.796C46.4585 80.8078 46.5881 81.8074 46.7097 82.7948C46.7718 83.2968 46.8312 83.7962 46.8879 84.293C47.0689 85.8512 47.2246 87.3824 47.3552 88.8866C47.4713 90.2305 47.5641 91.5552 47.6334 92.8607C47.8023 95.8256 47.8149 98.7969 47.6712 101.763C47.6334 102.461 48.3491 103.256 48.2924 103.938C48.1979 105.052 47.3093 106.04 47.1526 107.105C47.0554 107.758 47.0986 108.454 46.9285 109.071C46.8812 109.251 46.8104 109.425 46.7178 109.588C46.7178 109.591 46.7151 109.591 46.7151 109.594C44.7705 112.956 46.2965 111.351 46.1155 112.106L46.2019 112.127C46.2424 112.137 46.3667 112.169 46.5665 112.213C47.709 112.477 52.4193 108.197 55.582 108.197C57.4807 108.197 62.5071 111.22 64.1897 111.439C65.5212 111.612 66.7096 111.769 67.4172 111.165C67.6226 110.989 67.7794 110.766 67.8737 110.516L67.8818 110.493L67.8791 110.469L67.8116 109.594L67.771 109.071L67.1931 101.567C66.8703 101.18 66.6663 100.712 66.6042 100.218C66.5421 99.7241 66.6245 99.2231 66.8419 98.7721L66.9608 98.5289L66.5232 92.8607L66.4422 91.8018L66.4125 91.4436V91.441L66.2018 88.7036L66.7096 87.2081V87.2055L67.6981 84.293L68.2059 82.7948L68.5246 81.8536L68.5462 81.7909C68.3761 81.1047 68.1364 80.4365 67.8305 79.796Z" fill="#6C63FF"/>
<path d="M72.7582 106.832L67.3133 93.2102L64.7844 88.2361L69.6473 85.6355L73.5638 92.3154L76.1892 106.272C76.6025 106.545 76.9219 106.932 77.1066 107.382C77.2912 107.832 77.3326 108.325 77.2254 108.798C77.1181 109.272 76.8672 109.703 76.5049 110.037C76.1425 110.371 75.6853 110.592 75.1919 110.673C74.6985 110.754 74.1914 110.69 73.7359 110.489C73.2804 110.289 72.8973 109.961 72.6356 109.548C72.374 109.135 72.2459 108.656 72.2677 108.172C72.2896 107.688 72.4604 107.221 72.7582 106.832Z" fill="#9F616A"/>
<path d="M72.8676 88.0657L71.474 87.1925L69.8723 84.293L69.0459 82.7949L68.5246 81.8536L68.3031 81.451L65.7995 79.796L64.1087 78.677L62.7313 79.796L62.075 80.3294L62.7178 82.7949L63.1067 84.293L63.9548 87.5428L66.4423 91.8018L67.0608 92.8607L67.4146 93.4699L67.4173 93.4751L67.4659 93.5562L73.7508 93.3026L73.948 93.2947L73.9588 92.8607L73.9642 92.7038C73.9669 92.6254 73.9669 92.547 73.9669 92.4685C73.966 90.9373 73.5893 89.4283 72.8676 88.0657Z" fill="#6C63FF"/>
<path d="M25.2987 101.415L36.4373 91.5621L40.3085 87.4766L44.5759 90.9201L39.566 96.8761L27.0826 104.307C26.9696 104.779 26.7134 105.207 26.347 105.537C25.9806 105.867 25.5206 106.083 25.0263 106.158C24.5319 106.233 24.0257 106.163 23.5727 105.957C23.1197 105.752 22.7406 105.419 22.484 105.004C22.2275 104.588 22.1052 104.107 22.133 103.623C22.1608 103.14 22.3373 102.675 22.6399 102.29C22.9425 101.904 23.3573 101.614 23.8311 101.459C24.3049 101.303 24.816 101.288 25.2987 101.415Z" fill="#9F616A"/>
<path d="M48.2925 84.2927L48.2709 82.7946L48.2304 79.7958L48.2142 78.6323L48.1683 78.6009C47.9167 78.4412 47.6317 78.3376 47.3337 78.2976C47.0717 78.2556 46.8043 78.2556 46.5423 78.2976C46.4043 78.3184 46.2679 78.3489 46.1345 78.3891C46.1318 78.3891 46.1318 78.3891 46.1291 78.3918C45.3285 78.67 44.6216 79.1545 44.0845 79.7931L44.0818 79.7958C43.2719 80.7284 42.554 81.7324 41.9374 82.7946C41.6322 83.2966 41.3405 83.8038 41.0677 84.2927C40.036 86.1516 39.2932 87.7622 39.2797 87.7909L36.1953 91.6682L36.2385 91.7388L36.9165 92.8604L39.4013 96.9731L39.7956 97.6267L40.803 97.1064C41.9773 96.4999 42.9033 95.5243 43.4283 94.3403L43.7875 93.0121L43.9198 92.8604L47.3553 88.8864L48.3384 87.7465L48.2925 84.2927Z" fill="#6C63FF"/>
<path d="M60.0643 67.0005C60.5243 64.2567 58.5994 61.6714 55.765 61.2262C52.9305 60.7809 50.2599 62.6443 49.7999 65.3881C49.3399 68.1319 51.2648 70.7172 54.0993 71.1624C56.9337 71.6077 59.6044 69.7443 60.0643 67.0005Z" fill="#9F616A"/>
<path d="M49.906 62.895C49.6749 62.112 49.2128 61.4409 49.4438 61.4409C49.6749 61.4409 49.7905 60.8817 49.7905 60.8817C49.7905 60.8817 50.0215 60.7699 50.1371 60.8817C50.2526 60.9935 50.3682 60.0988 50.3682 60.0988C50.3682 60.0988 50.4837 59.7632 50.5992 59.9869C50.7148 60.2106 50.7148 60.0988 50.8303 59.7632C50.9459 59.4277 51.5236 59.204 51.5236 59.204C51.5236 59.204 53.7189 59.3158 54.0655 58.8684C54.4121 58.4211 58.3405 58.7566 59.1493 59.3158C59.9581 59.8751 63.1446 60.8749 61.254 64.0123C62.3344 65.8424 60.7215 69.1066 60.3048 69.4939C59.6458 70.1064 59.1895 70.3272 56.0713 70.9278C55.4611 71.0453 53.9617 66.1039 53.9617 66.1039C53.9617 66.1039 50.1371 63.6779 49.906 62.895Z" fill="#2F2E41"/>
<path d="M52.2059 155.915L52.0385 155.849L49.0297 154.662L48.5679 154.482L46.6178 155.915H46.6151C45.5134 155.916 44.4571 156.34 43.6783 157.095C42.8995 157.849 42.4618 158.872 42.4612 159.938V160.069H53.1377V155.915H52.2059Z" fill="#2F2E41"/>
<path d="M83.5874 160.25C83.5876 160.291 83.5794 160.331 83.5634 160.369C83.5473 160.407 83.5237 160.442 83.4938 160.471C83.464 160.5 83.4285 160.523 83.3894 160.539C83.3503 160.555 83.3084 160.563 83.266 160.563H28.3574C28.2718 160.563 28.1897 160.53 28.1292 160.472C28.0687 160.413 28.0347 160.334 28.0347 160.251C28.0347 160.168 28.0687 160.089 28.1292 160.03C28.1897 159.971 28.2718 159.938 28.3574 159.938H83.266C83.3512 159.939 83.4328 159.972 83.4931 160.03C83.5533 160.088 83.5872 160.167 83.5874 160.25Z" fill="#CCCCCC"/>
<path d="M26.8988 0.568359C26.4739 7.88035 23.6973 14.8806 18.9578 20.589C14.2184 26.2974 7.75342 30.4281 0.468127 32.4026C0.460024 32.5856 0.45192 32.7686 0.449219 32.9516C7.88543 30.9714 14.4913 26.7801 19.334 20.9695C24.1768 15.159 27.0119 8.02276 27.439 0.568359H26.8988Z" fill="white"/>
<path d="M18.6265 0.568359C17.3713 5.18472 15.1588 9.50551 12.1235 13.2677C9.08815 17.0298 5.29363 20.1546 0.970913 22.4518C0.954708 22.6583 0.943909 22.8623 0.933105 23.0688C5.41304 20.7384 9.34697 17.5367 12.488 13.6647C15.629 9.79271 17.9092 5.33396 19.1856 0.568359H18.6265Z" fill="white"/>
</g>
<defs>
<clipPath id="clip0_862_2108">
<rect width="109.641" height="160" fill="white" transform="translate(0.179199 0.568359)"/>
</clipPath>
</defs>
</svg>
